<svg id="Layer_49" enable-background="new 0 0 512 512" viewBox="0 0 512 512" xmlns="http://www.w3.org/2000/svg" xmlns:xlink="http://www.w3.org/1999/xlink"><linearGradient id="lg1"><stop offset="0" stop-color="#ffeee6"/><stop offset="1" stop-color="#ffdfcf"/></linearGradient><linearGradient id="SVGID_1_" gradientTransform="matrix(1 0 0 -1 0 514)" gradientUnits="userSpaceOnUse" x1="125.058" x2="358.651" xlink:href="#lg1" y1="315.643" y2="201.766"/><linearGradient id="lg2"><stop offset="0" stop-color="#ffa78f" stop-opacity="0"/><stop offset=".124" stop-color="#fea68e" stop-opacity=".017"/><stop offset=".2509" stop-color="#fea58e" stop-opacity=".066"/><stop offset=".3792" stop-color="#fda48c" stop-opacity=".149"/><stop offset=".5084" stop-color="#fda28b" stop-opacity=".265"/><stop offset=".6384" stop-color="#fc9f88" stop-opacity=".414"/><stop offset=".7691" stop-color="#fa9c86" stop-opacity=".597"/><stop offset=".8979" stop-color="#f99882" stop-opacity=".809"/><stop offset="1" stop-color="#f89580"/></linearGradient><linearGradient id="SVGID_00000099639033883895460220000005277074196193967788_" gradientTransform="matrix(1 0 0 -1 0 514)" gradientUnits="userSpaceOnUse" x1="280.278" x2="370.099" xlink:href="#lg2" y1="308.134" y2="368.015"/><linearGradient id="SVGID_00000099654768347616284570000013643152769336946860_" gradientTransform="matrix(1 0 0 -1 0 514)" gradientUnits="userSpaceOnUse" x1="156.905" x2="184.707" xlink:href="#lg2" y1="141.132" y2="64.142"/><linearGradient id="SVGID_00000022546562143649137410000009406701438423900037_" gradientTransform="matrix(1 0 0 -1 0 514)" gradientUnits="userSpaceOnUse" x1="185.417" x2="200.747" xlink:href="#lg2" y1="362.972" y2="316.253"/><linearGradient id="SVGID_00000168090182134775977520000010290625638298722707_" gradientTransform="matrix(1 0 0 -1 0 514)" gradientUnits="userSpaceOnUse" x1="220.698" x2="334.757" xlink:href="#lg1" y1="152.325" y2="46.82"/><linearGradient id="SVGID_00000029040815246651616770000007710507309701746347_" gradientTransform="matrix(1 0 0 -1 0 514)" gradientUnits="userSpaceOnUse" x1="239.386" x2="239.386" xlink:href="#lg2" y1="37.297" y2="3.05"/><linearGradient id="SVGID_00000169522094292572189810000016071079397110502558_" gradientTransform="matrix(1 0 0 -1 0 514)" gradientUnits="userSpaceOnUse" x1="344.162" x2="410.501" xlink:href="#lg2" y1="146.835" y2="146.835"/><linearGradient id="lg3"><stop offset="0" stop-color="#fff" stop-opacity="0"/><stop offset=".1125" stop-color="#fff" stop-opacity=".018"/><stop offset=".2366" stop-color="#fff" stop-opacity=".07"/><stop offset=".3662" stop-color="#fff" stop-opacity=".156"/><stop offset=".4996" stop-color="#fff" stop-opacity=".277"/><stop offset=".6361" stop-color="#fff" stop-opacity=".433"/><stop offset=".775" stop-color="#fff" stop-opacity=".624"/><stop offset=".9132" stop-color="#fff" stop-opacity=".846"/><stop offset="1" stop-color="#fff"/></linearGradient><linearGradient id="SVGID_00000065053223216487716870000008282269682143672722_" gradientTransform="matrix(1 0 0 -1 0 514)" gradientUnits="userSpaceOnUse" x1="344.143" x2="394.044" xlink:href="#lg3" y1="108.119" y2="66.773"/><linearGradient id="SVGID_00000150781980589407170230000012577354403618038427_" gradientTransform="matrix(1 0 0 -1 0 514)" gradientUnits="userSpaceOnUse" x1="326.641" x2="298.902" xlink:href="#lg2" y1="214.982" y2="270.46"/><linearGradient id="SVGID_00000003800661865000984160000008724859431526997412_" gradientTransform="matrix(1 0 0 -1 0 514)" gradientUnits="userSpaceOnUse" x1="250.063" x2="389.993" xlink:href="#lg1" y1="411.322" y2="411.322"/><linearGradient id="SVGID_00000014619105300481946550000005449131123868640181_" gradientTransform="matrix(1 0 0 -1 0 514)" gradientUnits="userSpaceOnUse" x1="292.608" x2="221.321" xlink:href="#lg2" y1="417.971" y2="467.159"/><linearGradient id="SVGID_00000047019145604793637080000011611716760957687168_" gradientTransform="matrix(1 0 0 -1 0 514)" gradientUnits="userSpaceOnUse" x1="320.23" x2="320.942" xlink:href="#lg2" y1="440.16" y2="499.328"/><linearGradient id="SVGID_00000126308499791153355170000006827019528086657970_" gradientTransform="matrix(1 0 0 -1 0 514)" gradientUnits="userSpaceOnUse" x1="319.301" x2="319.301" xlink:href="#lg3" y1="367" y2="329.028"/><g><path d="m354.8 222.3c14.1-20.9 22.3-46.1 22.3-73.1v-18.2c0-72.2-58.8-131-131-131s-131 58.8-131 131v18.2c0 27.1 8.2 52.2 22.3 73.1-28.7 28.2-46.6 67.4-46.6 110.7v23.7c0 85.6 69.6 155.2 155.2 155.2s155.2-69.6 155.2-155.2v-23.7c.1-43.3-17.7-82.5-46.4-110.7zm-137.3-73.1v-18.2c0-15.8 12.8-28.6 28.6-28.6s28.6 12.8 28.6 28.6v18.2c0 15.8-12.8 28.6-28.6 28.6s-28.6-12.8-28.6-28.6zm81.4 207.6c0 29.1-23.7 52.8-52.8 52.8s-52.8-23.7-52.8-52.8v-23.8c0-29.1 23.7-52.8 52.8-52.8s52.8 23.7 52.8 52.8z" fill="url(#SVGID_1_)"/><path d="m274.7 131.6v17.6c0 15.8-12.8 28.6-28.6 28.6l-47.3 131.7c8.7-17.4 26.6-29.3 47.3-29.3h.3c45-.1 84.8-23.1 108.3-57.9 14.1-20.9 22.4-46.1 22.4-73.1v-17.6z" fill="url(#SVGID_00000099639033883895460220000005277074196193967788_)"/><path d="m240.1 409.2c-26.3-3-46.8-25.4-46.8-52.5v-23.7c0-8.4 2-16.4 5.5-23.5h-106.1c-1.2 7.7-1.8 15.5-1.8 23.5v23.7c0 83.6 66.4 151.9 149.2 155.1z" fill="url(#SVGID_00000099654768347616284570000013643152769336946860_)"/><path d="m217.5 149.2v-18.2c0-15.8 12.8-28.6 28.6-28.6h-127.9c-2.1 9.2-3.1 18.8-3.1 28.6v18.2c0 27 8.2 52.2 22.3 73.1 28-27.5 66.4-44.5 108.7-44.5-15.8 0-28.6-12.8-28.6-28.6z" fill="url(#SVGID_00000022546562143649137410000009406701438423900037_)"/><path d="m401.3 333.1v23.7c0 8.6-.7 17.1-2.1 25.4-11.3 69-68.2 122.7-138.7 129.2-.7.1-1.4.1-2.1.2-2 .2-4 .3-6 .4-1.3 0-2.7.1-4 .1-.5 0-1 0-1.6 0h-145c-5.3 0-9.3-4.9-8.2-10.1 4.4-20.2 14.1-38.5 27.4-53.3 21.5-23.9 52.7-39 87.4-39h37.7 1.6c19.6-.6 36.4-12.1 45-28.5 4-7.5 6.2-16.1 6.2-25.2v-22.8c0-29-23.4-52.6-52.4-52.8 45-.1 84.8-23.1 108.2-57.9.2.2.5.4.7.7 28.4 27.9 45.9 66.9 45.9 109.9z" fill="url(#SVGID_00000168090182134775977520000010290625638298722707_)"/><path d="m385.4 425.4c-23.3 47.2-69.9 80.9-124.8 86-.7.1-1.4.1-2.1.2-2 .2-4 .3-6 .4-1.3 0-2.7.1-4 .1-.5 0-1 0-1.6 0h-145.1c-5.3 0-9.3-4.9-8.2-10.1 4.4-20.2 14.1-38.5 27.4-53.3 8.2-9.2 17.9-17 28.6-23.2h235.8z" fill="url(#SVGID_00000029040815246651616770000007710507309701746347_)"/><path d="m354.8 222.3c-23.5 34.8-63.2 57.8-108.2 57.9 29 .2 52.4 23.8 52.4 52.8v22.8c0 9.1-2.2 17.6-6.2 25.2-8.6 16.4-25.4 27.9-45 28.5-.5 0-1.1 0-1.6 0h-6v102.5h6.9 1.6c1.3 0 2.7-.1 4-.1 2-.1 4-.2 6-.4.7-.1 1.4-.1 2.1-.2 70.5-6.5 127.4-60.2 138.7-129.2 1.3-8.2 2.1-16.7 2.1-25.4v-23.7c0-43-17.6-81.9-45.9-110.1-.5-.1-.7-.3-.9-.6z" fill="url(#SVGID_00000169522094292572189810000016071079397110502558_)"/><path d="m354.8 222.3c-23.5 34.8-63.2 57.8-108.2 57.9 29 .2 52.4 23.8 52.4 52.8v22.8c0 9.1-2.2 17.6-6.2 25.2-8.6 16.4-25.4 27.9-45 28.5-.5 0-1.1 0-1.6 0h-6v102.5h6.9 1.6c1.3 0 2.7-.1 4-.1 2-.1 4-.2 6-.4.7-.1 1.4-.1 2.1-.2 70.5-6.5 127.4-60.2 138.7-129.2 1.3-8.2 2.1-16.7 2.1-25.4v-23.7c0-43-17.6-81.9-45.9-110.1-.5-.1-.7-.3-.9-.6z" fill="url(#SVGID_00000065053223216487716870000008282269682143672722_)"/><path d="m401.3 333v23.7c0 8.7-.7 17.2-2.1 25.5h-106.9c4.2-7.6 6.6-16.3 6.6-25.5v-23.7c0-29.1-23.7-52.8-52.8-52.8 45.2 0 85.1-23 108.7-57.9 28.7 28.2 46.5 67.4 46.5 110.7z" fill="url(#SVGID_00000150781980589407170230000012577354403618038427_)"/><path d="m418.9 166.8c-22.2-19-38.8-43.9-46.9-72-3.8-13.3-9.7-25.7-17.3-36.9-27.3-40.4-87.5-40.4-114.8 0-14.1 20.9-22.4 46.1-22.4 73.2 0-16.1 13.3-29.1 29.5-28.6 15.6.5 27.7 13.6 27.7 29.2 0 25.5 20.7 46.2 46.2 46.2h93.9c5.9-.1 8.5-7.3 4.1-11.1z" fill="url(#SVGID_00000003800661865000984160000008724859431526997412_)"/><path d="m418.9 166.8c-22.2-19-38.8-43.9-46.9-72-3.8-13.3-9.7-25.7-17.3-36.9-27.3-40.4-87.5-40.4-114.8 0-14.1 20.9-22.4 46.1-22.4 73.2 0-16.1 13.3-29.1 29.5-28.6 15.6.5 27.7 13.6 27.7 29.2 0 25.5 20.7 46.2 46.2 46.2h93.9c5.9-.1 8.5-7.3 4.1-11.1z" fill="url(#SVGID_00000014619105300481946550000005449131123868640181_)"/><path d="m418.9 166.8c-22.2-19-38.8-43.9-46.9-72-3.8-13.3-9.7-25.7-17.3-36.9-27.3-40.4-87.5-40.4-114.8 0-14.1 20.9-22.4 46.1-22.4 73.2 0-16.1 13.3-29.1 29.5-28.6 15.6.5 27.7 13.6 27.7 29.2 0 25.5 20.7 46.2 46.2 46.2h93.9c5.9-.1 8.5-7.3 4.1-11.1z" fill="url(#SVGID_00000047019145604793637080000011611716760957687168_)"/><path d="m418.9 166.8c-22.2-19-38.8-43.9-46.9-72-3.8-13.3-9.7-25.7-17.3-36.9-27.3-40.4-87.5-40.4-114.8 0-14.1 20.9-22.4 46.1-22.4 73.2 0-16.1 13.3-29.1 29.5-28.6 15.6.5 27.7 13.6 27.7 29.2 0 25.5 20.7 46.2 46.2 46.2h93.9c5.9-.1 8.5-7.3 4.1-11.1z" fill="url(#SVGID_00000126308499791153355170000006827019528086657970_)"/></g></svg>