<svg id="Layer_46" enable-background="new 0 0 512 512" viewBox="0 0 512 512" xmlns="http://www.w3.org/2000/svg" xmlns:xlink="http://www.w3.org/1999/xlink"><linearGradient id="lg1"><stop offset="0" stop-color="#ffeee6"/><stop offset="1" stop-color="#fe99a0"/></linearGradient><linearGradient id="SVGID_1_" gradientTransform="matrix(1 0 0 -1 0 514)" gradientUnits="userSpaceOnUse" x1="89.845" x2="412.86" xlink:href="#lg1" y1="391.995" y2="140.152"/><linearGradient id="lg2"><stop offset="0" stop-color="#fe99a0" stop-opacity="0"/><stop offset=".1182" stop-color="#fd989f" stop-opacity=".017"/><stop offset=".2433" stop-color="#fd979e" stop-opacity=".067"/><stop offset=".3716" stop-color="#fd959c" stop-opacity=".151"/><stop offset=".5022" stop-color="#fd9299" stop-opacity=".268"/><stop offset=".6345" stop-color="#fd8e95" stop-opacity=".419"/><stop offset=".7683" stop-color="#fd8990" stop-opacity=".604"/><stop offset=".9007" stop-color="#fd848b" stop-opacity=".819"/><stop offset="1" stop-color="#fd8087"/></linearGradient><linearGradient id="SVGID_00000181794252393655442300000018017578771347996603_" gradientTransform="matrix(1 0 0 -1 0 514)" gradientUnits="userSpaceOnUse" x1="155.779" x2="175.027" xlink:href="#lg2" y1="134.105" y2="83.848"/><linearGradient id="SVGID_00000117676864561408516130000009563174435274058635_" gradientTransform="matrix(1 0 0 -1 0 514)" gradientUnits="userSpaceOnUse" x1="181.977" x2="219.403" xlink:href="#lg2" y1="85.225" y2="99.126"/><linearGradient id="SVGID_00000025440937511038932380000015107277631235669888_" gradientTransform="matrix(1 0 0 -1 0 514)" gradientUnits="userSpaceOnUse" x1="234.511" x2="269.798" xlink:href="#lg1" y1="109.591" y2="17.631"/><linearGradient id="SVGID_00000028318523112429591320000006329037453059244678_" gradientTransform="matrix(1 0 0 -1 0 514)" gradientUnits="userSpaceOnUse" x1="281.768" x2="329.887" xlink:href="#lg2" y1="86.029" y2="114.901"/><linearGradient id="SVGID_00000142154616804399506770000017069012014854931335_" gradientTransform="matrix(1 0 0 -1 0 514)" gradientUnits="userSpaceOnUse" x1="233.537" x2="233.537" xlink:href="#lg2" y1="39.793" y2="3.186"/><linearGradient id="SVGID_00000104687564743103748760000014271180984647831229_" gradientTransform="matrix(1 0 0 -1 0 514)" gradientUnits="userSpaceOnUse" x1="119.741" x2="451.567" xlink:href="#lg1" y1="358.208" y2="99.497"/><linearGradient id="SVGID_00000121242755169835815600000011822654603923192250_" gradientTransform="matrix(1 0 0 -1 0 514)" gradientUnits="userSpaceOnUse" x1="354.577" x2="401.627" xlink:href="#lg2" y1="188.637" y2="199.33"/><linearGradient id="SVGID_00000168100217780266549800000015470181512112466331_" gradientTransform="matrix(1 0 0 -1 0 514)" gradientUnits="userSpaceOnUse" x1="129.052" x2="107.64" xlink:href="#lg2" y1="405.024" y2="352.952"/><linearGradient id="SVGID_00000155846262349396710740000008047905079231360919_" gradientTransform="matrix(1 0 0 -1 0 514)" gradientUnits="userSpaceOnUse" x1="316.589" x2="348.782" xlink:href="#lg2" y1="462.8" y2="462.8"/><g><path d="m240.1 512c-82.1.2-149.7-63.7-155.3-144.4-.4-5.9 4.2-10.8 10.1-10.8h82.6c5 0 9.2 3.6 10 8.5 4.1 25.4 26.5 44.8 53.2 44.3 28.9-.5 51.8-24.8 51.8-53.7v-22.9c0-29.2-23.6-52.8-52.8-52.8h-79.1c-42 0-76.1-34.1-76.1-76.1v-194c-.1-5.6 4.5-10.1 10-10.1h239c5.6 0 10.1 4.5 10.1 10.1v82.2c0 5.6-4.5 10.1-10.1 10.1h-146.7v75.4h52.8c85.7 0 155.2 69.5 155.2 155.2v22.2c.1 85.9-68.9 156.6-154.7 156.8z" fill="url(#SVGID_1_)"/><path d="m240.6 409.6v102.4c-.2 0-.4 0-.6 0-82.1.2-149.7-63.7-155.3-144.4-.4-5.9 4.2-10.8 10.1-10.8h82.6c5 0 9.2 3.6 10 8.5 4.2 25.4 26.6 44.8 53.2 44.3z" fill="url(#SVGID_00000181794252393655442300000018017578771347996603_)"/><path d="m240.6 409.6v102.4c-.2 0-.4 0-.6 0-82.1.2-149.7-63.7-155.3-144.4-.4-5.9 4.2-10.8 10.1-10.8h82.6c5 0 9.2 3.6 10 8.5 4.2 25.4 26.6 44.8 53.2 44.3z" fill="url(#SVGID_00000117676864561408516130000009563174435274058635_)"/><path d="m394.9 337v19.8c0 85.7-69.5 155.2-155.2 155.2h-144.3c-5.3 0-9.4-4.9-8.2-10.1 4.4-20.2 14-38.5 27.4-53.3 21.5-23.9 52.7-39 87.4-39h37.7c29.2 0 52.8-23.6 52.8-52.8v-19.8z" fill="url(#SVGID_00000025440937511038932380000015107277631235669888_)"/><path d="m292.5 356.8c0 29.2-23.6 52.8-52.8 52.8h-18.2v102.4h18.2c85.7 0 155.2-69.5 155.2-155.2v-19.8h-102.4z" fill="url(#SVGID_00000028318523112429591320000006329037453059244678_)"/><path d="m147.7 422.9c-12.5 6.5-23.7 15.3-33.1 25.7-13.4 14.8-23 33.1-27.4 53.3-1.2 5.2 2.8 10.1 8.2 10.1h144.3c62.1 0 115.6-36.5 140.5-89.1z" fill="url(#SVGID_00000142154616804399506770000017069012014854931335_)"/><path d="m426.8 453.2-2-3.6c-19.7-35.7-29-75.9-29-116.7 0-1.1 0-2.1 0-3.2-.2-11.8-2-22.5-5-32.2-16-68.6-77.6-119.7-151.1-119.7h-52.8c-56.6 0-102.4-45.8-102.4-102.4v128.7c0 42 34.1 76.1 76.1 76.1h79.1c29.1 0 52.7 23.5 52.8 52.6v.1c0 35.7 14.4 67.9 37.8 91.3 9.9 9.9 21.3 18.1 33.9 24.4 17.3 8.6 36.8 13.4 57.4 13.4 3.5 0 6-2.9 6-6 0-.9-.3-1.9-.8-2.8z" fill="url(#SVGID_00000104687564743103748760000014271180984647831229_)"/><path d="m424.9 449.6c-19.7-35.7-29-75.9-29-116.7 0-1.1 0-2.1 0-3.2-.2-11.8-2-22.5-5-32.2-12-51.1-49.2-92.5-97.7-110.3v157.9c2.9 30.8 16.6 58.4 37.2 79.1 9.9 9.9 21.3 18.1 33.9 24.4 17.3 8.6 36.8 13.4 57.4 13.4 3.5 0 6-2.9 6-6 0-.9-.2-1.9-.8-2.9z" fill="url(#SVGID_00000121242755169835815600000011822654603923192250_)"/><path d="m186.8 177.8v-177.8h-92.3c-5.5 0-10.1 4.5-10.1 10.1v65.3c0 56.6 45.9 102.4 102.4 102.4z" fill="url(#SVGID_00000168100217780266549800000015470181512112466331_)"/><path d="m239.8 102.4h93.7c5.6 0 10.1-4.5 10.1-10.1v-82.2c0-5.6-4.5-10.1-10.1-10.1h-93.7z" fill="url(#SVGID_00000155846262349396710740000008047905079231360919_)"/></g></svg>