<svg id="Layer_45" enable-background="new 0 0 512 512" viewBox="0 0 512 512" xmlns="http://www.w3.org/2000/svg" xmlns:xlink="http://www.w3.org/1999/xlink"><linearGradient id="lg1"><stop offset="0" stop-color="#fe646f"/><stop offset=".2724" stop-color="#fd5965"/><stop offset=".7437" stop-color="#fb3d4a"/><stop offset="1" stop-color="#fb2b3a"/></linearGradient><linearGradient id="SVGID_1_" gradientTransform="matrix(1 0 0 -1 0 514)" gradientUnits="userSpaceOnUse" x1="218.45" x2="436.244" xlink:href="#lg1" y1="349.429" y2="131.635"/><linearGradient id="lg2"><stop offset="0" stop-color="#a72b2b" stop-opacity="0"/><stop offset=".1264" stop-color="#a72b2b" stop-opacity=".033"/><stop offset=".2864" stop-color="#a72b2b" stop-opacity=".127"/><stop offset=".4647" stop-color="#a72b2b" stop-opacity=".282"/><stop offset=".6562" stop-color="#a72b2b" stop-opacity=".499"/><stop offset=".8559" stop-color="#a72b2b" stop-opacity=".773"/><stop offset="1" stop-color="#a72b2b"/></linearGradient><linearGradient id="SVGID_00000076603154632494093400000006238813153031624085_" gradientTransform="matrix(1 0 0 -1 0 514)" gradientUnits="userSpaceOnUse" x1="346.675" x2="378.556" xlink:href="#lg2" y1="357.451" y2="357.451"/><linearGradient id="SVGID_00000022541444432083676750000014186142709032154270_" gradientTransform="matrix(1 0 0 -1 0 514)" gradientUnits="userSpaceOnUse" x1="327.071" x2="313.526" xlink:href="#lg2" y1="299.744" y2="241.289"/><linearGradient id="SVGID_00000083799907719368428370000000451330202347483576_" gradientTransform="matrix(1 0 0 -1 0 514)" gradientUnits="userSpaceOnUse" x1="401.566" x2="372.2" xlink:href="#lg2" y1="149.702" y2="149.702"/><linearGradient id="SVGID_00000120540151269220889650000003036465132738477965_" gradientTransform="matrix(1 0 0 -1 0 514)" gradientUnits="userSpaceOnUse" x1="405.131" x2="423.883" xlink:href="#lg2" y1="149.702" y2="149.702"/><linearGradient id="SVGID_00000028292856013349579180000008570492209499475110_" gradientTransform="matrix(1 0 0 -1 0 514)" gradientUnits="userSpaceOnUse" x1="385.259" x2="385.259" xlink:href="#lg2" y1="127.634" y2="99.795"/><linearGradient id="SVGID_00000179623859617667999900000009131494336673076923_" gradientTransform="matrix(1 0 0 -1 0 514)" gradientUnits="userSpaceOnUse" x1="185.801" x2="185.801" xlink:href="#lg2" y1="235.99" y2="193.098"/><linearGradient id="SVGID_00000119838030532954173290000011823148827774891937_" gradientTransform="matrix(1 0 0 -1 0 514)" gradientUnits="userSpaceOnUse" x1="344.798" x2="292.402" xlink:href="#lg1" y1="221.51" y2="184.084"/><linearGradient id="SVGID_00000005960125883513774270000004828030513907641513_" gradientTransform="matrix(1 0 0 -1 0 514)" gradientUnits="userSpaceOnUse" x1="232.791" x2="232.791" xlink:href="#lg1" y1="197.495" y2="79.696"/><linearGradient id="SVGID_00000044136924570390739890000001213826669527657638_" gradientTransform="matrix(1 0 0 -1 0 514)" gradientUnits="userSpaceOnUse" x1="324.087" x2="324.087" xlink:href="#lg2" y1="32.446" y2="4.621"/><linearGradient id="SVGID_00000046314581122085999450000000919068689741785523_" gradientTransform="matrix(1 0 0 -1 0 514)" gradientUnits="userSpaceOnUse" x1="315.06" x2="339.879" xlink:href="#lg2" y1="32.272" y2="92.861"/><g><path d="m375.3 313.1v-303c0-5.6-4.5-10.1-10.1-10.1h-24.2c-3.2 0-6.2 1.5-8.1 4.1l-232.2 311.2c-1.3 1.7-2 3.9-2 6 0 52 42.2 94.2 94.2 94.2h80v86.4c0 5.6 4.5 10.1 10.1 10.1h82.2c5.6 0 10.1-4.5 10.1-10.1v-86.4h36.3c5.6 0 10.1-4.5 10.1-10.1v-82.2c0-5.6-4.5-10.1-10.1-10.1zm-102.4 0h-42.8l42.8-57.4z" fill="url(#SVGID_1_)"/><path d="m375.3 10.1c0-5.6-4.5-10.1-10.1-10.1h-24.2c-3.2 0-6.2 1.5-8.1 4.1l-60 80.4v228.6h102.4z" fill="url(#SVGID_00000076603154632494093400000006238813153031624085_)"/><path d="m272.9 141.1h102.4v172h-102.4z" fill="url(#SVGID_00000022541444432083676750000014186142709032154270_)"/><path d="m411.6 415.5c5.6 0 10.1-4.5 10.1-10.1v-82.2c0-5.6-4.5-10.1-10.1-10.1h-36.3l-26.5 41.2 26.5 61.2z" fill="url(#SVGID_00000083799907719368428370000000451330202347483576_)"/><path d="m411.6 415.5c5.6 0 10.1-4.5 10.1-10.1v-82.2c0-5.6-4.5-10.1-10.1-10.1h-36.3l-26.5 41.2 26.5 61.2z" fill="url(#SVGID_00000120540151269220889650000003036465132738477965_)"/><path d="m411.6 415.5c5.6 0 10.1-4.5 10.1-10.1v-82.2c0-5.6-4.5-10.1-10.1-10.1h-36.3l-26.5 41.2 26.5 61.2z" fill="url(#SVGID_00000028292856013349579180000008570492209499475110_)"/><path d="m100.7 315.3c-1.3 1.7-2 3.9-2 6 0 11.9 2.2 23.2 6.2 33.7h133.7l34.2-41.9h-42.8l42.8-57.4v-171.2z" fill="url(#SVGID_00000179623859617667999900000009131494336673076923_)"/><path d="m325.4 254.1c28.8 4.8 49.9 29.8 49.9 59v123.2c0-38.6-24.6-73-61.2-85.4l-27.3-9.2c-18.5-18.5-30-63.9-30-92.2v-57.6c0-4.3 5.8-5.7 7.7-1.8 5.1 10.3 12.2 23.3 18.6 34.5 8.9 15.7 24.4 26.5 42.3 29.5z" fill="url(#SVGID_00000119838030532954173290000011823148827774891937_)"/><path d="m345.3 343.1c-18.5-18.5-44.1-30-72.4-30h-96.2c-42.4 0-67.2-36.4-78.6-59.4-1.9-3.9-7.7-2.5-7.7 1.8v57.6c0 28.3 11.5 53.9 30 72.4s44.1 30 72.4 30h96.2c47.7 0 86.4 38.7 86.4 86.4v-86.4c-.1-28.3-11.6-53.9-30.1-72.4z" fill="url(#SVGID_00000005960125883513774270000004828030513907641513_)"/><path d="m272.9 501.9c0 5.6 4.5 10.1 10.1 10.1h82.2c5.6 0 10.1-4.5 10.1-10.1 0-47.7-38.7-86.4-86.4-86.4h-16z" fill="url(#SVGID_00000044136924570390739890000001213826669527657638_)"/><path d="m272.9 501.9c0 5.6 4.5 10.1 10.1 10.1h82.2c5.6 0 10.1-4.5 10.1-10.1 0-47.7-38.7-86.4-86.4-86.4h-16z" fill="url(#SVGID_00000046314581122085999450000000919068689741785523_)"/></g></svg>