<svg id="Layer_50" enable-background="new 0 0 512 512" viewBox="0 0 512 512" xmlns="http://www.w3.org/2000/svg" xmlns:xlink="http://www.w3.org/1999/xlink"><linearGradient id="lg1"><stop offset="0" stop-color="#26a6fe"/><stop offset=".2923" stop-color="#1e9bfd"/><stop offset=".7984" stop-color="#0a7ffb"/><stop offset="1" stop-color="#0172fb"/></linearGradient><linearGradient id="SVGID_1_" gradientTransform="matrix(1 0 0 -1 0 514)" gradientUnits="userSpaceOnUse" x1="123.148" x2="361.122" xlink:href="#lg1" y1="335.007" y2="183.171"/><linearGradient id="lg2"><stop offset="0" stop-color="#004281" stop-opacity="0"/><stop offset=".1636" stop-color="#00417f" stop-opacity=".05"/><stop offset=".3707" stop-color="#003f7d" stop-opacity=".194"/><stop offset=".6014" stop-color="#003c78" stop-opacity=".432"/><stop offset=".8472" stop-color="#003871" stop-opacity=".761"/><stop offset="1" stop-color="#00366d"/></linearGradient><linearGradient id="SVGID_00000079462475237116156440000012181748074973425849_" gradientTransform="matrix(1 0 0 -1 0 514)" gradientUnits="userSpaceOnUse" x1="268.297" x2="311.782" xlink:href="#lg2" y1="101.548" y2="88.003"/><linearGradient id="SVGID_00000041283038922120883500000003643280488868065926_" gradientTransform="matrix(1 0 0 -1 0 514)" gradientUnits="userSpaceOnUse" x1="259.661" x2="264.651" xlink:href="#lg2" y1="138.456" y2="189.783"/><linearGradient id="SVGID_00000024001127129458262550000015206450640978751167_" gradientTransform="matrix(1 0 0 -1 0 514)" gradientUnits="userSpaceOnUse" x1="358.861" x2="420.16" xlink:href="#lg2" y1="352.776" y2="352.776"/><linearGradient id="SVGID_00000135670813108862033910000014592101984196841114_" gradientTransform="matrix(1 0 0 -1 0 514)" gradientUnits="userSpaceOnUse" x1="334.94" x2="326.385" xlink:href="#lg2" y1="312.248" y2="253.08"/><linearGradient id="SVGID_00000003824324669255506380000011787283017935980458_" gradientTransform="matrix(1 0 0 -1 0 514)" gradientUnits="userSpaceOnUse" x1="256" x2="256" xlink:href="#lg1" y1="316.743" y2="166.795"/><linearGradient id="SVGID_00000134961197699453216330000015815304208880270983_" gradientTransform="matrix(1 0 0 -1 0 514)" gradientUnits="userSpaceOnUse" x1="381.673" x2="417.89" xlink:href="#lg2" y1="200.104" y2="200.104"/><linearGradient id="SVGID_00000066493196579708028490000002547036537588085906_" gradientTransform="matrix(1 0 0 -1 0 514)" gradientUnits="userSpaceOnUse" x1="210.306" x2="228.841" xlink:href="#lg2" y1="392.807" y2="478.351"/><linearGradient id="SVGID_00000027564706338159285290000009815111612320943539_" gradientTransform="matrix(1 0 0 -1 0 514)" gradientUnits="userSpaceOnUse" x1="238.427" x2="238.427" xlink:href="#lg2" y1="26.604" y2="-1.344"/><g><path d="m411.2 155.2c0-85.6-69.6-155.2-155.2-155.2s-155.2 69.6-155.2 155.2v23.8c0 75.1 53.6 137.9 124.6 152.2-1 2.1-2 4.3-3 6.4-26.8 57.8-41.3 112.9-43 164-.2 5.7 4.4 10.5 10.1 10.5h82.2c5.4 0 9.8-4.2 10.1-9.6 4.2-87.2 64-183.4 98.9-231 19.2-25.8 30.6-57.8 30.6-92.4zm-208 23.8v-23.7c0-29.1 23.7-52.8 52.8-52.8s52.8 23.7 52.8 52.8v23.7c0 29.1-23.7 52.8-52.8 52.8s-52.8-23.7-52.8-52.8z" fill="url(#SVGID_1_)"/><path d="m179.4 313.9c14.1 8 29.6 13.9 45.9 17.2-1 2.1-2 4.2-3 6.4-14 30.1-24.6 59.4-31.8 87.9-6.7 26.2-10.4 51.6-11.3 76.1-.2 5.7 4.4 10.5 10.1 10.5h82.2c5.4 0 9.8-4.2 10.1-9.6 1.2-25.4 7.1-51.5 15.8-77 13.8-40.8 34.7-79.9 54.4-111.5z" fill="url(#SVGID_00000079462475237116156440000012181748074973425849_)"/><path d="m190.6 425.4h107c13.9-40.8 34.7-79.9 54.3-111.5h-172.5c14.1 8 29.6 13.9 46 17.2-1 2.1-2 4.3-3 6.4-14 30.1-24.6 59.4-31.8 87.9z" fill="url(#SVGID_00000041283038922120883500000003643280488868065926_)"/><path d="m308.8 155.2v23.8c0 29.1-23.7 52.8-52.8 52.8l90.7 90.7c12.1-20.1 24-37.6 34-51.1 19.2-25.8 30.6-57.8 30.6-92.4v-23.7c-.1-85.7-69.7-155.3-155.3-155.3v102.4c29.1 0 52.8 23.7 52.8 52.8z" fill="url(#SVGID_00000024001127129458262550000015206450640978751167_)"/><path d="m411.2 155.2v23.7c0 34.6-11.4 66.6-30.6 92.4-9.9 13.6-21.9 31-34 51.1l-90.6-90.6c29.1 0 52.8-23.7 52.8-52.8v-23.7c0-2.4-.2-4.8-.5-7.1h102.7c.2 2.2.2 4.6.2 7z" fill="url(#SVGID_00000135670813108862033910000014592101984196841114_)"/><path d="m381.2 261.9c-18.5-18.5-44.1-30-72.4-30h-55.4l.1-.2c-27.9-1.3-50.3-24.5-50.3-52.8v-22.9c0-29.1 23.1-53.3 52.2-53.7 28-.3 51.2 21.3 53.3 48.7 0 .4 0 .7.1 1.1 0-.1.1-.1.1-.2-2.7-133.3-201.5-134.6-207.8-3.7 0 .8-.1 1.5-.1 2.3v.6 1.6 2.4 23.7c0 75.1 53.6 137.9 124.6 152.2 18.7 2.1 37.4 3.1 56.2 3.1h43.3c42.4 0 67.2 36.4 78.6 59.4 1.9 3.9 7.7 2.5 7.7-1.8v-57.6c-.2-28.1-11.6-53.7-30.2-72.2z" fill="url(#SVGID_00000003824324669255506380000011787283017935980458_)"/><path d="m308.8 231.9h-1.9v102.4h17.9c42.4 0 67.2 36.4 78.6 59.4 1.9 3.9 7.7 2.5 7.7-1.8v-57.6c0-28.3-11.4-53.9-30-72.4-18.4-18.6-44-30-72.3-30z" fill="url(#SVGID_00000134961197699453216330000015815304208880270983_)"/><path d="m308.8 152.1s0 .1-.1.2c-1.6-27.7-24.6-49.8-52.7-49.8-29.1 0-52.8 23.7-52.8 52.8h-102.4c0-1.3 0-2.5 0-3.8 0-.3 0-.5 0-.8 0-.8 0-1.5.1-2.3 6.4-130.9 205.2-129.7 207.9 3.7z" fill="url(#SVGID_00000066493196579708028490000002547036537588085906_)"/><path d="m190.6 425.4c-6.7 26.2-10.4 51.6-11.3 76.1-.2 5.7 4.4 10.5 10.1 10.5h82.2c5.4 0 9.8-4.2 10.1-9.6 1.2-25.4 7.1-51.5 15.8-77z" fill="url(#SVGID_00000027564706338159285290000009815111612320943539_)"/></g></svg>