<svg id="Layer_48" enable-background="new 0 0 512 512" viewBox="0 0 512 512" xmlns="http://www.w3.org/2000/svg" xmlns:xlink="http://www.w3.org/1999/xlink"><linearGradient id="lg1"><stop offset="0" stop-color="#fe93bb"/><stop offset="1" stop-color="#fd3581"/></linearGradient><linearGradient id="SVGID_1_" gradientTransform="matrix(1 0 0 -1 0 514)" gradientUnits="userSpaceOnUse" x1="166.142" x2="220.32" xlink:href="#lg1" y1="497.326" y2="398.95"/><linearGradient id="lg2"><stop offset="0" stop-color="#c00148" stop-opacity="0"/><stop offset=".1067" stop-color="#c00148" stop-opacity=".036"/><stop offset=".2621" stop-color="#c00148" stop-opacity=".138"/><stop offset=".4474" stop-color="#c00148" stop-opacity=".304"/><stop offset=".6556" stop-color="#c00148" stop-opacity=".535"/><stop offset=".8802" stop-color="#c00148" stop-opacity=".828"/><stop offset="1" stop-color="#c00148"/></linearGradient><linearGradient id="SVGID_00000009551179908533127740000017207891131300703927_" gradientTransform="matrix(1 0 0 -1 0 514)" gradientUnits="userSpaceOnUse" x1="207.839" x2="270.572" xlink:href="#lg2" y1="467.309" y2="500.814"/><linearGradient id="SVGID_00000077287846677916436150000017388844381861596330_" gradientTransform="matrix(1 0 0 -1 0 514)" gradientUnits="userSpaceOnUse" x1="195.608" x2="195.608" xlink:href="#lg2" y1="441.416" y2="407.843"/><linearGradient id="SVGID_00000170966862643855586360000000679787243003408288_" gradientTransform="matrix(1 0 0 -1 0 514)" gradientUnits="userSpaceOnUse" x1="257.497" x2="350.527" xlink:href="#lg1" y1="381.744" y2="359.289"/><linearGradient id="SVGID_00000023270758004938211130000000774915228152295359_" gradientTransform="matrix(1 0 0 -1 0 514)" gradientUnits="userSpaceOnUse" x1="348.701" x2="403.684" xlink:href="#lg2" y1="392.48" y2="392.48"/><linearGradient id="SVGID_00000047062410541407752540000004617304254795478176_" gradientTransform="matrix(1 0 0 -1 0 514)" gradientUnits="userSpaceOnUse" x1="198.551" x2="310.828" xlink:href="#lg1" y1="268.522" y2="168.008"/><linearGradient id="SVGID_00000163068123178009602770000016217800106831823805_" gradientTransform="matrix(1 0 0 -1 0 514)" gradientUnits="userSpaceOnUse" x1="249.774" x2="286.131" xlink:href="#lg2" y1="226.068" y2="181.157"/><linearGradient id="SVGID_00000057842772311740595930000011027981589687979440_" gradientTransform="matrix(1 0 0 -1 0 514)" gradientUnits="userSpaceOnUse" x1="383.988" x2="424.678" xlink:href="#lg2" y1="311.372" y2="311.372"/><linearGradient id="SVGID_00000106859004160504939340000002858268930925589896_" gradientTransform="matrix(1 0 0 -1 0 514)" gradientUnits="userSpaceOnUse" x1="225.938" x2="225.938" xlink:href="#lg2" y1="224.782" y2="65.226"/><linearGradient id="SVGID_00000132051905345869955890000014065892053945083555_" gradientTransform="matrix(1 0 0 -1 0 514)" gradientUnits="userSpaceOnUse" x1="149.524" x2="265.009" xlink:href="#lg1" y1="128.227" y2="74.762"/><linearGradient id="SVGID_00000158028907276699316360000002397320012742434234_" gradientTransform="matrix(1 0 0 -1 0 514)" gradientUnits="userSpaceOnUse" x1="214.498" x2="270.102" xlink:href="#lg2" y1="98.148" y2="72.484"/><linearGradient id="SVGID_00000134942178730464222760000015965578846596512156_" gradientTransform="matrix(1 0 0 -1 0 514)" gradientUnits="userSpaceOnUse" x1="174.323" x2="174.323" xlink:href="#lg2" y1="28.03" y2="-3.054"/><g><g><path d="m290.5 61.2v41.2h-179.7c-5.6 0-10.1-4.5-10.1-10.1v-82.2c0-5.6 4.5-10.1 10.1-10.1h118.5c33.8 0 61.2 27.4 61.2 61.2z" fill="url(#SVGID_1_)"/><path d="m290.5 61.2v41.2h-179.7c-5.6 0-10.1-4.5-10.1-10.1v-82.2c0-5.6 4.5-10.1 10.1-10.1h118.5c33.8 0 61.2 27.4 61.2 61.2z" fill="url(#SVGID_00000009551179908533127740000017207891131300703927_)"/><path d="m290.5 61.2v41.2h-179.7c-5.6 0-10.1-4.5-10.1-10.1v-82.2c0-5.6 4.5-10.1 10.1-10.1h118.5c33.8 0 61.2 27.4 61.2 61.2z" fill="url(#SVGID_00000077287846677916436150000017388844381861596330_)"/><path d="m385.2 10.1v65.5c0 11.8-4.1 23.3-11.6 32.5-18.4 22.4-57.2 68.3-91.9 134.9-4.4 8.4-8.7 17.1-12.8 26.1h-111.3c8-22.2 17.1-43.3 27.2-62.3 10.4-19.6 21.3-38.3 32.2-55.7 10.9-17.5 21.8-33.7 32.3-48.6l12.5-17.1c4-5.5 7.2-11.6 9.3-18.1 2.1-6.4 3.2-13.2 3.2-20 0-26.1-21.1-47.2-47.2-47.2h148c5.6-.1 10.1 4.4 10.1 10z" fill="url(#SVGID_00000170966862643855586360000000679787243003408288_)"/><path d="m375.1 0h-93.4v243c34.7-66.6 73.5-112.5 91.9-134.9 7.5-9.2 11.6-20.6 11.6-32.5v-65.5c0-5.6-4.5-10.1-10.1-10.1z" fill="url(#SVGID_00000023270758004938211130000000774915228152295359_)"/></g><path d="m392.8 224.4c-8.5 14.2-19.8 26.7-33.2 36.8s-29 17.7-46.3 22c-.2.1-.5.1-.7.2-18.2 4.6-34.5 13.8-47.6 26.4-74.9 21.7-150.3 164.7-151.5 166.9 2.3-32 7.6-69.3 15.8-107.6 7.2-33.5 16.6-67.8 28.2-99.9 12.9-35.7 42.1-63.4 78.7-73.4 1-.3 1.9-.5 2.9-.8 1.2-.3 2.4-.6 3.7-.9l45.5-11.3c12.8-3.2 25.2-7.3 37.2-12.3 25.3-10.6 48.7-25.2 69-44l3-2.8c.8-.7 1.7-1.2 2.6-1.4 3-.8 6.4 1 7.2 4.4 8.8 34.6 2.5 69.4-14.5 97.7z" fill="url(#SVGID_00000047062410541407752540000004617304254795478176_)"/><path d="m392.8 224.4c-8.5 14.2-19.8 26.7-33.2 36.8s-29 17.7-46.3 22c-.2.1-.5.1-.7.2-18.2 4.6-34.5 13.8-47.6 26.4-74.9 21.7-150.3 164.7-151.5 166.9 2.3-32 7.6-69.3 15.8-107.6 7.2-33.5 16.6-67.8 28.2-99.9 12.9-35.7 42.1-63.4 78.7-73.4 1-.3 1.9-.5 2.9-.8 1.2-.3 2.4-.6 3.7-.9l45.5-11.3c12.8-3.2 25.2-7.3 37.2-12.3 25.3-10.6 48.7-25.2 69-44l3-2.8c.8-.7 1.7-1.2 2.6-1.4 3-.8 6.4 1 7.2 4.4 8.8 34.6 2.5 69.4-14.5 97.7z" fill="url(#SVGID_00000163068123178009602770000016217800106831823805_)"/><path d="m400.2 122.3c-.9.2-1.8.7-2.6 1.4l-3 2.8c-20.3 18.8-43.7 33.4-69 44-4 1.7-8.1 3.2-12.2 4.7v107.9c17.3-4.3 32.8-11.9 46.2-21.9 13.4-10.1 24.6-22.6 33.2-36.8 17-28.3 23.3-63.1 14.7-97.7-.9-3.4-4.3-5.1-7.3-4.4z" fill="url(#SVGID_00000057842772311740595930000011027981589687979440_)"/><path d="m338.3 274.1c-7.9 3.8-16.2 6.8-25 9-.2.1-.5.1-.7.2-18.2 4.6-34.5 13.8-47.6 26.4-74.9 21.7-150.3 164.7-151.5 166.9 2.3-32 7.6-69.3 15.8-107.6 7.2-33.5 16.6-67.8 28.2-99.9 12.9-35.7 42.1-63.4 78.7-73.4 1-.3 1.9-.5 2.9-.8 1.2-.3 2.4-.6 3.7-.9l12.4-3.1z" fill="url(#SVGID_00000106859004160504939340000002858268930925589896_)"/><path d="m309.8 320.1c-14.6-6.3-29.8-9.7-44.8-10.5-18.6-.9-37 2.2-54 9-30.7 12.2-56.8 36.1-70.9 68.8l-2.3 4.7c-16.8 34-25.5 71.5-25.5 109.4-.2 5.7 4.4 10.4 10.1 10.4h82.1c5.5 0 10-4.4 10.1-10v-.3c.3-18.1 4.3-36 11.5-52.7 4.6-10.5 8.9-20.6 8.9-20.6 16.2-37.5 40.6-70.6 72.9-95.6l3.2-2.5c.8-.6 1.5-1.5 1.8-2.3 1.2-2.8.1-6.4-3.1-7.8z" fill="url(#SVGID_00000132051905345869955890000014065892053945083555_)"/><path d="m309.8 320.1c-14.6-6.3-29.8-9.7-44.8-10.5-18.6-.9-37 2.2-54 9-30.7 12.2-56.8 36.1-70.9 68.8l-2.3 4.7c-16.8 34-25.5 71.5-25.5 109.4-.2 5.7 4.4 10.4 10.1 10.4h82.1c5.5 0 10-4.4 10.1-10v-.3c.3-18.1 4.3-36 11.5-52.7 4.6-10.5 8.9-20.6 8.9-20.6 16.2-37.5 40.6-70.6 72.9-95.6l3.2-2.5c.8-.6 1.5-1.5 1.8-2.3 1.2-2.8.1-6.4-3.1-7.8z" fill="url(#SVGID_00000158028907276699316360000002397320012742434234_)"/><path d="m236.4 425.4c-.5 1-.9 2.1-1.4 3.1 0 0-4.3 10-8.9 20.6-7.2 16.6-11.2 34.5-11.5 52.7v.3c-.1 5.5-4.6 10-10.1 10h-82.1c-5.6 0-10.1-4.6-10.1-10.1v-.3c0-26 4.1-51.7 12-76.2h112.1z" fill="url(#SVGID_00000134942178730464222760000015965578846596512156_)"/></g></svg>