<svg id="Layer_47" enable-background="new 0 0 512 512" viewBox="0 0 512 512" xmlns="http://www.w3.org/2000/svg" xmlns:xlink="http://www.w3.org/1999/xlink"><linearGradient id="lg1"><stop offset="0" stop-color="#e5caf3"/><stop offset=".1765" stop-color="#dfbff0"/><stop offset=".483" stop-color="#cfa3e9"/><stop offset=".8805" stop-color="#b775dd"/><stop offset="1" stop-color="#af66da"/></linearGradient><linearGradient id="SVGID_1_" gradientTransform="matrix(1 0 0 -1 0 514)" gradientUnits="userSpaceOnUse" x1="43.224" x2="359.3" xlink:href="#lg1" y1="470.849" y2="154.773"/><linearGradient id="lg2"><stop offset="0" stop-color="#6f3f8a" stop-opacity="0"/><stop offset=".1576" stop-color="#6e3e88" stop-opacity=".047"/><stop offset=".3571" stop-color="#6b3c85" stop-opacity=".183"/><stop offset=".5791" stop-color="#663a81" stop-opacity=".406"/><stop offset=".8159" stop-color="#60367a" stop-opacity=".715"/><stop offset="1" stop-color="#5b3374"/></linearGradient><linearGradient id="SVGID_00000029734779799571535170000013453259949998901655_" gradientTransform="matrix(1 0 0 -1 0 514)" gradientUnits="userSpaceOnUse" x1="165.964" x2="203.39" xlink:href="#lg2" y1="150.01" y2="58.05"/><linearGradient id="SVGID_00000133486843034971316460000013121939401129406346_" gradientTransform="matrix(1 0 0 -1 0 514)" gradientUnits="userSpaceOnUse" x1="169.484" x2="352.336" xlink:href="#lg1" y1="199.122" y2="59.043"/><linearGradient id="SVGID_00000005224717154731063340000010192104237735273089_" gradientTransform="matrix(1 0 0 -1 0 514)" gradientUnits="userSpaceOnUse" x1="252.168" x2="192.049" xlink:href="#lg2" y1="246.69" y2="246.69"/><linearGradient id="SVGID_00000126310135778954859300000010121932548029601432_" gradientTransform="matrix(1 0 0 -1 0 514)" gradientUnits="userSpaceOnUse" x1="355.891" x2="420.617" xlink:href="#lg2" y1="169.065" y2="169.065"/><linearGradient id="SVGID_00000057111142810594907860000015033565643653714853_" gradientTransform="matrix(1 0 0 -1 0 514)" gradientUnits="userSpaceOnUse" x1="248.576" x2="248.576" xlink:href="#lg2" y1="51.554" y2="-12.92"/><linearGradient id="SVGID_00000137120359382725589500000008860705372161569938_" gradientTransform="matrix(1 0 0 -1 0 514)" gradientUnits="userSpaceOnUse" x1="288.136" x2="249.765" xlink:href="#lg1" y1="405.062" y2="467.752"/><linearGradient id="SVGID_00000124159857036606837100000001984444967873268900_" gradientTransform="matrix(1 0 0 -1 0 514)" gradientUnits="userSpaceOnUse" x1="303.06" x2="303.06" xlink:href="#lg2" y1="400.861" y2="358.089"/><linearGradient id="SVGID_00000003077054734223502840000006575201935405524638_" gradientTransform="matrix(1 0 0 -1 0 514)" gradientUnits="userSpaceOnUse" x1="301.743" x2="283.208" xlink:href="#lg2" y1="381.618" y2="512.786"/><g><path d="m256 177.8c-18.5 0-36.3 3.3-52.8 9.3v-31c0-29.2 23.4-53.6 52.6-53.7 15.1-.1 29.3 6.3 39.3 17.3 3.3 3.7 21.2 14.1 21.2 14.1h86.6c0-39.6-23-72.1-23-72.1-29.3-38.9-75.1-61.8-124.4-61.7-85.8.2-154.8 71-154.8 156.8v200c0 85.6 69.6 155.2 155.2 155.2s155.2-69.6 155.2-155.2v-23.8c.1-85.5-69.5-155.2-155.1-155.2zm52.8 179c0 29.1-23.7 52.8-52.8 52.8s-52.8-23.7-52.8-52.8v-23.8c0-29.1 23.7-52.8 52.8-52.8s52.8 23.7 52.8 52.8z" fill="url(#SVGID_1_)"/><path d="m256 409.6c-29.1 0-52.8-23.7-52.8-52.8v-23.8-60.9h-102.4v84.7c0 85.6 69.6 155.2 155.2 155.2z" fill="url(#SVGID_00000029734779799571535170000013453259949998901655_)"/><g><path d="m256 177.8c-18.5 0-36.3 3.3-52.8 9.3v146c0-29.1 23.7-52.8 52.8-52.8s52.8 23.7 52.8 52.8v3.9 19.8c0 29.2-23.6 52.8-52.8 52.8h-37.7c-34.7 0-65.9 15-87.4 39-13.4 14.8-23 33.1-27.4 53.3-1.1 5.2 2.9 10.1 8.2 10.1h144.3c85.7 0 155.2-69.5 155.2-155.2v-23.8c0-85.5-69.6-155.2-155.2-155.2z" fill="url(#SVGID_00000133486843034971316460000013121939401129406346_)"/><path d="m256 177.8c-18.5 0-36.3 3.3-52.8 9.3v146c0-29.1 23.7-52.8 52.8-52.8s52.8 23.7 52.8 52.8v23.7h102.4v-23.8c0-85.5-69.6-155.2-155.2-155.2z" fill="url(#SVGID_00000005224717154731063340000010192104237735273089_)"/><path d="m304.6 185.6v126.7c2.7 6.4 4.3 13.4 4.3 20.7v3.9 19.8c0 7.4-1.5 14.4-4.3 20.8v126.7c61.9-20.4 106.7-78.7 106.7-147.5v-23.7c-.1-68.6-44.9-126.9-106.7-147.4z" fill="url(#SVGID_00000126310135778954859300000010121932548029601432_)"/><path d="m154.8 428.2c-8.9 5.7-16.9 12.6-23.9 20.4-13.4 14.8-23 33.1-27.4 53.3-1.1 5.2 2.9 10.1 8.2 10.1h144.3c60 0 112-34 137.8-83.8z" fill="url(#SVGID_00000057111142810594907860000015033565643653714853_)"/></g><path d="m402.9 133.8c0-27.1-13.8-52.6-37-66.8-61-37.3-160.8-8.9-162.7 85v3.2c0-29.1 23.7-52.8 52.8-52.8 22.6 0 41.9 14.3 49.4 34.2 1.3 3.3 4.4 5.6 7.9 5.6h81.1c4.8 0 8.5-3.7 8.5-8.4z" fill="url(#SVGID_00000137120359382725589500000008860705372161569938_)"/><path d="m402.9 133.8c0-27.1-13.8-52.6-37-66.8-61-37.3-160.8-8.9-162.7 85v3.2c0-29.1 23.7-52.8 52.8-52.8 22.6 0 41.9 14.3 49.4 34.2 1.3 3.3 4.4 5.6 7.9 5.6h81.1c4.8 0 8.5-3.7 8.5-8.4z" fill="url(#SVGID_00000124159857036606837100000001984444967873268900_)"/><path d="m402.9 133.8c0-27.1-13.8-52.6-37-66.8-61-37.3-160.8-8.9-162.7 85v3.2c0-29.1 23.7-52.8 52.8-52.8 22.6 0 41.9 14.3 49.4 34.2 1.3 3.3 4.4 5.6 7.9 5.6h81.1c4.8 0 8.5-3.7 8.5-8.4z" fill="url(#SVGID_00000003077054734223502840000006575201935405524638_)"/></g></svg>