<svg id="Layer_44" enable-background="new 0 0 512 512" viewBox="0 0 512 512" xmlns="http://www.w3.org/2000/svg" xmlns:xlink="http://www.w3.org/1999/xlink"><linearGradient id="lg1"><stop offset="0" stop-color="#f6ab31"/><stop offset=".3013" stop-color="#f7a02d"/><stop offset=".8229" stop-color="#fc8423"/><stop offset="1" stop-color="#ff7920"/></linearGradient><linearGradient id="SVGID_1_" gradientTransform="matrix(1 0 0 -1 0 514)" gradientUnits="userSpaceOnUse" x1="123.63" x2="164.977" xlink:href="#lg1" y1="153.989" y2="83.415"/><linearGradient id="lg2"><stop offset="0" stop-color="#ef4424" stop-opacity="0"/><stop offset=".1018" stop-color="#ef4424" stop-opacity=".023"/><stop offset=".2307" stop-color="#ef4424" stop-opacity=".089"/><stop offset=".3744" stop-color="#ef4424" stop-opacity=".197"/><stop offset=".5286" stop-color="#ef4424" stop-opacity=".349"/><stop offset=".6915" stop-color="#ef4424" stop-opacity=".544"/><stop offset=".8588" stop-color="#ef4424" stop-opacity=".778"/><stop offset="1" stop-color="#ef4424"/></linearGradient><linearGradient id="SVGID_00000142889516954809047060000014424423388757449133_" gradientTransform="matrix(1 0 0 -1 0 514)" gradientUnits="userSpaceOnUse" x1="147.253" x2="165.788" xlink:href="#lg2" y1="124.028" y2="71.275"/><linearGradient id="SVGID_00000095330843753224226910000013311624813888087200_" gradientTransform="matrix(1 0 0 -1 0 514)" gradientUnits="userSpaceOnUse" x1="174.871" x2="202.316" xlink:href="#lg2" y1="89.835" y2="103.024"/><linearGradient id="SVGID_00000096739928232818343530000009903304822673647534_" gradientTransform="matrix(1 0 0 -1 0 514)" gradientUnits="userSpaceOnUse" x1="174.564" x2="398.149" xlink:href="#lg1" y1="407.453" y2="277.247"/><linearGradient id="SVGID_00000050625394680822084660000004621238751971501231_" gradientTransform="matrix(1 0 0 -1 0 514)" gradientUnits="userSpaceOnUse" x1="162.967" x2="354.017" xlink:href="#lg1" y1="218.697" y2="122.46"/><linearGradient id="SVGID_00000157993811385382728330000007711344047903979449_" gradientTransform="matrix(1 0 0 -1 0 514)" gradientUnits="userSpaceOnUse" x1="174.405" x2="174.405" xlink:href="#lg2" y1="406.366" y2="370.658"/><linearGradient id="SVGID_00000173878718109629936400000004993266903705414301_" gradientTransform="matrix(1 0 0 -1 0 514)" gradientUnits="userSpaceOnUse" x1="219.376" x2="219.376" xlink:href="#lg2" y1="34.247" y2="-.858"/><linearGradient id="SVGID_00000048502925054810130060000001117549808235053471_" gradientTransform="matrix(1 0 0 -1 0 514)" gradientUnits="userSpaceOnUse" x1="286.415" x2="275.959" xlink:href="#lg2" y1="230.725" y2="283.002"/><linearGradient id="SVGID_00000132792601041151211270000003577259206993174182_" gradientTransform="matrix(1 0 0 -1 0 514)" gradientUnits="userSpaceOnUse" x1="341.034" x2="389.985" xlink:href="#lg2" y1="160.468" y2="167.596"/><linearGradient id="SVGID_00000070836000063425756280000017555682314376989080_" gradientTransform="matrix(1 0 0 -1 0 514)" gradientUnits="userSpaceOnUse" x1="259.192" x2="304.341" xlink:href="#lg1" y1="340.316" y2="268.553"/><linearGradient id="SVGID_00000046323710328297672810000018238142855172232887_" gradientTransform="matrix(1 0 0 -1 0 514)" gradientUnits="userSpaceOnUse" x1="260.774" x2="362.715" xlink:href="#lg1" y1="354.597" y2="411.626"/><linearGradient id="SVGID_00000119809707167151494380000014748175797906743186_" gradientTransform="matrix(1 0 0 -1 0 514)" gradientUnits="userSpaceOnUse" x1="277.513" x2="221.196" xlink:href="#lg2" y1="409.774" y2="474.645"/><linearGradient id="SVGID_00000127044420074031588840000008775171431768068494_" gradientTransform="matrix(1 0 0 -1 0 514)" gradientUnits="userSpaceOnUse" x1="337.324" x2="419.304" xlink:href="#lg2" y1="389.845" y2="421.924"/><linearGradient id="SVGID_00000026844205559699996580000007792255436730067093_" gradientTransform="matrix(1 0 0 -1 0 514)" gradientUnits="userSpaceOnUse" x1="355.747" x2="363.589" xlink:href="#lg2" y1="319.49" y2="287.411"/><g><path d="m227.3 409.6h.6v102.4c-.4 0-.8 0-1.2 0-82.1.2-149.7-63.7-155.3-144.4-.4-5.9 4.2-10.8 10.1-10.8h82.6c5 0 9.2 3.6 10 8.5 4.2 25.4 26.6 44.8 53.2 44.3z" fill="url(#SVGID_1_)"/><path d="m228 409.6c-.2 0-.4 0-.6 0-26.7.5-49-18.9-53.2-44.3-.8-4.9-5-8.5-10-8.5h-82.6c-5.9 0-10.5 5-10.1 10.8 5.6 80.7 73.1 144.6 155.3 144.4h1.2z" fill="url(#SVGID_00000142889516954809047060000014424423388757449133_)"/><path d="m228 409.6c-.2 0-.4 0-.6 0-26.7.5-49-18.9-53.2-44.3-.8-4.9-5-8.5-10-8.5h-82.6c-5.9 0-10.5 5-10.1 10.8 5.6 80.7 73.1 144.6 155.3 144.4h1.2z" fill="url(#SVGID_00000095330843753224226910000013311624813888087200_)"/><path d="m381 320.1h-103.5c-5.8-22.9-26.5-39.8-51.2-39.8h-20.5c-5.6 0-10.1-4.5-10.1-10.1v-82.2c0-5.6 4.5-10.1 10.1-10.1h20.5c15.8 0 28.6-12.8 28.6-28.6v-17.6c0-15.6-12.2-28.8-27.7-29.2-13.5-.4-25 8.6-28.5 21-1.2 4.5-5.2 7.6-9.8 7.6h-83.1c-5.9 0-10.6-5.1-10.1-10.9 5.6-67.5 62.5-120.6 131.4-120.2 72.3.4 130.2 60.2 130.2 132.4v16.8c0 27.1-8.2 52.2-22.3 73.1 25.8 25.4 42.8 59.6 46 97.8z" fill="url(#SVGID_00000096739928232818343530000009903304822673647534_)"/><path d="m381.5 333.1v23.7c0 80.9-61.8 147.3-140.8 154.5-.7.1-1.4.1-2.1.2-2 .2-4 .3-6 .4-1.3 0-2.7.1-4 .1-.5 0-1 0-1.6 0h-145c-5.3 0-9.3-4.9-8.2-10.1 4.4-20.2 14.1-38.5 27.4-53.3 21.5-23.9 52.7-39 87.4-39h37.7 1.6c28.6-.9 51.2-25 51.2-53.7v-22.8c0-29.2-23.7-52.8-52.8-52.8h-20.5c-5.6 0-10.1-4.5-10.1-10.1v-82.2c0-5.6 4.5-10.1 10.1-10.1h20.5c15.8 0 28.6-12.8 28.6-28.6v-14.5h102.4v14.5c0 27.1-8.2 52.2-22.3 73.1 28.7 28.1 46.5 67.3 46.5 110.7z" fill="url(#SVGID_00000050625394680822084660000004621238751971501231_)"/><path d="m105.8 131h83.1c4.6 0 8.6-3.2 9.8-7.6 3.4-12.4 14.9-21.4 28.4-21 12 .4 22 8.3 25.9 19v-70.3h-130.5c-15 19.4-24.7 43.1-26.8 68.9-.4 6 4.2 11 10.1 11z" fill="url(#SVGID_00000157993811385382728330000007711344047903979449_)"/><path d="m128.3 426.3c-10.1 6.1-19.2 13.6-27 22.3-13.3 14.9-23 33.1-27.4 53.3-1.1 5.2 2.9 10.1 8.2 10.1h145.2 1.6c1.3 0 2.7-.1 4-.1 2-.1 4-.2 6-.4.7-.1 1.4-.1 2.1-.2 54.6-5 100.9-38.3 124.4-85z" fill="url(#SVGID_00000173878718109629936400000004993266903705414301_)"/><path d="m205.9 280.2h20.5c29.2 0 52.8 23.6 52.8 52.8v14.6h102.4v-14.6c0-43.3-17.8-82.5-46.5-110.7h-98c-22.8 0-41.2 18.4-41.2 41.2v6.6c-.2 5.6 4.4 10.1 10 10.1z" fill="url(#SVGID_00000048502925054810130060000001117549808235053471_)"/><path d="m381.5 356.8v-23.7c0-43.3-17.8-82.5-46.5-110.7h-55.9v280.5c59.7-21.7 102.4-78.9 102.4-146.1z" fill="url(#SVGID_00000132792601041151211270000003577259206993174182_)"/><path d="m357.3 134.7h-102.4v14.5c0 15.8-12.8 28.6-28.6 28.6h-20.5c-5.6 0-10.1 4.5-10.1 10.1v79.8c0-10 8.1-18 18.1-18h44.1c57.9 0 77.1-27.4 77.1-27.4 14.1-20.9 22.3-46.1 22.3-73.1z" fill="url(#SVGID_00000070836000063425756280000017555682314376989080_)"/><g><path d="m435.4 181.6c-14.7 7.1-32.3 7.6-48 0-19.7-9.6-30.2-29.4-30-50-.2-30.9-10.9-59.4-28.8-82-29.4-32-83-29.3-108.4 8.2-13.2 19.5-21.3 42.8-22.3 67.8.4-.7.7-1.5.9-2.3 3.4-12.4 14.9-21.4 28.5-21 15.6.5 27.7 13.6 27.7 29.2 0 74.4 124.6 118.7 184.6 55.8.7-.7 1-1.6 1-2.5 0-2.5-2.8-4.3-5.2-3.2z" fill="url(#SVGID_00000046323710328297672810000018238142855172232887_)"/><path d="m357.3 131.6c-.2-30.9-10.9-59.4-28.8-82-29.4-32-83-29.3-108.4 8.2-13.2 19.5-21.3 42.8-22.3 67.8.4-.7.7-1.5.9-2.3 3.4-12.4 14.9-21.4 28.5-21 15.6.5 27.7 13.6 27.7 29.2 0 6.8 1 13.3 3 19.5h102.6c-2.2-6.1-3.3-12.7-3.2-19.4z" fill="url(#SVGID_00000119809707167151494380000014748175797906743186_)"/><path d="m435.4 181.6c-14.7 7.1-32.3 7.6-48 0-19.7-9.6-30.2-29.4-30-50-.2-30.9-10.9-59.4-28.8-82-10-10.8-22.7-17.7-36.1-20.6v166.1c41.6 28.7 108.1 33.3 147.3-7.7.7-.7 1-1.6 1-2.5-.2-2.6-3-4.4-5.4-3.3z" fill="url(#SVGID_00000127044420074031588840000008775171431768068494_)"/><path d="m439.6 187.5c.7-.7 1-1.6 1-2.5 0-2.7-2.8-4.5-5.2-3.3-14.7 7.1-32.3 7.6-48 0-13.3-6.5-22.4-17.6-26.9-30.5h-102.6c19.2 62 127 93.4 181.7 36.3z" fill="url(#SVGID_00000026844205559699996580000007792255436730067093_)"/></g></g></svg>