<svg id="Layer_43" enable-background="new 0 0 512 512" viewBox="0 0 512 512" xmlns="http://www.w3.org/2000/svg" xmlns:xlink="http://www.w3.org/1999/xlink"><linearGradient id="lg1"><stop offset="0" stop-color="#fef056"/><stop offset=".1982" stop-color="#fbe94b"/><stop offset=".5425" stop-color="#f4d62f"/><stop offset=".9893" stop-color="#e8b801"/><stop offset="1" stop-color="#e8b800"/></linearGradient><linearGradient id="SVGID_1_" gradientTransform="matrix(1 0 0 -1 0 514)" gradientUnits="userSpaceOnUse" x1="172.868" x2="369.963" xlink:href="#lg1" y1="288.873" y2="64.039"/><linearGradient id="lg2"><stop offset="0" stop-color="#fec165" stop-opacity="0"/><stop offset=".1133" stop-color="#fcbe63" stop-opacity=".027"/><stop offset=".2569" stop-color="#f8b860" stop-opacity=".106"/><stop offset=".4168" stop-color="#f1ad59" stop-opacity=".236"/><stop offset=".5885" stop-color="#e79e51" stop-opacity=".417"/><stop offset=".7697" stop-color="#da8a46" stop-opacity=".649"/><stop offset=".9562" stop-color="#cb7239" stop-opacity=".929"/><stop offset="1" stop-color="#c86d36"/></linearGradient><linearGradient id="SVGID_00000111895850753471189750000016284255456101653382_" gradientTransform="matrix(1 0 0 -1 0 514)" gradientUnits="userSpaceOnUse" x1="287.004" x2="333.341" xlink:href="#lg2" y1="264.571" y2="295.225"/><linearGradient id="SVGID_00000060005509979323970830000010841839578455793567_" gradientTransform="matrix(1 0 0 -1 0 514)" gradientUnits="userSpaceOnUse" x1="281.864" x2="290.596" xlink:href="#lg2" y1="182.227" y2="207.356"/><linearGradient id="SVGID_00000066478896035810414970000018108456722680964781_" gradientTransform="matrix(1 0 0 -1 0 514)" gradientUnits="userSpaceOnUse" x1="188.599" x2="188.599" xlink:href="#lg2" y1="387.832" y2="357.17"/><linearGradient id="SVGID_00000121992205345624524730000014404408097956231093_" gradientTransform="matrix(1 0 0 -1 0 514)" gradientUnits="userSpaceOnUse" x1="335.68" x2="390.334" xlink:href="#lg1" y1="309.178" y2="279.238"/><linearGradient id="SVGID_00000049198990305597568820000010236435668642037908_" gradientTransform="matrix(1 0 0 -1 0 514)" gradientUnits="userSpaceOnUse" x1="328.409" x2="388.917" xlink:href="#lg2" y1="313.995" y2="313.995"/><linearGradient id="SVGID_00000012467721357187367690000013394100065240476079_" gradientTransform="matrix(1 0 0 -1 0 514)" gradientUnits="userSpaceOnUse" x1="301.597" x2="439.173" xlink:href="#lg1" y1="346.27" y2="346.27"/><linearGradient id="SVGID_00000101789023413253571630000002229187949507854263_" gradientTransform="matrix(1 0 0 -1 0 514)" gradientUnits="userSpaceOnUse" x1="374.707" x2="416.766" xlink:href="#lg2" y1="345.678" y2="352.807"/><linearGradient id="SVGID_00000181046892028701949380000000163145552155530125_" gradientTransform="matrix(1 0 0 -1 0 514)" gradientUnits="userSpaceOnUse" x1="282.015" x2="231.402" xlink:href="#lg2" y1="390.396" y2="473.089"/><linearGradient id="SVGID_00000080171249533307640090000003988343320110000812_" gradientTransform="matrix(1 0 0 -1 0 514)" gradientUnits="userSpaceOnUse" x1="239.647" x2="239.647" xlink:href="#lg2" y1="37.881" y2=".473"/><linearGradient id="SVGID_00000007429027321455411950000004418080590307447433_" gradientTransform="matrix(1 0 0 -1 0 514)" gradientUnits="userSpaceOnUse" x1="260.38" x2="202.546" xlink:href="#lg2" y1="53.2" y2="53.2"/><linearGradient id="SVGID_00000180330531339696331930000018177301928561312137_" gradientTransform="matrix(1 0 0 -1 0 514)" gradientUnits="userSpaceOnUse" x1="372.797" x2="395.614" xlink:href="#lg2" y1="53.2" y2="53.2"/><g><path d="m384.7 512h-290.2c-5.6 0-10.1-4.5-10.1-10.1v-41.1c0-38.5 15.8-76.1 43.4-102.9l134.2-130.7c18.5-18 29.4-42.9 30.3-68.6 1-30.3-22.6-56.2-53-56.1-26.1.1-47.8 19.3-51.9 44.3-.8 4.9-5 8.6-10 8.6h-82.5c-5.9 0-10.5-5-10.1-10.8 5.6-80.8 72.9-144.6 154.8-144.6 85.6 0 155.2 69.6 155.2 155.2 0 54.4-22.3 107.3-61.3 145.3l-112 109.1h163.2c5.6 0 10.1 4.5 10.1 10.1v82.2c.1 5.6-4.5 10.1-10.1 10.1z" fill="url(#SVGID_1_)"/><path d="m292.4 158.5c-.8 25.8-11.8 50.6-30.3 68.6l-103.5 100.8h146.8l28.2-27.4c39-37.9 61.3-90.9 61.3-145.3h-102.5z" fill="url(#SVGID_00000111895850753471189750000016284255456101653382_)"/><path d="m294.3 338.7 39.3-38.3c1.9-1.9 3.8-3.8 5.6-5.7h-88.9z" fill="url(#SVGID_00000060005509979323970830000010841839578455793567_)"/><path d="m292.4 154.5c-1.1-28.6-24-52.2-53-52.1-26.1.1-47.8 19.2-51.9 44.3-.8 4.9-5 8.6-10 8.6h-82.6c-5.9 0-10.5-5-10.1-10.8 1.5-21.4 7.2-41.5 16.5-59.5 18.5-36.2 58.4-56.5 98.4-48.8 2.4.5 4.4 1 6 1.5 49.2 16.6 85 62.4 86.7 116.8z" fill="url(#SVGID_00000066478896035810414970000018108456722680964781_)"/><path d="m248.4 291.6c0-2.2 2.3-3.7 4.2-2.7 12 5.8 26.4 6.3 39.3 0 18.9-9.2 28.4-29.9 24.3-49.6-.7-3.6-1.9-7.1-3.6-10.5-7.6-15.5-11.2-32-11.2-48.1 0-40.7 22.7-79.8 61.7-98.9.7-.4 1.5-.5 2.2-.5 2.8 0 5.2 2.3 5.1 5.3l-.2 3.5c-1.7 34.7 6.2 68.9 21.4 100.1.4.8.8 1.6 1.2 2.4 43.9 94.7-81.5 166.3-143.7 101.1-.4-.6-.7-1.3-.7-2.1z" fill="url(#SVGID_00000121992205345624524730000014404408097956231093_)"/><path d="m248.4 291.6c0-2.2 2.3-3.7 4.2-2.7 12 5.8 26.4 6.3 39.3 0 18.9-9.2 28.4-29.9 24.3-49.6-.7-3.6-1.9-7.1-3.6-10.5-7.6-15.5-11.2-32-11.2-48.1 0-40.7 22.7-79.8 61.7-98.9.7-.4 1.5-.5 2.2-.5 2.8 0 5.2 2.3 5.1 5.3l-.2 3.5c-1.7 34.7 6.2 68.9 21.4 100.1.4.8.8 1.6 1.2 2.4 43.9 94.7-81.5 166.3-143.7 101.1-.4-.6-.7-1.3-.7-2.1z" fill="url(#SVGID_00000049198990305597568820000010236435668642037908_)"/><g><path d="m424.9 271.9c-19.7-35.7-29-75.9-29-116.7 0-1.1 0-2.1 0-3.2-2.7-134.6-206.3-134.6-209 0v3.2c0-29.1 23.7-52.8 52.8-52.8 24.6 0 45.4 17 51.2 39.8 1.1 4.2 1.6 8.5 1.6 13 0 71.3 57.8 129.1 129.1 129.1 4.5 0 7.4-4.9 5.2-8.9z" fill="url(#SVGID_00000012467721357187367690000013394100065240476079_)"/><path d="m424.9 271.9c-19.7-35.7-29-75.9-29-116.7 0-1.1 0-2.1 0-3.2-1.1-55.9-36.9-88.6-78.6-98v177.3c23.5 32.2 61.5 53 104.3 53 4.5 0 7.4-4.9 5.2-8.9z" fill="url(#SVGID_00000101789023413253571630000002229187949507854263_)"/><path d="m395.8 152.1c-2.7-134.6-206.3-134.6-209 0v3.2c0-29.1 23.7-52.8 52.8-52.8 24.6 0 45.4 17 51.2 39.8 1.1 4.2 1.6 8.5 1.6 13 0 10.1 1.2 20 3.4 29.4h101.7c-1.1-9.7-1.7-19.5-1.7-29.4.1-1.1.1-2.2 0-3.2z" fill="url(#SVGID_00000181046892028701949380000000163145552155530125_)"/></g><path d="m93.9 409.6c-6.2 16.2-9.5 33.6-9.5 51.2v41.1c0 5.6 4.5 10.1 10.1 10.1h290.2c5.6 0 10.1-4.5 10.1-10.1v-82.2c0-5.6-4.5-10.1-10.1-10.1z" fill="url(#SVGID_00000080171249533307640090000003988343320110000812_)"/><path d="m339.9 409.6h-118.4c-34.5 40.3-5.8 102.4 47.1 102.4h71.3z" fill="url(#SVGID_00000007429027321455411950000004418080590307447433_)"/><path d="m394.9 419.7v82.2c0 5.6-4.5 10.1-10.1 10.1h-44.8v-102.4h44.8c5.5 0 10.1 4.5 10.1 10.1z" fill="url(#SVGID_00000180330531339696331930000018177301928561312137_)"/></g></svg>