<svg id="Layer_41" enable-background="new 0 0 512 512" viewBox="0 0 512 512" xmlns="http://www.w3.org/2000/svg" xmlns:xlink="http://www.w3.org/1999/xlink"><linearGradient id="lg1"><stop offset="0" stop-color="#99e6fc"/><stop offset=".1325" stop-color="#8ee1fb"/><stop offset=".3627" stop-color="#71d5f9"/><stop offset=".6631" stop-color="#43c2f5"/><stop offset="1" stop-color="#08a9f1"/></linearGradient><linearGradient id="SVGID_1_" gradientTransform="matrix(1 0 0 -1 0 514)" gradientUnits="userSpaceOnUse" x1="108.1" x2="397.882" xlink:href="#lg1" y1="353.507" y2="166.379"/><linearGradient id="lg2"><stop offset="0" stop-color="#017bae" stop-opacity="0"/><stop offset=".1233" stop-color="#017bae" stop-opacity=".032"/><stop offset=".2794" stop-color="#017bae" stop-opacity=".122"/><stop offset=".4533" stop-color="#017bae" stop-opacity=".271"/><stop offset=".6401" stop-color="#017bae" stop-opacity=".479"/><stop offset=".835" stop-color="#017bae" stop-opacity=".742"/><stop offset="1" stop-color="#017bae"/></linearGradient><linearGradient id="SVGID_00000038391099333268741150000017192948677795546794_" gradientTransform="matrix(1 0 0 -1 0 514)" gradientUnits="userSpaceOnUse" x1="172.891" x2="197.842" xlink:href="#lg2" y1="133.92" y2="65.484"/><linearGradient id="SVGID_00000098181391554654989970000017674063208630781365_" gradientTransform="matrix(1 0 0 -1 0 514)" gradientUnits="userSpaceOnUse" x1="270.019" x2="413.306" xlink:href="#lg1" y1="172.219" y2="55.665"/><linearGradient id="SVGID_00000036943346410334773330000011538221790278753168_" gradientTransform="matrix(1 0 0 -1 0 514)" gradientUnits="userSpaceOnUse" x1="249.593" x2="249.593" xlink:href="#lg2" y1="32.107" y2="-6.062"/><linearGradient id="SVGID_00000125575711850918919170000016831494749121287051_" gradientTransform="matrix(1 0 0 -1 0 514)" gradientUnits="userSpaceOnUse" x1="374.75" x2="417.05" xlink:href="#lg2" y1="185.008" y2="185.008"/><linearGradient id="SVGID_00000041282128267906995110000018354639381444618942_" gradientTransform="matrix(1 0 0 -1 0 514)" gradientUnits="userSpaceOnUse" x1="336.409" x2="389.637" xlink:href="#lg2" y1="213.622" y2="263.998"/><linearGradient id="SVGID_00000173125877816341927980000004902914448175386795_" gradientTransform="matrix(1 0 0 -1 0 514)" gradientUnits="userSpaceOnUse" x1="317.951" x2="455.526" xlink:href="#lg1" y1="346.27" y2="346.27"/><linearGradient id="SVGID_00000108288370941566855270000014119058518299573933_" gradientTransform="matrix(1 0 0 -1 0 514)" gradientUnits="userSpaceOnUse" x1="391.06" x2="433.119" xlink:href="#lg2" y1="345.678" y2="352.807"/><linearGradient id="SVGID_00000028299567457443237670000002475832932314933900_" gradientTransform="matrix(1 0 0 -1 0 514)" gradientUnits="userSpaceOnUse" x1="298.369" x2="247.755" xlink:href="#lg2" y1="390.396" y2="473.089"/><g><path d="m256 512c-85.6 0-155.2-69.6-155.2-155.2v-201.6c0-85.6 69.6-155.2 155.2-155.2s155.2 69.6 155.2 155.2v201.6c0 85.6-69.6 155.2-155.2 155.2zm0-409.6c-29.1 0-52.8 23.7-52.8 52.8v201.6c0 29.1 23.7 52.8 52.8 52.8s52.8-23.7 52.8-52.8v-201.6c0-29.1-23.7-52.8-52.8-52.8z" fill="url(#SVGID_1_)"/><path d="m257.3 409.6v102.4c-.4 0-.8 0-1.3 0-85.6 0-155.2-69.6-155.2-155.2v-62.4h102.4v62.4c0 29.1 23.7 52.8 52.8 52.8z" fill="url(#SVGID_00000038391099333268741150000017192948677795546794_)"/><path d="m411.2 155.2v201.6c0 85.7-69.5 155.2-155.2 155.2h-144.3c-5.3 0-9.3-4.9-8.2-10.1 4.4-20.2 14-38.5 27.4-53.3 21.5-23.9 52.7-39 87.4-39h37.7c29.2 0 52.8-23.6 52.8-52.8v-201.6z" fill="url(#SVGID_00000098181391554654989970000017674063208630781365_)"/><path d="m161.7 424.2c-11.6 6.4-22 14.7-30.7 24.4-13.4 14.8-23 33.1-27.4 53.3-1.1 5.2 2.9 10.1 8.2 10.1h144.2c61.6 0 114.8-35.9 139.9-87.8z" fill="url(#SVGID_00000036943346410334773330000011538221790278753168_)"/><path d="m308.8 502.8c59.7-21.6 102.4-78.8 102.4-146v-201.6h-102.4z" fill="url(#SVGID_00000125575711850918919170000016831494749121287051_)"/><path d="m308.8 356.8c0 29.2-23.6 52.8-52.8 52.8h146c6-16.5 9.2-34.3 9.2-52.8v-201.6h-102.4z" fill="url(#SVGID_00000041282128267906995110000018354639381444618942_)"/><g><path d="m441.2 271.9c-19.7-35.7-29-75.9-29-116.7 0-1.1 0-2.1 0-3.2-2.7-134.6-206.3-134.6-209 0v3.2c0-29.1 23.7-52.8 52.8-52.8 24.6 0 45.4 17 51.2 39.8 1.1 4.2 1.6 8.5 1.6 13 0 71.3 57.8 129.1 129.1 129.1 4.5 0 7.4-4.9 5.2-8.9z" fill="url(#SVGID_00000173125877816341927980000004902914448175386795_)"/><path d="m441.2 271.9c-19.7-35.7-29-75.9-29-116.7 0-1.1 0-2.1 0-3.2-1.1-55.9-36.9-88.6-78.6-98v177.3c23.5 32.2 61.5 53 104.3 53 4.5 0 7.4-4.9 5.2-8.9z" fill="url(#SVGID_00000108288370941566855270000014119058518299573933_)"/><path d="m412.2 152.1c-2.7-134.6-206.3-134.6-209 0v3.2c0-29.1 23.7-52.8 52.8-52.8 24.6 0 45.4 17 51.2 39.8 1.1 4.2 1.6 8.5 1.6 13 0 10.1 1.2 20 3.4 29.4h101.7c-1.1-9.7-1.7-19.5-1.7-29.4 0-1.1 0-2.2 0-3.2z" fill="url(#SVGID_00000028299567457443237670000002475832932314933900_)"/></g></g></svg>