<svg id="&#x421;&#x43B;&#x43E;&#x439;_1" enable-background="new 0 0 512 512" viewBox="0 0 512 512" xmlns="http://www.w3.org/2000/svg"><g><g stroke-miterlimit="10" stroke-width="7"><path d="m107.5 234.5c0 6.6-5.4 12-12 12h-72c-6.6 0-12-5.4-12-12v-34c0-6.6 5.4-12 12-12h72c6.6 0 12 5.4 12 12z" fill="#6fb98f" stroke="#041c1e"/><path d="m186.8 220.8-21.5 21.5c-1.8 1.8-4.8 1.8-6.6 0l-21.7-21.5c-1.8-1.8-1.8-4.8 0-6.6l21.5-21.5c1.8-1.8 4.8-1.8 6.6 0l21.5 21.5c2 1.8 2 4.8.2 6.6z" fill="#004344" stroke="#041c1e"/><path d="m153.7 209.3 16.4 16.4" fill="none" stroke="#fafafa"/><path d="m154 225.3 15.8-15.8" fill="none" stroke="#fafafa"/></g><g><path d="m108 219h24" fill="#6fb98f"/><g><path d="m108 218.5h19" fill="none" stroke="#041c1e" stroke-miterlimit="10" stroke-width="7"/><g><path d="m116.8 227 8.3-8.5-8.3-8.5h7.1l8.3 8.5-8.3 8.5z" fill="#041c1e"/></g></g></g><path d="m209.5 151.5c0 6.6-5.4 12-12 12h-72c-6.6 0-12-5.4-12-12v-34c0-6.6 5.4-12 12-12h72c6.6 0 12 5.4 12 12z" fill="#6fb98f" stroke="#041c1e" stroke-miterlimit="10" stroke-width="7"/><path d="m209.5 317.5c0 6.6-5.4 12-12 12h-72c-6.6 0-12-5.4-12-12v-34c0-6.6 5.4-12 12-12h72c6.6 0 12 5.4 12 12z" fill="#6fb98f" stroke="#041c1e" stroke-miterlimit="10" stroke-width="7"/><g><path d="m161 192v-25" fill="#6fb98f"/><g><path d="m161.5 192v-19" fill="none" stroke="#041c1e" stroke-miterlimit="10" stroke-width="7"/><g><path d="m169 182.5-8-8.3-8 8.3v-7.1l8-8.3 8 8.3z" fill="#041c1e"/></g></g></g><g><path d="m161 243v26" fill="#6fb98f"/><g><path d="m161.5 243v20" fill="none" stroke="#041c1e" stroke-miterlimit="10" stroke-width="7"/><g><path d="m153 253.6 8 8.3 8-8.3v7l-8 8.3-8-8.3z" fill="#041c1e"/></g></g></g><path d="m288.9 304.7-21.5 21.5c-1.8 1.8-4.8 1.8-6.6 0l-21.5-21.5c-1.8-1.8-1.8-4.8 0-6.6l21.5-21.5c1.8-1.8 4.8-1.8 6.6 0l21.5 21.5c1.8 1.8 1.8 4.8 0 6.6z" fill="#004344" stroke="#041c1e" stroke-miterlimit="10" stroke-width="7"/><path d="m250 302.5h28" fill="none" stroke="#fafafa" stroke-miterlimit="10" stroke-width="7"/><path d="m263.5 316v-27" fill="none" stroke="#fafafa" stroke-miterlimit="10" stroke-width="7"/><g><path d="m210 302h27" fill="#6fb98f"/><g><path d="m210 301.5h21" fill="none" stroke="#041c1e" stroke-miterlimit="10" stroke-width="7"/><g><path d="m221.2 310 8.3-8-8.3-8h7l8.3 8-8.3 8z" fill="#041c1e"/></g></g></g><path d="m389.5 215.5c0 6.6-5.4 12-12 12h-72c-6.6 0-12-5.4-12-12v-34c0-6.6 5.4-12 12-12h72c6.6 0 12 5.4 12 12z" fill="#6fb98f" stroke="#041c1e" stroke-miterlimit="10" stroke-width="7"/><path d="m389.5 420.5c0 6.6-5.4 12-12 12h-72c-6.6 0-12-5.4-12-12v-34c0-6.6 5.4-12 12-12h72c6.6 0 12 5.4 12 12z" fill="#6fb98f" stroke="#041c1e" stroke-miterlimit="10" stroke-width="7"/><g><path d="m59 161v24" fill="#6fb98f"/><g><path d="m59.5 161v19" fill="none" stroke="#041c1e" stroke-miterlimit="10" stroke-width="7"/><g><path d="m51 170.1 8.5 8.3 8.5-8.3v7l-8.5 8.3-8.5-8.3z" fill="#041c1e"/></g></g></g><circle cx="59.6" cy="146.4" fill="#2b7974" r="14.9" stroke="#041c1e" stroke-miterlimit="10" stroke-width="7"/><path d="m444 306.1-21.5 21.5c-1.8 1.8-4.8 1.8-6.6 0l-21.5-21.5c-1.8-1.8-1.8-4.8 0-6.6l21.5-21.5c1.8-1.8 4.8-1.8 6.6 0l21.5 21.5c1.8 1.8 1.8 4.7 0 6.6z" fill="#004344" stroke="#041c1e" stroke-miterlimit="10" stroke-width="7"/><path d="m406 303.5h27" fill="none" stroke="#fafafa" stroke-miterlimit="10" stroke-width="7"/><path d="m419.5 317v-27" fill="none" stroke="#fafafa" stroke-miterlimit="10" stroke-width="7"/><g><g><path d="m263.5 328v77.5h22.5" fill="none" stroke="#041c1e" stroke-miterlimit="10" stroke-width="7"/><g><path d="m276.6 414 8.3-8-8.3-8h7l8.3 8-8.3 8z" fill="#041c1e"/></g></g></g><g><g><path d="m264.5 274v-73.5h21.5" fill="none" stroke="#041c1e" stroke-miterlimit="10" stroke-width="7"/><g><path d="m276.6 209 8.3-8.5-8.3-8.5h7l8.3 8.5-8.3 8.5z" fill="#041c1e"/></g></g></g><g><g><path d="m418.5 328v80.5h-21.5" fill="none" stroke="#041c1e" stroke-miterlimit="10" stroke-width="7"/><g><path d="m406.7 401-8.4 8 8.4 8h-7.1l-8.3-8 8.3-8z" fill="#041c1e"/></g></g></g><g><g><path d="m419.5 280v-80.5h-23.5" fill="none" stroke="#041c1e" stroke-miterlimit="10" stroke-width="7"/><g><path d="m406.1 191-8.3 8 8.3 8h-7l-8.3-8 8.3-8z" fill="#041c1e"/></g></g></g><circle cx="490.1" cy="302.7" fill="#031b1d" r="14.9" stroke="#041c1e" stroke-miterlimit="10" stroke-width="7"/><g><path d="m446 303h26" fill="#6fb98f"/><g><path d="m446 303.5h21" fill="none" stroke="#041c1e" stroke-miterlimit="10" stroke-width="7"/><g><path d="m456.9 311 8.3-8-8.3-8h7l8.3 8-8.3 8z" fill="#041c1e"/></g></g></g></g></svg>