<svg id="&#x421;&#x43B;&#x43E;&#x439;_1" enable-background="new 0 0 512 512" viewBox="0 0 512 512" xmlns="http://www.w3.org/2000/svg"><g stroke="#303232" stroke-miterlimit="10" stroke-width="10"><g fill="#426e87"><path d="m161.6 105.5h-58c-4.9 0-9-4.1-9-9v-30c0-5 4.1-9 9-9h58c4.9 0 9 4 9 9v30c0 4.9-4.1 9-9 9z"/><path d="m317.9 194h-58c-5 0-9-4.1-9-9v-30c0-4.9 4-9 9-9h58c4.9 0 9 4.1 9 9v30c0 4.9-4 9-9 9z"/><path d="m317.9 105.5h-58c-5 0-9-4.1-9-9v-30c0-5 4-9 9-9h58c4.9 0 9 4 9 9v30c0 4.9-4 9-9 9z"/></g><path d="m198.2 69h25v25h-25z" fill="#f9ba32" stroke-linecap="round" stroke-linejoin="round" transform="matrix(.707 .707 -.707 .707 119.353 -125.144)"/><circle cx="38.4" cy="81.5" fill="#f9ba32" r="16" stroke-linecap="round" stroke-linejoin="round"/><path d="m170.6 81.5h22.5" fill="#fff"/><path d="m228.4 81.5h22.5" fill="#fff"/><path d="m210.7 99.2v70.8h40.2" fill="none"/><path d="m54.4 81.5h40.2" fill="#fff"/><path d="m363.9 69h25v25h-25z" fill="#f9ba32" stroke-linecap="round" stroke-linejoin="round" transform="matrix(.707 .707 -.707 .707 167.876 -242.288)"/><path d="m326.9 81.5h31.8" fill="#fff"/><path d="m326.9 170h49.5v-70.8" fill="none"/><path d="m276.4 244.5h25v25h-25z" fill="#f9ba32" stroke-linecap="round" stroke-linejoin="round" transform="matrix(.707 .707 -.707 .707 266.345 -129.014)"/><path d="m249.3 460.3h-208.2c-5 0-9-4.1-9-9v-126.7c0-4.9 4-9 9-9h208.3c5 0 9 4.1 9 9v126.7c-.1 5-4.1 9-9.1 9z" fill="#f8f1e4"/><circle cx="474.3" cy="81.5" fill="#f9ba32" r="16" stroke-linecap="round" stroke-linejoin="round"/><path d="m119.4 412h-58c-4.9 0-9-4-9-9v-30c0-5 4.1-9 9-9h58c5 0 9 4 9 9v30c0 4.9-4 9-9 9z" fill="#426e87"/><path d="m228.7 412h-58c-4.9 0-9-4-9-9v-30c0-5 4.1-9 9-9h58c4.9 0 9 4 9 9v30c0 4.9-4.1 9-9 9z" fill="#426e87"/><path d="m271.2 257h-126v58.6" fill="none"/><path d="m288.9 194v45.3" fill="none"/><path d="m128.4 388h33.3" fill="#fff"/><path d="m409.8 412h-58c-5 0-9-4-9-9v-30c0-5 4-9 9-9h58c4.9 0 9 4 9 9v30c0 4.9-4 9-9 9z" fill="#426e87"/><circle cx="474.3" cy="388" fill="#f9ba32" r="16" stroke-linecap="round" stroke-linejoin="round"/><path d="m394.1 81.5h64.2" fill="#fff"/><path d="m306.6 257h74.2v107" fill="none"/><path d="m418.8 388h39.5" fill="#fff"/></g></svg>