<svg height="512.01964pt" viewBox="0 0 512.01964 512.01964" width="512.01964pt" xmlns="http://www.w3.org/2000/svg"><path d="m370.757812 191.226562v294.308594c0 14.628906-11.855468 26.484375-26.480468 26.484375h-317.792969c-14.628906 0-26.484375-11.855469-26.484375-26.484375v-406.066406l79.449219-79.4492188h264.828125c14.625 0 26.480468 11.8554688 26.480468 26.4843748zm0 0" fill="#e4e8eb"/><path d="m311.613281 229.800781-35.664062 18.097657c-.769531.410156-1.605469.679687-2.46875.792968-2.859375.582032-5.816407-.328125-7.851563-2.414062-2.035156-2.089844-2.871094-5.070313-2.214844-7.914063.085938-.800781.324219-1.582031.707032-2.292969l18.097656-35.664062zm0 0" fill="#424852"/><path d="m353.101562 208.878906-41.488281 20.921875-29.394531-29.394531 20.921875-41.488281h14.652344l35.308593 35.308593zm0 0" fill="#e3b692"/><path d="m264.828125 114.777344c0-24.375-35.570313-44.136719-79.449219-44.136719s-79.449218 19.761719-79.449218 44.136719c0 24.378906 35.570312 44.140625 79.449218 44.140625s79.449219-19.761719 79.449219-44.140625zm0 0" fill="#9ed26a"/><path d="m247.171875 441.398438c0-19.5-27.664063-35.308594-61.792969-35.308594s-61.792968 15.808594-61.792968 35.308594 27.664062 35.3125 61.792968 35.3125 61.792969-15.8125 61.792969-35.3125zm0 0" fill="#9ed26a"/><path d="m223.25 253.460938-31.601562 31.601562c-3.472657 3.441406-9.066407 3.441406-12.535157 0l-31.605469-31.601562c-3.441406-3.46875-3.441406-9.066407 0-12.535157l31.605469-31.605469c3.46875-3.441406 9.0625-3.441406 12.535157 0l29.042968 29.042969 2.558594 2.5625c3.441406 3.46875 3.441406 9.066407 0 12.535157zm0 0" fill="#fdcd56"/><path d="m44.136719 308.984375h88.277343c4.875 0 8.828126 3.953125 8.828126 8.828125v52.964844c0 4.875-3.953126 8.828125-8.828126 8.828125h-88.277343c-4.875 0-8.828125-3.953125-8.828125-8.828125v-52.964844c0-4.875 3.953125-8.828125 8.828125-8.828125zm0 0" fill="#eb5463"/><path d="m0 79.46875h52.964844c14.625 0 26.484375-11.859375 26.484375-26.484375v-52.9648438zm0 0" fill="#cad0d7"/><path d="m489.136719 72.757812-136.035157 136.121094-49.960937-49.960937 136.121094-136.035157 10.945312-5.207031 44.136719 44.136719zm0 0" fill="#fdcd56"/><path d="m501.671875 60.3125-12.535156 12.445312-49.875-49.875 12.445312-12.535156c13.796875-13.796875 36.167969-13.796875 49.964844 0s13.796875 36.167969 0 49.964844zm0 0" fill="#eb5463"/><path d="m370.757812 26.503906v64.792969l-26.480468 26.484375v-91.277344c0-14.628906-11.859375-26.4843748-26.484375-26.4843748h26.484375c14.625 0 26.480468 11.8554688 26.480468 26.4843748zm0 0" fill="#cad0d7"/><path d="m370.757812 191.226562v294.308594c0 14.628906-11.855468 26.484375-26.480468 26.484375h-26.484375c14.625 0 26.484375-11.855469 26.484375-26.484375v-272.242187l8.824218-4.414063zm0 0" fill="#cad0d7"/><path d="m311.613281 229.800781-35.664062 18.097657c-3.363281 1.757812-7.472657 1.148437-10.183594-1.503907-2.714844-2.652343-3.414063-6.746093-1.734375-10.148437.089844 0 .089844-.089844.179688-.089844l35.664062-18.09375zm0 0" fill="#32373f"/><path d="m353.101562 208.878906-41.488281 20.921875-11.738281-11.738281 41.488281-20.921875zm0 0" fill="#ce9e7e"/><path d="m489.136719 72.757812-136.035157 136.121094-11.738281-11.738281 7.328125-7.328125 128.703125-128.792969zm0 0" fill="#f5b945"/><path d="m501.671875 60.3125-12.535156 12.445312-11.742188-11.738281 8.121094-8.035156 4.414063-4.414063c11.535156-11.519531 13.652343-29.453124 5.121093-43.34375 2.433594 1.394532 4.660157 3.117188 6.621094 5.121094 13.769531 13.808594 13.769531 36.15625 0 49.964844zm0 0" fill="#d94452"/><path d="m273.480469 248.691406c-.730469 4.21875-4.375 7.304688-8.652344 7.328125h-44.136719l2.558594-2.558593c3.441406-3.46875 3.441406-9.066407 0-12.535157l-2.558594-2.5625h42.722656c-.65625 2.84375.179688 5.824219 2.214844 7.914063 2.035156 2.085937 4.992188 2.996094 7.851563 2.414062zm0 0" fill="#424852"/><path d="m220.691406 123.605469h-70.621094c-4.875 0-8.828124-3.953125-8.828124-8.828125s3.953124-8.828125 8.828124-8.828125h70.621094c4.875 0 8.824219 3.953125 8.824219 8.828125s-3.949219 8.828125-8.824219 8.828125zm0 0" fill="#89c053"/><path d="m105.929688 353.125h-35.308594c-4.875 0-8.828125-3.953125-8.828125-8.828125s3.953125-8.828125 8.828125-8.828125h35.308594c4.875 0 8.828124 3.953125 8.828124 8.828125s-3.953124 8.828125-8.828124 8.828125zm0 0" fill="#d94452"/><g fill="#424852"><path d="m194.207031 158.5625v53.320312l-2.558593-2.5625c-3.472657-3.441406-9.066407-3.441406-12.535157 0l-2.5625 2.5625v-53.320312c2.914063.265625 5.828125.355469 8.828125.355469s5.914063-.089844 8.828125-.355469zm0 0"/><path d="m147.507812 253.460938 2.5625 2.558593h-44.140624c-4.875 0-8.828126 3.953125-8.828126 8.828125v44.136719h-17.652343v-44.136719c.042969-14.609375 11.875-26.441406 26.480469-26.484375h44.140624l-2.5625 2.5625c-3.441406 3.46875-3.441406 9.066407 0 12.535157zm0 0"/><path d="m123.585938 441.398438c.011718 3.058593.703124 6.074218 2.03125 8.828124h-19.6875c-14.605469-.042968-26.4375-11.875-26.480469-26.484374v-44.136719h17.652343v44.136719c0 4.875 3.953126 8.828124 8.828126 8.828124h19.6875c-1.328126 2.753907-2.019532 5.773438-2.03125 8.828126zm0 0"/></g></svg>