<svg id="Capa_1" enable-background="new 0 0 512 512" height="512" viewBox="0 0 512 512" width="512" xmlns="http://www.w3.org/2000/svg"><g><path d="m501.698 445.475v-273.755l-175.788-83.717h-310.457c-8.535 0-15.453 6.918-15.453 15.452v331.718z" fill="#faf8f8"/><path d="m496.547 88.003h-170.637c-6.171 12.413-9.644 26.404-9.644 41.207 0 51.206 41.511 92.716 92.716 92.716 35.883 0 67.001-20.386 82.414-50.206v255.727c0 4.267-3.459 7.726-7.726 7.726h-483.67v5.151c0 8.534 6.918 15.453 15.453 15.453h481.095c8.534 0 15.453-6.918 15.453-15.453v-336.869c-.001-8.534-6.92-15.452-15.454-15.452z" fill="#e1dee2"/><path d="m110.664 49.754c-2.275-1.318-4.908-2.084-7.726-2.084-8.534 0-15.453 6.918-15.453 15.453 0 7.014 3.863 13.234 7.726 17.701 15.453-9.802 15.451-18.373 15.453-31.07z" fill="#e592b8"/><path d="m118.391 63.122c0-5.716-3.112-10.696-7.727-13.369-.003 12.697-4.426 21.1-15.452 31.07v21.087c0 4.267 3.459 7.726 7.726 7.726 4.268 0 7.726-3.459 7.726-7.726v-21.087c3.864-4.466 7.727-10.686 7.727-17.701z" fill="#de5ca3"/><path d="m213.683 49.754c-2.275-1.318-4.908-2.084-7.726-2.084-8.534 0-15.453 6.918-15.453 15.453 0 7.014 3.863 13.234 7.726 17.701 15.453-9.802 15.45-18.373 15.453-31.07z" fill="#e592b8"/><path d="m221.409 63.122c0-5.716-3.112-10.696-7.727-13.369-.003 12.697-4.426 21.1-15.452 31.07v21.087c0 4.267 3.459 7.726 7.726 7.726 4.268 0 7.726-3.459 7.726-7.726v-21.087c3.864-4.466 7.727-10.686 7.727-17.701z" fill="#de5ca3"/><path d="m110.665 462.957v-21.087c0-4.267-3.459-7.726-7.726-7.726-4.268 0-7.726 3.459-7.726 7.726v21.087c-3.863 4.466-7.726 10.686-7.726 17.701 0 1.23.159 2.421.43 3.568 3.709 3.999 7.444 6.734 11.932 6.734 12.108-.001 16.213-15.016 10.816-28.003z" fill="#e592b8"/><path d="m110.665 462.957c0 10.643-3.859 22.852-15.968 22.852-2.436 0-4.731-.579-6.781-1.583 1.613 6.811 7.718 11.885 15.022 11.885 8.534 0 15.453-6.918 15.453-15.453 0-7.015-3.863-13.235-7.726-17.701z" fill="#de5ca3"/><path d="m213.683 462.957v-21.087c0-4.267-3.459-7.726-7.726-7.726-4.268 0-7.726 3.459-7.726 7.726v21.087c-3.863 4.466-7.726 10.686-7.726 17.701 0 1.23.159 2.421.43 3.568 3.709 3.999 7.444 6.734 11.932 6.734 12.108-.001 16.213-15.016 10.816-28.003z" fill="#e592b8"/><path d="m213.683 462.957c0 10.643-3.859 22.852-15.968 22.852-2.436 0-4.731-.579-6.781-1.583 1.613 6.811 7.718 11.885 15.022 11.885 8.534 0 15.453-6.918 15.453-15.453 0-7.015-3.863-13.235-7.726-17.701z" fill="#de5ca3"/><path d="m388.814 462.957v-21.087c0-4.267-3.459-7.726-7.726-7.726s-7.726 3.459-7.726 7.726v21.087c-3.863 4.466-7.726 10.686-7.726 17.701 0 1.23.159 2.421.43 3.568 3.709 3.999 7.444 6.734 11.932 6.734 12.107-.001 16.213-15.016 10.816-28.003z" fill="#e592b8"/><path d="m388.814 462.957c0 10.643-3.859 22.852-15.968 22.852-2.436 0-4.731-.579-6.781-1.583 1.613 6.811 7.718 11.885 15.022 11.885 8.534 0 15.453-6.918 15.453-15.453 0-7.015-3.863-13.235-7.726-17.701z" fill="#de5ca3"/><path d="m478.734 462.957v-21.087c0-4.267-3.459-7.726-7.726-7.726-4.268 0-7.726 3.459-7.726 7.726v21.087c-3.863 4.466-7.726 10.686-7.726 17.701 0 1.23.159 2.421.43 3.568 3.709 3.999 7.444 6.734 11.932 6.734 12.108-.001 16.214-15.016 10.816-28.003z" fill="#e592b8"/><path d="m478.734 462.957c0 10.643-3.859 22.852-15.968 22.852-2.436 0-4.731-.579-6.781-1.583 1.613 6.811 7.718 11.885 15.022 11.885 8.534 0 15.453-6.918 15.453-15.453.001-7.015-3.863-13.235-7.726-17.701z" fill="#de5ca3"/><path d="m473.883 101.395c0-22.455-9.226-47.048-26.417-64.239-16.043-13.282-36.633-21.266-59.088-21.266-51.206 0-92.716 41.51-92.716 92.716 0 22.455 7.984 43.045 21.266 59.088 18.723 18.723 41.784 26.417 64.239 26.417 51.206 0 92.716-41.51 92.716-92.716z" fill="#e592b8"/><path d="m447.466 37.156c13.282 16.043 21.266 36.633 21.266 59.088 0 51.206-41.511 92.716-92.716 92.716-22.455 0-43.045-7.984-59.088-21.266 17.007 20.541 42.699 33.628 71.45 33.628 51.206 0 92.716-41.51 92.716-92.716.001-28.75-13.087-54.444-33.628-71.45z" fill="#de5ca3"/><path d="m450.189 108.606c0-13.121-4.101-25.278-11.073-35.285-13.481-13.481-29.375-18.284-42.496-18.284-34.137 0-61.811 27.674-61.811 61.811 0 13.121 5.081 29.293 18.284 42.497 10.007 6.972 22.164 11.073 35.285 11.073 34.137-.001 61.811-27.675 61.811-61.812z" fill="#faf8f8"/><path d="m403.831 62.248c13.121 0 25.278 4.1 35.285 11.073-11.168-16.028-29.722-26.526-50.738-26.526-34.137 0-61.811 27.674-61.811 61.811 0 21.016 10.497 39.57 26.525 50.738-6.972-10.007-11.073-22.164-11.073-35.285.001-34.137 27.675-61.811 61.812-61.811z" fill="#e1dee2"/><path d="m41.128 125.089c-4.268 0-7.726 3.459-7.726 7.726v30.905c0 4.267 3.459 7.726 7.726 7.726s7.726-3.459 7.726-7.726v-7.726h46.358v7.726c0 4.267 3.459 7.726 7.726 7.726 4.268 0 7.726-3.459 7.726-7.726v-30.905c0-4.267-3.459-7.726-7.726-7.726-4.268 0-7.726 3.459-7.726 7.726v7.726h-46.358v-7.726c0-4.267-3.459-7.726-7.726-7.726z" fill="#e592b8"/><g fill="#a29aa5"><path d="m205.957 186.9c-4.268 0-7.726 3.459-7.726 7.726v7.726h-87.565v-7.726c0-4.267-3.459-7.726-7.726-7.726-4.268 0-7.726 3.459-7.726 7.726v30.905c0 4.267 3.459 7.726 7.726 7.726 4.268 0 7.726-3.459 7.726-7.726v-7.726h87.565v7.726c0 4.267 3.459 7.726 7.726 7.726s7.726-3.459 7.726-7.726v-30.905c0-4.267-3.459-7.726-7.726-7.726z"/><path d="m381.088 248.711c-4.268 0-7.726 3.459-7.726 7.726v7.726h-262.697v-7.726c0-4.267-3.459-7.726-7.726-7.726-4.268 0-7.726 3.459-7.726 7.726v30.905c0 4.267 3.459 7.726 7.726 7.726 4.268 0 7.726-3.459 7.726-7.726v-7.726h262.696v7.726c0 4.267 3.459 7.726 7.726 7.726s7.726-3.459 7.726-7.726v-30.905c.001-4.267-3.458-7.726-7.725-7.726z"/><path d="m205.957 310.522c-4.268 0-7.726 3.459-7.726 7.726v30.905c0 4.267 3.459 7.726 7.726 7.726s7.726-3.459 7.726-7.726v-7.726h159.678v7.726c0 4.267 3.459 7.726 7.726 7.726s7.726-3.459 7.726-7.726v-30.905c0-4.267-3.459-7.726-7.726-7.726s-7.726 3.459-7.726 7.726v7.726h-159.678v-7.726c0-4.267-3.459-7.726-7.726-7.726z"/></g><path d="m470.793 418.691c4.268 0 7.726-3.459 7.726-7.726v-30.905c0-4.267-3.459-7.726-7.726-7.726s-7.726 3.459-7.726 7.726v7.726h-74.253v-7.726c0-4.267-3.459-7.726-7.726-7.726s-7.726 3.459-7.726 7.726v30.905c0 4.267 3.459 7.726 7.726 7.726s7.726-3.459 7.726-7.726v-7.726h74.253v7.726c-.001 4.266 3.458 7.726 7.726 7.726z" fill="#94ccd4"/><path d="m388.378 69.974c-4.268 0-7.726 3.459-7.726 7.726v30.905c0 2.049.814 4.015 2.264 5.463l14.569 14.569c1.508 1.509 3.486 2.263 5.463 2.263s3.955-.755 5.464-2.263c3.017-3.018 3.017-7.909-.001-10.927l-12.306-12.306v-27.703c0-4.267-3.459-7.727-7.727-7.727z" fill="#a29aa5"/></g></svg>