<svg id="&#x421;&#x43B;&#x43E;&#x439;_1" enable-background="new 0 0 512 512" viewBox="0 0 512 512" xmlns="http://www.w3.org/2000/svg"><g stroke="#041c1e" stroke-miterlimit="10" stroke-width="7"><g fill="#fff"><g><path d="m113.5 445.4c-104.7-78.7-125.7-227.2-46.9-331.9s227.2-125.7 331.9-47 125.7 227.2 47 331.9-227.3 125.8-332 47z"/><path d=""/><path d=""/><path d=""/></g><g><path d="m256 256-142.5 189.4"/><path d="m256 256 136.1 194"/><path d="m256 256 226.6-69.5"/><path d="m256 256 3.9-237"/><path d="m256 256-224.2-77"/></g></g><path d="m72.1 192.9 187.8-153.9 191.1 157.2-65.9 243.8-243.4-32.1z" fill="#6fb98f"/><path d="m96.2 199.2 159.8-85.8 185.3 85.8-98.2 180.9-192 15.4z" fill="#2b7974"/><path d="m172.9 366.6 11.9-135.1 73-86.7 134.3 69.4-60.5 149.5z" fill="#004344"/><path d="m256 199.2 52.5 40.7-5 83.8-95-4.6v-79.4z" fill="#031b1d"/></g></svg>