<svg id="Capa_1" enable-background="new 0 0 512 512" viewBox="0 0 512 512" xmlns="http://www.w3.org/2000/svg"><g><g><path d="m104.065 286.395c-4.143 0-7.5-3.358-7.5-7.5v-97.113c0-4.142 3.357-7.5 7.5-7.5s7.5 3.358 7.5 7.5v97.113c0 4.142-3.357 7.5-7.5 7.5z" fill="#ffd15b"/></g><g><path d="m407.935 286.395c-4.143 0-7.5-3.358-7.5-7.5v-97.113c0-4.142 3.357-7.5 7.5-7.5s7.5 3.358 7.5 7.5v97.113c0 4.142-3.358 7.5-7.5 7.5z" fill="#ffd15b"/></g><g><path d="m407.935 189.282h-303.87c-4.143 0-7.5-3.358-7.5-7.5s3.357-7.5 7.5-7.5h303.869c4.143 0 7.5 3.358 7.5 7.5s-3.357 7.5-7.499 7.5z" fill="#ffd15b"/></g><g><path d="m373.175 122.797h-234.35c-11.495 0-20.813-9.318-20.813-20.813v-81.171c0-11.495 9.318-20.813 20.813-20.813h234.351c11.495 0 20.813 9.318 20.813 20.813v81.171c-.001 11.494-9.319 20.813-20.814 20.813z" fill="#fd8087"/></g><g><path d="m373.175 0h-33.301c11.495 0 20.813 9.318 20.813 20.813v81.171c0 11.495-9.318 20.813-20.813 20.813h33.301c11.495 0 20.813-9.318 20.813-20.813v-81.171c0-11.495-9.318-20.813-20.813-20.813z" fill="#fe646f"/></g><g><circle cx="104.065" cy="181.782" fill="#ffe177" r="24.976"/></g><g><circle cx="407.935" cy="181.782" fill="#ffe177" r="24.976"/></g><g fill="#eaf6ff"><path d="m243.666 31.442c-.025-.069-.053-.139-.081-.207-1.359-3.302-4.544-5.434-8.113-5.434-.003 0-.006 0-.009 0-3.573.003-6.758 2.143-8.111 5.45-.023.057-.047.115-.068.172l-21.101 55.404c-1.475 3.871.469 8.204 4.34 9.678 3.865 1.475 8.203-.468 9.678-4.339l3.416-8.968h23.55l3.376 8.947c1.133 3.003 3.987 4.854 7.018 4.854.88 0 1.775-.156 2.647-.485 3.875-1.462 5.831-5.79 4.368-9.665zm-14.338 36.755 6.116-16.059 6.06 16.059z"/><path d="m189.194 47.905c0-12.188-10.287-22.104-22.931-22.104h-14.951c-4.143 0-7.5 3.358-7.5 7.5v56.195c0 4.142 3.357 7.5 7.5 7.5s7.5-3.358 7.5-7.5v-14.647l17.252 19.602c1.482 1.685 3.553 2.545 5.633 2.545 1.76 0 3.527-.616 4.952-1.87 3.109-2.736 3.411-7.476.675-10.585l-13.796-15.675c9.093-2.936 15.666-11.22 15.666-20.961zm-22.93 7.105c-1.741 0-4.653.011-7.451.024v-14.233h7.451c4.299 0 7.931 3.253 7.931 7.104s-3.633 7.105-7.931 7.105z"/><path d="m337.994 25.801h-15.915c-4.143 0-7.5 3.358-7.5 7.5v56.195c0 4.142 3.357 7.5 7.5 7.5h16.381c17.226 0 29.728-14.971 29.728-35.598 0-21.292-12.134-35.597-30.194-35.597zm.466 56.195h-8.881v-41.195h8.415c14.098 0 15.193 15.766 15.193 20.598.001 9.92-4.608 20.597-14.727 20.597z"/><path d="m289.818 25.801c-4.143 0-7.5 3.358-7.5 7.5v56.195c0 4.142 3.357 7.5 7.5 7.5s7.5-3.358 7.5-7.5v-56.195c0-4.142-3.357-7.5-7.5-7.5z"/></g><g><g><g><path d="m129.447 512 7.567-.813 20.026-5.314 23.933-19.146v-49.355l-23.933-19.146-20.026-5.314-7.567-.813h-4.568l-34.392-23.303-40.535 23.303c-27.588-.001-49.952 22.363-49.952 49.95 0 27.587 22.364 49.951 49.951 49.951h74.927z" fill="#e2dee2"/></g><g><path d="m129.447 412.098 7.567-.813 20.026-5.314 23.933-19.146v-49.355l-23.933-19.146-20.026-5.314-7.567-.813h-4.568-74.928c-27.587-.002-49.951 22.362-49.951 49.949 0 27.587 22.364 49.951 49.951 49.951h74.927 4.569z" fill="#e2dee2"/></g><g><circle cx="49.951" cy="362.146" fill="#fd8087" r="16.65"/></g><g><circle cx="49.951" cy="457.886" fill="#fd8087" r="16.65"/></g></g><g><path d="m158.179 412.098c27.871 0 50.411-22.827 49.944-50.805-.457-27.388-23.374-49.098-50.766-49.098h-32.479c27.587 0 49.951 22.364 49.951 49.951 0 13.547-5.396 25.83-14.153 34.826-4.808 4.939-11.478 7.621-18.37 7.621h-118.682c7.645 4.752 16.663 7.504 26.327 7.504-9.658 0-18.671 2.749-26.313 7.496h118.66c6.89 0 13.558 2.681 18.366 7.617 8.765 8.997 14.166 21.285 14.166 34.839 0 27.587-22.364 49.951-49.951 49.951h32.479c27.392 0 50.309-21.709 50.766-49.098.466-27.978-22.074-50.804-49.945-50.804z" fill="#cbc4cc"/></g><g><path d="m174.829 369.646h-74.927c-4.143 0-7.5-3.358-7.5-7.5s3.357-7.5 7.5-7.5h74.927c4.143 0 7.5 3.358 7.5 7.5s-3.357 7.5-7.5 7.5z" fill="#918291"/></g><g><path d="m174.829 465.386h-74.927c-4.143 0-7.5-3.358-7.5-7.5s3.357-7.5 7.5-7.5h74.927c4.143 0 7.5 3.358 7.5 7.5s-3.357 7.5-7.5 7.5z" fill="#918291"/></g></g><g><g><g><path d="m433.316 512 7.567-.813 20.026-5.314 23.933-19.146v-49.355l-23.933-19.146-20.026-5.314-7.567-.813h-4.568l-34.392-23.303-40.535 23.303c-27.587 0-49.951 22.364-49.951 49.951 0 27.587 22.364 49.951 49.951 49.951h74.927 4.568z" fill="#e2dee2"/></g><g><path d="m433.316 412.098 7.567-.813 20.026-5.314 23.933-19.146v-49.355l-23.933-19.146-20.026-5.314-7.567-.813h-4.568-74.927c-27.587 0-49.951 22.364-49.951 49.951 0 27.587 22.364 49.951 49.951 49.951h74.927 4.568z" fill="#e2dee2"/></g><g><circle cx="353.821" cy="362.146" fill="#fd8087" r="16.65"/></g><g><circle cx="353.821" cy="457.886" fill="#fd8087" r="16.65"/></g></g><g><path d="m462.049 412.098c27.871 0 50.411-22.827 49.944-50.805-.457-27.388-23.374-49.098-50.766-49.098h-32.479c27.587 0 49.951 22.364 49.951 49.951 0 13.547-5.396 25.83-14.153 34.826-4.808 4.939-11.478 7.621-18.37 7.621h-118.682c7.645 4.752 16.663 7.504 26.327 7.504-9.658 0-18.671 2.749-26.313 7.496h118.66c6.89 0 13.558 2.681 18.366 7.617 8.765 8.997 14.166 21.285 14.166 34.839 0 27.587-22.364 49.951-49.951 49.951h32.479c27.392 0 50.309-21.709 50.766-49.098.466-27.978-22.074-50.804-49.945-50.804z" fill="#cbc4cc"/></g><g><path d="m478.699 369.646h-74.927c-4.143 0-7.5-3.358-7.5-7.5s3.357-7.5 7.5-7.5h74.927c4.143 0 7.5 3.358 7.5 7.5s-3.357 7.5-7.5 7.5z" fill="#918291"/></g><g><path d="m478.699 465.386h-74.927c-4.143 0-7.5-3.358-7.5-7.5s3.357-7.5 7.5-7.5h74.927c4.143 0 7.5 3.358 7.5 7.5s-3.357 7.5-7.5 7.5z" fill="#918291"/></g></g></g><g/><g/><g/><g/><g/><g/><g/><g/><g/><g/><g/><g/><g/><g/><g/></svg>