<svg enable-background="new 0 0 32 32" height="512" viewBox="0 0 32 32" width="512" xmlns="http://www.w3.org/2000/svg"><g id="_x30_9"><circle cx="5" cy="4" r="2"/><path d="m3 12c-.2559 0-.5117-.0977-.707-.293-.3906-.3906-.3906-1.0234 0-1.4141l1.707-1.707v-3.5859c0-.5522.4473-1 1-1s1 .4478 1 1v4c0 .2651-.1055.5195-.293.707l-2 2c-.1953.1953-.4511.293-.707.293z"/><path d="m7 12c-.2559 0-.5117-.0977-.707-.293l-2-2c-.3906-.3906-.3906-1.0234 0-1.4141s1.0234-.3906 1.4141 0l2 2c.3906.3906.3906 1.0234 0 1.4141-.1954.1953-.4512.293-.7071.293z"/><path d="m7 8h-4c-.5527 0-1-.4478-1-1s.4473-1 1-1h4c.5527 0 1 .4478 1 1s-.4473 1-1 1z"/><path d="m29 10h-6c-.5527 0-1-.4478-1-1v-4c0-.5522.4473-1 1-1h6c.5527 0 1 .4478 1 1v4c0 .5522-.4473 1-1 1zm-5-2h4v-2h-4z"/><path d="m5 30c-.5527 0-1-.4478-1-1v-16c0-.5522.4473-1 1-1s1 .4478 1 1v16c0 .5522-.4473 1-1 1z"/><path d="m26 30c-.5527 0-1-.4478-1-1v-16c0-.5522.4473-1 1-1s1 .4478 1 1v16c0 .5522-.4473 1-1 1z"/><path d="m23 18h-17c-.5527 0-1-.4478-1-1s.4473-1 1-1h17c.5527 0 1 .4478 1 1s-.4473 1-1 1z"/><path d="m22 20c-.2559 0-.5117-.0977-.707-.293-.3906-.3906-.3906-1.0234 0-1.4141l1.2929-1.2929-1.293-1.293c-.3906-.3906-.3906-1.0234 0-1.4141s1.0234-.3906 1.4141 0l2 2c.3906.3906.3906 1.0234 0 1.4141l-2 2c-.1953.1953-.4511.293-.707.293z"/><path d="m11 26h-3c-.5527 0-1-.4478-1-1s.4473-1 1-1h3c.5527 0 1 .4478 1 1s-.4473 1-1 1z"/><path d="m18 26h-3c-.5527 0-1-.4478-1-1s.4473-1 1-1h3c.5527 0 1 .4478 1 1s-.4473 1-1 1z"/><path d="m25 26h-3c-.5527 0-1-.4478-1-1s.4473-1 1-1h3c.5527 0 1 .4478 1 1s-.4473 1-1 1z"/><path d="m9 28c-.2559 0-.5117-.0977-.707-.293l-2-2c-.3906-.3906-.3906-1.0234 0-1.4141l2-2c.3906-.3906 1.0234-.3906 1.4141 0s.3906 1.0234 0 1.4141l-1.293 1.293 1.293 1.293c.3906.3906.3906 1.0234 0 1.4141-.1954.1952-.4512.2929-.7071.2929z"/></g></svg>