<svg id="Layer_1" enable-background="new 0 0 64 64" height="512" viewBox="0 0 64 64" width="512" xmlns="http://www.w3.org/2000/svg"><g><g><path d="m55.87 9.92v30.31h-47.74v-38.12c0-1.17.95-2.11 2.11-2.11h35.71z" fill="#f0f3f5"/><path d="m55.87 9.92h-7.92c-1.1 0-2-.9-2-2v-7.92z" fill="#fbd984"/></g><g><path d="m61.87 64h-59.74c-1.1 0-2-.9-2-2v-19.77c0-1.1.9-2 2-2h59.73c1.1 0 2 .9 2 2v19.77c.01 1.1-.89 2-1.99 2z" fill="#53af97"/><g fill="#f0f3f5"><path d="m23.92 53.8c0 .75-.14 1.4-.42 1.96s-.65 1.03-1.13 1.41-1.03.66-1.67.85-1.32.29-2.04.29c-.49 0-.95-.04-1.37-.12s-.79-.18-1.11-.29-.59-.23-.81-.36-.37-.23-.47-.33c-.1-.09-.16-.23-.2-.41s-.06-.44-.06-.77c0-.23.01-.42.02-.57s.04-.28.07-.37.08-.16.13-.2.12-.06.19-.06c.1 0 .25.06.43.18.19.12.43.25.72.4s.64.28 1.05.4.88.18 1.41.18c.35 0 .67-.04.94-.13.28-.08.51-.2.71-.36.19-.15.34-.34.44-.57s.15-.48.15-.76c0-.32-.09-.6-.26-.83-.18-.23-.4-.44-.69-.61-.28-.18-.6-.35-.96-.51s-.73-.32-1.11-.5-.75-.38-1.11-.6-.68-.49-.96-.8-.51-.68-.69-1.1-.26-.93-.26-1.53c0-.68.13-1.28.38-1.79.25-.52.59-.94 1.02-1.29.43-.34.93-.59 1.52-.76.58-.17 1.2-.25 1.85-.25.34 0 .67.03 1.01.08s.65.12.94.21.55.19.78.3.38.2.45.27.12.14.15.19.05.12.07.2.03.19.04.32.01.29.01.48c0 .21-.01.39-.02.54s-.03.27-.06.36c-.03.1-.06.17-.11.21s-.11.07-.19.07-.21-.05-.38-.15c-.18-.1-.39-.21-.65-.33s-.55-.23-.89-.33-.71-.15-1.11-.15c-.31 0-.59.04-.82.12s-.43.18-.59.32-.27.3-.35.49-.12.39-.12.6c0 .31.09.59.26.82s.4.44.69.62.62.35.98.5c.37.16.74.32 1.12.5s.75.38 1.12.6.69.49.98.8.52.68.69 1.1c.2.39.29.89.29 1.46z"/><path d="m40.25 59.41c0 .26-.01.48-.04.64s-.06.29-.1.37c-.04.09-.09.14-.14.17s-.11.04-.16.04c-.24 0-.56-.07-.95-.2s-.81-.32-1.27-.57c-.45-.25-.92-.54-1.39-.9s-.91-.76-1.31-1.22c-.34.15-.74.29-1.22.4s-1.01.17-1.6.17c-1.11 0-2.07-.14-2.89-.42s-1.51-.72-2.06-1.31-.96-1.35-1.24-2.27c-.27-.92-.41-2.01-.41-3.28 0-1.15.15-2.18.44-3.1s.73-1.7 1.31-2.34 1.29-1.13 2.15-1.48c.85-.34 1.84-.52 2.97-.52 1.06 0 2 .14 2.82.43s1.5.72 2.06 1.31.98 1.33 1.27 2.23.43 1.97.43 3.2c0 .64-.04 1.24-.13 1.79-.08.56-.21 1.08-.37 1.55-.16.48-.36.91-.59 1.31-.23.39-.5.74-.8 1.04.45.4.86.7 1.21.9.35.21.65.36.88.46.24.1.43.18.57.22.14.05.25.11.33.19s.14.21.18.39c.03.21.05.47.05.8zm-4.37-8.49c0-.74-.06-1.41-.18-2.02s-.32-1.13-.6-1.57c-.28-.43-.66-.77-1.13-1.01s-1.05-.36-1.76-.36-1.3.13-1.78.39-.86.62-1.15 1.07c-.28.46-.49.98-.61 1.58s-.18 1.22-.18 1.88c0 .78.06 1.49.18 2.11s.31 1.15.59 1.59.65.77 1.12 1 1.06.35 1.77.35 1.3-.13 1.78-.4c.48-.26.86-.62 1.15-1.08.29-.45.5-.98.62-1.59.12-.6.18-1.25.18-1.94z"/><path d="m49.36 56.85c0 .22-.01.41-.03.55-.02.15-.05.27-.08.37-.04.1-.08.17-.14.21s-.12.07-.19.07h-6.51c-.24 0-.44-.07-.61-.21-.16-.14-.25-.38-.25-.7v-12.9c0-.07.02-.14.07-.2s.13-.11.24-.14c.11-.04.26-.07.44-.09.19-.02.42-.03.7-.03.29 0 .52.01.7.03s.33.05.44.09.19.08.24.14.07.13.07.2v11.43h4.47c.07 0 .14.02.19.06s.1.11.14.2.06.21.08.36c.02.16.03.34.03.56z"/></g></g><g><g><path d="m32.36 8.43h-17.72c-.83 0-1.5-.67-1.5-1.5s.67-1.5 1.5-1.5h17.72c.83 0 1.5.67 1.5 1.5 0 .82-.67 1.5-1.5 1.5z" fill="#5bcaee"/></g><g><path d="m49.36 17.22h-34.72c-.83 0-1.5-.67-1.5-1.5s.67-1.5 1.5-1.5h34.72c.83 0 1.5.67 1.5 1.5s-.67 1.5-1.5 1.5z" fill="#c6c1c1"/></g><g><path d="m49.36 26.01h-34.72c-.83 0-1.5-.67-1.5-1.5s.67-1.5 1.5-1.5h34.72c.83 0 1.5.67 1.5 1.5s-.67 1.5-1.5 1.5z" fill="#c6c1c1"/></g><g><path d="m49.36 34.8h-34.72c-.83 0-1.5-.67-1.5-1.5s.67-1.5 1.5-1.5h34.72c.83 0 1.5.67 1.5 1.5s-.67 1.5-1.5 1.5z" fill="#c6c1c1"/></g></g></g></svg>