<svg id="Capa_1" enable-background="new 0 0 497 497" height="512" viewBox="0 0 497 497" width="512" xmlns="http://www.w3.org/2000/svg"><g><path d="m437 256v195h30c16.569 0 30-13.431 30-30v-105z" fill="#74a2ad"/><path d="m467 421-437-135-30 30v105c0 16.569 13.431 30 30 30h407c16.569 0 30-13.431 30-30z" fill="#88b6c2"/><path d="m467 46h-30v270h60v-240c0-16.569-13.431-30-30-30z" fill="#597880"/><path d="m437 46h-407c-16.569 0-30 13.431-30 30v240h30v105h60l158.5-59 158.5 59h60v-135l-30-105 30-105c0-16.569-13.431-30-30-30z" fill="#688d96"/><path d="m377 316-90 52.5 90 52.5h30v-105z" fill="#49646b"/><path d="m90 316h287v105h-287z" fill="#597880"/><path d="m437 76-90 105 90 105h30v-210z" fill="#74a2ad"/><path d="m30 76v210h407v-45l-30-60 30-60v-45z" fill="#88b6c2"/><path d="m407 121-90 60 90 60h30v-120z" fill="#99eaff"/><path d="m238.604 121h168.396v120h-168.396z" fill="#d4f6ff"/><path d="m238.604 121h-178.604v120h178.604c11.611-17.112 18.396-37.763 18.396-60s-6.785-42.888-18.396-60z" fill="#49646b"/><circle cx="347" cy="181" fill="#4cd8ff" r="60"/><circle cx="150" cy="181" fill="#4cd8ff" r="60"/><circle cx="150" cy="181" fill="#d4f6ff" r="30"/><circle cx="347" cy="181" fill="#d4f6ff" r="30"/><path d="m226 346 22.5 45 22.5-45z" fill="#49646b"/></g></svg>