<svg id="_01_3D_Question_Mark" enable-background="new 0 0 512 512" viewBox="0 0 512 512" xmlns="http://www.w3.org/2000/svg" xmlns:xlink="http://www.w3.org/1999/xlink"><linearGradient id="SVGID_1_" gradientTransform="matrix(1 0 0 -1 0 514)" gradientUnits="userSpaceOnUse" x1="74.362" x2="430.629" y1="439.638" y2="83.371"><stop offset="0" stop-color="#99e6fc"/><stop offset=".1814" stop-color="#94e3fc"/><stop offset=".3695" stop-color="#88dcfc"/><stop offset=".5605" stop-color="#73d1fc"/><stop offset=".7537" stop-color="#56c1fd"/><stop offset=".9467" stop-color="#31acfd"/><stop offset="1" stop-color="#26a6fe"/></linearGradient><linearGradient id="lg1"><stop offset="0" stop-color="#0172fb" stop-opacity="0"/><stop offset=".1214" stop-color="#0172fb" stop-opacity=".017"/><stop offset=".2474" stop-color="#0172fb" stop-opacity=".066"/><stop offset=".3754" stop-color="#0172fb" stop-opacity=".149"/><stop offset=".5049" stop-color="#0172fb" stop-opacity=".265"/><stop offset=".6355" stop-color="#0172fb" stop-opacity=".414"/><stop offset=".7672" stop-color="#0172fb" stop-opacity=".598"/><stop offset=".897" stop-color="#0172fb" stop-opacity=".81"/><stop offset="1" stop-color="#0172fb"/></linearGradient><linearGradient id="SVGID_00000139981720624734897220000013741405390873087677_" gradientTransform="matrix(1 0 0 -1 0 514)" gradientUnits="userSpaceOnUse" x1="-141.96" x2="619.077" xlink:href="#lg1" y1="655.96" y2="-105.077"/><linearGradient id="SVGID_00000074440525984638713670000016264869684461571243_" gradientTransform="matrix(1 0 0 -1 0 514)" gradientUnits="userSpaceOnUse" x1="256" x2="256" xlink:href="#lg1" y1="318.168" y2="529.039"/><linearGradient id="SVGID_00000082347557698597014030000016840327553144235155_" gradientTransform="matrix(1 0 0 -1 0 514)" gradientUnits="userSpaceOnUse" x1="191.772" x2="-24.228" xlink:href="#lg1" y1="258" y2="258"/><linearGradient id="SVGID_00000134235310044143557180000002271820197992066208_" gradientTransform="matrix(1 0 0 -1 0 514)" gradientUnits="userSpaceOnUse" x1="249.418" x2="229.014" xlink:href="#lg1" y1="190.787" y2="-9.174"/><linearGradient id="SVGID_00000099629060283070026540000003121652537947160967_" gradientTransform="matrix(1 0 0 -1 0 514)" gradientUnits="userSpaceOnUse" x1="278.965" x2="521.094" xlink:href="#lg1" y1="261.296" y2="296.664"/><linearGradient id="SVGID_00000154407602364213239700000011178767140900269729_" gradientTransform="matrix(1 0 0 -1 0 514)" gradientUnits="userSpaceOnUse" x1="368.099" x2="463.178" y1="145.901" y2="50.822"><stop offset="0" stop-color="#0182fc" stop-opacity="0"/><stop offset=".1212" stop-color="#0383fc" stop-opacity=".017"/><stop offset=".2469" stop-color="#0b88fc" stop-opacity=".066"/><stop offset=".3746" stop-color="#1790fc" stop-opacity=".148"/><stop offset=".5039" stop-color="#299cfc" stop-opacity=".264"/><stop offset=".6342" stop-color="#3fabfc" stop-opacity=".413"/><stop offset=".7655" stop-color="#5bbdfc" stop-opacity=".595"/><stop offset=".8951" stop-color="#7bd2fc" stop-opacity=".806"/><stop offset="1" stop-color="#99e6fc"/></linearGradient><linearGradient id="SVGID_00000118361233992119980550000005598316381631910292_" gradientTransform="matrix(1 0 0 -1 0 514)" gradientUnits="userSpaceOnUse" x1="274.264" x2="227.571" xlink:href="#lg1" y1="330.888" y2="402.175"/><linearGradient id="SVGID_00000162316608346367725810000002649736134201246393_" gradientTransform="matrix(1 0 0 -1 0 514)" gradientUnits="userSpaceOnUse" x1="247.402" x2="271.996" xlink:href="#lg1" y1="334.736" y2="407.093"/><linearGradient id="SVGID_00000106121365154086694230000010962291511336689289_" gradientTransform="matrix(1 0 0 -1 0 514)" gradientUnits="userSpaceOnUse" x1="380.233" x2="238.371" xlink:href="#lg1" y1="209.09" y2="281.803"/><linearGradient id="SVGID_00000063601168688104432480000011794343169906119340_" gradientTransform="matrix(1 0 0 -1 0 514)" gradientUnits="userSpaceOnUse" x1="319.117" x2="226.444" xlink:href="#lg1" y1="61.495" y2="132.782"/><linearGradient id="lg2"><stop offset="0" stop-color="#f5fbff"/><stop offset=".2414" stop-color="#f0f8fe"/><stop offset=".4916" stop-color="#e4f2fe"/><stop offset=".7457" stop-color="#cfe8fe"/><stop offset="1" stop-color="#b3dafe"/></linearGradient><linearGradient id="SVGID_00000109743956502118087030000012612979260060024704_" gradientTransform="matrix(1 0 0 -1 0 514)" gradientUnits="userSpaceOnUse" x1="230.506" x2="280.51" xlink:href="#lg2" y1="145.961" y2="95.958"/><linearGradient id="lg3"><stop offset="0" stop-color="#8ac9fe" stop-opacity="0"/><stop offset=".1291" stop-color="#89c8fd" stop-opacity=".019"/><stop offset=".2629" stop-color="#88c6fb" stop-opacity=".075"/><stop offset=".3989" stop-color="#87c4f8" stop-opacity=".168"/><stop offset=".5365" stop-color="#85c0f4" stop-opacity=".298"/><stop offset=".6753" stop-color="#83bbef" stop-opacity=".466"/><stop offset=".8151" stop-color="#7fb5e9" stop-opacity=".672"/><stop offset=".9532" stop-color="#7caee1" stop-opacity=".911"/><stop offset="1" stop-color="#7bacdf"/></linearGradient><linearGradient id="SVGID_00000139287690532827130500000007097358431911041959_" gradientTransform="matrix(1 0 0 -1 0 514)" gradientUnits="userSpaceOnUse" x1="255.076" x2="252.212" xlink:href="#lg3" y1="111.034" y2="82.969"/><linearGradient id="SVGID_00000020376139083069724640000003964524592104885635_" gradientTransform="matrix(1 0 0 -1 0 514)" gradientUnits="userSpaceOnUse" x1="259.223" x2="293.207" xlink:href="#lg3" y1="120.93" y2="125.894"/><linearGradient id="SVGID_00000134960617839534922900000016243698771784931258_" gradientTransform="matrix(1 0 0 -1 0 514)" gradientUnits="userSpaceOnUse" x1="264.369" x2="290.257" y1="112.098" y2="86.211"><stop offset="0" stop-color="#fff" stop-opacity="0"/><stop offset=".1205" stop-color="#fff" stop-opacity=".016"/><stop offset=".2454" stop-color="#fff" stop-opacity=".065"/><stop offset=".3724" stop-color="#fff" stop-opacity=".147"/><stop offset=".5008" stop-color="#fff" stop-opacity=".261"/><stop offset=".6304" stop-color="#fff" stop-opacity=".408"/><stop offset=".761" stop-color="#fff" stop-opacity=".588"/><stop offset=".8898" stop-color="#fff" stop-opacity=".797"/><stop offset="1" stop-color="#fff"/></linearGradient><linearGradient id="SVGID_00000005243575092894997400000001478193256105514159_" gradientTransform="matrix(1 0 0 -1 0 514)" gradientUnits="userSpaceOnUse" x1="150.974" x2="357.706" xlink:href="#lg2" y1="377.276" y2="256.088"/><linearGradient id="SVGID_00000070808662382672210770000005274766018596738964_" gradientTransform="matrix(1 0 0 -1 0 514)" gradientUnits="userSpaceOnUse" x1="287.18" x2="327.576" xlink:href="#lg3" y1="296.988" y2="268.949"/><linearGradient id="SVGID_00000178205063444628752400000007800095563993134233_" gradientTransform="matrix(1 0 0 -1 0 514)" gradientUnits="userSpaceOnUse" x1="314.743" x2="368.023" xlink:href="#lg3" y1="306.676" y2="306.676"/><linearGradient id="SVGID_00000163062817604196463060000014931590492646396588_" gradientTransform="matrix(1 0 0 -1 0 514)" gradientUnits="userSpaceOnUse" x1="284.244" x2="284.244" xlink:href="#lg3" y1="218.566" y2="176.839"/><g><g><path d="m218.6 0h74.9c120.7 0 218.5 97.8 218.5 218.6v74.9c0 120.7-97.8 218.5-218.6 218.5h-74.9c-120.7 0-218.5-97.8-218.5-218.6v-74.9c0-120.7 97.8-218.5 218.6-218.5z" fill="url(#SVGID_1_)"/><path d="m225.8 49.5h60.4c97.4 0 176.3 78.9 176.3 176.3v60.4c0 97.4-78.9 176.3-176.3 176.3h-60.4c-97.4 0-176.3-78.9-176.3-176.3v-60.4c0-97.4 78.9-176.3 176.3-176.3z" fill="url(#SVGID_00000139981720624734897220000013741405390873087677_)"/><path d="m225.8 49.5h60.4c97.4 0 176.3 78.9 176.3 176.3v60.4c0 97.4-78.9 176.3-176.3 176.3h-60.4c-97.4 0-176.3-78.9-176.3-176.3v-60.4c0-97.4 78.9-176.3 176.3-176.3z" fill="url(#SVGID_00000074440525984638713670000016264869684461571243_)"/><path d="m225.8 49.5h60.4c97.4 0 176.3 78.9 176.3 176.3v60.4c0 97.4-78.9 176.3-176.3 176.3h-60.4c-97.4 0-176.3-78.9-176.3-176.3v-60.4c0-97.4 78.9-176.3 176.3-176.3z" fill="url(#SVGID_00000082347557698597014030000016840327553144235155_)"/><path d="m0 218.6v74.9c0 120.7 97.8 218.5 218.6 218.5h74.9c120.7 0 218.5-97.8 218.5-218.6v-74.9c0-2.4-.1-4.7-.1-7.1h-511.8c0 2.4-.1 4.8-.1 7.2z" fill="url(#SVGID_00000134235310044143557180000002271820197992066208_)"/><path d="m293.4 0h-74.9c-8.6 0-17.1.5-25.4 1.5v509c8.3 1 16.8 1.5 25.4 1.5h74.9c120.8 0 218.6-97.8 218.6-218.6v-74.9c0-120.7-97.8-218.5-218.6-218.5z" fill="url(#SVGID_00000099629060283070026540000003121652537947160967_)"/><path d="m381.5 18.5-363 363c33.8 76.8 110.7 130.5 200.1 130.5h74.9c120.7 0 218.5-97.8 218.5-218.6v-74.9c0-89.3-53.7-166.2-130.5-200z" fill="url(#SVGID_00000154407602364213239700000011178767140900269729_)"/></g><path d="m172.7 166 82.4 82.4 72.8-72.9v-48.5h-117.9z" fill="url(#SVGID_00000118361233992119980550000005598316381631910292_)"/><path d="m172.7 166 82.4 82.4 72.8-72.9v-48.5h-117.9z" fill="url(#SVGID_00000162316608346367725810000002649736134201246393_)"/><path d="m343.5 111.8v79.7l-109.8 133.8 161.6 161.6c69.4-36.6 116.7-109.5 116.7-193.5v-13.2z" fill="url(#SVGID_00000106121365154086694230000010962291511336689289_)"/><path d="m400.4 484.1-117.2-117.2-54 53.8 89.8 89.8c29.4-3.4 56.8-12.6 81.4-26.4z" fill="url(#SVGID_00000063601168688104432480000011794343169906119340_)"/><g><g><path d="m250.7 357.6h10.5c16.9 0 30.7 13.7 30.7 30.7v10.5c0 16.9-13.7 30.7-30.7 30.7h-10.5c-16.9 0-30.7-13.7-30.7-30.7v-10.5c.1-17 13.8-30.7 30.7-30.7z" fill="url(#SVGID_00000109743956502118087030000012612979260060024704_)"/><path d="m220.1 388.3v10.5c0 16.9 13.7 30.7 30.7 30.7h10.5c16.9 0 30.7-13.7 30.7-30.7v-10.5c0-.3 0-.7 0-1h-71.8c-.1.3-.1.6-.1 1z" fill="url(#SVGID_00000139287690532827130500000007097358431911041959_)"/><path d="m261.3 357.6h-10.5c-1.2 0-2.4.1-3.6.2v71.4c1.2.1 2.4.2 3.6.2h10.5c16.9 0 30.7-13.7 30.7-30.7v-10.5c-.1-16.9-13.8-30.6-30.7-30.6z" fill="url(#SVGID_00000020376139083069724640000003964524592104885635_)"/><path d="m273.6 360.2-50.9 50.9c4.8 10.8 15.5 18.3 28.1 18.3h10.5c16.9 0 30.7-13.7 30.7-30.7v-10.5c-.1-12.5-7.6-23.3-18.4-28z" fill="url(#SVGID_00000134960617839534922900000016243698771784931258_)"/></g><g><path d="m364.8 162.7c0 11.3-2.2 21.9-6.6 31.6s-9.6 18.4-15.5 26c-6 7.6-12.1 14.1-18.2 19.4-6.2 5.3-10.8 9.3-14.1 11.9-6.8 5.2-12 10.1-15.5 14.8-3.6 4.7-6.2 9.4-8 14.1s-2.8 9.6-3.2 14.8c-.3 5.2-.5 10.8-.5 17 0 4.5-1.8 9-5.3 13.4-3.6 4.4-11.3 6.6-23.3 6.6-10 0-17-2.3-20.9-6.8s-5.8-13.1-5.8-25.7c0-10.4 1-19.5 3.2-27.4 2.1-7.9 4.7-14.8 7.8-20.6s6.6-10.8 10.4-15.1c3.9-4.2 7.6-7.8 11.2-10.7 3.9-3.2 8.3-6.7 13.4-10.4 5-3.7 9.7-7.8 14.1-12.1 4.4-4.4 8.1-9.2 11.2-14.6 3.1-5.3 4.6-11.2 4.6-17.7 0-11.3-4.2-19.7-12.6-25s-18.8-8-31.1-8-21.4 1.9-27.4 5.8-10.7 8.2-14.1 12.9-6.6 9-9.5 12.9-7.6 5.8-14.1 5.8c-3.2 0-6.6-.6-10-1.7s-6.6-2.8-9.5-5.1-5.3-5.1-7-8.5c-1.8-3.4-2.7-7.5-2.7-12.4 0-6.5 1.9-13.5 5.8-21.1s9.7-14.6 17.5-21.1 17.6-11.9 29.6-16.3 26.2-6.6 42.7-6.6c15.5 0 29.7 2 42.5 6.1s23.6 9.6 32.5 16.8c8.9 7.1 15.9 15.6 20.9 25.5 5 9.5 7.5 20.1 7.5 31.5z" fill="url(#SVGID_00000005243575092894997400000001478193256105514159_)"/><path d="m336.4 105.4c-8.9-7.1-19.7-12.7-32.5-16.8-12.8-4-26.9-6.1-42.5-6.1-14.7 0-27.6 1.7-38.7 5.2v63.8c2.7-2.8 6-5.4 9.8-7.8 6-3.9 15.1-5.8 27.4-5.8s22.7 2.7 31.1 8 12.6 13.7 12.6 25c0 6.5-1.5 12.4-4.6 17.7s-6.8 10.2-11.2 14.6-9.1 8.4-14.1 12.1-9.5 7.2-13.4 10.4c-3.6 2.9-7.3 6.5-11.2 10.7s-7.4 9.2-10.4 15.1c-3.1 5.8-5.7 12.7-7.8 20.6s-3.2 17.1-3.2 27.4c0 12.6 1.9 21.2 5.8 25.7s10.8 6.8 20.9 6.8c12 0 19.7-2.2 23.3-6.6s5.3-8.8 5.3-13.4c0-6.1.2-11.8.5-17s1.4-10.1 3.2-14.8 4.4-9.4 8-14.1 8.7-9.6 15.5-14.8c3.2-2.6 7.9-6.6 14.1-11.9 6.1-5.3 12.2-11.8 18.2-19.4s11.2-16.3 15.5-26c4.4-9.7 6.6-20.2 6.6-31.6 0-11.3-2.5-21.9-7.5-31.8-4.9-9.6-11.8-18.1-20.7-25.2z" fill="url(#SVGID_00000070808662382672210770000005274766018596738964_)"/><path d="m336.4 105.4c-8.9-7.1-19.7-12.7-32.5-16.8-12.8-4-26.9-6.1-42.5-6.1-14.7 0-27.6 1.7-38.7 5.2v63.8c2.7-2.8 6-5.4 9.8-7.8 6-3.9 15.1-5.8 27.4-5.8s22.7 2.7 31.1 8 12.6 13.7 12.6 25c0 6.5-1.5 12.4-4.6 17.7s-6.8 10.2-11.2 14.6-9.1 8.4-14.1 12.1-9.5 7.2-13.4 10.4c-3.6 2.9-7.3 6.5-11.2 10.7s-7.4 9.2-10.4 15.1c-3.1 5.8-5.7 12.7-7.8 20.6s-3.2 17.1-3.2 27.4c0 12.6 1.9 21.2 5.8 25.7s10.8 6.8 20.9 6.8c12 0 19.7-2.2 23.3-6.6s5.3-8.8 5.3-13.4c0-6.1.2-11.8.5-17s1.4-10.1 3.2-14.8 4.4-9.4 8-14.1 8.7-9.6 15.5-14.8c3.2-2.6 7.9-6.6 14.1-11.9 6.1-5.3 12.2-11.8 18.2-19.4s11.2-16.3 15.5-26c4.4-9.7 6.6-20.2 6.6-31.6 0-11.3-2.5-21.9-7.5-31.8-4.9-9.6-11.8-18.1-20.7-25.2z" fill="url(#SVGID_00000178205063444628752400000007800095563993134233_)"/><path d="m264.1 222.7c-1.3 1-2.6 2.1-3.8 3.1-3.6 2.9-7.3 6.5-11.2 10.7s-7.4 9.2-10.4 15.1c-3.1 5.8-5.7 12.7-7.8 20.6s-3.2 17.1-3.2 27.4c0 12.6 1.9 21.2 5.8 25.7s10.8 6.8 20.9 6.8c12 0 19.7-2.2 23.3-6.6s5.3-8.8 5.3-13.4c0-6.1.2-11.8.5-17s1.4-10.1 3.2-14.8 4.4-9.4 8-14.1 8.7-9.6 15.5-14.8c3.2-2.6 7.9-6.6 14.1-11.9 5.5-4.7 10.8-10.4 16.2-16.9h-76.4z" fill="url(#SVGID_00000163062817604196463060000014931590492646396588_)"/></g></g></g></svg>