<svg id="Layer_1" enable-background="new 0 0 512 512" viewBox="0 0 512 512" xmlns="http://www.w3.org/2000/svg" xmlns:xlink="http://www.w3.org/1999/xlink"><linearGradient id="lg1"><stop offset="0" stop-color="#fef0ae"/><stop offset="1" stop-color="#fbc56d"/></linearGradient><linearGradient id="SVGID_1_" gradientUnits="userSpaceOnUse" x1="132.934" x2="318.741" xlink:href="#lg1" y1="186.632" y2="372.438"/><linearGradient id="lg2"><stop offset="0" stop-color="#dc8758" stop-opacity="0"/><stop offset=".2153" stop-color="#dd8654" stop-opacity=".215"/><stop offset=".4291" stop-color="#e28448" stop-opacity=".429"/><stop offset=".6424" stop-color="#ea8034" stop-opacity=".642"/><stop offset=".8543" stop-color="#f47b18" stop-opacity=".854"/><stop offset="1" stop-color="#fe7701"/></linearGradient><linearGradient id="SVGID_00000167384911561833056850000007484669871679641525_" gradientUnits="userSpaceOnUse" x1="416.817" x2="372.631" xlink:href="#lg2" y1="259.508" y2="177.982"/><linearGradient id="lg3"><stop offset="0" stop-color="#eaf9fa"/><stop offset="1" stop-color="#b3dafe"/></linearGradient><linearGradient id="SVGID_00000077310534235208050710000014305529681455121551_" gradientUnits="userSpaceOnUse" x1="328.798" x2="409.08" xlink:href="#lg3" y1="37.141" y2="178.567"/><linearGradient id="lg4"><stop offset="0" stop-color="#7bacdf" stop-opacity="0"/><stop offset="1" stop-color="#7bacdf"/></linearGradient><linearGradient id="SVGID_00000128453693391167089020000005639514075645989540_" gradientUnits="userSpaceOnUse" x1="203.219" x2="487.938" xlink:href="#lg4" y1="5.824" y2="209.794"/><linearGradient id="SVGID_00000016768923494971938470000008583026507595589793_" gradientUnits="userSpaceOnUse" x1="455.792" x2="471.661" xlink:href="#lg4" y1="113.775" y2="109.574"/><linearGradient id="SVGID_00000050641406133213720350000000904899102838996395_" gradientUnits="userSpaceOnUse" x1="340.564" x2="336.364" xlink:href="#lg4" y1="160.952" y2="106.342"/><linearGradient id="SVGID_00000091014298345867247860000010942312654957804684_" gradientUnits="userSpaceOnUse" x1="299.853" x2="414.578" xlink:href="#lg3" y1="80.18" y2="194.904"/><linearGradient id="SVGID_00000069382385761326145670000015166767279363618239_" gradientTransform="matrix(.707 .707 -.707 .707 1063.329 -257.879)" gradientUnits="userSpaceOnUse" x1="-175.838" x2="-263.626" xlink:href="#lg3" y1="824.961" y2="737.174"/><linearGradient id="SVGID_00000132055426472909967570000012601694566019467925_" gradientTransform="matrix(.707 .707 -.707 .707 1063.329 -257.879)" gradientUnits="userSpaceOnUse" x1="-197.624" x2="-174.538" xlink:href="#lg4" y1="821.125" y2="860.152"/><linearGradient id="SVGID_00000093893321497108974890000016829488290682593163_" gradientUnits="userSpaceOnUse" x1="410.501" x2="426.432" xlink:href="#lg4" y1="190.828" y2="206.759"/><linearGradient id="SVGID_00000092440997391141012760000015047523543045466795_" gradientUnits="userSpaceOnUse" x1="170.295" x2="278.582" xlink:href="#lg1" y1="31.546" y2="298.528"/><linearGradient id="SVGID_00000085219543577542641810000012351869082238972840_" gradientUnits="userSpaceOnUse" x1="226.873" x2="332.359" xlink:href="#lg2" y1="79.457" y2="484.598"/><linearGradient id="SVGID_00000113333605654068071340000007148882285743924407_" gradientUnits="userSpaceOnUse" x1="455.831" x2="498.773" xlink:href="#lg2" y1="271.651" y2="278.185"/><linearGradient id="SVGID_00000082366707220981654250000013406540536538745530_" gradientUnits="userSpaceOnUse" x1="126.792" x2="312.598" xlink:href="#lg1" y1="192.774" y2="378.581"/><linearGradient id="SVGID_00000036249352873550796290000003335924693061587382_" gradientUnits="userSpaceOnUse" x1="302.107" x2="243.53" xlink:href="#lg2" y1="189.515" y2="248.092"/><linearGradient id="SVGID_00000088825904899737133860000016362300124808794515_" gradientUnits="userSpaceOnUse" x1="62.274" x2="32.387" xlink:href="#lg2" y1="429.363" y2="459.25"/><linearGradient id="SVGID_00000102536934607438707900000018310435602048329120_" gradientUnits="userSpaceOnUse" x1="118.43" x2="90.363" xlink:href="#lg1" y1="399.233" y2="371.166"/><g><path d="m417.542 313.09c-35.461 33.13-82.053 47.993-127.532 44.72-41.524-2.973-82.42 11.366-111.857 40.804l-86.363 86.362c-8.895 8.895-23.316 8.895-32.211 0l-52.908-52.907c-8.894-8.894-8.895-23.315-.001-32.21l85.959-85.97c29.516-29.516 43.986-70.516 40.961-112.145-3.444-47.273 12.885-95.711 49.054-131.88 42.938-42.939 103.254-57.959 158.318-45.021 6.22 1.466 8.473 9.127 3.955 13.645l-78.596 78.596c-5.395 5.395-7.503 13.279-5.526 20.651l16.474 61.507c1.964 7.36 7.752 13.147 15.112 15.112l61.507 16.474c7.372 1.977 15.256-.131 20.651-5.526l78.622-78.622c4.452-4.452 12.139-2.37 13.593 3.758 13.434 56.923-2.974 119.452-49.212 162.652z" fill="url(#SVGID_1_)"/><path d="m453.16 146.679-78.622 78.622c-5.395 5.395-13.278 7.503-20.651 5.526l-61.507-16.474c-4.873-1.301-9.048-4.284-11.89-8.284l-1.304 1.304 120.34 120.34c6.26-4.4 12.285-9.27 18.016-14.624 46.238-43.2 62.646-105.729 49.211-162.653-1.454-6.127-9.14-8.209-13.593-3.757z" fill="url(#SVGID_00000167384911561833056850000007484669871679641525_)"/><g><path d="m486.142 149.478-20.307-75.791c-2.437-9.094-9.536-16.194-18.631-18.631l-75.791-20.307c-2.212-.591-4.46-.88-6.691-.89l-.002-.001h-.033c-.09 0-.18-.001-.271 0h-29.277l1.112 17.438-45.757 45.757c-6.657 6.657-9.25 16.349-6.821 25.435l20.307 75.791c2.437 9.095 9.536 16.194 18.631 18.631l54.325 14.556-.082 6.647h28.316l.002-.003c6.906.01 13.647-2.696 18.665-7.713l55.483-55.483c6.658-6.658 9.251-16.349 6.822-25.436zm-134.8-47.059c18.534-18.534 48.595-18.534 67.129 0s18.534 48.595 0 67.129-48.595 18.534-67.129 0-18.534-48.595 0-67.129z" fill="url(#SVGID_00000077310534235208050710000014305529681455121551_)"/><path d="m486.142 149.478-20.307-75.791c-2.437-9.094-9.536-16.194-18.631-18.631l-75.791-20.307c-2.212-.591-4.46-.88-6.691-.89l-.002-.001h-.033c-.09 0-.18-.001-.271 0h-29.277l1.112 17.438-45.757 45.757c-6.657 6.657-9.25 16.349-6.821 25.435l20.307 75.791c2.437 9.095 9.536 16.194 18.631 18.631l54.325 14.556-.082 6.647h28.316l.002-.003c6.906.01 13.647-2.696 18.665-7.713l55.483-55.483c6.658-6.658 9.251-16.349 6.822-25.436zm-134.8-47.059c18.534-18.534 48.595-18.534 67.129 0s18.534 48.595 0 67.129-48.595 18.534-67.129 0-18.534-48.595 0-67.129z" fill="url(#SVGID_00000128453693391167089020000005639514075645989540_)"/><path d="m486.142 149.478-20.307-75.791c-2.437-9.094-9.536-16.194-18.631-18.631l-75.791-20.307c-2.212-.591-4.46-.88-6.691-.89l-.002-.001h-.033c-.09 0-.18-.001-.271 0h-29.277l1.112 17.438-45.757 45.757c-6.657 6.657-9.25 16.349-6.821 25.435l20.307 75.791c2.437 9.095 9.536 16.194 18.631 18.631l54.325 14.556-.082 6.647h28.316l.002-.003c6.906.01 13.647-2.696 18.665-7.713l55.483-55.483c6.658-6.658 9.251-16.349 6.822-25.436zm-134.8-47.059c18.534-18.534 48.595-18.534 67.129 0s18.534 48.595 0 67.129-48.595 18.534-67.129 0-18.534-48.595 0-67.129z" fill="url(#SVGID_00000016768923494971938470000008583026507595589793_)"/><path d="m377 182.776c-9.396-1.579-18.409-5.979-25.658-13.228-18.534-18.534-18.534-48.595 0-67.129 9.827-9.827 22.894-14.442 35.765-13.849-10.714-10.213-25.208-16.495-41.178-16.495-32.976 0-59.708 26.732-59.708 59.708 0 .082.006.161.006.243l7.875 29.391c10.293 17.963 29.639 30.074 51.827 30.074 11.383 0 22.019-3.188 31.071-8.715z" fill="url(#SVGID_00000050641406133213720350000000904899102838996395_)"/><g><path d="m456.892 149.479-20.307-75.791c-2.437-9.094-9.536-16.194-18.631-18.631l-75.791-20.307c-9.086-2.429-18.778.164-25.435 6.821l-55.483 55.483c-6.657 6.657-9.25 16.349-6.821 25.435l20.307 75.791c2.437 9.094 9.536 16.194 18.631 18.631l75.791 20.307c9.086 2.429 18.778-.164 25.435-6.821l55.483-55.483c6.657-6.658 9.25-16.349 6.821-25.435zm-134.799 20.069c-18.534-18.534-18.534-48.595 0-67.129s48.595-18.534 67.129 0 18.534 48.595 0 67.129-48.595 18.535-67.129 0z" fill="url(#SVGID_00000091014298345867247860000010942312654957804684_)"/><path d="m402.332 89.309c-25.779-25.779-67.572-25.779-93.35 0-25.779 25.779-25.779 67.572 0 93.35 25.779 25.779 67.572 25.779 93.35 0 25.779-25.779 25.779-67.571 0-93.35zm-76.993 76.993c-16.742-16.742-16.742-43.895 0-60.636 16.742-16.742 43.895-16.742 60.636 0 16.742 16.742 16.742 43.895 0 60.636-16.741 16.741-43.894 16.741-60.636 0z" fill="url(#SVGID_00000069382385761326145670000015166767279363618239_)"/><path d="m389.222 169.548c-18.534 18.534-48.595 18.534-67.129 0s-18.534-48.595 0-67.129c15.009-15.009 37.576-17.859 55.46-8.56l-56.053-56.052c-1.709 1.057-3.317 2.307-4.773 3.763l-55.483 55.483c-6.657 6.657-9.25 16.349-6.821 25.435l20.307 75.791c2.437 9.094 9.536 16.194 18.631 18.631l75.791 20.307c9.086 2.429 18.778-.164 25.435-6.821l55.483-55.483c1.456-1.456 2.706-3.065 3.763-4.773l-56.052-56.052c9.3 17.885 6.45 40.451-8.559 55.46z" fill="url(#SVGID_00000132055426472909967570000012601694566019467925_)"/><path d="m456.892 149.479-20.307-75.791c-2.437-9.094-9.536-16.194-18.631-18.631l-1.898-.509-39.044 39.044c4.402 2.218 8.535 5.152 12.21 8.827 18.534 18.534 18.534 48.595 0 67.129s-48.595 18.534-67.129 0c-3.675-3.675-6.61-7.808-8.827-12.21l-39.044 39.044.509 1.898c2.437 9.094 9.536 16.194 18.631 18.631l75.791 20.307c9.086 2.429 18.778-.164 25.435-6.821l55.483-55.483c6.657-6.658 9.25-16.349 6.821-25.435z" fill="url(#SVGID_00000093893321497108974890000016829488290682593163_)"/></g></g><path d="m511.844 182.165c-.281-6.569-5.386-10.846-10.935-11.361-.76-.071-1.526-.074-2.292 0h-40.711l1.336 37.728c-6 35.081-23.061 68.636-51.269 94.99-35.461 33.13-82.053 47.993-127.532 44.72-41.524-2.973-82.42 11.366-111.857 40.804l-82.113 82.113-10.798 20.489h40.722c5.829 0 11.658-2.224 16.106-6.671l86.363-86.363c29.438-29.438 70.333-43.776 111.857-40.804 45.479 3.274 92.071-11.589 127.532-44.72 37.759-35.278 55.625-83.446 53.591-130.925z" fill="url(#SVGID_00000092440997391141012760000015047523543045466795_)"/><path d="m511.844 182.165c-.281-6.569-5.386-10.846-10.935-11.361-.76-.071-1.526-.074-2.292 0h-40.711l1.336 37.728c-6 35.081-23.061 68.636-51.269 94.99-35.461 33.13-82.053 47.993-127.532 44.72-41.524-2.973-82.42 11.366-111.857 40.804l-82.113 82.113-10.798 20.489h40.722c5.829 0 11.658-2.224 16.106-6.671l86.363-86.363c29.438-29.438 70.333-43.776 111.857-40.804 45.479 3.274 92.071-11.589 127.532-44.72 37.759-35.278 55.625-83.446 53.591-130.925z" fill="url(#SVGID_00000085219543577542641810000012351869082238972840_)"/><path d="m500.909 170.804c-.76-.071-1.527-.074-2.292 0h-40.711l1.336 37.728c-6 35.081-23.061 68.636-51.269 94.99-27.061 25.283-60.606 39.914-95.19 43.978v10.111c5.945-.287 11.934-.231 17.937.199 45.479 3.274 92.071-11.589 127.532-44.72 37.759-35.278 55.626-83.446 53.592-130.925-.281-6.569-5.386-10.846-10.935-11.361z" fill="url(#SVGID_00000113333605654068071340000007148882285743924407_)"/><path d="m450.071 174.914-55.483 55.483c-6.657 6.657-16.349 9.25-25.435 6.821l-75.791-20.307c-9.094-2.437-16.194-9.536-18.631-18.631l-4.633-17.291-257.254 257.253 46.734 46.734c8.895 8.895 23.316 8.895 32.211 0l86.363-86.363c29.438-29.438 70.333-43.776 111.857-40.804 45.479 3.274 92.071-11.589 127.532-44.72 37.759-35.278 55.626-83.446 53.592-130.925-.462-10.809-13.985-15.434-21.062-7.25z" fill="url(#SVGID_00000082366707220981654250000013406540536538745530_)"/><path d="m293.361 216.911c-9.094-2.437-16.194-9.536-18.631-18.631l-18.934-70.666-14.023 14.023c-5.395 5.395-7.5 13.278-5.529 20.643l16.473 61.51c1.97 7.366 7.748 13.144 15.114 15.115l61.51 16.473c7.366 1.971 15.248-.134 20.644-5.529l14.012-14.012z" fill="url(#SVGID_00000036249352873550796290000003335924693061587382_)"/><path d="m94.83 311.625c-.726.76-1.456 1.518-2.201 2.264l-85.959 85.97c-8.894 8.895-8.893 23.316.001 32.21l52.907 52.907c8.895 8.895 23.316 8.895 32.211 0l86.363-86.363c.612-.612 1.237-1.208 1.859-1.807z" fill="url(#SVGID_00000088825904899737133860000016362300124808794515_)"/><path d="m65.998 425.646c-8.532-8.532-8.532-22.366 0-30.898l47.948-47.948c8.532-8.532 22.365-8.532 30.898 0 8.532 8.532 8.532 22.365 0 30.898l-47.948 47.948c-8.532 8.533-22.366 8.533-30.898 0z" fill="url(#SVGID_00000102536934607438707900000018310435602048329120_)"/></g><g/><g/><g/><g/><g/><g/><g/><g/><g/><g/><g/><g/><g/><g/><g/></svg>