<svg id="_38_Ahead_Only" enable-background="new 0 0 512 512" viewBox="0 0 512 512" xmlns="http://www.w3.org/2000/svg" xmlns:xlink="http://www.w3.org/1999/xlink"><linearGradient id="SVGID_1_" gradientTransform="matrix(1 0 0 -1 0 514)" gradientUnits="userSpaceOnUse" x1="74.362" x2="430.629" y1="439.638" y2="83.371"><stop offset="0" stop-color="#99e6fc"/><stop offset=".1814" stop-color="#94e3fc"/><stop offset=".3695" stop-color="#88dcfc"/><stop offset=".5605" stop-color="#73d1fc"/><stop offset=".7537" stop-color="#56c1fd"/><stop offset=".9467" stop-color="#31acfd"/><stop offset="1" stop-color="#26a6fe"/></linearGradient><linearGradient id="lg1"><stop offset="0" stop-color="#0172fb" stop-opacity="0"/><stop offset=".1214" stop-color="#0172fb" stop-opacity=".017"/><stop offset=".2474" stop-color="#0172fb" stop-opacity=".066"/><stop offset=".3754" stop-color="#0172fb" stop-opacity=".149"/><stop offset=".5049" stop-color="#0172fb" stop-opacity=".265"/><stop offset=".6355" stop-color="#0172fb" stop-opacity=".414"/><stop offset=".7672" stop-color="#0172fb" stop-opacity=".598"/><stop offset=".897" stop-color="#0172fb" stop-opacity=".81"/><stop offset="1" stop-color="#0172fb"/></linearGradient><linearGradient id="SVGID_00000165207704537464731410000009950135754698460825_" gradientTransform="matrix(1 0 0 -1 0 514)" gradientUnits="userSpaceOnUse" x1="-141.96" x2="619.077" xlink:href="#lg1" y1="655.96" y2="-105.077"/><linearGradient id="SVGID_00000003804251645069902710000014927798232713502634_" gradientTransform="matrix(1 0 0 -1 0 514)" gradientUnits="userSpaceOnUse" x1="256" x2="256" xlink:href="#lg1" y1="318.168" y2="529.039"/><linearGradient id="SVGID_00000104693076386478458660000003209416679940529063_" gradientTransform="matrix(1 0 0 -1 0 514)" gradientUnits="userSpaceOnUse" x1="191.772" x2="-24.228" xlink:href="#lg1" y1="258" y2="258"/><linearGradient id="SVGID_00000058553591289812636990000001242998476277280692_" gradientTransform="matrix(1 0 0 -1 0 514)" gradientUnits="userSpaceOnUse" x1="249.418" x2="229.014" xlink:href="#lg1" y1="190.787" y2="-9.174"/><linearGradient id="SVGID_00000013162883768717233100000016974730580602780595_" gradientTransform="matrix(1 0 0 -1 0 514)" gradientUnits="userSpaceOnUse" x1="278.965" x2="521.094" xlink:href="#lg1" y1="261.296" y2="296.664"/><linearGradient id="SVGID_00000033364140915146371520000008901317150054942087_" gradientTransform="matrix(1 0 0 -1 0 514)" gradientUnits="userSpaceOnUse" x1="368.099" x2="463.178" y1="145.901" y2="50.822"><stop offset="0" stop-color="#0182fc" stop-opacity="0"/><stop offset=".1212" stop-color="#0383fc" stop-opacity=".017"/><stop offset=".2469" stop-color="#0b88fc" stop-opacity=".066"/><stop offset=".3746" stop-color="#1790fc" stop-opacity=".148"/><stop offset=".5039" stop-color="#299cfc" stop-opacity=".264"/><stop offset=".6342" stop-color="#3fabfc" stop-opacity=".413"/><stop offset=".7655" stop-color="#5bbdfc" stop-opacity=".595"/><stop offset=".8951" stop-color="#7bd2fc" stop-opacity=".806"/><stop offset="1" stop-color="#99e6fc"/></linearGradient><linearGradient id="SVGID_00000089535115724292881780000003001503095029458575_" gradientTransform="matrix(1 0 0 -1 0 514)" gradientUnits="userSpaceOnUse" x1="183.761" x2="183.761" xlink:href="#lg1" y1="209.772" y2="272.123"/><linearGradient id="SVGID_00000136396573046273861560000017371135969785155001_" gradientTransform="matrix(1 0 0 -1 0 514)" gradientUnits="userSpaceOnUse" x1="365.761" x2="267.384" xlink:href="#lg1" y1="147.625" y2="211.783"/><linearGradient id="SVGID_00000127747471260781660310000007412595647698896019_" gradientTransform="matrix(1 0 0 -1 0 514)" gradientUnits="userSpaceOnUse" x1="146.42" x2="334.618" y1="337.122" y2="183.142"><stop offset="0" stop-color="#f5fbff"/><stop offset=".2414" stop-color="#f0f8fe"/><stop offset=".4916" stop-color="#e4f2fe"/><stop offset=".7457" stop-color="#cfe8fe"/><stop offset="1" stop-color="#b3dafe"/></linearGradient><linearGradient id="lg2"><stop offset="0" stop-color="#8ac9fe" stop-opacity="0"/><stop offset=".1291" stop-color="#89c8fd" stop-opacity=".019"/><stop offset=".2629" stop-color="#88c6fb" stop-opacity=".075"/><stop offset=".3989" stop-color="#87c4f8" stop-opacity=".168"/><stop offset=".5365" stop-color="#85c0f4" stop-opacity=".298"/><stop offset=".6753" stop-color="#83bbef" stop-opacity=".466"/><stop offset=".8151" stop-color="#7fb5e9" stop-opacity=".672"/><stop offset=".9532" stop-color="#7caee1" stop-opacity=".911"/><stop offset="1" stop-color="#7bacdf"/></linearGradient><linearGradient id="SVGID_00000082363466461869555710000017480460121021351095_" gradientTransform="matrix(1 0 0 -1 0 514)" gradientUnits="userSpaceOnUse" x1="256.008" x2="256.008" xlink:href="#lg2" y1="143.476" y2="113.535"/><linearGradient id="SVGID_00000101813158337614173960000008002899054908817065_" gradientTransform="matrix(0 -1 -1 0 651.373 465.491)" gradientUnits="userSpaceOnUse" x1="240.809" x2="208.572" xlink:href="#lg2" y1="317.021" y2="317.021"/><linearGradient id="SVGID_00000024699234631424051730000008985810766820258750_" gradientTransform="matrix(0 -1 -1 0 651.373 465.491)" gradientUnits="userSpaceOnUse" x1="240.809" x2="208.572" xlink:href="#lg2" y1="473.724" y2="473.724"/><g><g><path d="m218.6 0h74.9c120.7 0 218.5 97.8 218.5 218.6v74.9c0 120.7-97.8 218.5-218.6 218.5h-74.9c-120.7 0-218.5-97.8-218.5-218.6v-74.9c0-120.7 97.8-218.5 218.6-218.5z" fill="url(#SVGID_1_)"/><path d="m225.8 49.5h60.4c97.4 0 176.3 78.9 176.3 176.3v60.4c0 97.4-78.9 176.3-176.3 176.3h-60.4c-97.4 0-176.3-78.9-176.3-176.3v-60.4c0-97.4 78.9-176.3 176.3-176.3z" fill="url(#SVGID_00000165207704537464731410000009950135754698460825_)"/><path d="m225.8 49.5h60.4c97.4 0 176.3 78.9 176.3 176.3v60.4c0 97.4-78.9 176.3-176.3 176.3h-60.4c-97.4 0-176.3-78.9-176.3-176.3v-60.4c0-97.4 78.9-176.3 176.3-176.3z" fill="url(#SVGID_00000003804251645069902710000014927798232713502634_)"/><path d="m225.8 49.5h60.4c97.4 0 176.3 78.9 176.3 176.3v60.4c0 97.4-78.9 176.3-176.3 176.3h-60.4c-97.4 0-176.3-78.9-176.3-176.3v-60.4c0-97.4 78.9-176.3 176.3-176.3z" fill="url(#SVGID_00000104693076386478458660000003209416679940529063_)"/><path d="m0 218.6v74.9c0 120.7 97.8 218.5 218.6 218.5h74.9c120.7 0 218.5-97.8 218.5-218.6v-74.9c0-2.4-.1-4.7-.1-7.1h-511.8c0 2.4-.1 4.8-.1 7.2z" fill="url(#SVGID_00000058553591289812636990000001242998476277280692_)"/><path d="m293.4 0h-74.9c-8.6 0-17.1.5-25.4 1.5v509c8.3 1 16.8 1.5 25.4 1.5h74.9c120.8 0 218.6-97.8 218.6-218.6v-74.9c0-120.7-97.8-218.5-218.6-218.5z" fill="url(#SVGID_00000013162883768717233100000016974730580602780595_)"/><path d="m381.5 18.5-363 363c33.8 76.8 110.7 130.5 200.1 130.5h74.9c120.7 0 218.5-97.8 218.5-218.6v-74.9c0-89.3-53.7-166.2-130.5-200z" fill="url(#SVGID_00000033364140915146371520000008901317150054942087_)"/><path d="m149.2 247.1 69.1 69.1v-69.1z" fill="url(#SVGID_00000089535115724292881780000003001503095029458575_)"/></g><path d="m460.8 310.6-97.1-97.1h-94.5l-51.3 186.1 62.9 62.9h5.4c89.1 0 162.7-66.1 174.6-151.9z" fill="url(#SVGID_00000136396573046273861560000017371135969785155001_)"/><g><path d="m273.5 116.9 90.2 96.6c14.3 15.3 3.4 40.2-17.5 40.2h-47.6v136.2c0 7.1-5.7 12.8-12.8 12.8h-59.5c-7.1 0-12.8-5.7-12.8-12.8v-136.2h-47.6c-20.9 0-31.8-25-17.5-40.2l90.2-96.6c9.4-10.2 25.4-10.2 34.9 0z" fill="url(#SVGID_00000127747471260781660310000007412595647698896019_)"/><path d="m213.5 286v103.9c0 7.1 5.7 12.8 12.8 12.8h59.5c7.1 0 12.8-5.7 12.8-12.8v-103.9z" fill="url(#SVGID_00000082363466461869555710000017480460121021351095_)"/><path d="m298.5 253.7h47.6c20.9 0 31.8-25 17.5-40.3l-65.1-69.8z" fill="url(#SVGID_00000101813158337614173960000008002899054908817065_)"/><path d="m148.3 213.5c-14.3 15.3-3.4 40.3 17.5 40.3h47.6v-110z" fill="url(#SVGID_00000024699234631424051730000008985810766820258750_)"/></g></g></svg>