<svg id="_24_Asterisk" enable-background="new 0 0 512 512" viewBox="0 0 512 512" xmlns="http://www.w3.org/2000/svg" xmlns:xlink="http://www.w3.org/1999/xlink"><linearGradient id="SVGID_1_" gradientTransform="matrix(1 0 0 -1 0 514)" gradientUnits="userSpaceOnUse" x1="108.418" x2="352.863" y1="481.521" y2="111.294"><stop offset="0" stop-color="#766e6e"/><stop offset=".2493" stop-color="#716b6b"/><stop offset=".5076" stop-color="#656464"/><stop offset=".769" stop-color="#505757"/><stop offset="1" stop-color="#384949"/></linearGradient><linearGradient id="lg1"><stop offset="0" stop-color="#464646" stop-opacity="0"/><stop offset=".6727" stop-color="#252529" stop-opacity=".463"/><stop offset="1" stop-color="#000009"/></linearGradient><linearGradient id="SVGID_00000089533907519542064680000004122650569657451161_" gradientTransform="matrix(1 0 0 -1 0 514)" gradientUnits="userSpaceOnUse" x1="173.24" x2="300.604" xlink:href="#lg1" y1="408.299" y2="219.23"/><linearGradient id="SVGID_00000132786720779970980790000010528080679439280787_" gradientTransform="matrix(1 0 0 -1 0 514)" gradientUnits="userSpaceOnUse" x1="116.864" x2="178.569" xlink:href="#lg1" y1="292.082" y2="357.347"/><linearGradient id="SVGID_00000083090616531386036330000009071587509920732089_" gradientTransform="matrix(1 0 0 -1 0 514)" gradientUnits="userSpaceOnUse" x1="307.978" x2="191.688" xlink:href="#lg1" y1="409.336" y2="357.125"/><linearGradient id="SVGID_00000118395678068627411010000016371972955510922372_" gradientTransform="matrix(1 0 0 -1 0 514)" gradientUnits="userSpaceOnUse" x1="163.957" x2="131.918" xlink:href="#lg1" y1="143.147" y2="229.771"/><linearGradient id="SVGID_00000068667215099221191360000003119693171754256010_" gradientTransform="matrix(1 0 0 -1 0 514)" gradientUnits="userSpaceOnUse" x1="410.066" x2="334.122" xlink:href="#lg1" y1="274.733" y2="357.797"/><linearGradient id="SVGID_00000097497685429836135920000014927210438736341908_" gradientTransform="matrix(1 0 0 -1 0 514)" gradientUnits="userSpaceOnUse" x1="344.549" x2="211.647" xlink:href="#lg1" y1="111.025" y2="139.504"/><linearGradient id="SVGID_00000119076052939313153870000007651113669576178571_" gradientTransform="matrix(1 0 0 -1 0 514)" gradientUnits="userSpaceOnUse" x1="256" x2="256" xlink:href="#lg1" y1="60.239" y2="-.291"/><linearGradient id="SVGID_00000112612874432308178410000014211378093596708763_" gradientTransform="matrix(1 0 0 -1 0 514)" gradientUnits="userSpaceOnUse" x1="430.822" x2="472.354" xlink:href="#lg1" y1="155.082" y2="125.416"/><linearGradient id="SVGID_00000021838161889178938360000006300537011698489523_" gradientTransform="matrix(1 0 0 -1 0 514)" gradientUnits="userSpaceOnUse" x1="438.178" x2="495.136" xlink:href="#lg1" y1="359.267" y2="381.813"/><linearGradient id="SVGID_00000033337507072219877550000017439627479668869811_" gradientTransform="matrix(1 0 0 -1 0 514)" gradientUnits="userSpaceOnUse" x1="89.011" x2="33.24" xlink:href="#lg1" y1="158.638" y2="95.747"/><g><path d="m504.8 174.9-54.2-93.8c-7.2-12.5-23.3-16.8-35.8-9.6l-78.5 45.3v-90.6c0-14.5-11.7-26.2-26.2-26.2h-108.3c-14.5 0-26.2 11.7-26.2 26.2v90.6l-78.4-45.3c-12.5-7.2-28.6-2.9-35.8 9.6l-54.2 93.8c-7.2 12.5-2.9 28.6 9.6 35.8l78.5 45.3-78.5 45.3c-12.5 7.2-16.8 23.3-9.6 35.8l54.2 93.8c7.2 12.5 23.3 16.8 35.8 9.6l78.5-45.3v90.6c0 14.5 11.7 26.2 26.2 26.2h108.3c14.5 0 26.2-11.7 26.2-26.2v-90.6l78.5 45.3c12.5 7.2 28.6 2.9 35.8-9.6l54.2-93.8c7.2-12.5 2.9-28.6-9.6-35.8l-78.6-45.3 78.5-45.3c12.5-7.2 16.8-23.3 9.6-35.8z" fill="url(#SVGID_1_)"/><g><path d="m256 0h-54.2c-14.5 0-26.2 11.7-26.2 26.2v90.6l-78.4-45.3c-12.5-7.2-28.6-2.9-35.8 9.6l-27.1 46.9 221.7 128z" fill="url(#SVGID_00000089533907519542064680000004122650569657451161_)"/><g><path d="m34.3 128-27.1 46.9c-7.2 12.5-2.9 28.6 9.6 35.8l78.5 45.3-78.5 45.3c-12.5 7.2-16.8 23.3-9.6 35.8l27.1 46.9 221.7-128z" fill="url(#SVGID_00000132786720779970980790000010528080679439280787_)"/><path d="m477.7 128-27.1-46.9c-7.2-12.5-23.3-16.8-35.8-9.6l-78.5 45.3v-90.6c0-14.5-11.7-26.2-26.2-26.2h-54.1v256z" fill="url(#SVGID_00000083090616531386036330000009071587509920732089_)"/><path d="m34.3 384 27.1 46.9c7.2 12.5 23.3 16.8 35.8 9.6l78.5-45.3v90.6c0 14.5 11.7 26.2 26.2 26.2h54.1v-256s-221.7 128-221.7 128z" fill="url(#SVGID_00000118395678068627411010000016371972955510922372_)"/><path d="m495.2 301.3-78.5-45.3 78.5-45.3c12.5-7.2 16.8-23.3 9.6-35.8l-27.1-46.9-221.7 128 221.7 128 27.1-46.9c7.2-12.5 2.9-28.6-9.6-35.8z" fill="url(#SVGID_00000068667215099221191360000003119693171754256010_)"/><path d="m256 512h54.2c14.5 0 26.2-11.7 26.2-26.2v-90.6l78.5 45.3c12.5 7.2 28.6 2.9 35.8-9.6l27.1-46.9-221.8-128z" fill="url(#SVGID_00000097497685429836135920000014927210438736341908_)"/></g></g><g><path d="m175.6 485.8c0 14.5 11.7 26.2 26.2 26.2h108.3c14.5 0 26.2-11.7 26.2-26.2v-90.6h-160.7z" fill="url(#SVGID_00000119076052939313153870000007651113669576178571_)"/><path d="m450.6 430.9 54.2-93.8c7.2-12.5 2.9-28.6-9.6-35.8l-78.5-45.3-80.4 139.2 78.5 45.3c12.6 7.2 28.6 2.9 35.8-9.6z" fill="url(#SVGID_00000112612874432308178410000014211378093596708763_)"/><path d="m416.7 256 78.5-45.3c12.5-7.2 16.8-23.3 9.6-35.8l-54.2-93.8c-7.2-12.5-23.3-16.8-35.8-9.6l-78.5 45.3z" fill="url(#SVGID_00000021838161889178938360000006300537011698489523_)"/><path d="m95.3 256-78.5 45.3c-12.5 7.2-16.8 23.3-9.6 35.8l54.2 93.8c7.2 12.5 23.3 16.8 35.8 9.6l78.5-45.3z" fill="url(#SVGID_00000033337507072219877550000017439627479668869811_)"/></g></g></svg>