<svg id="_46_Dollar" enable-background="new 0 0 512 512" viewBox="0 0 512 512" xmlns="http://www.w3.org/2000/svg" xmlns:xlink="http://www.w3.org/1999/xlink"><linearGradient id="SVGID_1_" gradientTransform="matrix(1 0 0 -1 0 514)" gradientUnits="userSpaceOnUse" x1="74.6" x2="428.184" y1="375.635" y2="154.644"><stop offset="0" stop-color="#bbec6c"/><stop offset=".2292" stop-color="#b7e967"/><stop offset=".4667" stop-color="#ade05b"/><stop offset=".7079" stop-color="#9dd146"/><stop offset=".9504" stop-color="#86bc29"/><stop offset="1" stop-color="#81b823"/></linearGradient><linearGradient id="lg1"><stop offset="0" stop-color="#017b4e" stop-opacity="0"/><stop offset=".1753" stop-color="#017b4e" stop-opacity=".034"/><stop offset=".3569" stop-color="#017b4e" stop-opacity=".135"/><stop offset=".5415" stop-color="#017b4e" stop-opacity=".304"/><stop offset=".7281" stop-color="#017b4e" stop-opacity=".54"/><stop offset=".9146" stop-color="#017b4e" stop-opacity=".841"/><stop offset="1" stop-color="#017b4e"/></linearGradient><linearGradient id="SVGID_00000008113998437422955150000006846345017447796647_" gradientTransform="matrix(1 0 0 -1 0 514)" gradientUnits="userSpaceOnUse" x1="199.128" x2="268.515" xlink:href="#lg1" y1="402.146" y2="428.284"/><linearGradient id="SVGID_00000111895300086877941170000011234121193964058539_" gradientTransform="matrix(1 0 0 -1 0 514)" gradientUnits="userSpaceOnUse" x1="319.733" x2="420.106" xlink:href="#lg1" y1="173.092" y2="173.092"/><linearGradient id="SVGID_00000036965249868058682160000003517265657390345655_" gradientTransform="matrix(1 0 0 -1 0 514)" gradientUnits="userSpaceOnUse" x1="345.17" x2="345.17" xlink:href="#lg1" y1="98.129" y2="21.139"/><linearGradient id="SVGID_00000137848782493286605050000000400968849124568709_" gradientTransform="matrix(1 0 0 -1 0 514)" gradientUnits="userSpaceOnUse" x1="337.094" x2="388.421" xlink:href="#lg1" y1="127.352" y2="66.045"/><linearGradient id="SVGID_00000020374275813576228690000007651826909182097544_" gradientTransform="matrix(1 0 0 -1 0 514)" gradientUnits="userSpaceOnUse" x1="330.934" x2="273.904" xlink:href="#lg1" y1="112.316" y2="100.197"/><linearGradient id="SVGID_00000171681336751661432100000006318261574924399490_" gradientTransform="matrix(1 0 0 -1 0 514)" gradientUnits="userSpaceOnUse" x1="239.891" x2="302.826" xlink:href="#lg1" y1="114.3" y2="114.3"/><linearGradient id="SVGID_00000163779587866737304700000005501940076893735615_" gradientTransform="matrix(1 0 0 -1 0 514)" gradientUnits="userSpaceOnUse" x1="257.892" x2="276.902" xlink:href="#lg1" y1="176.036" y2="210.729"/><linearGradient id="SVGID_00000072265716666635156030000017488379184111457957_" gradientTransform="matrix(1 0 0 -1 0 514)" gradientUnits="userSpaceOnUse" x1="256" x2="256" xlink:href="#lg1" y1="24.941" y2="-3.578"/><linearGradient id="SVGID_00000050641135355351916350000001432513474952595383_" gradientTransform="matrix(1 0 0 -1 0 514)" gradientUnits="userSpaceOnUse" x1="176.51" x2="158.688" xlink:href="#lg1" y1="113.678" y2="41.678"/><linearGradient id="SVGID_00000088834415190602295880000011843665048514122903_" gradientTransform="matrix(1 0 0 -1 0 514)" gradientUnits="userSpaceOnUse" x1="193.554" x2="239.721" xlink:href="#lg1" y1="97.515" y2="97.515"/><linearGradient id="SVGID_00000098927590314566919180000009090146596509581746_" gradientTransform="matrix(1 0 0 -1 0 514)" gradientUnits="userSpaceOnUse" x1="246.307" x2="300.598" xlink:href="#lg1" y1="412.89" y2="412.89"/><linearGradient id="SVGID_00000167377004817358988130000005775049191482802825_" gradientTransform="matrix(1 0 0 -1 0 514)" gradientUnits="userSpaceOnUse" x1="254.084" x2="243.391" xlink:href="#lg1" y1="359.45" y2="315.252"/><linearGradient id="SVGID_00000030453512788008197290000001368296624093907644_" gradientTransform="matrix(1 0 0 -1 0 514)" gradientUnits="userSpaceOnUse" x1="335.152" x2="319.469" xlink:href="#lg1" y1="437.187" y2="380.633"/><linearGradient id="SVGID_00000049190242806486565590000004543792322216286358_" gradientTransform="matrix(1 0 0 -1 0 514)" gradientUnits="userSpaceOnUse" x1="328.525" x2="282.13" xlink:href="#lg1" y1="432.35" y2="432.35"/><linearGradient id="SVGID_00000105388244642099904860000016258827527103693245_" gradientTransform="matrix(1 0 0 -1 0 514)" gradientUnits="userSpaceOnUse" x1="336.517" x2="387.843" xlink:href="#lg1" y1="428.121" y2="386.774"/><g><path d="m390.3 284.1c-9.5-16.9-21.3-31.3-35.4-43s-29.5-21.3-46.3-28.7c-7.9-3.5-15.5-6.9-22.8-10.2v-91.8c7 .6 13.1 1.6 18.3 3.2 8.1 2.4 15 5 20.9 7.9 5.8 2.8 11.1 5.4 15.7 7.9 4.6 2.4 9.8 3.6 15.4 3.6 6.4 0 12.1-1.8 16.9-5.4s8.8-8.1 11.8-13.3 5.2-10.7 6.7-16.3c1.4-5.6 2.1-10.5 2.1-14.5 0-11.7-4.7-21.1-14.2-28.1-9.5-7.1-20.8-12.4-33.9-16s-26.4-6-39.9-7.3c-7.4-.7-14-1.1-19.8-1.4v-19.8c0-6-4.8-10.9-10.8-10.9h-38c-6 0-10.9 4.9-10.9 10.9v24.1c-3.1.6-6.1 1.3-9.2 2.1-18.6 4.6-35.1 11.9-49.6 21.8s-26.3 22.8-35.4 38.7-13.6 35.2-13.6 57.8c0 23.8 4.7 43.6 14.2 59.3s21.3 29 35.4 39.9 29.5 20.1 46.3 27.5c4.1 1.8 8 3.6 11.9 5.4v106.8c-3.8-1-7.4-2.3-10.7-3.9-9.9-4.6-18.6-9.8-26-15.4-7.5-5.6-14.3-10.8-20.6-15.4s-13-7-20.3-7c-5.7 0-11 1.7-16 5.1s-9.4 7.7-13 12.7-6.6 10.5-8.8 16.3c-2.2 5.9-3.3 11.4-3.3 16.6 0 10.1 3.8 19.9 11.5 29.3 7.7 9.5 18.1 17.8 31.5 25.1 13.3 7.3 28.8 13.1 46.6 17.5 9.4 2.4 19.2 4.1 29.2 5.2v20.7c0 6 4.9 10.9 10.9 10.9h37.9c6 0 10.9-4.9 10.9-10.9v-21.6c9.7-1.5 19-3.6 28-6.4 18.5-5.8 34.6-14.4 48.1-25.7s24-25.3 31.5-42 11.2-36 11.2-57.8c-.2-25.4-4.9-46.5-14.4-63.5zm-177.6-137.9c0-9.1 4.5-17.3 13.4-24.7v49.5c-8.9-6.7-13.4-15-13.4-24.8zm92.3 229.6c-3.4 5-8 9.2-13.6 12.4-1.8 1-3.6 1.9-5.6 2.8v-72.1c3.6 2.6 7 5.2 10.1 7.9 9.5 8.3 14.2 18.5 14.2 30.6 0 7.2-1.7 13.3-5.1 18.4z" fill="url(#SVGID_1_)"/><path d="m226.2 34.9c-3.1.6-6.1 1.3-9.2 2.1-18.6 4.6-35.1 11.9-49.6 21.8s-26.3 22.8-35.4 38.7-13.6 35.2-13.6 57.8c0 5.5.3 10.7.8 15.7h107.1zm0 136.1c-8.9-6.7-13.4-15-13.4-24.8 0-9.1 4.5-17.3 13.4-24.7z" fill="url(#SVGID_00000008113998437422955150000006846345017447796647_)"/><path d="m361.9 447.5c13.5-11.3 24-25.3 31.5-42s11.2-36 11.2-57.8c0-25.4-4.7-46.6-14.2-63.5s-21.3-31.3-35.4-43-29.5-21.3-46.3-28.7c-7.9-3.5-15.5-6.9-22.8-10.2v116.6c3.6 2.6 7 5.2 10.1 7.9 9.5 8.3 14.2 18.5 14.2 30.6 0 7.3-1.7 13.4-5.1 18.5-3.4 5-8 9.2-13.6 12.4-1.8 1-3.6 1.9-5.6 2.8v88.6c9.7-1.5 19-3.6 28-6.4 18.4-6 34.5-14.5 48-25.8z" fill="url(#SVGID_00000111895300086877941170000011234121193964058539_)"/><path d="m404.5 347.6c0 21.8-3.7 41.1-11.2 57.8s-18 30.8-31.5 42.1-29.5 19.9-48.1 25.7c-8.9 2.8-18.2 5-28 6.4v-88.6c1.9-.8 3.8-1.8 5.6-2.8 5.6-3.2 10.2-7.4 13.6-12.4s5.2-11.2 5.2-18.4c0-12.1-4.8-22.3-14.2-30.6-3.1-2.7-6.5-5.4-10.1-7.9v-11.9h113.7c3.3 12.1 5 25.6 5 40.6z" fill="url(#SVGID_00000036965249868058682160000003517265657390345655_)"/><path d="m404.5 347.6c0 21.8-3.7 41.1-11.2 57.8s-18 30.8-31.5 42.1-29.5 19.9-48.1 25.7c-8.9 2.8-18.2 5-28 6.4v-88.6c1.9-.8 3.8-1.8 5.6-2.8 5.6-3.2 10.2-7.4 13.6-12.4s5.2-11.2 5.2-18.4c0-12.1-4.8-22.3-14.2-30.6-3.1-2.7-6.5-5.4-10.1-7.9v-11.9h113.7c3.3 12.1 5 25.6 5 40.6z" fill="url(#SVGID_00000137848782493286605050000000400968849124568709_)"/><path d="m404.5 347.6c0 21.8-3.7 41.1-11.2 57.8s-18 30.8-31.5 42.1-29.5 19.9-48.1 25.7c-8.9 2.8-18.2 5-28 6.4v-88.6c1.9-.8 3.8-1.8 5.6-2.8 5.7-3.2 10.2-7.4 13.6-12.4s5.2-11.2 5.2-18.4c0-6.9-1.6-13.2-4.7-18.9h98.8c.2 2.9.3 6 .3 9.1z" fill="url(#SVGID_00000020374275813576228690000007651826909182097544_)"/><path d="m285.8 318.8v182.3c0 6-4.9 10.9-10.8 10.9h-38c-6 0-10.9-4.9-10.9-10.9v-213.7c12.2 5.6 23.7 11.1 34.4 16.4 9.5 4.7 17.9 9.7 25.3 15z" fill="url(#SVGID_00000171681336751661432100000006318261574924399490_)"/><path d="m226.2 287.4v108h59.6v-76.6c-7.4-5.3-15.8-10.3-25.3-15-10.7-5.4-22.1-10.8-34.3-16.4z" fill="url(#SVGID_00000163779587866737304700000005501940076893735615_)"/><path d="m226.2 443.9v57.2c0 6 4.9 10.9 10.9 10.9h37.9c6 0 10.8-4.9 10.8-10.9v-57.2z" fill="url(#SVGID_00000072265716666635156030000017488379184111457957_)"/><path d="m215.5 390.3c-9.9-4.6-18.6-9.8-26-15.4-7.5-5.6-14.3-10.8-20.6-15.4-6.2-4.6-13-7-20.3-7-5.7 0-11 1.7-16 5.2-5 3.4-9.4 7.7-13 12.7-3.6 5.1-6.6 10.5-8.8 16.3-2.2 5.9-3.3 11.4-3.3 16.6 0 10.1 3.8 19.9 11.5 29.3 7.7 9.5 18.1 17.9 31.5 25.1s28.8 13.1 46.6 17.6c9.4 2.3 19.2 4.1 29.2 5.2v-86.3c-3.9-1.1-7.5-2.3-10.8-3.9z" fill="url(#SVGID_00000050641135355351916350000001432513474952595383_)"/><path d="m215.5 390.3c-9.9-4.6-18.6-9.8-26-15.4-7.5-5.6-14.3-10.8-20.6-15.4-6.2-4.6-13-7-20.3-7-5.7 0-11 1.7-16 5.2-5 3.4-9.4 7.7-13 12.7-3.6 5.1-6.6 10.5-8.8 16.3-2.2 5.9-3.3 11.4-3.3 16.6 0 10.1 3.8 19.9 11.5 29.3 7.7 9.5 18.1 17.9 31.5 25.1s28.8 13.1 46.6 17.6c9.4 2.3 19.2 4.1 29.2 5.2v-86.3c-3.9-1.1-7.5-2.3-10.8-3.9z" fill="url(#SVGID_00000088834415190602295880000011843665048514122903_)"/><path d="m285.8 10.9v191.4c-8.2-3.7-16-7.2-23.5-10.6-14.1-6.4-25.9-13.1-35.4-20-.3-.2-.5-.4-.8-.6v-160.2c.1-6 4.9-10.9 10.9-10.9h38c6 0 10.8 4.9 10.8 10.9z" fill="url(#SVGID_00000098927590314566919180000009090146596509581746_)"/><path d="m226.2 91v80c.3.2.5.4.8.6 9.5 6.9 21.3 13.5 35.4 20 7.5 3.4 15.3 7 23.5 10.6v-111.2z" fill="url(#SVGID_00000167377004817358988130000005775049191482802825_)"/><path d="m379.4 55.1c-9.5-7-20.8-12.4-33.9-16s-26.4-6-39.9-7.2c-7.4-.7-14-1.1-19.8-1.4v80c7 .6 13.1 1.6 18.3 3.2 8.1 2.4 15 5.1 20.9 7.9 5.8 2.8 11.1 5.4 15.7 7.9 4.6 2.4 9.8 3.6 15.4 3.6 6.5 0 12.1-1.8 16.9-5.5 4.8-3.6 8.8-8.1 11.8-13.3s5.2-10.7 6.7-16.3c1.4-5.7 2.1-10.5 2.1-14.5 0-11.9-4.7-21.3-14.2-28.4z" fill="url(#SVGID_00000030453512788008197290000001368296624093907644_)"/><path d="m379.4 55.1c-9.5-7-20.8-12.4-33.9-16s-26.4-6-39.9-7.2c-7.4-.7-14-1.1-19.8-1.4v80c7 .6 13.1 1.6 18.3 3.2 8.1 2.4 15 5.1 20.9 7.9 5.8 2.8 11.1 5.4 15.7 7.9 4.6 2.4 9.8 3.6 15.4 3.6 6.5 0 12.1-1.8 16.9-5.5 4.8-3.6 8.8-8.1 11.8-13.3s5.2-10.7 6.7-16.3c1.4-5.7 2.1-10.5 2.1-14.5 0-11.9-4.7-21.3-14.2-28.4z" fill="url(#SVGID_00000049190242806486565590000004543792322216286358_)"/><path d="m379.4 55.1c-9.5-7-20.8-12.4-33.9-16s-26.4-6-39.9-7.2c-7.4-.7-14-1.1-19.8-1.4v80c7 .6 13.1 1.6 18.3 3.2 8.1 2.4 15 5.1 20.9 7.9 5.8 2.8 11.1 5.4 15.7 7.9 4.6 2.4 9.8 3.6 15.4 3.6 6.5 0 12.1-1.8 16.9-5.5 4.8-3.6 8.8-8.1 11.8-13.3s5.2-10.7 6.7-16.3c1.4-5.7 2.1-10.5 2.1-14.5 0-11.9-4.7-21.3-14.2-28.4z" fill="url(#SVGID_00000105388244642099904860000016258827527103693245_)"/></g></svg>