<svg id="_50_Euro" enable-background="new 0 0 512 512" viewBox="0 0 512 512" xmlns="http://www.w3.org/2000/svg" xmlns:xlink="http://www.w3.org/1999/xlink"><linearGradient id="lg1"><stop offset="0" stop-color="#bbec6c"/><stop offset=".2292" stop-color="#b7e967"/><stop offset=".4667" stop-color="#ade05b"/><stop offset=".7079" stop-color="#9dd146"/><stop offset=".9504" stop-color="#86bc29"/><stop offset="1" stop-color="#81b823"/></linearGradient><linearGradient id="SVGID_1_" gradientTransform="matrix(1 0 0 -1 0 514)" gradientUnits="userSpaceOnUse" x1="95.31" x2="468.498" xlink:href="#lg1" y1="378.638" y2="186.163"/><linearGradient id="lg2"><stop offset="0" stop-color="#017b4e" stop-opacity="0"/><stop offset=".1753" stop-color="#017b4e" stop-opacity=".034"/><stop offset=".3569" stop-color="#017b4e" stop-opacity=".135"/><stop offset=".5415" stop-color="#017b4e" stop-opacity=".304"/><stop offset=".7281" stop-color="#017b4e" stop-opacity=".54"/><stop offset=".9146" stop-color="#017b4e" stop-opacity=".841"/><stop offset="1" stop-color="#017b4e"/></linearGradient><linearGradient id="SVGID_00000093140828008777369240000003669099060451043723_" gradientTransform="matrix(1 0 0 -1 0 514)" gradientUnits="userSpaceOnUse" x1="275.986" x2="305.214" xlink:href="#lg2" y1="430.638" y2="326.558"/><linearGradient id="SVGID_00000003085235227123716630000013653943165405087643_" gradientTransform="matrix(1 0 0 -1 0 514)" gradientUnits="userSpaceOnUse" x1="371.292" x2="428.321" xlink:href="#lg2" y1="419.229" y2="370.754"/><linearGradient id="SVGID_00000123441452203665431870000015848747596822137229_" gradientTransform="matrix(1 0 0 -1 0 514)" gradientUnits="userSpaceOnUse" x1="172.238" x2="172.238" xlink:href="#lg2" y1="244.03" y2="299.036"/><linearGradient id="SVGID_00000100375851623836998140000013118527358537548453_" gradientTransform="matrix(1 0 0 -1 0 514)" gradientUnits="userSpaceOnUse" x1="172.238" x2="172.238" xlink:href="#lg2" y1="251.158" y2="199.812"/><linearGradient id="SVGID_00000046303979592578390560000003341098907280926597_" gradientTransform="matrix(1 0 0 -1 0 514)" gradientUnits="userSpaceOnUse" x1="151.228" x2="249.64" xlink:href="#lg2" y1="257.218" y2="257.218"/><linearGradient id="SVGID_00000062872518659245398090000005930648957601046403_" gradientTransform="matrix(1 0 0 -1 0 514)" gradientUnits="userSpaceOnUse" x1="268.652" x2="226.593" xlink:href="#lg2" y1="94" y2="17.01"/><linearGradient id="SVGID_00000167384190324775597980000008152780945195490957_" gradientTransform="matrix(1 0 0 -1 0 514)" gradientUnits="userSpaceOnUse" x1="296.304" x2="311.275" xlink:href="#lg2" y1="82.708" y2="-22.798"/><linearGradient id="SVGID_00000088813625090888273870000009603557430984988033_" gradientTransform="matrix(1 0 0 -1 0 514)" gradientUnits="userSpaceOnUse" x1="288.326" x2="288.326" xlink:href="#lg2" y1="121.416" y2="184.165"/><linearGradient id="SVGID_00000021078148000610151200000013866943300708922275_" gradientTransform="matrix(1 0 0 -1 0 514)" gradientUnits="userSpaceOnUse" x1="232.306" x2="232.306" xlink:href="#lg1" y1="342.406" y2="285.372"/><linearGradient id="SVGID_00000178925708157298820760000014025792061818928512_" gradientTransform="matrix(1 0 0 -1 0 514)" gradientUnits="userSpaceOnUse" x1="232.306" x2="232.306" xlink:href="#lg1" y1="229.772" y2="172.012"/><linearGradient id="SVGID_00000095330020407126809100000000998825258318291364_" gradientTransform="matrix(1 0 0 -1 0 514)" gradientUnits="userSpaceOnUse" x1="361.637" x2="455.023" xlink:href="#lg2" y1="65.136" y2="43.037"/><linearGradient id="SVGID_00000058577712755634177510000011401213783117926052_" gradientTransform="matrix(1 0 0 -1 0 514)" gradientUnits="userSpaceOnUse" x1="374.357" x2="410.178" xlink:href="#lg2" y1="315.495" y2="315.495"/><linearGradient id="SVGID_00000123433339749623309420000005568709239638223533_" gradientTransform="matrix(1 0 0 -1 0 514)" gradientUnits="userSpaceOnUse" x1="374.357" x2="410.178" xlink:href="#lg2" y1="200.505" y2="200.505"/><g><path d="m431.2 398.8c-16.2-16.2-40.7-20-61.5-10.3-12.6 5.9-26.3 9.2-40.6 9.2-63 0-114.1-63.5-114.1-141.7s51.2-141.7 114.3-141.7c14.3 0 28 3.2 40.6 9.2 20.7 9.8 45.3 5.9 61.5-10.3l1.1-1.1c24.5-24.5 20.2-65.5-9-84.1-28.4-17.9-60.4-28-94.3-28-114 0-206.5 114.6-206.5 256s92.4 256 206.5 256c33.9 0 65.9-10.1 94.1-28.1 29.2-18.6 33.5-59.6 9-84.1z" fill="url(#SVGID_1_)"/><path d="m432.3 112.2-1.1 1.1c-16.2 16.2-40.8 20-61.5 10.3-12.6-5.9-26.3-9.2-40.5-9.2-44.4 0-83 31.4-101.9 77.4h-98.1c23.1-110.4 103.9-191.8 200-191.8 33.9 0 65.9 10.1 94.1 28.1 29.2 18.5 33.5 59.6 9 84.1z" fill="url(#SVGID_00000093140828008777369240000003669099060451043723_)"/><path d="m423.3 28.1c-28.2-18-60.2-28.1-94.1-28.1-17.1 0-33.8 2.6-49.7 7.5v120.9c15-9 31.9-14.1 49.7-14.1 14.3 0 28 3.2 40.6 9.2 20.7 9.8 45.3 5.9 61.5-10.3l1.1-1.1c24.4-24.4 20.1-65.5-9.1-84z" fill="url(#SVGID_00000003085235227123716630000013653943165405087643_)"/><path d="m215 256c0-16.3 2.2-32 6.3-46.6h-95.1c-2.2 15.1-3.4 30.7-3.4 46.6 0 16.5 1.3 32.6 3.7 48.2h95.3c-4.4-15.1-6.8-31.3-6.8-48.2z" fill="url(#SVGID_00000123441452203665431870000015848747596822137229_)"/><path d="m215 256c0-16.3 2.2-32 6.3-46.6h-95.1c-2.2 15.1-3.4 30.7-3.4 46.6 0 16.5 1.3 32.6 3.7 48.2h95.3c-4.4-15.1-6.8-31.3-6.8-48.2z" fill="url(#SVGID_00000100375851623836998140000013118527358537548453_)"/><path d="m215 256c0-16.3 2.2-32 6.3-46.6h-95.1c-2.2 15.1-3.4 30.7-3.4 46.6 0 16.5 1.3 32.6 3.7 48.2h95.3c-4.4-15.1-6.8-31.3-6.8-48.2z" fill="url(#SVGID_00000046303979592578390560000003341098907280926597_)"/><path d="m329.2 512c33.9 0 65.9-10.1 94.1-28.1 29.2-18.6 33.5-59.6 9-84.1l-1.1-1.1c-16.2-16.2-40.7-20-61.5-10.3-12.6 5.9-26.3 9.2-40.6 9.2-45.9 0-85.5-33.6-103.6-82h-97.2c21.8 112.7 103.5 196.4 200.9 196.4z" fill="url(#SVGID_00000062872518659245398090000005930648957601046403_)"/><path d="m329.2 512c33.9 0 65.9-10.1 94.1-28.1 29.2-18.6 33.5-59.6 9-84.1l-1.1-1.1c-16.2-16.2-40.7-20-61.5-10.3-12.6 5.9-26.3 9.2-40.6 9.2-45.9 0-85.5-33.6-103.6-82h-97.2c21.8 112.7 103.5 196.4 200.9 196.4z" fill="url(#SVGID_00000167384190324775597980000008152780945195490957_)"/><path d="m329.2 512c33.9 0 65.9-10.1 94.1-28.1 29.2-18.6 33.5-59.6 9-84.1l-1.1-1.1c-16.2-16.2-40.7-20-61.5-10.3-12.6 5.9-26.3 9.2-40.6 9.2-45.9 0-85.5-33.6-103.6-82h-97.2c21.8 112.7 103.5 196.4 200.9 196.4z" fill="url(#SVGID_00000088813625090888273870000009603557430984988033_)"/><path d="m400.9 179.5v37.9c0 6-4.9 10.9-10.9 10.9h-315.4c-6 0-10.9-4.9-10.9-10.9v-37.9c0-6 4.9-10.9 10.9-10.9h315.4c6 .1 10.9 4.9 10.9 10.9z" fill="url(#SVGID_00000021078148000610151200000013866943300708922275_)"/><path d="m400.9 294.5v37.9c0 6-4.9 10.9-10.9 10.9h-315.4c-6 0-10.9-4.9-10.9-10.9v-37.9c0-6 4.9-10.9 10.9-10.9h315.4c6 .1 10.9 4.9 10.9 10.9z" fill="url(#SVGID_00000178925708157298820760000014025792061818928512_)"/><path d="m431.2 398.8c-16.2-16.2-40.7-20-61.5-10.3-12.6 5.9-26.3 9.2-40.6 9.2-8 0-15.8-1-23.3-3v115.7c7.6 1.1 15.4 1.6 23.3 1.6 33.9 0 65.9-10.1 94.1-28.1 29.2-18.6 33.5-59.6 9-84.1z" fill="url(#SVGID_00000095330020407126809100000000998825258318291364_)"/><path d="m400.9 179.5v37.9c0 6-4.9 10.9-10.9 10.9h-110.5v-59.7h110.5c6 .1 10.9 4.9 10.9 10.9z" fill="url(#SVGID_00000058577712755634177510000011401213783117926052_)"/><path d="m400.9 294.5v37.9c0 6-4.9 10.9-10.9 10.9h-110.5v-59.7h110.5c6 .1 10.9 4.9 10.9 10.9z" fill="url(#SVGID_00000123433339749623309420000005568709239638223533_)"/></g></svg>