<svg id="_04_Forbiden" enable-background="new 0 0 512 512" viewBox="0 0 512 512" xmlns="http://www.w3.org/2000/svg" xmlns:xlink="http://www.w3.org/1999/xlink"><linearGradient id="SVGID_1_" gradientTransform="matrix(1 0 0 -1 0 514)" gradientUnits="userSpaceOnUse" x1="74.362" x2="430.629" y1="439.638" y2="83.371"><stop offset="0" stop-color="#ff4565"/><stop offset=".2702" stop-color="#fa4362"/><stop offset=".5502" stop-color="#ee3d5a"/><stop offset=".8337" stop-color="#d9344d"/><stop offset="1" stop-color="#ca2e43"/></linearGradient><linearGradient id="lg1"><stop offset="0" stop-color="#6d3326" stop-opacity="0"/><stop offset=".2414" stop-color="#6a3124" stop-opacity=".063"/><stop offset=".4916" stop-color="#622e1f" stop-opacity=".252"/><stop offset=".7457" stop-color="#542816" stop-opacity=".565"/><stop offset="1" stop-color="#42210b"/></linearGradient><linearGradient id="SVGID_00000055692075111950642080000015895946681203950505_" gradientTransform="matrix(1 0 0 -1 0 514)" gradientUnits="userSpaceOnUse" x1="-141.96" x2="619.077" xlink:href="#lg1" y1="655.96" y2="-105.077"/><linearGradient id="SVGID_00000047038720554483212030000003239208453122304151_" gradientTransform="matrix(1 0 0 -1 0 514)" gradientUnits="userSpaceOnUse" x1="256" x2="256" xlink:href="#lg1" y1="318.168" y2="529.039"/><linearGradient id="SVGID_00000096745591134238653220000015386901220509714861_" gradientTransform="matrix(1 0 0 -1 0 514)" gradientUnits="userSpaceOnUse" x1="191.772" x2="-24.228" xlink:href="#lg1" y1="258" y2="258"/><linearGradient id="SVGID_00000100351531094446632560000017524092426280478382_" gradientTransform="matrix(1 0 0 -1 0 514)" gradientUnits="userSpaceOnUse" x1="249.418" x2="229.014" xlink:href="#lg1" y1="190.787" y2="-9.174"/><linearGradient id="SVGID_00000156545187743551552590000003115562860990877342_" gradientTransform="matrix(1 0 0 -1 0 514)" gradientUnits="userSpaceOnUse" x1="278.965" x2="521.094" xlink:href="#lg1" y1="261.296" y2="296.664"/><linearGradient id="SVGID_00000169539414823587028790000007289689494341472164_" gradientTransform="matrix(1 0 0 -1 0 514)" gradientUnits="userSpaceOnUse" x1="390" x2="472.705" y1="124" y2="41.295"><stop offset="0" stop-color="#fdb4ba" stop-opacity="0"/><stop offset=".1207" stop-color="#fdb3b9" stop-opacity=".016"/><stop offset=".2459" stop-color="#fdb2b8" stop-opacity=".065"/><stop offset=".3731" stop-color="#fdb0b6" stop-opacity=".147"/><stop offset=".5018" stop-color="#fdacb3" stop-opacity=".262"/><stop offset=".6317" stop-color="#fda8af" stop-opacity=".41"/><stop offset=".7625" stop-color="#fda4aa" stop-opacity=".59"/><stop offset=".8916" stop-color="#fd9ea5" stop-opacity=".8"/><stop offset="1" stop-color="#fe99a0"/></linearGradient><linearGradient id="SVGID_00000042721531704722786440000018432434652220251325_" gradientTransform="matrix(1 0 0 -1 0 514)" gradientUnits="userSpaceOnUse" x1="334.964" x2="269.736" xlink:href="#lg1" y1="139.086" y2="324.076"/><linearGradient id="SVGID_00000063602419913329924150000003079256133526661820_" gradientTransform="matrix(1 0 0 -1 0 514)" gradientUnits="userSpaceOnUse" x1="239.533" x2="273.751" y1="325.241" y2="185.518"><stop offset="0" stop-color="#f5fbff"/><stop offset=".2414" stop-color="#f0f8fe"/><stop offset=".4916" stop-color="#e4f2fe"/><stop offset=".7457" stop-color="#cfe8fe"/><stop offset="1" stop-color="#b3dafe"/></linearGradient><linearGradient id="lg2"><stop offset="0" stop-color="#8ac9fe" stop-opacity="0"/><stop offset=".1291" stop-color="#89c8fd" stop-opacity=".019"/><stop offset=".2629" stop-color="#88c6fb" stop-opacity=".075"/><stop offset=".3989" stop-color="#87c4f8" stop-opacity=".168"/><stop offset=".5365" stop-color="#85c0f4" stop-opacity=".298"/><stop offset=".6753" stop-color="#83bbef" stop-opacity=".466"/><stop offset=".8151" stop-color="#7fb5e9" stop-opacity=".672"/><stop offset=".9532" stop-color="#7caee1" stop-opacity=".911"/><stop offset="1" stop-color="#7bacdf"/></linearGradient><linearGradient id="SVGID_00000036940430573800138380000003535723118568597132_" gradientTransform="matrix(1 0 0 -1 0 514)" gradientUnits="userSpaceOnUse" x1="256" x2="256" xlink:href="#lg2" y1="234.644" y2="206.6"/><linearGradient id="SVGID_00000046331275992211820720000005236603495422647976_" gradientTransform="matrix(1 0 0 -1 0 514)" gradientUnits="userSpaceOnUse" x1="371.852" x2="401.378" xlink:href="#lg2" y1="258" y2="258"/><g><g><path d="m218.6 0h74.9c120.7 0 218.5 97.8 218.5 218.6v74.9c0 120.7-97.8 218.5-218.6 218.5h-74.9c-120.7 0-218.5-97.8-218.5-218.6v-74.9c0-120.7 97.8-218.5 218.6-218.5z" fill="url(#SVGID_1_)"/><path d="m225.8 49.5h60.4c97.4 0 176.3 78.9 176.3 176.3v60.4c0 97.4-78.9 176.3-176.3 176.3h-60.4c-97.4 0-176.3-78.9-176.3-176.3v-60.4c0-97.4 78.9-176.3 176.3-176.3z" fill="url(#SVGID_00000055692075111950642080000015895946681203950505_)"/><path d="m225.8 49.5h60.4c97.4 0 176.3 78.9 176.3 176.3v60.4c0 97.4-78.9 176.3-176.3 176.3h-60.4c-97.4 0-176.3-78.9-176.3-176.3v-60.4c0-97.4 78.9-176.3 176.3-176.3z" fill="url(#SVGID_00000047038720554483212030000003239208453122304151_)"/><path d="m225.8 49.5h60.4c97.4 0 176.3 78.9 176.3 176.3v60.4c0 97.4-78.9 176.3-176.3 176.3h-60.4c-97.4 0-176.3-78.9-176.3-176.3v-60.4c0-97.4 78.9-176.3 176.3-176.3z" fill="url(#SVGID_00000096745591134238653220000015386901220509714861_)"/><path d="m0 218.6v74.9c0 120.7 97.8 218.5 218.6 218.5h74.9c120.7 0 218.5-97.8 218.5-218.6v-74.9c0-2.4-.1-4.7-.1-7.1h-511.8c0 2.4-.1 4.8-.1 7.2z" fill="url(#SVGID_00000100351531094446632560000017524092426280478382_)"/><path d="m293.4 0h-74.9c-8.6 0-17.1.5-25.4 1.5v509c8.3 1 16.8 1.5 25.4 1.5h74.9c120.8 0 218.6-97.8 218.6-218.6v-74.9c0-120.7-97.8-218.5-218.6-218.5z" fill="url(#SVGID_00000156545187743551552590000003115562860990877342_)"/><path d="m381.5 18.5-363 363c33.8 76.8 110.7 130.5 200.1 130.5h74.9c120.7 0 218.5-97.8 218.5-218.6v-74.9c0-89.3-53.7-166.2-130.5-200z" fill="url(#SVGID_00000169539414823587028790000007289689494341472164_)"/></g><path d="m116.4 303.4 206.6 206.6c97.1-13.1 173.9-89.9 187-187l-113.9-113.9z" fill="url(#SVGID_00000042721531704722786440000018432434652220251325_)"/><g><path d="m129.9 203.1h252.3c10.7 0 19.3 8.6 19.3 19.3v67.2c0 10.7-8.6 19.3-19.3 19.3h-252.3c-10.7 0-19.3-8.6-19.3-19.3v-67.2c0-10.6 8.6-19.3 19.3-19.3z" fill="url(#SVGID_00000063602419913329924150000003079256133526661820_)"/><path d="m129.9 203.1h252.3c10.7 0 19.3 8.6 19.3 19.3v67.2c0 10.7-8.6 19.3-19.3 19.3h-252.3c-10.7 0-19.3-8.6-19.3-19.3v-67.2c0-10.6 8.6-19.3 19.3-19.3z" fill="url(#SVGID_00000036940430573800138380000003535723118568597132_)"/><path d="m382.1 203.1h-126.1v105.8h126.1c10.7 0 19.3-8.6 19.3-19.3v-67.2c0-10.6-8.6-19.3-19.3-19.3z" fill="url(#SVGID_00000046331275992211820720000005236603495422647976_)"/></g></g></svg>