<svg id="_27_Hashtag" enable-background="new 0 0 512 512" viewBox="0 0 512 512" xmlns="http://www.w3.org/2000/svg" xmlns:xlink="http://www.w3.org/1999/xlink"><linearGradient id="SVGID_1_" gradientTransform="matrix(1 0 0 -1 0 514)" gradientUnits="userSpaceOnUse" x1="29.224" x2="423.458" y1="484.776" y2="90.542"><stop offset="0" stop-color="#ff4565"/><stop offset=".2702" stop-color="#fa4362"/><stop offset=".5502" stop-color="#ee3d5a"/><stop offset=".8337" stop-color="#d9344d"/><stop offset="1" stop-color="#ca2e43"/></linearGradient><linearGradient id="lg1"><stop offset="0" stop-color="#6d3326" stop-opacity="0"/><stop offset=".2414" stop-color="#6a3124" stop-opacity=".063"/><stop offset=".4916" stop-color="#622e1f" stop-opacity=".252"/><stop offset=".7457" stop-color="#542816" stop-opacity=".565"/><stop offset="1" stop-color="#42210b"/></linearGradient><linearGradient id="SVGID_00000014627710441248566040000018269071212036901791_" gradientTransform="matrix(1 0 0 -1 0 514)" gradientUnits="userSpaceOnUse" x1="197.39" x2="197.39" xlink:href="#lg1" y1="359.412" y2="297.38"/><linearGradient id="SVGID_00000061462419050574581910000010054671305679550118_" gradientTransform="matrix(1 0 0 -1 0 514)" gradientUnits="userSpaceOnUse" x1="134.179" x2="191.391" xlink:href="#lg1" y1="176.669" y2="164.873"/><linearGradient id="SVGID_00000088123924031617183890000007040512765960599450_" gradientTransform="matrix(1 0 0 -1 0 514)" gradientUnits="userSpaceOnUse" x1="148.87" x2="148.87" xlink:href="#lg1" y1="273.298" y2="319.44"/><linearGradient id="SVGID_00000111168125547904265190000002140467285206781836_" gradientTransform="matrix(1 0 0 -1 0 514)" gradientUnits="userSpaceOnUse" x1="191.857" x2="254.377" xlink:href="#lg1" y1="442.718" y2="429.152"/><linearGradient id="SVGID_00000151531116013440875810000007056355621243906997_" gradientTransform="matrix(1 0 0 -1 0 514)" gradientUnits="userSpaceOnUse" x1="189.511" x2="189.511" xlink:href="#lg1" y1="435.498" y2="397.732"/><linearGradient id="SVGID_00000129199413564666696240000001944737973151182495_" gradientTransform="matrix(1 0 0 -1 0 514)" gradientUnits="userSpaceOnUse" x1="314.61" x2="314.61" xlink:href="#lg1" y1="142.949" y2="91.015"/><linearGradient id="SVGID_00000070798469786386756930000015497830135848646810_" gradientTransform="matrix(1 0 0 -1 0 514)" gradientUnits="userSpaceOnUse" x1="224.272" x2="161.162" xlink:href="#lg1" y1="155.178" y2="168.154"/><linearGradient id="SVGID_00000036249396480418579510000006832962941238837151_" gradientTransform="matrix(1 0 0 -1 0 514)" gradientUnits="userSpaceOnUse" x1="33.774" x2="80.37" xlink:href="#lg1" y1="157.498" y2="145.702"/><linearGradient id="SVGID_00000155869166956292397120000002308163043913220759_" gradientTransform="matrix(1 0 0 -1 0 514)" gradientUnits="userSpaceOnUse" x1="108.239" x2="108.239" xlink:href="#lg1" y1="62.144" y2="30.684"/><linearGradient id="SVGID_00000182508774686810923400000004306713291082187678_" gradientTransform="matrix(1 0 0 -1 0 514)" gradientUnits="userSpaceOnUse" x1="429.213" x2="462.243" xlink:href="#lg1" y1="149.992" y2="141.734"/><linearGradient id="SVGID_00000120533156730330742170000001782881289314477453_" gradientTransform="matrix(1 0 0 -1 0 514)" gradientUnits="userSpaceOnUse" x1="322.317" x2="322.317" xlink:href="#lg1" y1="62.733" y2="32.04"/><linearGradient id="SVGID_00000104686337613319617850000014658534416858322609_" gradientTransform="matrix(1 0 0 -1 0 514)" gradientUnits="userSpaceOnUse" x1="322.426" x2="378.459" xlink:href="#lg1" y1="73.201" y2="57.276"/><linearGradient id="SVGID_00000033343089934599144470000011155277318550723256_" gradientTransform="matrix(1 0 0 -1 0 514)" gradientUnits="userSpaceOnUse" x1="322.317" x2="322.317" xlink:href="#lg1" y1="66.862" y2="106.398"/><linearGradient id="SVGID_00000096752079533940029280000002517047189358355380_" gradientTransform="matrix(1 0 0 -1 0 514)" gradientUnits="userSpaceOnUse" x1="391.557" x2="442.871" xlink:href="#lg1" y1="335.867" y2="323.481"/><linearGradient id="SVGID_00000096771178340853265340000006923086266403045549_" gradientTransform="matrix(1 0 0 -1 0 514)" gradientUnits="userSpaceOnUse" x1="363.13" x2="363.13" xlink:href="#lg1" y1="237.909" y2="182.438"/><linearGradient id="SVGID_00000063599303668932084910000013409432643353315714_" gradientTransform="matrix(1 0 0 -1 0 514)" gradientUnits="userSpaceOnUse" x1="469.419" x2="469.419" xlink:href="#lg1" y1="345.846" y2="306.218"/><linearGradient id="SVGID_00000132789279722695598280000011157862581528647328_" gradientTransform="matrix(1 0 0 -1 0 514)" gradientUnits="userSpaceOnUse" x1="469.282" x2="508.8" xlink:href="#lg1" y1="360.504" y2="348.708"/><linearGradient id="SVGID_00000084521229233985881450000006578695101367274141_" gradientTransform="matrix(1 0 0 -1 0 514)" gradientUnits="userSpaceOnUse" x1="484.951" x2="432.458" xlink:href="#lg1" y1="358.405" y2="367.842"/><linearGradient id="SVGID_00000119078882307988095360000014206667100547568542_" gradientTransform="matrix(1 0 0 -1 0 514)" gradientUnits="userSpaceOnUse" x1="291.904" x2="346.758" xlink:href="#lg1" y1="360.626" y2="352.369"/><g><path d="m495.9 101.5h-46.2l10.3-45c2.3-10.1-5.4-19.7-15.7-19.7h-69.4c-7.5 0-14.1 5.2-15.7 12.5l-11.9 52.2h-111.7l10.3-45.1c2.3-10.1-5.4-19.7-15.7-19.7h-69.4c-7.5 0-14.1 5.2-15.7 12.5l-12 52.3h-53.7c-7.5 0-14.1 5.2-15.7 12.5l-15.7 67.9c-2.3 10.1 5.4 19.7 15.7 19.7h46.3l-24.8 108.9h-53.6c-7.5 0-14.1 5.2-15.7 12.5l-15.5 67.8c-2.3 10.1 5.4 19.7 15.7 19.7h46.2l-10.3 45c-2.3 10.1 5.4 19.7 15.7 19.7h69.4c7.5 0 14.1-5.2 15.7-12.5l11.9-52.2h111.7l-10.3 45.1c-2.3 10.1 5.4 19.7 15.7 19.7h69.4c7.5 0 14.1-5.2 15.7-12.5l12-52.3h53.7c7.5 0 14.1-5.2 15.7-12.5l15.4-67.7c2.3-10.1-5.4-19.7-15.7-19.7h-46.3l24.9-108.9h53.6c7.5 0 14.1-5.2 15.7-12.5l15.4-67.7c2.6-10.4-5.1-20-15.4-20zm-196.5 208.9h-111.7l24.9-108.9h111.7z" fill="url(#SVGID_1_)"/><path d="m235.4 101.6h-102.5v.1h-53.7c-7.5 0-14.1 5.2-15.7 12.5l-15.5 67.7c-2.3 10.1 5.4 19.7 15.7 19.7h46.3 102.5 111.7l22.8-100z" fill="url(#SVGID_00000014627710441248566040000018269071212036901791_)"/><path d="m110 201.6-24.8 108.9-22.8 100-10.3 45c-2.3 10.1 5.4 19.7 15.7 19.7h69.4c7.5 0 14.1-5.2 15.7-12.5l11.9-52.2 22.8-100 24.9-108.9z" fill="url(#SVGID_00000061462419050574581910000010054671305679550118_)"/><path d="m212.6 201.6h-102.6l-24.8 108.9h102.5z" fill="url(#SVGID_00000088123924031617183890000007040512765960599450_)"/><path d="m245.7 56.5c2.3-10.1-5.4-19.7-15.7-19.7h-69.4c-7.5 0-14.1 5.2-15.7 12.5l-12 52.3h102.5z" fill="url(#SVGID_00000111168125547904265190000002140467285206781836_)"/><path d="m245.7 56.5c2.3-10.1-5.4-19.7-15.7-19.7h-69.4c-7.5 0-14.1 5.2-15.7 12.5l-12 52.3h102.5z" fill="url(#SVGID_00000151531116013440875810000007056355621243906997_)"/><path d="m276.6 410.4h102.5v-.1h53.7c7.5 0 14.1-5.2 15.7-12.5l15.4-67.7c2.2-9.7-4.8-18.9-14.5-19.7h-261.8l-22.8 100z" fill="url(#SVGID_00000129199413564666696240000001944737973151182495_)"/><path d="m187.7 310.5-22.8 99.9h111.7l22.8-100z" fill="url(#SVGID_00000070798469786386756930000015497830135848646810_)"/><path d="m31.6 310.6c-7.5 0-14.1 5.2-15.7 12.5l-15.5 67.7c-2.3 10.1 5.4 19.7 15.7 19.7h46.2l22.8-100z" fill="url(#SVGID_00000036249396480418579510000006832962941238837151_)"/><path d="m62.3 410.4-10.3 45.1c-2.3 10.1 5.4 19.7 15.7 19.7h69.4c7.5 0 14.1-5.2 15.7-12.5l11.9-52.2z" fill="url(#SVGID_00000155869166956292397120000002308163043913220759_)"/><path d="m448.5 397.8 15.4-67.7c2.2-9.7-4.8-18.9-14.5-19.7h-47.5l-22.8 99.9h53.7c7.5 0 14-5.2 15.7-12.5z" fill="url(#SVGID_00000182508774686810923400000004306713291082187678_)"/><path d="m265.5 410.4h11.1l-10.3 45.1c-2.3 10.1 5.4 19.7 15.7 19.7h69.4c7.5 0 14.1-5.2 15.7-12.5l12-52.3z" fill="url(#SVGID_00000120533156730330742170000001782881289314477453_)"/><path d="m265.5 410.4h11.1l-10.3 45.1c-2.3 10.1 5.4 19.7 15.7 19.7h69.4c7.5 0 14.1-5.2 15.7-12.5l12-52.3z" fill="url(#SVGID_00000104686337613319617850000014658534416858322609_)"/><path d="m265.5 410.4h11.1l-10.3 45.1c-2.3 10.1 5.4 19.7 15.7 19.7h69.4c7.5 0 14.1-5.2 15.7-12.5l12-52.3z" fill="url(#SVGID_00000033343089934599144470000011155277318550723256_)"/><path d="m449.7 101.5 10.3-45c2.3-10.1-5.4-19.7-15.7-19.7h-69.4c-7.5 0-14.1 5.2-15.7 12.5l-11.9 52.2-22.8 100-24.9 108.9h102.5l.1-.1h-.2l24.9-108.9z" fill="url(#SVGID_00000096752079533940029280000002517047189358355380_)"/><path d="m299.4 310.4 102.5.1 24.9-109h-102.5z" fill="url(#SVGID_00000096771178340853265340000006923086266403045549_)"/><path d="m495.9 101.5h-46.2l-22.8 100h53.6c7.5 0 14.1-5.2 15.7-12.5l15.4-67.7c2.3-10.2-5.4-19.8-15.7-19.8z" fill="url(#SVGID_00000063599303668932084910000013409432643353315714_)"/><path d="m495.9 101.5h-46.2l-22.8 100h53.6c7.5 0 14.1-5.2 15.7-12.5l15.4-67.7c2.3-10.2-5.4-19.8-15.7-19.8z" fill="url(#SVGID_00000132789279722695598280000011157862581528647328_)"/><path d="m495.9 101.5h-46.2l-22.8 100h53.6c7.5 0 14.1-5.2 15.7-12.5l15.4-67.7c2.3-10.2-5.4-19.8-15.7-19.8z" fill="url(#SVGID_00000084521229233985881450000006578695101367274141_)"/><path d="m324.3 201.5 22.8-99.9h-111.7l-22.8 100z" fill="url(#SVGID_00000119078882307988095360000014206667100547568542_)"/></g></svg>