<svg id="Capa_1" enable-background="new 0 0 510 510" height="512" viewBox="0 0 510 510" width="512" xmlns="http://www.w3.org/2000/svg" xmlns:xlink="http://www.w3.org/1999/xlink"><linearGradient id="lg1"><stop offset="0" stop-color="#f9f5f3"/><stop offset="1" stop-color="#efe2dd"/></linearGradient><linearGradient id="SVGID_1_" gradientUnits="userSpaceOnUse" x1="236.36" x2="242.359" xlink:href="#lg1" y1="68.595" y2="128.592"/><linearGradient id="lg2"><stop offset="0" stop-color="#9e9797" stop-opacity="0"/><stop offset=".3562" stop-color="#9b9494" stop-opacity=".356"/><stop offset=".6285" stop-color="#928b8b" stop-opacity=".629"/><stop offset=".872" stop-color="#827a7a" stop-opacity=".872"/><stop offset="1" stop-color="#766e6e"/></linearGradient><linearGradient id="SVGID_00000011746854809469871080000004052697146725550769_" gradientTransform="matrix(1 0 0 -1 0 -8101.494)" gradientUnits="userSpaceOnUse" x1="457" x2="513" xlink:href="#lg2" y1="-8356.494" y2="-8356.494"/><linearGradient id="lg3"><stop offset="0" stop-color="#c9f6b0"/><stop offset="1" stop-color="#0bb494"/></linearGradient><linearGradient id="SVGID_00000121988530234665761980000012574868603725815948_" gradientUnits="userSpaceOnUse" x1="157.113" x2="450.203" xlink:href="#lg3" y1="178.973" y2="472.063"/><linearGradient id="lg4"><stop offset="0" stop-color="#016a74" stop-opacity="0"/><stop offset="1" stop-color="#016a74"/></linearGradient><linearGradient id="SVGID_00000163075227078796836450000016489182472140117132_" gradientTransform="matrix(1 0 0 -1 0 -8101.494)" gradientUnits="userSpaceOnUse" x1="453" x2="505" xlink:href="#lg4" y1="-8387.141" y2="-8387.141"/><linearGradient id="SVGID_00000139994909577507750750000007588362861908027298_" gradientUnits="userSpaceOnUse" x1="255" x2="255" xlink:href="#lg4" y1="418.731" y2="449.639"/><linearGradient id="SVGID_00000057829923769789718330000009690263986570761125_" gradientUnits="userSpaceOnUse" x1="346.82" x2="284.32" xlink:href="#lg4" y1="377.5" y2="270"/><linearGradient id="SVGID_00000089557602708957800670000007165345157776940203_" gradientUnits="userSpaceOnUse" x1="465.716" x2="359.378" xlink:href="#lg4" y1="365.015" y2="291.775"/><linearGradient id="SVGID_00000116208540351686414920000004144963743656497297_" gradientUnits="userSpaceOnUse" x1="53.79" x2="66.79" y1="83.778" y2="109.778"><stop offset="0" stop-color="#d9b1ee"/><stop offset=".1228" stop-color="#dba3e3"/><stop offset=".3507" stop-color="#e381c8"/><stop offset=".6587" stop-color="#ef499b"/><stop offset="1" stop-color="#fe0364"/></linearGradient><linearGradient id="SVGID_00000073684999297370583080000013139463321630076809_" gradientUnits="userSpaceOnUse" x1="105.79" x2="118.79" y1="83.778" y2="109.778"><stop offset="0" stop-color="#fef48b"/><stop offset="1" stop-color="#ffbf51"/></linearGradient><linearGradient id="SVGID_00000154403123993156317110000001754184068416862132_" gradientUnits="userSpaceOnUse" x1="157.79" x2="170.79" xlink:href="#lg3" y1="83.778" y2="109.778"/><linearGradient id="SVGID_00000089540309271169039250000007630455151956070818_" gradientUnits="userSpaceOnUse" x1="-97.232" x2="300.769" xlink:href="#lg4" y1="171.019" y2="389.019"/><linearGradient id="SVGID_00000091734477110397083680000004159175254378055815_" gradientUnits="userSpaceOnUse" x1="-117.445" x2="280.555" xlink:href="#lg4" y1="207.922" y2="425.922"/><linearGradient id="SVGID_00000132796940203823209910000013009657073612851135_" gradientUnits="userSpaceOnUse" x1="-152.389" x2="245.611" xlink:href="#lg4" y1="271.719" y2="489.719"/><linearGradient id="SVGID_00000161599977592517273560000004896788615686525373_" gradientUnits="userSpaceOnUse" x1="-104.86" x2="293.14" xlink:href="#lg4" y1="184.947" y2="402.947"/><linearGradient id="SVGID_00000031917776418103225380000012479207125652654000_" gradientUnits="userSpaceOnUse" x1="-51.336" x2="346.664" xlink:href="#lg4" y1="87.229" y2="305.229"/><linearGradient id="SVGID_00000172419416103276397940000002843790039073608325_" gradientUnits="userSpaceOnUse" x1="-63.921" x2="334.079" xlink:href="#lg4" y1="110.204" y2="328.204"/><linearGradient id="SVGID_00000034054415730457272380000008237941941639997834_" gradientUnits="userSpaceOnUse" x1="314.574" x2="412.908" xlink:href="#lg1" y1="239.848" y2="336.378"/><linearGradient id="SVGID_00000163065127878654368250000002863252543511207351_" gradientUnits="userSpaceOnUse" x1="350.671" x2="319.69" xlink:href="#lg2" y1="212.279" y2="163.425"/><linearGradient id="SVGID_00000078015619190492307990000007873708063407400618_" gradientUnits="userSpaceOnUse" x1="302.192" x2="318.45" xlink:href="#lg1" y1="190.63" y2="206.888"/><linearGradient id="SVGID_00000128467935464469625640000015328228285534381493_" gradientUnits="userSpaceOnUse" x1="360.06" x2="360.06" xlink:href="#lg2" y1="372" y2="409.054"/><linearGradient id="SVGID_00000096756544881412655770000003778719648479536296_" gradientUnits="userSpaceOnUse" x1="407.573" x2="444.073" xlink:href="#lg2" y1="284.5" y2="284.5"/><linearGradient id="SVGID_00000047037803490555590460000007365741959148945075_" gradientUnits="userSpaceOnUse" x1="398.054" x2="339.554" xlink:href="#lg2" y1="393.621" y2="314.121"/><linearGradient id="SVGID_00000047769471391194367010000008719502811776698509_" gradientUnits="userSpaceOnUse" x1="191.369" x2="396.369" xlink:href="#lg2" y1="87.535" y2="314.535"/><linearGradient id="SVGID_00000005955672693688380070000006907882644429748908_" gradientUnits="userSpaceOnUse" x1="217.038" x2="422.038" xlink:href="#lg2" y1="64.353" y2="291.353"/><linearGradient id="SVGID_00000016047922517646224760000016574069706065561514_" gradientUnits="userSpaceOnUse" x1="228.102" x2="433.102" xlink:href="#lg2" y1="54.362" y2="281.362"/><linearGradient id="SVGID_00000093177325577173190440000002030139808630270862_" gradientUnits="userSpaceOnUse" x1="241.177" x2="333.746" y1="266.406" y2="358.975"><stop offset="0" stop-color="#a6e7f0"/><stop offset=".1713" stop-color="#90e2ed"/><stop offset=".5295" stop-color="#56d7e7"/><stop offset="1" stop-color="#02c7dd"/></linearGradient><linearGradient id="lg5"><stop offset="0" stop-color="#0199b1" stop-opacity="0"/><stop offset="1" stop-color="#0199b1"/></linearGradient><linearGradient id="SVGID_00000119097169415726264660000003493078840806091447_" gradientTransform="matrix(0 -1 1 0 3205.412 -3603.411)" gradientUnits="userSpaceOnUse" x1="-3923.313" x2="-3923.313" xlink:href="#lg5" y1="-2828.056" y2="-2788.828"/><linearGradient id="SVGID_00000047036412734024867960000011588819235190163330_" gradientUnits="userSpaceOnUse" x1="294.672" x2="294.672" xlink:href="#lg5" y1="354.336" y2="380.701"/><g><g><path d="m480 66.5h-450c-16.569 0-30 13.431-30 30v317c0 16.569 13.431 30 30 30h450c16.569 0 30-13.431 30-30v-317c0-16.569-13.431-30-30-30z" fill="url(#SVGID_1_)"/><path d="m480 443.5h-183v-377h183c16.569 0 30 13.431 30 30v317c0 16.569-13.431 30-30 30z" fill="url(#SVGID_00000011746854809469871080000004052697146725550769_)"/><path d="m480 443.5h-450c-16.569 0-30-13.431-30-30v-285.706h510v285.706c0 16.569-13.431 30-30 30z" fill="url(#SVGID_00000121988530234665761980000012574868603725815948_)"/><path d="m480 443.5h-183v-315.706h213v285.706c0 16.569-13.431 30-30 30z" fill="url(#SVGID_00000163075227078796836450000016489182472140117132_)"/><path d="m0 397.5v16c0 16.569 13.431 30 30 30h450c16.569 0 30-13.431 30-30v-16z" fill="url(#SVGID_00000139994909577507750750000007588362861908027298_)"/></g><path d="m175.5 370.5 73 73h231.5c16.569 0 30-13.431 30-30v-43z" fill="url(#SVGID_00000057829923769789718330000009690263986570761125_)"/><path d="m436 175-149 222 46.5 46.5h146.5c16.569 0 30-13.431 30-30v-164.5z" fill="url(#SVGID_00000089557602708957800670000007165345157776940203_)"/><g><path d="m70.794 89.507h-18.666c-5.311 0-9.615 4.305-9.615 9.615s4.305 9.615 9.615 9.615h18.666c5.31 0 9.615-4.305 9.615-9.615 0-5.311-4.305-9.615-9.615-9.615z" fill="url(#SVGID_00000116208540351686414920000004144963743656497297_)"/><path d="m122.794 89.507h-18.666c-5.311 0-9.615 4.305-9.615 9.615s4.305 9.615 9.615 9.615h18.666c5.31 0 9.615-4.305 9.615-9.615 0-5.311-4.305-9.615-9.615-9.615z" fill="url(#SVGID_00000073684999297370583080000013139463321630076809_)"/><path d="m174.794 89.507h-18.666c-5.311 0-9.615 4.305-9.615 9.615s4.305 9.615 9.615 9.615h18.666c5.31 0 9.615-4.305 9.615-9.615 0-5.311-4.305-9.615-9.615-9.615z" fill="url(#SVGID_00000154403123993156317110000001754184068416862132_)"/></g><g><path d="m52.128 284.318h79.871c5.31 0 9.615-4.304 9.615-9.615 0-5.31-4.305-9.615-9.615-9.615h-79.871c-5.311 0-9.615 4.305-9.615 9.615 0 5.311 4.305 9.615 9.615 9.615z" fill="url(#SVGID_00000089540309271169039250000007630455151956070818_)"/><path d="m83.796 299.861h-31.668c-5.311 0-9.615 4.305-9.615 9.615 0 5.311 4.305 9.615 9.615 9.615h31.667c5.31 0 9.615-4.305 9.615-9.615.001-5.31-4.304-9.615-9.614-9.615z" fill="url(#SVGID_00000091734477110397083680000004159175254378055815_)"/><path d="m83.796 382.799h-31.668c-5.311 0-9.615 4.305-9.615 9.615 0 5.311 4.305 9.615 9.615 9.615h31.667c5.31 0 9.615-4.305 9.615-9.615.001-5.31-4.304-9.615-9.614-9.615z" fill="url(#SVGID_00000132796940203823209910000013009657073612851135_)"/><path d="m131.825 299.861h-18.666c-5.31 0-9.615 4.304-9.615 9.615 0 5.31 4.305 9.615 9.615 9.615h18.666c5.311 0 9.615-4.305 9.615-9.615s-4.305-9.615-9.615-9.615z" fill="url(#SVGID_00000161599977592517273560000004896788615686525373_)"/><path d="m100.157 188.496h31.667c5.311 0 9.615-4.305 9.615-9.615s-4.305-9.615-9.615-9.615h-31.667c-5.31 0-9.615 4.305-9.615 9.615s4.305 9.615 9.615 9.615z" fill="url(#SVGID_00000031917776418103225380000012479207125652654000_)"/><path d="m52.128 188.495h18.666c5.31 0 9.615-4.305 9.615-9.615 0-5.311-4.305-9.615-9.615-9.615h-18.666c-5.311 0-9.615 4.304-9.615 9.615 0 5.31 4.305 9.615 9.615 9.615z" fill="url(#SVGID_00000172419416103276397940000002843790039073608325_)"/></g><g><g><path d="m439.563 184.76v199.48c0 8.71-7.06 15.76-15.76 15.76h-127.49c-8.7 0-15.75-7.05-15.75-15.76v-161.433c0-5.101 2.026-9.993 5.633-13.601l34.563-34.57c3.608-3.608 8.501-5.636 13.604-5.636h89.441c8.699 0 15.759 7.05 15.759 15.76z" fill="url(#SVGID_00000034054415730457272380000008237941941639997834_)"/><path d="m423.803 169h-89.441c-5.103 0-9.996 2.027-13.604 5.636l-34.563 34.57c-3.607 3.607-5.633 8.5-5.633 13.601v51.193h159v-89.24c.001-8.71-7.059-15.76-15.759-15.76z" fill="url(#SVGID_00000163065127878654368250000002863252543511207351_)"/><path d="m326.395 209.257v-38.507c-2.071.943-3.985 2.237-5.626 3.876l-4.569 4.569-30.004 30.011c-1.641 1.641-2.936 3.557-3.88 5.629h38.501c3.08 0 5.578-2.497 5.578-5.578z" fill="url(#SVGID_00000078015619190492307990000007873708063407400618_)"/><path d="m280.56 313v71.243c0 8.702 7.054 15.757 15.757 15.757h127.487c8.702 0 15.757-7.054 15.757-15.757v-71.243z" fill="url(#SVGID_00000128467935464469625640000015328228285534381493_)"/><path d="m423.803 169h-66.73v231h66.73c8.702 0 15.757-7.054 15.757-15.757v-199.486c0-8.703-7.055-15.757-15.757-15.757z" fill="url(#SVGID_00000096756544881412655770000003778719648479536296_)"/></g></g><path d="m296.313 400h127.49c8.7 0 15.76-7.05 15.76-15.76v-89.677l-24.063-24.063h-134.937v113.74c0 8.71 7.05 15.76 15.75 15.76z" fill="url(#SVGID_00000047037803490555590460000007365741959148945075_)"/><g><path d="m304.654 231.914 24.921-16.189c.491-.392 1.177-.49 1.864-.49 2.943 0 6.672 3.14 6.672 7.162 0 1.668-.687 3.14-1.766 3.826l-17.268 11.185 17.268 11.185c1.079.687 1.766 2.158 1.766 3.826 0 4.023-3.728 7.162-6.672 7.162-.687 0-1.374-.098-1.864-.491l-24.921-16.188c-2.257-1.472-3.042-3.826-3.042-5.495 0-1.666.785-4.021 3.042-5.493z" fill="url(#SVGID_00000047769471391194367010000008719502811776698509_)"/><path d="m388.148 194.043c0 .589-.098 1.275-.393 1.865l-34.536 70.739c-.687 1.472-2.551 2.453-4.415 2.453-3.336 0-5.494-2.747-5.494-5.2 0-.589.196-1.275.491-1.864l34.438-70.739c.785-1.668 2.355-2.453 4.121-2.453 2.746-.001 5.788 2.059 5.788 5.199z" fill="url(#SVGID_00000005955672693688380070000006907882644429748908_)"/><path d="m415.472 242.903-24.921 16.188c-.491.393-1.177.491-1.864.491-2.943 0-6.672-3.14-6.672-7.162 0-1.668.687-3.14 1.766-3.826l17.268-11.185-17.268-11.185c-1.079-.687-1.766-2.158-1.766-3.826 0-4.023 3.728-7.162 6.672-7.162.687 0 1.374.098 1.864.49l24.921 16.189c2.257 1.472 3.042 3.826 3.042 5.494-.001 1.667-.786 4.022-3.042 5.494z" fill="url(#SVGID_00000016047922517646224760000016574069706065561514_)"/></g><g><g><g><path d="m405.345 374.714h-221.345c-7.273 0-13.169-5.896-13.169-13.169v-83.289c0-7.273 5.896-13.169 13.169-13.169h221.345c7.273 0 13.169 5.896 13.169 13.169v83.289c-.001 7.273-5.897 13.169-13.169 13.169z" fill="url(#SVGID_00000093177325577173190440000002030139808630270862_)"/><g><path d="m307.808 374.714h97.537c7.273 0 13.169-5.896 13.169-13.169v-83.289c0-7.273-5.896-13.169-13.169-13.169h-97.537z" fill="url(#SVGID_00000119097169415726264660000003493078840806091447_)"/></g></g><path d="m170.831 319.901v41.644c0 7.273 5.896 13.169 13.169 13.169h221.345c7.273 0 13.169-5.896 13.169-13.169v-41.644z" fill="url(#SVGID_00000047036412734024867960000011588819235190163330_)"/></g></g><g fill="#fff"><path d="m217.357 324.417h-19.328v26.322c0 3.108-3.788 4.662-7.576 4.662s-7.576-1.554-7.576-4.662v-61.773c0-3.205 3.788-4.565 7.576-4.565s7.576 1.36 7.576 4.565v23.796h19.328v-23.796c0-3.205 3.788-4.565 7.576-4.565s7.576 1.36 7.576 4.565v61.773c0 3.108-3.788 4.662-7.576 4.662s-7.576-1.554-7.576-4.662z"/><path d="m285.056 284.401c3.205 0 4.565 3.497 4.565 6.702 0 3.691-1.651 6.896-4.565 6.896h-13.404v52.74c0 3.108-3.788 4.662-7.576 4.662s-7.576-1.554-7.576-4.662v-52.74h-13.403c-2.914 0-4.565-3.205-4.565-6.896 0-3.205 1.36-6.702 4.565-6.702z"/><path d="m329.833 330.245c-1.263 2.137-3.205 2.817-5.051 2.817-1.748 0-3.594-.583-4.759-2.817l-9.227-16.9v37.394c0 3.108-3.788 4.662-7.576 4.662s-7.576-1.554-7.576-4.662v-58.762c0-5.536 3.788-7.576 7.576-7.576 5.439 0 7.77.583 11.752 7.576l10.004 17.483 10.004-17.483c3.982-6.993 6.313-7.576 11.752-7.576 3.885 0 7.576 2.04 7.576 7.576v58.762c0 3.108-3.788 4.662-7.576 4.662s-7.576-1.554-7.576-4.662v-36.423z"/><path d="m371.405 355.401c-3.303 0-6.605-1.554-6.605-4.662v-61.773c0-3.205 3.788-4.565 7.576-4.565s7.576 1.36 7.576 4.565v53.225h22.145c2.914 0 4.371 3.303 4.371 6.605s-1.457 6.605-4.371 6.605z"/></g></g></svg>