<svg id="Capa_1" enable-background="new 0 0 510 510" height="512" viewBox="0 0 510 510" width="512" xmlns="http://www.w3.org/2000/svg" xmlns:xlink="http://www.w3.org/1999/xlink"><linearGradient id="lg1"><stop offset="0" stop-color="#d9b1ee"/><stop offset=".1228" stop-color="#dba3e3"/><stop offset=".3507" stop-color="#e381c8"/><stop offset=".6587" stop-color="#ef499b"/><stop offset="1" stop-color="#fe0364"/></linearGradient><linearGradient id="SVGID_1_" gradientUnits="userSpaceOnUse" x1="-112.845" x2="628.507" xlink:href="#lg1" y1="-112.845" y2="628.507"/><linearGradient id="SVGID_00000129204375698621022250000016240535567015764120_" gradientUnits="userSpaceOnUse" x1="-311.816" x2="429.536" xlink:href="#lg1" y1="86.127" y2="827.478"/><linearGradient id="SVGID_00000048466152387918385210000012571552342009119127_" gradientUnits="userSpaceOnUse" x1="86.127" x2="827.478" xlink:href="#lg1" y1="-311.816" y2="429.536"/><linearGradient id="lg2"><stop offset="0" stop-color="#a6e7f0"/><stop offset=".1713" stop-color="#90e2ed"/><stop offset=".5295" stop-color="#56d7e7"/><stop offset="1" stop-color="#02c7dd"/></linearGradient><linearGradient id="SVGID_00000113322608137526969300000005651462624309618604_" gradientUnits="userSpaceOnUse" x1="33.688" x2="341.73" xlink:href="#lg2" y1="120.477" y2="428.519"/><linearGradient id="SVGID_00000106110578734850215860000010469188282133292476_" gradientUnits="userSpaceOnUse" x1="-31.404" x2="276.638" xlink:href="#lg2" y1="185.569" y2="493.61"/><linearGradient id="SVGID_00000020366337597893324490000012715145147080633018_" gradientUnits="userSpaceOnUse" x1="1.142" x2="309.184" xlink:href="#lg2" y1="153.023" y2="461.065"/><linearGradient id="SVGID_00000170961061229048016170000006128854188066930847_" gradientUnits="userSpaceOnUse" x1="77.001" x2="385.043" xlink:href="#lg2" y1="77.164" y2="385.206"/><linearGradient id="SVGID_00000051351635587431343270000005948379055993893542_" gradientUnits="userSpaceOnUse" x1="185.406" x2="493.448" xlink:href="#lg2" y1="-31.241" y2="276.801"/><linearGradient id="SVGID_00000169549932963047616030000011313865319525639562_" gradientUnits="userSpaceOnUse" x1="217.952" x2="525.994" xlink:href="#lg2" y1="-63.787" y2="244.255"/><linearGradient id="SVGID_00000147200291801802694010000009866844056121229447_" gradientUnits="userSpaceOnUse" x1="120.314" x2="428.356" xlink:href="#lg2" y1="33.851" y2="341.892"/><linearGradient id="SVGID_00000105423748385639961630000004803215628359568038_" gradientUnits="userSpaceOnUse" x1="152.86" x2="460.902" xlink:href="#lg2" y1="1.305" y2="309.347"/><linearGradient id="SVGID_00000054967421499837004950000013863909603528633754_" gradientUnits="userSpaceOnUse" x1="-63.95" x2="244.092" xlink:href="#lg2" y1="218.115" y2="526.156"/><linearGradient id="SVGID_00000078023905809090128380000011641940847454019744_" gradientUnits="userSpaceOnUse" x1="88.421" x2="114.418" xlink:href="#lg2" y1="88.421" y2="114.418"/><linearGradient id="lg3"><stop offset="0" stop-color="#0199b1" stop-opacity="0"/><stop offset="1" stop-color="#0199b1"/></linearGradient><linearGradient id="SVGID_00000018921491396276906670000006051005375556215989_" gradientUnits="userSpaceOnUse" x1="103.445" x2="103.445" xlink:href="#lg3" y1="119.665" y2="128.815"/><linearGradient id="SVGID_00000039843103935222371690000005252099888316370077_" gradientTransform="matrix(0 -1 1 0 1077.412 -411.412)" gradientUnits="userSpaceOnUse" x1="-514.856" x2="-514.856" xlink:href="#lg3" y1="-957.746" y2="-948.597"/><linearGradient id="SVGID_00000005971496319725671500000000263911348778191769_" gradientUnits="userSpaceOnUse" x1="391.532" x2="417.529" xlink:href="#lg2" y1="391.532" y2="417.529"/><linearGradient id="SVGID_00000017481556295725410410000007832816826652477630_" gradientUnits="userSpaceOnUse" x1="406.555" x2="406.555" xlink:href="#lg3" y1="422.776" y2="431.925"/><linearGradient id="SVGID_00000131365464479974716870000009094266724273942956_" gradientTransform="matrix(0 -1 1 0 1077.412 -411.412)" gradientUnits="userSpaceOnUse" x1="-817.967" x2="-817.967" xlink:href="#lg3" y1="-654.636" y2="-645.487"/><linearGradient id="SVGID_00000083773345314044655510000017875543709024125320_" gradientUnits="userSpaceOnUse" x1="391.532" x2="417.529" xlink:href="#lg2" y1="88.421" y2="114.418"/><linearGradient id="SVGID_00000085219215433722988410000000933372919238782129_" gradientUnits="userSpaceOnUse" x1="406.555" x2="406.555" xlink:href="#lg3" y1="119.665" y2="128.815"/><linearGradient id="SVGID_00000047022551948032261010000002680058907700231856_" gradientTransform="matrix(0 -1 1 0 1426.662 -411.412)" gradientUnits="userSpaceOnUse" x1="-514.856" x2="-514.856" xlink:href="#lg3" y1="-1003.886" y2="-994.737"/><linearGradient id="SVGID_00000044150021602693003860000011419447809361606047_" gradientUnits="userSpaceOnUse" x1="88.421" x2="114.418" xlink:href="#lg2" y1="391.532" y2="417.529"/><linearGradient id="SVGID_00000031197401090153838890000007708773102467903885_" gradientUnits="userSpaceOnUse" x1="103.445" x2="103.445" xlink:href="#lg3" y1="422.776" y2="431.925"/><linearGradient id="SVGID_00000158004330600018968210000008888267223268637615_" gradientTransform="matrix(0 -1 1 0 728.162 -411.412)" gradientUnits="userSpaceOnUse" x1="-817.967" x2="-817.967" xlink:href="#lg3" y1="-608.496" y2="-599.347"/><linearGradient id="SVGID_00000137124483152966276090000009496411813874430601_" gradientUnits="userSpaceOnUse" x1="200.16" x2="295.056" y1="200.16" y2="295.056"><stop offset="0" stop-color="#f9f5f3"/><stop offset="1" stop-color="#efe2dd"/></linearGradient><linearGradient id="lg4"><stop offset="0" stop-color="#9e9797" stop-opacity="0"/><stop offset=".3562" stop-color="#9b9494" stop-opacity=".356"/><stop offset=".6285" stop-color="#928b8b" stop-opacity=".629"/><stop offset=".872" stop-color="#827a7a" stop-opacity=".872"/><stop offset="1" stop-color="#766e6e"/></linearGradient><linearGradient id="SVGID_00000153705914853467254890000001146523033935106232_" gradientUnits="userSpaceOnUse" x1="255" x2="255" xlink:href="#lg4" y1="314.21" y2="347.607"/><linearGradient id="SVGID_00000056418640921765734630000002417358769493623971_" gradientTransform="matrix(0 -1 1 0 1077.412 -411.412)" gradientUnits="userSpaceOnUse" x1="-666.412" x2="-666.412" xlink:href="#lg4" y1="-763.202" y2="-729.804"/><g><g><path d="m499.768 414.862c-5.651 0-10.232 4.581-10.232 10.232v49.971l-74.126-74.125c-1.998-1.998-4.616-2.997-7.235-2.997s-5.237.999-7.235 2.997c-3.996 3.996-3.996 10.475 0 14.47l74.126 74.126h-49.971c-5.651 0-10.232 4.581-10.232 10.232s4.581 10.232 10.232 10.232h74.674c5.651 0 10.232-4.581 10.232-10.232v-74.674c-.001-5.651-4.582-10.232-10.233-10.232z" fill="url(#SVGID_1_)"/><path d="m34.934 20.464h49.971c5.651 0 10.232-4.581 10.232-10.232.001-5.651-4.58-10.232-10.231-10.232h-74.674c-5.651 0-10.232 4.581-10.232 10.232v74.674c0 5.651 4.581 10.232 10.232 10.232s10.232-4.581 10.232-10.232v-49.972l74.126 74.126c1.998 1.998 4.616 2.997 7.235 2.997s5.237-.999 7.235-2.997c3.996-3.996 3.996-10.475 0-14.47z" fill="url(#SVGID_1_)"/><path d="m101.825 397.943c-2.619 0-5.237.999-7.235 2.997l-74.126 74.126v-49.971c0-5.651-4.581-10.232-10.232-10.232-5.651-.001-10.232 4.58-10.232 10.231v74.674c0 5.651 4.581 10.232 10.232 10.232h74.674c5.651 0 10.232-4.581 10.232-10.232s-4.581-10.232-10.232-10.232h-49.972l74.126-74.126c3.996-3.996 3.996-10.475 0-14.47-1.997-1.998-4.616-2.997-7.235-2.997z" fill="url(#SVGID_00000129204375698621022250000016240535567015764120_)"/><path d="m499.768 0h-74.674c-5.651 0-10.232 4.581-10.232 10.232s4.581 10.232 10.232 10.232h49.971l-74.125 74.126c-3.996 3.996-3.996 10.475 0 14.47 1.998 1.998 4.616 2.997 7.235 2.997s5.237-.999 7.235-2.997l74.126-74.126v49.971c0 5.651 4.581 10.232 10.232 10.232s10.232-4.581 10.232-10.232v-74.673c0-5.651-4.581-10.232-10.232-10.232z" fill="url(#SVGID_00000048466152387918385210000012571552342009119127_)"/></g><g><g><path d="m103.119 209.436c3.595 0 6.509-2.914 6.509-6.509v-26.037c0-3.595-2.914-6.509-6.509-6.509s-6.509 2.914-6.509 6.509v26.037c0 3.595 2.914 6.509 6.509 6.509z" fill="url(#SVGID_00000113322608137526969300000005651462624309618604_)"/><path d="m103.119 339.619c3.595 0 6.509-2.914 6.509-6.509v-26.037c0-3.595-2.914-6.509-6.509-6.509s-6.509 2.914-6.509 6.509v26.037c0 3.595 2.914 6.509 6.509 6.509z" fill="url(#SVGID_00000106110578734850215860000010469188282133292476_)"/><path d="m103.119 274.528c3.595 0 6.509-2.914 6.509-6.509v-26.037c0-3.595-2.914-6.509-6.509-6.509s-6.509 2.914-6.509 6.509v26.037c0 3.594 2.914 6.509 6.509 6.509z" fill="url(#SVGID_00000020366337597893324490000012715145147080633018_)"/><path d="m406.555 365.656c-3.595 0-6.509 2.914-6.509 6.509v26.037c0 .89.18 1.737.503 2.51-.772-.323-1.62-.503-2.51-.503h-26.037c-3.595 0-6.509 2.914-6.509 6.509s2.914 6.509 6.509 6.509h26.037c3.595 0 6.509-2.914 6.509-6.509 0-.89-.18-1.737-.503-2.51.772.323 1.62.503 2.51.503 3.595 0 6.509-2.914 6.509-6.509v-26.037c0-3.595-2.914-6.509-6.509-6.509z" fill="url(#SVGID_00000170961061229048016170000006128854188066930847_)"/><path d="m406.555 170.381c-3.595 0-6.509 2.914-6.509 6.509v26.037c0 3.595 2.914 6.509 6.509 6.509s6.509-2.914 6.509-6.509v-26.037c0-3.595-2.914-6.509-6.509-6.509z" fill="url(#SVGID_00000051351635587431343270000005948379055993893542_)"/><path d="m406.555 105.289c-.89 0-1.737.18-2.51.503.323-.772.503-1.62.503-2.51 0-3.595-2.914-6.509-6.509-6.509h-26.037c-3.595 0-6.509 2.914-6.509 6.509s2.914 6.509 6.509 6.509h26.037c.89 0 1.737-.18 2.51-.503-.323.772-.503 1.62-.503 2.51v26.037c0 3.595 2.914 6.509 6.509 6.509s6.509-2.914 6.509-6.509v-26.037c0-3.595-2.914-6.509-6.509-6.509z" fill="url(#SVGID_00000169549932963047616030000011313865319525639562_)"/><path d="m406.555 300.564c-3.595 0-6.509 2.914-6.509 6.509v26.037c0 3.595 2.914 6.509 6.509 6.509s6.509-2.914 6.509-6.509v-26.037c0-3.595-2.914-6.509-6.509-6.509z" fill="url(#SVGID_00000147200291801802694010000009866844056121229447_)"/><path d="m406.555 235.472c-3.595 0-6.509 2.914-6.509 6.509v26.037c0 3.595 2.914 6.509 6.509 6.509s6.509-2.914 6.509-6.509v-26.037c0-3.594-2.914-6.509-6.509-6.509z" fill="url(#SVGID_00000105423748385639961630000004803215628359568038_)"/><path d="m202.764 400.209h-26.037c-3.595 0-6.509 2.914-6.509 6.509s2.914 6.509 6.509 6.509h26.037c3.595 0 6.509-2.914 6.509-6.509s-2.914-6.509-6.509-6.509z" fill="url(#SVGID_00000106110578734850215860000010469188282133292476_)"/><path d="m137.672 400.209h-26.037c-.89 0-1.737.18-2.51.503.323-.772.503-1.62.503-2.51v-26.037c0-3.595-2.914-6.509-6.509-6.509s-6.509 2.914-6.509 6.509v26.037c0 3.595 2.914 6.509 6.509 6.509.89 0 1.737-.18 2.51-.503-.323.772-.503 1.62-.503 2.51 0 3.595 2.914 6.509 6.509 6.509h26.037c3.595 0 6.509-2.914 6.509-6.509s-2.914-6.509-6.509-6.509z" fill="url(#SVGID_00000054967421499837004950000013863909603528633754_)"/><path d="m332.947 400.209h-26.037c-3.595 0-6.509 2.914-6.509 6.509s2.914 6.509 6.509 6.509h26.037c3.595 0 6.509-2.914 6.509-6.509.001-3.595-2.914-6.509-6.509-6.509z" fill="url(#SVGID_00000113322608137526969300000005651462624309618604_)"/><path d="m267.856 400.209h-26.037c-3.595 0-6.509 2.914-6.509 6.509s2.914 6.509 6.509 6.509h26.037c3.595 0 6.509-2.914 6.509-6.509s-2.914-6.509-6.509-6.509z" fill="url(#SVGID_00000020366337597893324490000012715145147080633018_)"/><path d="m202.764 96.773h-26.037c-3.595 0-6.509 2.914-6.509 6.509s2.914 6.509 6.509 6.509h26.037c3.595 0 6.509-2.914 6.509-6.509s-2.914-6.509-6.509-6.509z" fill="url(#SVGID_00000147200291801802694010000009866844056121229447_)"/><path d="m137.672 96.773h-26.037c-3.595 0-6.509 2.914-6.509 6.509 0 .89.18 1.737.503 2.51-.772-.323-1.62-.503-2.51-.503-3.595 0-6.509 2.914-6.509 6.509v26.037c0 3.595 2.914 6.509 6.509 6.509s6.509-2.914 6.509-6.509v-26.037c0-.89-.18-1.737-.503-2.51.772.323 1.62.503 2.51.503h26.037c3.595 0 6.509-2.914 6.509-6.509s-2.914-6.509-6.509-6.509z" fill="url(#SVGID_00000170961061229048016170000006128854188066930847_)"/><path d="m332.947 96.773h-26.037c-3.595 0-6.509 2.914-6.509 6.509s2.914 6.509 6.509 6.509h26.037c3.595 0 6.509-2.914 6.509-6.509.001-3.595-2.914-6.509-6.509-6.509z" fill="url(#SVGID_00000051351635587431343270000005948379055993893542_)"/><path d="m267.856 96.773h-26.037c-3.595 0-6.509 2.914-6.509 6.509s2.914 6.509 6.509 6.509h26.037c3.595 0 6.509-2.914 6.509-6.509s-2.914-6.509-6.509-6.509z" fill="url(#SVGID_00000105423748385639961630000004803215628359568038_)"/></g><g><path d="m123.061 129.264h-39.233c-3.426 0-6.203-2.777-6.203-6.203v-39.233c0-3.426 2.777-6.203 6.203-6.203h39.233c3.426 0 6.203 2.777 6.203 6.203v39.233c0 3.426-2.777 6.203-6.203 6.203z" fill="url(#SVGID_00000078023905809090128380000011641940847454019744_)"/><g><path d="m77.625 103.445v19.617c0 3.426 2.777 6.203 6.203 6.203h39.233c3.426 0 6.203-2.777 6.203-6.203v-19.617z" fill="url(#SVGID_00000018921491396276906670000006051005375556215989_)"/><path d="m103.445 129.264h19.617c3.426 0 6.203-2.777 6.203-6.203v-39.233c0-3.426-2.777-6.203-6.203-6.203h-19.617z" fill="url(#SVGID_00000039843103935222371690000005252099888316370077_)"/></g></g><g><path d="m426.172 432.375h-39.233c-3.426 0-6.203-2.777-6.203-6.203v-39.233c0-3.426 2.777-6.203 6.203-6.203h39.233c3.426 0 6.203 2.777 6.203 6.203v39.233c0 3.426-2.777 6.203-6.203 6.203z" fill="url(#SVGID_00000005971496319725671500000000263911348778191769_)"/><g><path d="m380.736 406.555v19.617c0 3.426 2.777 6.203 6.203 6.203h39.233c3.426 0 6.203-2.777 6.203-6.203v-19.617z" fill="url(#SVGID_00000017481556295725410410000007832816826652477630_)"/><path d="m406.555 432.375h19.617c3.426 0 6.203-2.777 6.203-6.203v-39.233c0-3.426-2.777-6.203-6.203-6.203h-19.617z" fill="url(#SVGID_00000131365464479974716870000009094266724273942956_)"/></g></g><g><path d="m426.172 129.264h-39.233c-3.426 0-6.203-2.777-6.203-6.203v-39.233c0-3.426 2.777-6.203 6.203-6.203h39.233c3.426 0 6.203 2.777 6.203 6.203v39.233c0 3.426-2.777 6.203-6.203 6.203z" fill="url(#SVGID_00000083773345314044655510000017875543709024125320_)"/><g><path d="m380.736 103.445v19.617c0 3.426 2.777 6.203 6.203 6.203h39.233c3.426 0 6.203-2.777 6.203-6.203v-19.617z" fill="url(#SVGID_00000085219215433722988410000000933372919238782129_)"/><path d="m406.555 129.264h19.617c3.426 0 6.203-2.777 6.203-6.203v-39.233c0-3.426-2.777-6.203-6.203-6.203h-19.617z" fill="url(#SVGID_00000047022551948032261010000002680058907700231856_)"/></g></g><g><path d="m123.061 432.375h-39.233c-3.426 0-6.203-2.777-6.203-6.203v-39.233c0-3.426 2.777-6.203 6.203-6.203h39.233c3.426 0 6.203 2.777 6.203 6.203v39.233c0 3.426-2.777 6.203-6.203 6.203z" fill="url(#SVGID_00000044150021602693003860000011419447809361606047_)"/><g><path d="m77.625 406.555v19.617c0 3.426 2.777 6.203 6.203 6.203h39.233c3.426 0 6.203-2.777 6.203-6.203v-19.617z" fill="url(#SVGID_00000031197401090153838890000007708773102467903885_)"/><path d="m103.445 432.375h19.617c3.426 0 6.203-2.777 6.203-6.203v-39.233c0-3.426-2.777-6.203-6.203-6.203h-19.617z" fill="url(#SVGID_00000158004330600018968210000008888267223268637615_)"/></g></g></g><g><path d="m326.607 349.25h-143.214c-12.505 0-22.643-10.138-22.643-22.643v-143.214c0-12.505 10.138-22.643 22.643-22.643h143.214c12.505 0 22.643 10.138 22.643 22.643v143.214c0 12.505-10.138 22.643-22.643 22.643z" fill="url(#SVGID_00000137124483152966276090000009496411813874430601_)"/><g><path d="m160.75 255v71.607c0 12.505 10.138 22.643 22.643 22.643h143.214c12.505 0 22.643-10.138 22.643-22.643v-71.607z" fill="url(#SVGID_00000153705914853467254890000001146523033935106232_)"/><path d="m255 349.25h71.607c12.505 0 22.643-10.138 22.643-22.643v-143.214c0-12.505-10.138-22.643-22.643-22.643h-71.607z" fill="url(#SVGID_00000056418640921765734630000002417358769493623971_)"/></g></g></g></svg>