<svg id="_35_Pedestrian" enable-background="new 0 0 512 512" viewBox="0 0 512 512" xmlns="http://www.w3.org/2000/svg" xmlns:xlink="http://www.w3.org/1999/xlink"><linearGradient id="lg1"><stop offset="0" stop-color="#ff4565"/><stop offset=".2702" stop-color="#fa4362"/><stop offset=".5502" stop-color="#ee3d5a"/><stop offset=".8337" stop-color="#d9344d"/><stop offset="1" stop-color="#ca2e43"/></linearGradient><linearGradient id="SVGID_1_" gradientTransform="matrix(1 0 0 -1 0 514)" gradientUnits="userSpaceOnUse" x1="78.792" x2="417.01" xlink:href="#lg1" y1="435.208" y2="96.99"/><linearGradient id="SVGID_00000096745075119874322220000002680594943773901237_" gradientTransform="matrix(1 0 0 -1 0 514)" gradientUnits="userSpaceOnUse" x1="-141.96" x2="619.077" y1="655.96" y2="-105.077"><stop offset="0" stop-color="#f5fbff"/><stop offset=".2414" stop-color="#f0f8fe"/><stop offset=".4916" stop-color="#e4f2fe"/><stop offset=".7457" stop-color="#cfe8fe"/><stop offset="1" stop-color="#b3dafe"/></linearGradient><linearGradient id="lg2"><stop offset="0" stop-color="#8ac9fe" stop-opacity="0"/><stop offset=".1291" stop-color="#89c8fd" stop-opacity=".019"/><stop offset=".2629" stop-color="#88c6fb" stop-opacity=".075"/><stop offset=".3989" stop-color="#87c4f8" stop-opacity=".168"/><stop offset=".5365" stop-color="#85c0f4" stop-opacity=".298"/><stop offset=".6753" stop-color="#83bbef" stop-opacity=".466"/><stop offset=".8151" stop-color="#7fb5e9" stop-opacity=".672"/><stop offset=".9532" stop-color="#7caee1" stop-opacity=".911"/><stop offset="1" stop-color="#7bacdf"/></linearGradient><linearGradient id="SVGID_00000031174766808005998940000018089907612068028567_" gradientTransform="matrix(1 0 0 -1 0 514)" gradientUnits="userSpaceOnUse" x1="256" x2="256" xlink:href="#lg2" y1="390.96" y2="471.613"/><linearGradient id="SVGID_00000176025854435458077940000014108365372258347189_" gradientTransform="matrix(1 0 0 -1 0 514)" gradientUnits="userSpaceOnUse" x1="439.272" x2="318.796" xlink:href="#lg2" y1="146.971" y2="203.287"/><linearGradient id="SVGID_00000026883146675821461830000013221557967509801105_" gradientTransform="matrix(1 0 0 -1 0 514)" gradientUnits="userSpaceOnUse" x1="348.564" x2="287.257" xlink:href="#lg2" y1="335.089" y2="399.96"/><linearGradient id="SVGID_00000001664152199558394710000005322883620933724306_" gradientTransform="matrix(1 0 0 -1 0 514)" gradientUnits="userSpaceOnUse" x1="193.04" x2="240.138" xlink:href="#lg2" y1="195.04" y2="242.138"/><linearGradient id="SVGID_00000026860834958543466180000001553758090776938921_" gradientTransform="matrix(1 0 0 -1 0 514)" gradientUnits="userSpaceOnUse" x1="127.574" x2="39.865" xlink:href="#lg2" y1="226.68" y2="226.68"/><linearGradient id="SVGID_00000183967235315889910700000002277591749746463631_" gradientTransform="matrix(1 0 0 -1 0 514)" gradientUnits="userSpaceOnUse" x1="256.032" x2="264.586" xlink:href="#lg2" y1="150.864" y2="185.794"/><linearGradient id="SVGID_00000137092047618668895360000005458767263521850023_" gradientTransform="matrix(1 0 0 -1 0 514)" gradientUnits="userSpaceOnUse" x1="251.585" x2="190.991" xlink:href="#lg2" y1="83.428" y2="127.626"/><linearGradient id="SVGID_00000074430101098015364150000010626955558261500332_" gradientTransform="matrix(1 0 0 -1 0 514)" gradientUnits="userSpaceOnUse" x1="198.415" x2="185.584" xlink:href="#lg2" y1="253.291" y2="291.074"/><linearGradient id="lg3"><stop offset="0" stop-color="#766e6e"/><stop offset=".2493" stop-color="#716b6b"/><stop offset=".5076" stop-color="#656464"/><stop offset=".769" stop-color="#505757"/><stop offset="1" stop-color="#384949"/></linearGradient><linearGradient id="SVGID_00000000924338449379188440000012756159881957668281_" gradientTransform="matrix(.921 -.389 -.389 -.921 205.179 -331.27)" gradientUnits="userSpaceOnUse" x1="-125.128" x2="-65.089" xlink:href="#lg3" y1="-419.295" y2="-479.335"/><linearGradient id="lg4"><stop offset="0" stop-color="#464646" stop-opacity="0"/><stop offset=".6727" stop-color="#252529" stop-opacity=".463"/><stop offset="1" stop-color="#000009"/></linearGradient><linearGradient id="SVGID_00000036232210214304558420000017866504089378360706_" gradientTransform="matrix(.921 -.389 -.389 -.921 205.179 -331.27)" gradientUnits="userSpaceOnUse" x1="-99.767" x2="-99.767" xlink:href="#lg4" y1="-450.767" y2="-498.308"/><linearGradient id="SVGID_00000061472667066559709970000014197626128234801314_" gradientTransform="matrix(.921 -.389 -.389 -.921 205.179 -331.27)" gradientUnits="userSpaceOnUse" x1="-80.66" x2="-44.298" xlink:href="#lg4" y1="-444.657" y2="-444.657"/><linearGradient id="SVGID_00000162336507784424821390000002523658073662630071_" gradientTransform="matrix(.921 -.389 -.389 -.921 205.18 -331.27)" gradientUnits="userSpaceOnUse" x1="-303.455" x2="-276.354" xlink:href="#lg3" y1="-620.264" y2="-688.838"/><linearGradient id="SVGID_00000078759040007576461300000000100867413989153414_" gradientTransform="matrix(.921 -.389 -.389 -.921 205.18 -331.27)" gradientUnits="userSpaceOnUse" x1="-281.113" x2="-258.939" xlink:href="#lg4" y1="-661.753" y2="-678.178"/><linearGradient id="SVGID_00000075862820938532968810000004969845027630470062_" gradientTransform="matrix(.921 -.389 -.389 -.921 205.18 -331.27)" gradientUnits="userSpaceOnUse" x1="-289.433" x2="-284.506" xlink:href="#lg4" y1="-659.029" y2="-686.951"/><linearGradient id="SVGID_00000175295909461530974710000012369680345060363924_" gradientTransform="matrix(.921 -.389 -.389 -.921 205.18 -331.27)" gradientUnits="userSpaceOnUse" x1="-235.421" x2="-106.486" xlink:href="#lg3" y1="-459.809" y2="-673.331"/><linearGradient id="SVGID_00000031166869886543945550000018014691113369122750_" gradientTransform="matrix(1 0 0 -1 0 514)" gradientUnits="userSpaceOnUse" x1="252.347" x2="280.476" xlink:href="#lg4" y1="161.752" y2="189.881"/><linearGradient id="SVGID_00000175316702314305890140000003162166291770791347_" gradientTransform="matrix(.921 -.389 -.389 -.921 205.18 -331.27)" gradientUnits="userSpaceOnUse" x1="-229.313" x2="-233.145" xlink:href="#lg4" y1="-486.053" y2="-517.26"/><linearGradient id="SVGID_00000103980057304477075690000010583575482710150583_" gradientTransform="matrix(1 0 0 -1 0 514)" gradientUnits="userSpaceOnUse" x1="150.992" x2="165.267" xlink:href="#lg4" y1="291.622" y2="305.898"/><linearGradient id="SVGID_00000055708053706222234610000007526297789432023177_" gradientTransform="matrix(.921 -.389 -.389 -.921 205.18 -331.27)" gradientUnits="userSpaceOnUse" x1="-122.578" x2="-149.953" xlink:href="#lg4" y1="-561.257" y2="-556.877"/><linearGradient id="SVGID_00000067238077900392811580000011359373330189592757_" gradientTransform="matrix(.921 -.389 -.389 -.921 205.18 -331.27)" gradientUnits="userSpaceOnUse" x1="-93.868" x2="-93.868" xlink:href="#lg4" y1="-574.885" y2="-599.528"/><linearGradient id="SVGID_00000175292256665100752520000012918062701360054455_" gradientTransform="matrix(.921 -.389 -.389 -.921 205.18 -331.27)" gradientUnits="userSpaceOnUse" x1="-77.415" x2="-37.448" xlink:href="#lg4" y1="-574.572" y2="-590.997"/><linearGradient id="SVGID_00000031179364517096216750000009462391149369858990_" gradientTransform="matrix(.921 -.389 -.389 -.921 205.18 -331.27)" gradientUnits="userSpaceOnUse" x1="-162.31" x2="-146.296" xlink:href="#lg4" y1="-686.409" y2="-697.496"/><linearGradient id="SVGID_00000062874683338388630060000012234571013873163672_" gradientTransform="matrix(.921 -.389 -.389 -.921 205.18 -331.27)" gradientUnits="userSpaceOnUse" x1="-177.943" x2="-185.744" xlink:href="#lg4" y1="-711.343" y2="-742.139"/><linearGradient id="SVGID_00000011722917740864971920000001255119522325750144_" gradientTransform="matrix(.858 .142 -.142 -.858 85.668 428.333)" gradientUnits="userSpaceOnUse" x1="60.972" x2="399.19" xlink:href="#lg1" y1="417.388" y2="79.17"/><linearGradient id="lg5"><stop offset="0" stop-color="#6d3326" stop-opacity="0"/><stop offset=".2414" stop-color="#6a3124" stop-opacity=".063"/><stop offset=".4916" stop-color="#622e1f" stop-opacity=".252"/><stop offset=".7457" stop-color="#542816" stop-opacity=".565"/><stop offset="1" stop-color="#42210b"/></linearGradient><linearGradient id="SVGID_00000152232843534136778490000017003879458289801880_" gradientTransform="matrix(1 0 0 -1 0 514)" gradientUnits="userSpaceOnUse" x1="249.42" x2="229.016" xlink:href="#lg5" y1="190.784" y2="-9.174"/><linearGradient id="SVGID_00000181806970000638072970000010605271649813693056_" gradientTransform="matrix(1 0 0 -1 0 514)" gradientUnits="userSpaceOnUse" x1="278.966" x2="521.095" xlink:href="#lg5" y1="261.295" y2="296.662"/><linearGradient id="SVGID_00000057107170385566620680000003503146869044912274_" gradientTransform="matrix(1 0 0 -1 0 514)" gradientUnits="userSpaceOnUse" x1="390" x2="472.705" y1="124" y2="41.295"><stop offset="0" stop-color="#fdb4ba" stop-opacity="0"/><stop offset=".1207" stop-color="#fdb3b9" stop-opacity=".016"/><stop offset=".2459" stop-color="#fdb2b8" stop-opacity=".065"/><stop offset=".3731" stop-color="#fdb0b6" stop-opacity=".147"/><stop offset=".5018" stop-color="#fdacb3" stop-opacity=".262"/><stop offset=".6317" stop-color="#fda8af" stop-opacity=".41"/><stop offset=".7625" stop-color="#fda4aa" stop-opacity=".59"/><stop offset=".8916" stop-color="#fd9ea5" stop-opacity=".8"/><stop offset="1" stop-color="#fe99a0"/></linearGradient><g><path d="m218.6 0h74.9c120.7 0 218.5 97.8 218.5 218.6v74.9c0 120.7-97.8 218.5-218.6 218.5h-74.9c-120.7 0-218.5-97.8-218.5-218.6v-74.9c0-120.7 97.8-218.5 218.6-218.5z" fill="url(#SVGID_1_)"/><path d="m225.8 49.5h60.4c97.4 0 176.3 78.9 176.3 176.3v60.4c0 97.4-78.9 176.3-176.3 176.3h-60.4c-97.4 0-176.3-78.9-176.3-176.3v-60.4c0-97.4 78.9-176.3 176.3-176.3z" fill="url(#SVGID_00000096745075119874322220000002680594943773901237_)"/><path d="m460.1 197h-408.2c13.8-83.6 86.4-147.5 173.9-147.5h60.4c87.6 0 160.2 63.8 173.9 147.5z" fill="url(#SVGID_00000031174766808005998940000018089907612068028567_)"/><path d="m462.5 281.2-71.9-71.9-112.8 45-13.1 51.1 66.3 14.4-29.3 98.7 36.4 36.4c72.1-22.1 124.5-89.2 124.5-168.5v-5.2z" fill="url(#SVGID_00000176025854435458077940000014108365372258347189_)"/><path d="m250.3 154.2 199 199c8.5-20.7 13.2-43.3 13.2-67v-60.4c0-1.9 0-3.8-.1-5.7l-139.5-139.5z" fill="url(#SVGID_00000026883146675821461830000013221557967509801105_)"/><path d="m399.8 421c-30.7 25.9-70.3 41.5-113.6 41.5h-60.4c-97.3 0-176.3-78.9-176.3-176.3v-60.4c0-43.3 15.6-83 41.5-113.6z" fill="url(#SVGID_00000001664152199558394710000005322883620933724306_)"/><path d="m399.8 421c-30.7 25.9-70.3 41.5-113.6 41.5h-60.4c-97.3 0-176.3-78.9-176.3-176.3v-60.4c0-43.3 15.6-83 41.5-113.6z" fill="url(#SVGID_00000026860834958543466180000001553758090776938921_)"/><path d="m217.5 317.5 79.9 79.9 14.4-65.2z" fill="url(#SVGID_00000183967235315889910700000002277591749746463631_)"/><path d="m349.7 450.7-111.6-111.6-91.3 89.9 25 25c17 5.5 35.2 8.4 54 8.4h60.4c22.4.1 43.8-4.1 63.5-11.7z" fill="url(#SVGID_00000137092047618668895360000005458767263521850023_)"/><path d="m133.5 234.8 103.2 103.2v-129.8h-58.7z" fill="url(#SVGID_00000074430101098015364150000010626955558261500332_)"/><g><g><path d="m266.2 69.6c26.3-11.1 56.6 1.2 67.7 27.5 11.1 26.3-1.2 56.6-27.5 67.7-26.3 11.1-56.6-1.2-67.7-27.5-11-26.3 1.3-56.6 27.5-67.7z" fill="url(#SVGID_00000000924338449379188440000012756159881957668281_)"/><path d="m266.2 69.6c26.3-11.1 56.6 1.2 67.7 27.5 11.1 26.3-1.2 56.6-27.5 67.7-26.3 11.1-56.6-1.2-67.7-27.5-11-26.3 1.3-56.6 27.5-67.7z" fill="url(#SVGID_00000036232210214304558420000017866504089378360706_)"/><path d="m266.2 69.6c26.3-11.1 56.6 1.2 67.7 27.5 11.1 26.3-1.2 56.6-27.5 67.7-26.3 11.1-56.6-1.2-67.7-27.5-11-26.3 1.3-56.6 27.5-67.7z" fill="url(#SVGID_00000061472667066559709970000014197626128234801314_)"/></g><g><g><path d="m234.6 337-26.6-5.7c-3.6-.8-7 1.5-7.8 5.1l-6.1 28.5c-.7 3.2-2.6 6.1-5.4 7.9l-38.7 25c-9.3 6-12 18.5-6 27.9 6 9.3 18.5 12 27.9 6l41-26.5c10.3-6.6 17.5-17.1 20-29l6.7-31.2c.8-3.7-1.4-7.2-5-8z" fill="url(#SVGID_00000162336507784424821390000002523658073662630071_)"/><path d="m234.6 337-26.6-5.7c-3.6-.8-7 1.5-7.8 5.1l-6.1 28.5c-.7 3.2-2.6 6.1-5.4 7.9l-38.7 25c-9.3 6-12 18.5-6 27.9 6 9.3 18.5 12 27.9 6l41-26.5c10.3-6.6 17.5-17.1 20-29l6.7-31.2c.8-3.7-1.4-7.2-5-8z" fill="url(#SVGID_00000078759040007576461300000000100867413989153414_)"/><path d="m234.6 337-26.6-5.7c-3.6-.8-7 1.5-7.8 5.1l-6.1 28.5c-.7 3.2-2.6 6.1-5.4 7.9l-38.7 25c-9.3 6-12 18.5-6 27.9 6 9.3 18.5 12 27.9 6l41-26.5c10.3-6.6 17.5-17.1 20-29l6.7-31.2c.8-3.7-1.4-7.2-5-8z" fill="url(#SVGID_00000075862820938532968810000004969845027630470062_)"/><path d="m368 204.5-37.7 15.9c-4.9 2.1-10.6-.2-12.7-5.2-6.8-16.1-21.1-27.9-38.2-31.6l-44.4-9.5-21.7-4.7c-12-2.6-24.4-.3-34.7 6.4l-41.8 27c-9.5 6.1-12.5 19.1-6.2 28.5 6.1 9.1 18.4 11.6 27.7 5.7l39.9-25.8c2.8-1.8 6.2-2.4 9.4-1.7l19 4.1-16.8 78.6c-3.1 14.6 6.2 29.1 20.8 32.2l70.7 15.2c3.6.8 5.9 4.3 5.1 7.9l-11 51.3c-2.4 11 4.7 22.4 15.8 24.5 10.8 2.1 21.3-4.8 23.6-15.6l15.6-72.7c3-13.8-5.8-27.4-19.7-30.4l-46.4-9.9 7.8-36.5c5.3 10.2 17.7 14.8 28.5 10.2l62.7-26.5c10.4-4.4 15.6-16.7 11.1-27-4.5-10-16.2-14.7-26.4-10.4z" fill="url(#SVGID_00000175295909461530974710000012369680345060363924_)"/><path d="m295.4 398.7c-2.4 11 4.7 22.4 15.8 24.5 10.8 2.1 21.3-4.8 23.6-15.6l9.1-42.7-123.4-123.2-10.8 50.5c-3.1 14.6 6.2 29.1 20.8 32.2l70.7 15.2c3.6.8 5.9 4.3 5.1 7.9z" fill="url(#SVGID_00000031166869886543945550000018014691113369122750_)"/><path d="m213.3 169.5c-12-2.6-24.4-.3-34.7 6.4l-41.8 27c-9.5 6.1-12.5 19.1-6.2 28.5 6.1 9.1 18.4 11.6 27.7 5.7l39.9-25.8c2.8-1.8 6.2-2.4 9.4-1.7l19 4.1 8.4-39.4z" fill="url(#SVGID_00000175316702314305890140000003162166291770791347_)"/><path d="m164.1 185.2-27.3 17.7c-9.5 6.1-12.5 19.1-6.2 28.5 6.1 9.1 18.4 11.6 27.7 5.7l35-22.7z" fill="url(#SVGID_00000103980057304477075690000010583575482710150583_)"/></g><path d="m368 204.5-37.7 15.9c-4.9 2.1-10.6-.2-12.7-5.2-2.9-6.9-7.2-13-12.5-18l-13 60.9c5.3 10.2 17.7 14.8 28.5 10.2l62.7-26.5c10.4-4.4 15.6-16.7 11.1-27-4.5-9.9-16.2-14.6-26.4-10.3z" fill="url(#SVGID_00000055708053706222234610000007526297789432023177_)"/><path d="m368 204.5-37.7 15.9c-4.9 2.1-10.6-.2-12.7-5.2-2.9-6.9-7.2-13-12.5-18l-13 60.9c5.3 10.2 17.7 14.8 28.5 10.2l62.7-26.5c10.4-4.4 15.6-16.7 11.1-27-4.5-9.9-16.2-14.6-26.4-10.3z" fill="url(#SVGID_00000067238077900392811580000011359373330189592757_)"/><path d="m368 204.5-27.3 11.5 15.7 37.1 26.8-11.3c10.4-4.4 15.6-16.7 11.1-27-4.4-9.9-16.1-14.6-26.3-10.3z" fill="url(#SVGID_00000175292256665100752520000012918062701360054455_)"/><path d="m330.6 304.6-46.4-9.9-11.4 38.8 28.5 6.1c3.6.8 5.9 4.3 5.1 7.9l-11 51.3c-2.4 11 4.7 22.4 15.8 24.5 10.8 2.1 21.3-4.8 23.6-15.6l15.6-72.7c2.9-13.8-5.9-27.4-19.8-30.4z" fill="url(#SVGID_00000031179364517096216750000009462391149369858990_)"/><path d="m340.9 378.9-39.3-9.1-6.2 28.8c-2.4 11 4.7 22.4 15.8 24.5 10.8 2.1 21.3-4.8 23.6-15.6z" fill="url(#SVGID_00000062874683338388630060000012234571013873163672_)"/></g></g><path d="m60.7 108.4 47.7-47.7 342.9 342.9-47.7 47.7z" fill="url(#SVGID_00000011722917740864971920000001255119522325750144_)"/><path d="m512 218.5v74.9c0 120.7-97.8 218.6-218.5 218.6h-74.9c-120.8 0-218.6-97.9-218.6-218.5v-74.9c0-2.4 0-4.7.1-7.1h50c-.4 4.7-.6 9.5-.6 14.3v60.4c0 97.4 78.9 176.3 176.3 176.3h60.4c36.5 0 70.4-11.1 98.5-30.1l-221-220.9h348.1c.1 2.3.2 4.7.2 7z" fill="url(#SVGID_00000152232843534136778490000017003879458289801880_)"/><path d="m512 218.5v74.9c0 120.7-97.8 218.6-218.5 218.6h-74.9c-8.6 0-17.1-.5-25.4-1.5v-365l239.2 239.2c19-28.1 30.1-62 30.1-98.5v-60.4c0-97.3-78.9-176.3-176.3-176.3h-60.4c-11.1 0-22.1 1-32.6 3v-51c8.3-1 16.8-1.5 25.4-1.5h74.9c120.7 0 218.5 97.8 218.5 218.5z" fill="url(#SVGID_00000181806970000638072970000010605271649813693056_)"/><path d="m381.5 18.5-363 363c33.8 76.8 110.7 130.5 200.1 130.5h74.9c120.7 0 218.5-97.8 218.5-218.6v-74.9c0-89.3-53.7-166.2-130.5-200z" fill="url(#SVGID_00000057107170385566620680000003503146869044912274_)"/></g></svg>