<svg id="_29_Power" enable-background="new 0 0 512 512" viewBox="0 0 512 512" xmlns="http://www.w3.org/2000/svg" xmlns:xlink="http://www.w3.org/1999/xlink"><linearGradient id="lg1"><stop offset="0" stop-color="#ff4565"/><stop offset=".2702" stop-color="#fa4362"/><stop offset=".5502" stop-color="#ee3d5a"/><stop offset=".8337" stop-color="#d9344d"/><stop offset="1" stop-color="#ca2e43"/></linearGradient><linearGradient id="SVGID_1_" gradientTransform="matrix(1 0 0 -1 0 514)" gradientUnits="userSpaceOnUse" x1="75.497" x2="416.139" xlink:href="#lg1" y1="415.196" y2="74.554"/><linearGradient id="SVGID_00000079443673853791009050000007357663816154806668_" gradientTransform="matrix(1 0 0 -1 0 514)" gradientUnits="userSpaceOnUse" x1="381.992" x2="113.517" xlink:href="#lg1" y1="108.768" y2="377.243"/><linearGradient id="SVGID_00000170969940145692313190000002251026621930043825_" gradientTransform="matrix(1 0 0 -1 0 514)" gradientUnits="userSpaceOnUse" x1="220.571" x2="282.393" xlink:href="#lg1" y1="386.262" y2="386.262"/><linearGradient id="lg2"><stop offset="0" stop-color="#6d3326" stop-opacity="0"/><stop offset=".2414" stop-color="#6a3124" stop-opacity=".063"/><stop offset=".4916" stop-color="#622e1f" stop-opacity=".252"/><stop offset=".7457" stop-color="#542816" stop-opacity=".565"/><stop offset="1" stop-color="#42210b"/></linearGradient><linearGradient id="SVGID_00000176032433405979265430000015960321794818353304_" gradientTransform="matrix(1 0 0 -1 0 514)" gradientUnits="userSpaceOnUse" x1="251.437" x2="307.257" xlink:href="#lg2" y1="386.262" y2="386.262"/><linearGradient id="SVGID_00000091696437043018942950000017880940538502707130_" gradientTransform="matrix(1 0 0 -1 0 514)" gradientUnits="userSpaceOnUse" x1="256" x2="256" xlink:href="#lg2" y1="68.609" y2="-12.054"/><linearGradient id="SVGID_00000116924883830194144430000006079329307272314790_" gradientTransform="matrix(1 0 0 -1 0 514)" gradientUnits="userSpaceOnUse" x1="418.999" x2="500.381" xlink:href="#lg2" y1="221.037" y2="221.037"/><linearGradient id="SVGID_00000153689381539564631020000017541051804773074875_" gradientTransform="matrix(1 0 0 -1 0 514)" gradientUnits="userSpaceOnUse" x1="367.077" x2="446.571" y1="123.618" y2="44.124"><stop offset="0" stop-color="#fdb4ba" stop-opacity="0"/><stop offset=".1207" stop-color="#fdb3b9" stop-opacity=".016"/><stop offset=".2459" stop-color="#fdb2b8" stop-opacity=".065"/><stop offset=".3731" stop-color="#fdb0b6" stop-opacity=".147"/><stop offset=".5018" stop-color="#fdacb3" stop-opacity=".262"/><stop offset=".6317" stop-color="#fda8af" stop-opacity=".41"/><stop offset=".7625" stop-color="#fda4aa" stop-opacity=".59"/><stop offset=".8916" stop-color="#fd9ea5" stop-opacity=".8"/><stop offset="1" stop-color="#fe99a0"/></linearGradient><linearGradient id="SVGID_00000172408242596706632320000009939875535931083695_" gradientTransform="matrix(1 0 0 -1 0 514)" gradientUnits="userSpaceOnUse" x1="256" x2="256" xlink:href="#lg2" y1="316.644" y2="248.296"/><g><path d="m337.1 112.7c0 13 6.6 25.1 17.4 32.3 34.3 22.8 56.9 61.7 56.9 105.9v56.8c0 70.2-56.9 127.1-127.1 127.1h-56.8c-70.2 0-127-56.9-127-127v-56.8c0-44.2 22.6-83.1 56.9-105.9 10.8-7.2 17.4-19.3 17.4-32.3 0-30.7-34.2-49.3-59.8-32.3-55.2 36.5-91.8 99.2-91.8 170.3v56.8c0 112.9 91.5 204.4 204.4 204.4h56.8c112.9 0 204.4-91.5 204.4-204.4v-56.8c0-71.1-36.5-133.9-91.8-170.5-25.6-16.9-59.9 1.7-59.9 32.4z" fill="url(#SVGID_1_)"/><path d="m341.3 95.2c-2.6 5.2-4.1 11.1-4.1 17.5 0 13 6.6 25.1 17.4 32.3 34.3 22.8 56.9 61.7 56.9 105.9v56.8c0 70.2-56.9 127.1-127.1 127.1h-56.8c-70.2 0-127-56.9-127-127v-56.8c0-44.2 22.6-83.1 56.9-105.9 10.8-7.2 17.4-19.3 17.4-32.3 0-6.5-1.5-12.4-4.1-17.5-63.5 23.2-108.8 84.1-108.8 155.7v56.8c0 91.5 74.2 165.7 165.7 165.7h56.8c91.5 0 165.7-74.2 165.7-165.7v-56.8c-.1-71.7-45.4-132.6-108.9-155.8z" fill="url(#SVGID_00000079443673853791009050000007357663816154806668_)"/><path d="m256 0c21.4 0 38.7 17.3 38.7 38.7v178.2c0 21.4-17.3 38.7-38.7 38.7-21.4 0-38.7-17.3-38.7-38.7v-178.2c0-21.4 17.3-38.7 38.7-38.7z" fill="url(#SVGID_00000170969940145692313190000002251026621930043825_)"/><path d="m256 0c21.4 0 38.7 17.3 38.7 38.7v178.2c0 21.4-17.3 38.7-38.7 38.7-21.4 0-38.7-17.3-38.7-38.7v-178.2c0-21.4 17.3-38.7 38.7-38.7z" fill="url(#SVGID_00000176032433405979265430000015960321794818353304_)"/><path d="m411.4 277.1v30.6c0 70.2-56.9 127.1-127.1 127.1h-56.8c-70.2 0-127-56.9-127-127v-30.6h-77.3v30.6c0 112.9 91.5 204.4 204.4 204.4h56.8c112.9 0 204.4-91.5 204.4-204.4v-30.6h-77.4z" fill="url(#SVGID_00000091696437043018942950000017880940538502707130_)"/><path d="m397 80.4c-25.6-17-59.8 1.6-59.8 32.3 0 13 6.6 25.1 17.4 32.3 34.3 22.8 56.9 61.7 56.9 105.9v56.8c0 70.2-56.9 127.1-127.1 127.1h-28.4v77.2h28.4c112.9 0 204.4-91.5 204.4-204.4v-56.8c0-71.1-36.6-133.8-91.8-170.4z" fill="url(#SVGID_00000116924883830194144430000006079329307272314790_)"/><path d="m488.8 307.6v-56.8c0-57.5-23.9-109.5-62.2-146.7l-54.7 54.7c24.3 23.2 39.5 55.8 39.5 92v56.8c0 70.2-56.9 127.1-127.1 127.1h-56.8c-36.2 0-68.9-15.2-92.1-39.5l-54.7 54.7c37.3 38.3 89.3 62.1 146.9 62.1h56.8c112.9 0 204.4-91.5 204.4-204.4z" fill="url(#SVGID_00000153689381539564631020000017541051804773074875_)"/><path d="m217.3 139.3v77.5c0 21.4 17.3 38.7 38.7 38.7 21.4 0 38.7-17.3 38.7-38.7v-77.5z" fill="url(#SVGID_00000172408242596706632320000009939875535931083695_)"/></g></svg>