<svg id="_22_Quotation" enable-background="new 0 0 512 512" viewBox="0 0 512 512" xmlns="http://www.w3.org/2000/svg" xmlns:xlink="http://www.w3.org/1999/xlink"><linearGradient id="lg1"><stop offset="0" stop-color="#766e6e"/><stop offset=".2493" stop-color="#716b6b"/><stop offset=".5076" stop-color="#656464"/><stop offset=".769" stop-color="#505757"/><stop offset="1" stop-color="#384949"/></linearGradient><linearGradient id="SVGID_1_" gradientTransform="matrix(1 0 0 -1 0 514)" gradientUnits="userSpaceOnUse" x1="10.606" x2="116.255" xlink:href="#lg1" y1="423.495" y2="317.846"/><linearGradient id="lg2"><stop offset="0" stop-color="#464646" stop-opacity="0"/><stop offset=".6727" stop-color="#252529" stop-opacity=".463"/><stop offset="1" stop-color="#000009"/></linearGradient><linearGradient id="SVGID_00000165218706032916626690000012822638733659488179_" gradientTransform="matrix(1 0 0 -1 0 514)" gradientUnits="userSpaceOnUse" x1="58.699" x2="53.897" xlink:href="#lg2" y1="326.091" y2="279.032"/><linearGradient id="SVGID_00000141443669223889576850000001373778686261333937_" gradientTransform="matrix(1 0 0 -1 0 514)" gradientUnits="userSpaceOnUse" x1="65.652" x2="122.635" xlink:href="#lg2" y1="342.685" y2="351.008"/><linearGradient id="lg3"><stop offset="0" stop-color="#fff" stop-opacity="0"/><stop offset=".1205" stop-color="#fff" stop-opacity=".016"/><stop offset=".2454" stop-color="#fff" stop-opacity=".065"/><stop offset=".3724" stop-color="#fff" stop-opacity=".147"/><stop offset=".5008" stop-color="#fff" stop-opacity=".261"/><stop offset=".6304" stop-color="#fff" stop-opacity=".408"/><stop offset=".761" stop-color="#fff" stop-opacity=".588"/><stop offset=".8898" stop-color="#fff" stop-opacity=".797"/><stop offset="1" stop-color="#fff"/></linearGradient><linearGradient id="SVGID_00000147203403953131854040000015503300476176670384_" gradientTransform="matrix(1 0 0 -1 0 514)" gradientUnits="userSpaceOnUse" x1="85.381" x2="123.748" xlink:href="#lg3" y1="316.776" y2="278.408"/><linearGradient id="SVGID_00000097485706622920300250000017769602645882805129_" gradientTransform="matrix(1 0 0 -1 0 514)" gradientUnits="userSpaceOnUse" x1="158.096" x2="263.745" xlink:href="#lg1" y1="423.495" y2="317.846"/><linearGradient id="SVGID_00000015327562049099793480000006155695294435316152_" gradientTransform="matrix(1 0 0 -1 0 514)" gradientUnits="userSpaceOnUse" x1="206.189" x2="201.387" xlink:href="#lg2" y1="326.091" y2="279.032"/><linearGradient id="SVGID_00000147218515857984519470000001868521050995429816_" gradientTransform="matrix(1 0 0 -1 0 514)" gradientUnits="userSpaceOnUse" x1="213.142" x2="270.125" xlink:href="#lg2" y1="342.685" y2="351.008"/><linearGradient id="SVGID_00000000181166825188274160000016644670684180052866_" gradientTransform="matrix(1 0 0 -1 0 514)" gradientUnits="userSpaceOnUse" x1="232.871" x2="271.238" xlink:href="#lg3" y1="316.776" y2="278.408"/><linearGradient id="SVGID_00000053522826340900387260000007855523234869090717_" gradientTransform="matrix(1 0 0 -1 0 514)" gradientUnits="userSpaceOnUse" x1="223.03" x2="340.416" xlink:href="#lg1" y1="171.584" y2="124.534"/><linearGradient id="SVGID_00000121256981141456993330000001935681732221309098_" gradientTransform="matrix(1 0 0 -1 0 514)" gradientUnits="userSpaceOnUse" x1="323.148" x2="363.569" xlink:href="#lg2" y1="140.778" y2="140.778"/><linearGradient id="SVGID_00000137820821197970262660000003613069543640946308_" gradientTransform="matrix(1 0 0 -1 0 514)" gradientUnits="userSpaceOnUse" x1="320.255" x2="342.592" xlink:href="#lg2" y1="113.864" y2="65.864"/><linearGradient id="SVGID_00000178207401216690552400000010417139142486389405_" gradientTransform="matrix(1 0 0 -1 0 514)" gradientUnits="userSpaceOnUse" x1="320.356" x2="375.485" xlink:href="#lg3" y1="114.646" y2="68.547"/><linearGradient id="SVGID_00000033334894738903697710000005617794099819737774_" gradientTransform="matrix(1 0 0 -1 0 514)" gradientUnits="userSpaceOnUse" x1="370.52" x2="487.906" xlink:href="#lg1" y1="171.584" y2="124.534"/><linearGradient id="SVGID_00000013194611974411528630000009223035649194135988_" gradientTransform="matrix(1 0 0 -1 0 514)" gradientUnits="userSpaceOnUse" x1="470.638" x2="511.059" xlink:href="#lg2" y1="140.778" y2="140.778"/><linearGradient id="SVGID_00000020383447327917559260000012761384229569319582_" gradientTransform="matrix(1 0 0 -1 0 514)" gradientUnits="userSpaceOnUse" x1="467.745" x2="490.082" xlink:href="#lg2" y1="113.864" y2="65.864"/><linearGradient id="SVGID_00000181069700312241205910000012530254987108386447_" gradientTransform="matrix(1 0 0 -1 0 514)" gradientUnits="userSpaceOnUse" x1="467.847" x2="522.975" xlink:href="#lg3" y1="114.646" y2="68.547"/><g><g><g><path d="m69.1 111.8h-7.4c.7-20.2 10.3-39.1 26.4-51.6 7.7-6 1.8-18.3-7.7-16.1l-14.7 3.4c-38.5 8.9-65.7 43.1-65.7 82.6v50.8c0 28.4 23 51.4 51.4 51.4h17.6c28.4 0 51.4-23 51.4-51.4v-17.6c.1-28.4-22.9-51.5-51.3-51.5z" fill="url(#SVGID_1_)"/><path d="m0 163.3v17.6c0 28.4 23 51.4 51.4 51.4h17.6c28.4 0 51.4-23 51.4-51.4v-17.6c0-.6 0-1.1 0-1.7h-120.4z" fill="url(#SVGID_00000165218706032916626690000012822638733659488179_)"/><path d="m69.1 111.8h-17.7c-2 0-4 .1-6 .3v119.9c2 .2 4 .3 6 .3h17.6c28.4 0 51.4-23 51.4-51.4v-17.6c.1-28.4-22.9-51.5-51.3-51.5z" fill="url(#SVGID_00000141443669223889576850000001373778686261333937_)"/><path d="m89.8 116.2-85.5 85.4c8 18.1 26.1 30.7 47.1 30.7h17.6c28.4 0 51.4-23 51.4-51.4v-17.6c.1-21.1-12.5-39.1-30.6-47.1z" fill="url(#SVGID_00000147203403953131854040000015503300476176670384_)"/></g><g><path d="m216.6 111.8h-7.4c.8-20.2 10.4-39.2 26.4-51.7 7.7-6 1.8-18.3-7.7-16.1l-14.7 3.4c-38.5 8.9-65.7 43.1-65.7 82.6v50.8c0 28.4 23 51.4 51.4 51.4h17.6c28.4 0 51.4-23 51.4-51.4v-17.6c.1-28.3-22.9-51.4-51.3-51.4z" fill="url(#SVGID_00000097485706622920300250000017769602645882805129_)"/><path d="m147.5 163.3v17.6c0 28.4 23 51.4 51.4 51.4h17.6c28.4 0 51.4-23 51.4-51.4v-17.6c0-.6 0-1.1 0-1.7h-120.4z" fill="url(#SVGID_00000015327562049099793480000006155695294435316152_)"/><path d="m216.6 111.8h-17.6c-2 0-4 .1-6 .3v119.9c2 .2 4 .3 6 .3h17.6c28.4 0 51.4-23 51.4-51.4v-17.6c0-28.4-23-51.5-51.4-51.5z" fill="url(#SVGID_00000147218515857984519470000001868521050995429816_)"/><path d="m237.3 116.2-85.4 85.4c8 18.1 26.1 30.7 47.1 30.7h17.6c28.4 0 51.4-23 51.4-51.4v-17.6c0-21.1-12.6-39.1-30.7-47.1z" fill="url(#SVGID_00000000181166825188274160000016644670684180052866_)"/></g></g><g><g><path d="m295.4 400.2h7.4c-.8 20.2-10.4 39.2-26.4 51.7-7.7 6-1.8 18.3 7.7 16.1l14.7-3.4c38.5-8.9 65.7-43.1 65.7-82.6v-50.8c0-28.4-23-51.4-51.4-51.4h-17.6c-28.4 0-51.4 23-51.4 51.4v17.6c-.1 28.3 22.9 51.4 51.3 51.4z" fill="url(#SVGID_00000053522826340900387260000007855523234869090717_)"/><path d="m313.1 279.7h-17.6c-2.2 0-4.4.2-6.5.4v119.6c2.1.3 4.3.4 6.5.4h7.4c-.5 14.2-5.5 27.8-13.9 39v27.7l9.9-2.3c38.5-8.9 65.7-43.1 65.7-82.6v-50.8c-.1-28.4-23.1-51.4-51.5-51.4z" fill="url(#SVGID_00000121256981141456993330000001935681732221309098_)"/><path d="m244 332.6v16.1c0 28.4 23 51.4 51.4 51.4h7.4c-.8 20.2-10.4 39.2-26.4 51.7-7.7 6-1.8 18.3 7.7 16.1l14.7-3.4c38.5-8.9 65.7-43.1 65.7-82.6v-49.3z" fill="url(#SVGID_00000137820821197970262660000003613069543640946308_)"/><path d="m244 332.6v16.1c0 28.4 23 51.4 51.4 51.4h7.4c-.8 20.2-10.4 39.2-26.4 51.7-7.7 6-1.8 18.3 7.7 16.1l14.7-3.4c38.5-8.9 65.7-43.1 65.7-82.6v-49.3z" fill="url(#SVGID_00000178207401216690552400000010417139142486389405_)"/></g><g><path d="m442.9 400.2h7.4c-.8 20.2-10.4 39.2-26.4 51.7-7.7 6-1.8 18.3 7.7 16.1l14.7-3.4c38.5-8.9 65.7-43.1 65.7-82.6v-50.8c0-28.4-23-51.4-51.4-51.4h-17.6c-28.4 0-51.4 23-51.4 51.4v17.6c-.1 28.3 22.9 51.4 51.3 51.4z" fill="url(#SVGID_00000033334894738903697710000005617794099819737774_)"/><path d="m460.6 279.7h-17.6c-2.2 0-4.4.2-6.5.4v119.6c2.1.3 4.3.4 6.5.4h7.4c-.5 14.2-5.5 27.8-13.9 39v27.7l9.9-2.3c38.5-8.9 65.7-43.1 65.7-82.6v-50.8c-.1-28.4-23.1-51.4-51.5-51.4z" fill="url(#SVGID_00000013194611974411528630000009223035649194135988_)"/><path d="m391.5 332.6v16.1c0 28.4 23 51.4 51.4 51.4h7.4c-.8 20.2-10.4 39.2-26.4 51.7-7.7 6-1.8 18.3 7.7 16.1l14.7-3.4c38.5-8.9 65.7-43.1 65.7-82.6v-49.3z" fill="url(#SVGID_00000020383447327917559260000012761384229569319582_)"/><path d="m391.5 332.6v16.1c0 28.4 23 51.4 51.4 51.4h7.4c-.8 20.2-10.4 39.2-26.4 51.7-7.7 6-1.8 18.3 7.7 16.1l14.7-3.4c38.5-8.9 65.7-43.1 65.7-82.6v-49.3z" fill="url(#SVGID_00000181069700312241205910000012530254987108386447_)"/></g></g></g></svg>