<svg id="Capa_1" enable-background="new 0 0 510 510" height="512" viewBox="0 0 510 510" width="512" xmlns="http://www.w3.org/2000/svg" xmlns:xlink="http://www.w3.org/1999/xlink"><linearGradient id="lg1"><stop offset="0" stop-color="#a6e7f0"/><stop offset=".1713" stop-color="#90e2ed"/><stop offset=".5295" stop-color="#56d7e7"/><stop offset="1" stop-color="#02c7dd"/></linearGradient><linearGradient id="SVGID_1_" gradientUnits="userSpaceOnUse" x1="-.279" x2="501.176" xlink:href="#lg1" y1="37.471" y2="538.926"/><linearGradient id="SVGID_00000143597486245793785970000000709485993056274067_" gradientUnits="userSpaceOnUse" x1="37.471" x2="538.926" xlink:href="#lg1" y1="-.279" y2="501.176"/><linearGradient id="SVGID_00000013164150159487490450000005182790371996445085_" gradientUnits="userSpaceOnUse" x1="187.471" x2="688.926" xlink:href="#lg1" y1="-150.279" y2="351.176"/><linearGradient id="SVGID_00000173869930900866974550000003615318576013676208_" gradientUnits="userSpaceOnUse" x1="224.971" x2="726.426" xlink:href="#lg1" y1="-187.779" y2="313.676"/><linearGradient id="SVGID_00000100359165376623638240000009743792493503358374_" gradientUnits="userSpaceOnUse" x1="149.971" x2="651.426" xlink:href="#lg1" y1="-112.779" y2="388.676"/><linearGradient id="SVGID_00000070814121427493568180000015053309667079922343_" gradientUnits="userSpaceOnUse" x1="74.971" x2="576.426" xlink:href="#lg1" y1="-37.779" y2="463.676"/><linearGradient id="SVGID_00000016791963920790563660000015891571745500364708_" gradientUnits="userSpaceOnUse" x1="112.471" x2="613.926" xlink:href="#lg1" y1="-75.279" y2="426.176"/><linearGradient id="SVGID_00000125577956829264704240000005419690477522067630_" gradientUnits="userSpaceOnUse" x1="12.44" x2="42.394" xlink:href="#lg1" y1="12.44" y2="42.394"/><linearGradient id="lg2"><stop offset="0" stop-color="#0199b1" stop-opacity="0"/><stop offset="1" stop-color="#0199b1"/></linearGradient><linearGradient id="SVGID_00000000213693227016072770000017044939084428038035_" gradientUnits="userSpaceOnUse" x1="29.75" x2="29.75" xlink:href="#lg2" y1="48.44" y2="58.982"/><linearGradient id="SVGID_00000163051125547119542740000007707109122248594845_" gradientTransform="matrix(0 -1 1 0 1077.412 -2539.411)" gradientUnits="userSpaceOnUse" x1="-2569.162" x2="-2569.162" xlink:href="#lg2" y1="-1028.972" y2="-1018.43"/><linearGradient id="SVGID_00000165915120602163172260000006679466580495880085_" gradientUnits="userSpaceOnUse" x1="462.94" x2="492.894" xlink:href="#lg1" y1="12.44" y2="42.394"/><linearGradient id="SVGID_00000054976745969247265400000005385771125582700932_" gradientUnits="userSpaceOnUse" x1="480.25" x2="480.25" xlink:href="#lg2" y1="48.44" y2="58.982"/><linearGradient id="SVGID_00000160175012379778736940000009027334286836545664_" gradientTransform="matrix(0 -1 1 0 1426.662 -2539.411)" gradientUnits="userSpaceOnUse" x1="-2569.162" x2="-2569.162" xlink:href="#lg2" y1="-927.722" y2="-917.18"/><linearGradient id="SVGID_00000029724623851180133790000018426253380929691290_" gradientUnits="userSpaceOnUse" x1="462.94" x2="492.894" xlink:href="#lg1" y1="462.94" y2="492.894"/><linearGradient id="SVGID_00000080921534125656194590000000116095352447354298_" gradientUnits="userSpaceOnUse" x1="480.25" x2="480.25" xlink:href="#lg2" y1="498.94" y2="509.482"/><linearGradient id="SVGID_00000177457065391643857550000014945852584854865812_" gradientTransform="matrix(0 -1 1 0 1426.662 -2539.411)" gradientUnits="userSpaceOnUse" x1="-3019.661" x2="-3019.661" xlink:href="#lg2" y1="-927.722" y2="-917.18"/><linearGradient id="lg3"><stop offset="0" stop-color="#c9f6b0"/><stop offset="1" stop-color="#0bb494"/></linearGradient><linearGradient id="SVGID_00000062890678111725906250000002538135237430033844_" gradientUnits="userSpaceOnUse" x1="-.724" x2="356.813" xlink:href="#lg3" y1="97.715" y2="455.252"/><linearGradient id="SVGID_00000097473132541095854050000004395537058570662529_" gradientUnits="userSpaceOnUse" x1="125.099" x2="482.636" xlink:href="#lg3" y1="-28.108" y2="329.429"/><linearGradient id="SVGID_00000000908283244310258810000017998068528136165763_" gradientUnits="userSpaceOnUse" x1="49.549" x2="407.085" xlink:href="#lg3" y1="47.442" y2="404.979"/><linearGradient id="SVGID_00000169517633607472534130000011082524836100488108_" gradientUnits="userSpaceOnUse" x1="87.324" x2="444.86" xlink:href="#lg3" y1="9.667" y2="367.204"/><linearGradient id="SVGID_00000166647077213631318090000006239664354901229483_" gradientUnits="userSpaceOnUse" x1="12.531" x2="42.705" xlink:href="#lg3" y1="110.781" y2="140.955"/><linearGradient id="lg4"><stop offset="0" stop-color="#016a74" stop-opacity="0"/><stop offset="1" stop-color="#016a74"/></linearGradient><linearGradient id="SVGID_00000005988627473525111330000012429869677338501550_" gradientUnits="userSpaceOnUse" x1="29.968" x2="29.968" xlink:href="#lg4" y1="147.045" y2="157.664"/><linearGradient id="SVGID_00000027575774387584414490000005361478329707222429_" gradientTransform="matrix(0 -1 1 0 1077.412 -2539.411)" gradientUnits="userSpaceOnUse" x1="-2667.63" x2="-2667.63" xlink:href="#lg4" y1="-1028.616" y2="-1017.997"/><linearGradient id="SVGID_00000163751103166026413440000012962106103168153267_" gradientUnits="userSpaceOnUse" x1="364.344" x2="394.518" xlink:href="#lg3" y1="462.594" y2="492.768"/><linearGradient id="SVGID_00000129198370725247138570000006067109039127112109_" gradientUnits="userSpaceOnUse" x1="381.782" x2="381.782" xlink:href="#lg4" y1="498.859" y2="509.478"/><linearGradient id="SVGID_00000036214565569276014280000003805216511205627818_" gradientTransform="matrix(0 -1 1 0 1077.412 -2539.411)" gradientUnits="userSpaceOnUse" x1="-3019.443" x2="-3019.443" xlink:href="#lg4" y1="-676.803" y2="-666.184"/><linearGradient id="SVGID_00000114780347089207932260000005004508024518060430_" gradientUnits="userSpaceOnUse" x1="364.344" x2="394.518" xlink:href="#lg3" y1="110.781" y2="140.955"/><linearGradient id="SVGID_00000165944520490616009030000006034062842359202743_" gradientUnits="userSpaceOnUse" x1="381.782" x2="381.782" xlink:href="#lg4" y1="147.045" y2="157.664"/><linearGradient id="SVGID_00000025435124499887711650000003692482428519353989_" gradientTransform="matrix(0 -1 1 0 1426.662 -2539.411)" gradientUnits="userSpaceOnUse" x1="-2667.63" x2="-2667.63" xlink:href="#lg4" y1="-1026.053" y2="-1015.434"/><linearGradient id="SVGID_00000013898161123469011550000012226085643101932164_" gradientUnits="userSpaceOnUse" x1="81.861" x2="214.01" y1="275.402" y2="407.551"><stop offset="0" stop-color="#f9f5f3"/><stop offset="1" stop-color="#efe2dd"/></linearGradient><linearGradient id="lg5"><stop offset="0" stop-color="#9e9797" stop-opacity="0"/><stop offset=".3562" stop-color="#9b9494" stop-opacity=".356"/><stop offset=".6285" stop-color="#928b8b" stop-opacity=".629"/><stop offset=".872" stop-color="#827a7a" stop-opacity=".872"/><stop offset="1" stop-color="#766e6e"/></linearGradient><linearGradient id="SVGID_00000150072178621917304820000012080155589444321194_" gradientUnits="userSpaceOnUse" x1="158.23" x2="158.23" xlink:href="#lg5" y1="434.225" y2="480.733"/><linearGradient id="SVGID_00000012434250412492236270000005878977016438554294_" gradientTransform="matrix(0 -1 1 0 1077.412 -2539.411)" gradientUnits="userSpaceOnUse" x1="-2891.182" x2="-2891.182" xlink:href="#lg5" y1="-836.728" y2="-790.219"/><linearGradient id="lg6"><stop offset="0" stop-color="#fef48b"/><stop offset="1" stop-color="#ffbf51"/></linearGradient><linearGradient id="SVGID_00000153678160804247378220000007908724898259036605_" gradientUnits="userSpaceOnUse" x1="38.777" x2="356.318" xlink:href="#lg6" y1="132.556" y2="450.097"/><linearGradient id="SVGID_00000113312694498056867990000009410179232938378425_" gradientUnits="userSpaceOnUse" x1="103.869" x2="421.41" xlink:href="#lg6" y1="67.464" y2="385.005"/><linearGradient id="SVGID_00000054988911660064525840000004029998981602250123_" gradientUnits="userSpaceOnUse" x1="71.323" x2="388.864" xlink:href="#lg6" y1="100.01" y2="417.551"/><linearGradient id="SVGID_00000039847294738371924640000008269900358409267346_" gradientUnits="userSpaceOnUse" x1="6.168" x2="323.709" xlink:href="#lg6" y1="165.165" y2="482.706"/><linearGradient id="SVGID_00000147909956085939826050000013071709148773788581_" gradientUnits="userSpaceOnUse" x1="-93.468" x2="224.073" xlink:href="#lg6" y1="264.801" y2="582.342"/><linearGradient id="SVGID_00000163753763612659864970000005980107136299057060_" gradientUnits="userSpaceOnUse" x1="-28.376" x2="289.165" xlink:href="#lg6" y1="199.709" y2="517.25"/><linearGradient id="SVGID_00000075154080918649340140000002326367813941919653_" gradientUnits="userSpaceOnUse" x1="-60.922" x2="256.619" xlink:href="#lg6" y1="232.255" y2="549.796"/><linearGradient id="SVGID_00000164477529594442844220000015077353213215092877_" gradientUnits="userSpaceOnUse" x1="-126.077" x2="191.464" xlink:href="#lg6" y1="297.41" y2="614.951"/><linearGradient id="SVGID_00000096770843861850092680000004370955808081939079_" gradientUnits="userSpaceOnUse" x1="71.26" x2="388.801" xlink:href="#lg6" y1="100.073" y2="417.614"/><linearGradient id="SVGID_00000111156503510824031640000016483263505171418262_" gradientUnits="userSpaceOnUse" x1="38.714" x2="356.255" xlink:href="#lg6" y1="132.619" y2="450.16"/><linearGradient id="SVGID_00000151545025449546562690000001730096696316199601_" gradientUnits="userSpaceOnUse" x1="-60.985" x2="256.556" xlink:href="#lg6" y1="232.318" y2="549.859"/><linearGradient id="SVGID_00000088813252670034949610000013606073486151694234_" gradientUnits="userSpaceOnUse" x1="-93.531" x2="224.01" xlink:href="#lg6" y1="264.864" y2="582.405"/><linearGradient id="SVGID_00000142158667651874017120000008817740565978557602_" gradientUnits="userSpaceOnUse" x1="275.616" x2="301.613" xlink:href="#lg6" y1="204.337" y2="230.334"/><linearGradient id="lg7"><stop offset="0" stop-color="#fe9738" stop-opacity="0"/><stop offset="1" stop-color="#fe9738"/></linearGradient><linearGradient id="SVGID_00000118357828524668423560000014357833514367361949_" gradientUnits="userSpaceOnUse" x1="290.639" x2="290.639" xlink:href="#lg7" y1="235.581" y2="244.73"/><linearGradient id="SVGID_00000049219827048157626980000012133608327455458483_" gradientTransform="matrix(0 -1 1 0 1426.662 -2539.411)" gradientUnits="userSpaceOnUse" x1="-2758.772" x2="-2758.772" xlink:href="#lg7" y1="-1119.802" y2="-1110.652"/><linearGradient id="SVGID_00000148637402187546958580000006226929966099502519_" gradientUnits="userSpaceOnUse" x1="10.796" x2="36.793" xlink:href="#lg6" y1="469.157" y2="495.154"/><linearGradient id="SVGID_00000153695209498608592870000006980904261478113174_" gradientUnits="userSpaceOnUse" x1="25.82" x2="25.82" xlink:href="#lg7" y1="500.401" y2="509.55"/><linearGradient id="SVGID_00000006684615787173900710000007103822535221373843_" gradientTransform="matrix(0 -1 1 0 1426.662 -2539.411)" gradientUnits="userSpaceOnUse" x1="-3023.592" x2="-3023.592" xlink:href="#lg7" y1="-1384.621" y2="-1375.472"/><linearGradient id="SVGID_00000123433414682516316400000016790154440498863778_" gradientUnits="userSpaceOnUse" x1="10.796" x2="36.793" xlink:href="#lg6" y1="204.337" y2="230.334"/><linearGradient id="SVGID_00000028285419771453046750000000517223882215355059_" gradientUnits="userSpaceOnUse" x1="25.819" x2="25.819" xlink:href="#lg7" y1="235.581" y2="244.73"/><linearGradient id="SVGID_00000123418650034673966410000003854187942777544887_" gradientTransform="matrix(0 -1 1 0 1161.842 -2539.411)" gradientUnits="userSpaceOnUse" x1="-2758.772" x2="-2758.772" xlink:href="#lg7" y1="-1119.802" y2="-1110.652"/><linearGradient id="SVGID_00000073722207373210868020000016346548145007564954_" gradientUnits="userSpaceOnUse" x1="275.616" x2="301.613" xlink:href="#lg6" y1="469.157" y2="495.154"/><linearGradient id="SVGID_00000018238358898154432290000002661199715763221173_" gradientUnits="userSpaceOnUse" x1="290.64" x2="290.64" xlink:href="#lg7" y1="500.401" y2="509.55"/><linearGradient id="SVGID_00000168808108186649129650000002527551711145934219_" gradientTransform="matrix(0 -1 1 0 1691.481 -2539.411)" gradientUnits="userSpaceOnUse" x1="-3023.592" x2="-3023.592" xlink:href="#lg7" y1="-1384.621" y2="-1375.472"/><linearGradient id="SVGID_00000023993277725721204420000012351346557310122626_" gradientTransform="matrix(0 1 -1 0 560.219 1149.782)" gradientUnits="userSpaceOnUse" x1="-1092.305" x2="-886.969" y1="107.884" y2="313.22"><stop offset="0" stop-color="#d9b1ee"/><stop offset=".1228" stop-color="#dba3e3"/><stop offset=".3507" stop-color="#e381c8"/><stop offset=".6587" stop-color="#ef499b"/><stop offset="1" stop-color="#fe0364"/></linearGradient><g><g><g><path d="m29.75 45c-4.142 0-7.5 3.358-7.5 7.5v30c0 4.142 3.358 7.5 7.5 7.5s7.5-3.358 7.5-7.5v-30c0-4.142-3.358-7.5-7.5-7.5z" fill="url(#SVGID_1_)"/><path d="m480.25 420c-4.142 0-7.5 3.358-7.5 7.5v30c0 4.142 3.358 7.5 7.5 7.5s7.5-3.358 7.5-7.5v-30c0-4.142-3.358-7.5-7.5-7.5z" fill="url(#SVGID_00000143597486245793785970000000709485993056274067_)"/><path d="m480.25 120c-4.142 0-7.5 3.358-7.5 7.5v30c0 4.142 3.358 7.5 7.5 7.5s7.5-3.358 7.5-7.5v-30c0-4.142-3.358-7.5-7.5-7.5z" fill="url(#SVGID_00000013164150159487490450000005182790371996445085_)"/><path d="m480.25 45c-4.142 0-7.5 3.358-7.5 7.5v30c0 4.142 3.358 7.5 7.5 7.5s7.5-3.358 7.5-7.5v-30c0-4.142-3.358-7.5-7.5-7.5z" fill="url(#SVGID_00000173869930900866974550000003615318576013676208_)"/><path d="m480.25 195c-4.142 0-7.5 3.358-7.5 7.5v30c0 4.142 3.358 7.5 7.5 7.5s7.5-3.358 7.5-7.5v-30c0-4.142-3.358-7.5-7.5-7.5z" fill="url(#SVGID_00000100359165376623638240000009743792493503358374_)"/><path d="m480.25 345c-4.142 0-7.5 3.358-7.5 7.5v30c0 4.142 3.358 7.5 7.5 7.5s7.5-3.358 7.5-7.5v-30c0-4.142-3.358-7.5-7.5-7.5z" fill="url(#SVGID_00000070814121427493568180000015053309667079922343_)"/><path d="m480.25 270c-4.142 0-7.5 3.358-7.5 7.5v30c0 4.142 3.358 7.5 7.5 7.5s7.5-3.358 7.5-7.5v-30c0-4.142-3.358-7.5-7.5-7.5z" fill="url(#SVGID_00000016791963920790563660000015891571745500364708_)"/><path d="m457.5 472.75h-30c-4.142 0-7.5 3.358-7.5 7.5s3.358 7.5 7.5 7.5h30c4.142 0 7.5-3.358 7.5-7.5s-3.358-7.5-7.5-7.5z" fill="url(#SVGID_1_)"/><path d="m82.5 22.25h-30c-4.142 0-7.5 3.358-7.5 7.5s3.358 7.5 7.5 7.5h30c4.142 0 7.5-3.358 7.5-7.5s-3.358-7.5-7.5-7.5z" fill="url(#SVGID_00000143597486245793785970000000709485993056274067_)"/><path d="m457.5 22.25h-30c-4.142 0-7.5 3.358-7.5 7.5s3.358 7.5 7.5 7.5h30c4.142 0 7.5-3.358 7.5-7.5s-3.358-7.5-7.5-7.5z" fill="url(#SVGID_00000173869930900866974550000003615318576013676208_)"/><path d="m382.5 22.25h-30c-4.142 0-7.5 3.358-7.5 7.5s3.358 7.5 7.5 7.5h30c4.142 0 7.5-3.358 7.5-7.5s-3.358-7.5-7.5-7.5z" fill="url(#SVGID_00000013164150159487490450000005182790371996445085_)"/><path d="m307.5 22.25h-30c-4.142 0-7.5 3.358-7.5 7.5s3.358 7.5 7.5 7.5h30c4.142 0 7.5-3.358 7.5-7.5s-3.358-7.5-7.5-7.5z" fill="url(#SVGID_00000100359165376623638240000009743792493503358374_)"/><path d="m157.5 22.25h-30c-4.142 0-7.5 3.358-7.5 7.5s3.358 7.5 7.5 7.5h30c4.142 0 7.5-3.358 7.5-7.5s-3.358-7.5-7.5-7.5z" fill="url(#SVGID_00000070814121427493568180000015053309667079922343_)"/><path d="m232.5 22.25h-30c-4.142 0-7.5 3.358-7.5 7.5s3.358 7.5 7.5 7.5h30c4.142 0 7.5-3.358 7.5-7.5s-3.358-7.5-7.5-7.5z" fill="url(#SVGID_00000016791963920790563660000015891571745500364708_)"/></g><g><g><path d="m52.353 59.5h-45.206c-3.947 0-7.147-3.2-7.147-7.147v-45.206c0-3.947 3.2-7.147 7.147-7.147h45.205c3.948 0 7.148 3.2 7.148 7.147v45.205c0 3.948-3.2 7.148-7.147 7.148z" fill="url(#SVGID_00000125577956829264704240000005419690477522067630_)"/><g><path d="m0 29.75v22.603c0 3.947 3.2 7.147 7.147 7.147h45.205c3.947 0 7.147-3.2 7.147-7.147v-22.603z" fill="url(#SVGID_00000000213693227016072770000017044939084428038035_)"/><path d="m29.75 59.5h22.603c3.947 0 7.147-3.2 7.147-7.147v-45.206c0-3.947-3.2-7.147-7.147-7.147h-22.603z" fill="url(#SVGID_00000163051125547119542740000007707109122248594845_)"/></g></g><g><path d="m502.853 59.5h-45.205c-3.947 0-7.147-3.2-7.147-7.147v-45.206c-.001-3.947 3.199-7.147 7.146-7.147h45.205c3.948 0 7.148 3.2 7.148 7.147v45.205c0 3.948-3.2 7.148-7.147 7.148z" fill="url(#SVGID_00000165915120602163172260000006679466580495880085_)"/><g><path d="m450.5 29.75v22.603c0 3.947 3.2 7.147 7.147 7.147h45.205c3.947 0 7.147-3.2 7.147-7.147v-22.603z" fill="url(#SVGID_00000054976745969247265400000005385771125582700932_)"/><path d="m480.25 59.5h22.603c3.947 0 7.147-3.2 7.147-7.147v-45.206c0-3.947-3.2-7.147-7.147-7.147h-22.603z" fill="url(#SVGID_00000160175012379778736940000009027334286836545664_)"/></g></g></g><g><g><path d="m502.853 510h-45.205c-3.947 0-7.147-3.2-7.147-7.147v-45.205c0-3.947 3.2-7.147 7.147-7.147h45.205c3.947 0 7.147 3.2 7.147 7.147v45.205c0 3.947-3.2 7.147-7.147 7.147z" fill="url(#SVGID_00000029724623851180133790000018426253380929691290_)"/><g><path d="m450.5 480.25v22.603c0 3.947 3.2 7.147 7.147 7.147h45.205c3.947 0 7.147-3.2 7.147-7.147v-22.603z" fill="url(#SVGID_00000080921534125656194590000000116095352447354298_)"/><path d="m480.25 510h22.603c3.947 0 7.147-3.2 7.147-7.147v-45.205c0-3.947-3.2-7.147-7.147-7.147h-22.603z" fill="url(#SVGID_00000177457065391643857550000014945852584854865812_)"/></g></g></g></g><g><g><path d="m381.782 432.561c-4.173 0-7.555 3.382-7.555 7.555v30.22c0 1.033.208 2.016.583 2.913-.897-.375-1.88-.583-2.913-.583h-30.22c-4.173 0-7.555 3.383-7.555 7.555s3.382 7.555 7.555 7.555h30.22c4.173 0 7.555-3.383 7.555-7.555 0-1.033-.208-2.016-.583-2.913.897.375 1.88.583 2.913.583 4.173 0 7.555-3.382 7.555-7.555v-30.22c0-4.173-3.383-7.555-7.555-7.555z" fill="url(#SVGID_00000062890678111725906250000002538135237430033844_)"/><path d="m381.782 205.909c-4.173 0-7.555 3.382-7.555 7.555v30.22c0 4.173 3.383 7.555 7.555 7.555s7.555-3.383 7.555-7.555v-30.22c0-4.172-3.383-7.555-7.555-7.555z" fill="url(#SVGID_00000097473132541095854050000004395537058570662529_)"/><path d="m381.782 357.01c-4.173 0-7.555 3.383-7.555 7.555v30.22c0 4.173 3.383 7.555 7.555 7.555s7.555-3.383 7.555-7.555v-30.22c0-4.172-3.383-7.555-7.555-7.555z" fill="url(#SVGID_00000000908283244310258810000017998068528136165763_)"/><path d="m381.782 281.46c-4.173 0-7.555 3.382-7.555 7.555v30.22c0 4.173 3.383 7.555 7.555 7.555s7.555-3.382 7.555-7.555v-30.22c0-4.173-3.383-7.555-7.555-7.555z" fill="url(#SVGID_00000169517633607472534130000011082524836100488108_)"/><path d="m145.246 120.474h-30.22c-4.173 0-7.555 3.382-7.555 7.555s3.382 7.555 7.555 7.555h30.22c4.173 0 7.555-3.382 7.555-7.555 0-4.172-3.383-7.555-7.555-7.555z" fill="url(#SVGID_00000000908283244310258810000017998068528136165763_)"/><path d="m69.695 120.474h-30.22c-4.173 0-7.555 3.382-7.555 7.555 0 1.033.208 2.016.583 2.913-.897-.375-1.88-.583-2.913-.583-4.173 0-7.555 3.382-7.555 7.555v30.22c0 4.173 3.382 7.555 7.555 7.555s7.555-3.382 7.555-7.555v-30.22c0-1.033-.208-2.016-.583-2.913.897.375 1.88.583 2.913.583h30.22c4.173 0 7.555-3.382 7.555-7.555 0-4.172-3.382-7.555-7.555-7.555z" fill="url(#SVGID_00000062890678111725906250000002538135237430033844_)"/><path d="m296.347 120.474h-30.22c-4.173 0-7.555 3.382-7.555 7.555s3.383 7.555 7.555 7.555h30.22c4.173 0 7.555-3.382 7.555-7.555 0-4.172-3.383-7.555-7.555-7.555z" fill="url(#SVGID_00000097473132541095854050000004395537058570662529_)"/><path d="m220.796 120.474h-30.22c-4.173 0-7.555 3.382-7.555 7.555s3.382 7.555 7.555 7.555h30.22c4.173 0 7.555-3.382 7.555-7.555 0-4.172-3.382-7.555-7.555-7.555z" fill="url(#SVGID_00000169517633607472534130000011082524836100488108_)"/></g><g><path d="m52.737 158.187h-45.537c-3.976 0-7.2-3.223-7.2-7.2v-45.537c0-3.976 3.223-7.2 7.2-7.2h45.537c3.976 0 7.2 3.223 7.2 7.2v45.537c0 3.976-3.224 7.2-7.2 7.2z" fill="url(#SVGID_00000166647077213631318090000006239664354901229483_)"/><g><path d="m0 128.218v22.769c0 3.976 3.223 7.2 7.2 7.2h45.537c3.976 0 7.2-3.223 7.2-7.2v-22.769z" fill="url(#SVGID_00000005988627473525111330000012429869677338501550_)"/><path d="m29.968 158.187h22.769c3.976 0 7.2-3.223 7.2-7.2v-45.537c0-3.976-3.223-7.2-7.2-7.2h-22.769z" fill="url(#SVGID_00000027575774387584414490000005361478329707222429_)"/></g></g><g><path d="m404.55 510h-45.537c-3.976 0-7.2-3.223-7.2-7.2v-45.537c0-3.976 3.223-7.2 7.2-7.2h45.537c3.976 0 7.2 3.223 7.2 7.2v45.537c0 3.977-3.223 7.2-7.2 7.2z" fill="url(#SVGID_00000163751103166026413440000012962106103168153267_)"/><g><path d="m351.813 480.032v22.768c0 3.976 3.223 7.2 7.2 7.2h45.537c3.976 0 7.2-3.223 7.2-7.2v-22.769h-59.937z" fill="url(#SVGID_00000129198370725247138570000006067109039127112109_)"/><path d="m381.782 510h22.769c3.976 0 7.2-3.223 7.2-7.2v-45.537c0-3.976-3.223-7.2-7.2-7.2h-22.769z" fill="url(#SVGID_00000036214565569276014280000003805216511205627818_)"/></g></g><g><path d="m404.55 158.187h-45.537c-3.976 0-7.2-3.223-7.2-7.2v-45.537c0-3.976 3.223-7.2 7.2-7.2h45.537c3.976 0 7.2 3.223 7.2 7.2v45.537c0 3.976-3.223 7.2-7.2 7.2z" fill="url(#SVGID_00000114780347089207932260000005004508024518060430_)"/><g><path d="m351.813 128.218v22.769c0 3.976 3.223 7.2 7.2 7.2h45.537c3.976 0 7.2-3.223 7.2-7.2v-22.769z" fill="url(#SVGID_00000165944520490616009030000006034062842359202743_)"/><path d="m381.782 158.187h22.769c3.976 0 7.2-3.223 7.2-7.2v-45.537c0-3.976-3.223-7.2-7.2-7.2h-22.769z" fill="url(#SVGID_00000025435124499887711650000003692482428519353989_)"/></g></g></g><g><g><path d="m257.947 483.02h-199.435c-17.415 0-31.532-14.117-31.532-31.532v-199.435c0-17.415 14.117-31.532 31.532-31.532h199.436c17.415 0 31.532 14.117 31.532 31.532v199.436c0 17.414-14.118 31.531-31.533 31.531z" fill="url(#SVGID_00000013898161123469011550000012226085643101932164_)"/><g><path d="m26.98 351.77v99.718c0 17.415 14.117 31.532 31.532 31.532h199.436c17.415 0 31.532-14.117 31.532-31.532v-99.718z" fill="url(#SVGID_00000150072178621917304820000012080155589444321194_)"/><path d="m158.23 483.02h99.718c17.415 0 31.532-14.117 31.532-31.532v-199.435c0-17.415-14.117-31.532-31.532-31.532h-99.718z" fill="url(#SVGID_00000012434250412492236270000005878977016438554294_)"/></g></g><g><g><path d="m138.765 213.016h-26.037c-3.595 0-6.509 2.914-6.509 6.509s2.914 6.509 6.509 6.509h26.037c3.595 0 6.509-2.914 6.509-6.509 0-3.594-2.914-6.509-6.509-6.509z" fill="url(#SVGID_00000153678160804247378220000007908724898259036605_)"/><path d="m268.949 213.016h-26.037c-3.595 0-6.509 2.914-6.509 6.509s2.914 6.509 6.509 6.509h26.037c3.595 0 6.509-2.914 6.509-6.509 0-3.594-2.914-6.509-6.509-6.509z" fill="url(#SVGID_00000113312694498056867990000009410179232938378425_)"/><path d="m203.857 213.016h-26.037c-3.595 0-6.509 2.914-6.509 6.509s2.914 6.509 6.509 6.509h26.037c3.595 0 6.509-2.914 6.509-6.509 0-3.594-2.914-6.509-6.509-6.509z" fill="url(#SVGID_00000054988911660064525840000004029998981602250123_)"/><path d="m73.547 213.016h-26.037c-3.595 0-6.509 2.914-6.509 6.509s2.914 6.509 6.509 6.509h26.037c3.595 0 6.509-2.914 6.509-6.509 0-3.594-2.914-6.509-6.509-6.509z" fill="url(#SVGID_00000039847294738371924640000008269900358409267346_)"/><path d="m138.765 477.506h-26.037c-3.595 0-6.509 2.914-6.509 6.509s2.914 6.509 6.509 6.509h26.037c3.595 0 6.509-2.914 6.509-6.509s-2.914-6.509-6.509-6.509z" fill="url(#SVGID_00000147909956085939826050000013071709148773788581_)"/><path d="m268.949 477.506h-26.037c-3.595 0-6.509 2.914-6.509 6.509s2.914 6.509 6.509 6.509h26.037c3.595 0 6.509-2.914 6.509-6.509s-2.914-6.509-6.509-6.509z" fill="url(#SVGID_00000163753763612659864970000005980107136299057060_)"/><path d="m203.857 477.506h-26.037c-3.595 0-6.509 2.914-6.509 6.509s2.914 6.509 6.509 6.509h26.037c3.595 0 6.509-2.914 6.509-6.509s-2.914-6.509-6.509-6.509z" fill="url(#SVGID_00000075154080918649340140000002326367813941919653_)"/><path d="m73.547 477.506h-26.037c-3.595 0-6.509 2.914-6.509 6.509s2.914 6.509 6.509 6.509h26.037c3.595 0 6.509-2.914 6.509-6.509s-2.914-6.509-6.509-6.509z" fill="url(#SVGID_00000164477529594442844220000015077353213215092877_)"/><path d="m290.474 299.76c-3.595 0-6.509 2.914-6.509 6.509v26.037c0 3.595 2.914 6.509 6.509 6.509s6.509-2.914 6.509-6.509v-26.037c0-3.595-2.914-6.509-6.509-6.509z" fill="url(#SVGID_00000096770843861850092680000004370955808081939079_)"/><path d="m290.474 429.944c-3.595 0-6.509 2.914-6.509 6.509v26.037c0 3.595 2.914 6.509 6.509 6.509s6.509-2.914 6.509-6.509v-26.037c0-3.595-2.914-6.509-6.509-6.509z" fill="url(#SVGID_00000039847294738371924640000008269900358409267346_)"/><path d="m290.474 364.852c-3.595 0-6.509 2.914-6.509 6.509v26.037c0 3.595 2.914 6.509 6.509 6.509s6.509-2.914 6.509-6.509v-26.037c0-3.595-2.914-6.509-6.509-6.509z" fill="url(#SVGID_00000111156503510824031640000016483263505171418262_)"/><path d="m290.474 234.542c-3.595 0-6.509 2.914-6.509 6.509v26.037c0 3.595 2.914 6.509 6.509 6.509s6.509-2.914 6.509-6.509v-26.037c0-3.595-2.914-6.509-6.509-6.509z" fill="url(#SVGID_00000113312694498056867990000009410179232938378425_)"/><path d="m25.985 299.76c-3.595 0-6.509 2.914-6.509 6.509v26.037c0 3.595 2.914 6.509 6.509 6.509s6.509-2.914 6.509-6.509v-26.037c0-3.595-2.914-6.509-6.509-6.509z" fill="url(#SVGID_00000151545025449546562690000001730096696316199601_)"/><path d="m25.985 429.944c-3.595 0-6.509 2.914-6.509 6.509v26.037c0 3.595 2.914 6.509 6.509 6.509s6.509-2.914 6.509-6.509v-26.037c0-3.595-2.914-6.509-6.509-6.509z" fill="url(#SVGID_00000164477529594442844220000015077353213215092877_)"/><path d="m25.985 364.852c-3.595 0-6.509 2.914-6.509 6.509v26.037c0 3.595 2.914 6.509 6.509 6.509s6.509-2.914 6.509-6.509v-26.037c0-3.595-2.914-6.509-6.509-6.509z" fill="url(#SVGID_00000088813252670034949610000013606073486151694234_)"/><path d="m25.985 234.542c-3.595 0-6.509 2.914-6.509 6.509v26.037c0 3.595 2.914 6.509 6.509 6.509s6.509-2.914 6.509-6.509v-26.037c0-3.595-2.914-6.509-6.509-6.509z" fill="url(#SVGID_00000163753763612659864970000005980107136299057060_)"/></g><g><g><path d="m310.256 245.18h-39.233c-3.426 0-6.203-2.777-6.203-6.203v-39.233c0-3.426 2.777-6.203 6.203-6.203h39.233c3.426 0 6.203 2.777 6.203 6.203v39.233c0 3.426-2.777 6.203-6.203 6.203z" fill="url(#SVGID_00000142158667651874017120000008817740565978557602_)"/><g><path d="m264.82 219.361v19.617c0 3.426 2.777 6.203 6.203 6.203h39.233c3.426 0 6.203-2.777 6.203-6.203v-19.617z" fill="url(#SVGID_00000118357828524668423560000014357833514367361949_)"/><path d="m290.639 245.18h19.617c3.426 0 6.203-2.777 6.203-6.203v-39.233c0-3.426-2.777-6.203-6.203-6.203h-19.617z" fill="url(#SVGID_00000049219827048157626980000012133608327455458483_)"/></g></g><g><path d="m45.436 510h-39.233c-3.426 0-6.203-2.777-6.203-6.203v-39.233c0-3.426 2.777-6.203 6.203-6.203h39.233c3.426 0 6.203 2.777 6.203 6.203v39.233c0 3.426-2.777 6.203-6.203 6.203z" fill="url(#SVGID_00000148637402187546958580000006226929966099502519_)"/><g><path d="m0 484.18v19.617c0 3.426 2.777 6.203 6.203 6.203h39.233c3.426 0 6.203-2.777 6.203-6.203v-19.617z" fill="url(#SVGID_00000153695209498608592870000006980904261478113174_)"/><path d="m25.82 510h19.617c3.426 0 6.203-2.777 6.203-6.203v-39.233c0-3.426-2.777-6.203-6.203-6.203h-19.617z" fill="url(#SVGID_00000006684615787173900710000007103822535221373843_)"/></g></g></g><g><g><path d="m45.436 245.18h-39.233c-3.426 0-6.203-2.777-6.203-6.203v-39.233c0-3.426 2.777-6.203 6.203-6.203h39.233c3.426 0 6.203 2.777 6.203 6.203v39.233c0 3.426-2.777 6.203-6.203 6.203z" fill="url(#SVGID_00000123433414682516316400000016790154440498863778_)"/><g><path d="m0 219.361v19.617c0 3.426 2.777 6.203 6.203 6.203h39.233c3.426 0 6.203-2.777 6.203-6.203v-19.617z" fill="url(#SVGID_00000028285419771453046750000000517223882215355059_)"/><path d="m25.82 245.18h19.617c3.426 0 6.203-2.777 6.203-6.203v-39.233c0-3.426-2.777-6.203-6.203-6.203h-19.617z" fill="url(#SVGID_00000123418650034673966410000003854187942777544887_)"/></g></g><g><path d="m310.256 510h-39.233c-3.426 0-6.203-2.777-6.203-6.203v-39.233c0-3.426 2.777-6.203 6.203-6.203h39.233c3.426 0 6.203 2.777 6.203 6.203v39.233c0 3.426-2.777 6.203-6.203 6.203z" fill="url(#SVGID_00000073722207373210868020000016346548145007564954_)"/><g><path d="m264.82 484.18v19.617c0 3.426 2.777 6.203 6.203 6.203h39.233c3.426 0 6.203-2.777 6.203-6.203v-19.617z" fill="url(#SVGID_00000018238358898154432290000002661199715763221173_)"/><path d="m290.639 510h19.617c3.426 0 6.203-2.777 6.203-6.203v-39.233c0-3.426-2.777-6.203-6.203-6.203h-19.617z" fill="url(#SVGID_00000168808108186649129650000002527551711145934219_)"/></g></g></g></g></g><path d="m389.337 127.974v54.735c0 4.142-3.358 7.5-7.5 7.5s-7.5-3.358-7.5-7.5v-36.628l-86.957 86.957h36.628c4.142 0 7.5 3.358 7.5 7.5s-3.358 7.5-7.5 7.5h-54.735c-4.142 0-7.5-3.358-7.5-7.5v-54.735c0-4.142 3.358-7.5 7.5-7.5s7.5 3.358 7.5 7.5v36.628l86.957-86.957h-36.628c-4.142 0-7.5-3.358-7.5-7.5s3.358-7.5 7.5-7.5h54.735c4.142 0 7.5 3.358 7.5 7.5z" fill="url(#SVGID_00000023993277725721204420000012351346557310122626_)"/></g></svg>