<svg id="_08_Stop_Sign" enable-background="new 0 0 512 512" viewBox="0 0 512 512" xmlns="http://www.w3.org/2000/svg" xmlns:xlink="http://www.w3.org/1999/xlink"><linearGradient id="SVGID_1_" gradientTransform="matrix(1 0 0 -1 0 514)" gradientUnits="userSpaceOnUse" x1="89.782" x2="387.05" y1="424.218" y2="126.95"><stop offset="0" stop-color="#ff4565"/><stop offset=".2702" stop-color="#fa4362"/><stop offset=".5502" stop-color="#ee3d5a"/><stop offset=".8337" stop-color="#d9344d"/><stop offset="1" stop-color="#ca2e43"/></linearGradient><linearGradient id="lg1"><stop offset="0" stop-color="#6d3326" stop-opacity="0"/><stop offset=".2414" stop-color="#6a3124" stop-opacity=".063"/><stop offset=".4916" stop-color="#622e1f" stop-opacity=".252"/><stop offset=".7457" stop-color="#542816" stop-opacity=".565"/><stop offset="1" stop-color="#42210b"/></linearGradient><linearGradient id="SVGID_00000169558483163060116640000011153990016735130757_" gradientTransform="matrix(1 0 0 -1 0 514)" gradientUnits="userSpaceOnUse" x1="256" x2="256" xlink:href="#lg1" y1="95.594" y2="3.88"/><linearGradient id="SVGID_00000158018670914756047820000006081033760700129702_" gradientTransform="matrix(1 0 0 -1 0 514)" gradientUnits="userSpaceOnUse" x1="384.487" x2="465.754" xlink:href="#lg1" y1="174.593" y2="121.841"/><linearGradient id="SVGID_00000026128690515850128200000005018798239972034494_" gradientTransform="matrix(1 0 0 -1 0 514)" gradientUnits="userSpaceOnUse" x1="384.967" x2="494.749" xlink:href="#lg1" y1="316.625" y2="366.526"/><linearGradient id="SVGID_00000104684133129156726850000005352335152561857215_" gradientTransform="matrix(1 0 0 -1 0 514)" gradientUnits="userSpaceOnUse" x1="171.41" x2="35.608" xlink:href="#lg1" y1="309.953" y2="393.359"/><linearGradient id="SVGID_00000089566731125872104750000015541053345619501991_" gradientTransform="matrix(1 0 0 -1 0 514)" gradientUnits="userSpaceOnUse" x1="139.827" x2="74.599" xlink:href="#lg1" y1="176.108" y2="130.127"/><linearGradient id="SVGID_00000141443854353971979830000011676609481336677291_" gradientTransform="matrix(1 0 0 -1 0 514)" gradientUnits="userSpaceOnUse" x1="256" x2="256" xlink:href="#lg1" y1="361.495" y2="494.158"/><linearGradient id="SVGID_00000172401406206252218790000017316016111793755017_" gradientTransform="matrix(1 0 0 -1 0 514)" gradientUnits="userSpaceOnUse" x1="441.738" x2="369.5" xlink:href="#lg1" y1="211.191" y2="265.607"/><linearGradient id="SVGID_00000074427340485790144100000007145046877643665316_" gradientTransform="matrix(1 0 0 -1 0 514)" gradientUnits="userSpaceOnUse" x1="242.132" x2="180.86" xlink:href="#lg1" y1="212.516" y2="243.73"/><linearGradient id="SVGID_00000168814777907390302890000009406357895437641658_" gradientTransform="matrix(1 0 0 -1 0 514)" gradientUnits="userSpaceOnUse" x1="345.418" x2="256.978" xlink:href="#lg1" y1="203.522" y2="250.342"/><linearGradient id="SVGID_00000021115042673654633470000007064437693798695849_" gradientTransform="matrix(1 0 0 -1 0 514)" gradientUnits="userSpaceOnUse" x1="404.406" x2="372.77" xlink:href="#lg1" y1="279.734" y2="279.734"/><linearGradient id="SVGID_00000080194252289653287010000001817715876266569616_" gradientTransform="matrix(1 0 0 -1 0 514)" gradientUnits="userSpaceOnUse" x1="394.882" x2="394.882" xlink:href="#lg1" y1="282.604" y2="300.318"/><linearGradient id="SVGID_00000108289155211946586390000012590305667624014258_" gradientTransform="matrix(1 0 0 -1 0 514)" gradientUnits="userSpaceOnUse" x1="318.624" x2="272.99" xlink:href="#lg1" y1="257.831" y2="257.831"/><linearGradient id="SVGID_00000028291386386987108760000012966307251756859566_" gradientTransform="matrix(1 0 0 -1 0 514)" gradientUnits="userSpaceOnUse" x1="297.29" x2="297.29" xlink:href="#lg1" y1="264.782" y2="304.954"/><linearGradient id="SVGID_00000112597131860253731070000016784912239940830133_" gradientTransform="matrix(1 0 0 -1 0 514)" gradientUnits="userSpaceOnUse" x1="130.971" x2="73.995" xlink:href="#lg1" y1="193.266" y2="201.405"/><linearGradient id="SVGID_00000062164961328950958940000017620394207609970863_" gradientTransform="matrix(1 0 0 -1 0 514)" gradientUnits="userSpaceOnUse" x1="171.283" x2="156.431" xlink:href="#lg1" y1="291.39" y2="328.816"/><linearGradient id="SVGID_00000057134851514738606910000012049363894512860313_" gradientTransform="matrix(1 0 0 -1 0 514)" gradientUnits="userSpaceOnUse" x1="179.166" x2="179.166" xlink:href="#lg1" y1="280.168" y2="303.163"/><linearGradient id="lg2"><stop offset="0" stop-color="#f5fbff"/><stop offset=".2414" stop-color="#f0f8fe"/><stop offset=".4916" stop-color="#e4f2fe"/><stop offset=".7457" stop-color="#cfe8fe"/><stop offset="1" stop-color="#b3dafe"/></linearGradient><linearGradient id="SVGID_00000084509062414918587350000008198714662491092917_" gradientTransform="matrix(1 0 0 -1 0 514)" gradientUnits="userSpaceOnUse" x1="113.425" x2="113.425" xlink:href="#lg2" y1="320.946" y2="186.313"/><linearGradient id="SVGID_00000174562604408086860520000015136249849995192710_" gradientTransform="matrix(1 0 0 -1 0 514)" gradientUnits="userSpaceOnUse" x1="204.345" x2="204.345" xlink:href="#lg2" y1="320.861" y2="186.229"/><linearGradient id="SVGID_00000004546351587373099280000007729855609486626730_" gradientTransform="matrix(1 0 0 -1 0 514)" gradientUnits="userSpaceOnUse" x1="297.29" x2="297.29" xlink:href="#lg2" y1="320.861" y2="186.229"/><linearGradient id="lg3"><stop offset="0" stop-color="#8ac9fe" stop-opacity="0"/><stop offset=".1291" stop-color="#89c8fd" stop-opacity=".019"/><stop offset=".2629" stop-color="#88c6fb" stop-opacity=".075"/><stop offset=".3989" stop-color="#87c4f8" stop-opacity=".168"/><stop offset=".5365" stop-color="#85c0f4" stop-opacity=".298"/><stop offset=".6753" stop-color="#83bbef" stop-opacity=".466"/><stop offset=".8151" stop-color="#7fb5e9" stop-opacity=".672"/><stop offset=".9532" stop-color="#7caee1" stop-opacity=".911"/><stop offset="1" stop-color="#7bacdf"/></linearGradient><linearGradient id="SVGID_00000131335315736306590520000000783051753385837450_" gradientTransform="matrix(1 0 0 -1 0 514)" gradientUnits="userSpaceOnUse" x1="319.693" x2="338.289" xlink:href="#lg3" y1="257.832" y2="257.832"/><linearGradient id="SVGID_00000154395802400553162490000009135796955866956698_" gradientTransform="matrix(1 0 0 -1 0 514)" gradientUnits="userSpaceOnUse" x1="297.29" x2="297.29" xlink:href="#lg3" y1="216.782" y2="196.437"/><linearGradient id="SVGID_00000181048624633606395470000017085963818567426204_" gradientTransform="matrix(1 0 0 -1 0 514)" gradientUnits="userSpaceOnUse" x1="397.732" x2="397.732" xlink:href="#lg2" y1="320.861" y2="186.229"/><linearGradient id="SVGID_00000167394905183167395880000013943218594908399034_" gradientTransform="matrix(1 0 0 -1 0 514)" gradientUnits="userSpaceOnUse" x1="411.768" x2="439.927" xlink:href="#lg3" y1="276.612" y2="270.197"/><linearGradient id="SVGID_00000067953175870833536970000001779306202029894315_" gradientTransform="matrix(1 0 0 -1 0 514)" gradientUnits="userSpaceOnUse" x1="368.661" x2="368.661" xlink:href="#lg3" y1="213.218" y2="197.036"/><linearGradient id="SVGID_00000019636895718243962470000013698063191246171025_" gradientTransform="matrix(1 0 0 -1 0 514)" gradientUnits="userSpaceOnUse" x1="86.574" x2="414.143" xlink:href="#lg2" y1="427.426" y2="99.857"/><linearGradient id="SVGID_00000127754609109255088520000015313176369587113880_" gradientTransform="matrix(1 0 0 -1 0 514)" gradientUnits="userSpaceOnUse" x1="204.345" x2="204.345" xlink:href="#lg3" y1="214.644" y2="194.632"/><linearGradient id="SVGID_00000122712404534815541340000017840344281629334952_" gradientTransform="matrix(1 0 0 -1 0 514)" gradientUnits="userSpaceOnUse" x1="229.515" x2="250.006" xlink:href="#lg3" y1="308.138" y2="308.138"/><linearGradient id="SVGID_00000142162948382972199880000011104870977351243441_" gradientTransform="matrix(1 0 0 -1 0 514)" gradientUnits="userSpaceOnUse" x1="110.777" x2="105.43" xlink:href="#lg3" y1="212.854" y2="193.607"/><linearGradient id="SVGID_00000117663507244692602310000018062790408692472976_" gradientTransform="matrix(1 0 0 -1 0 514)" gradientUnits="userSpaceOnUse" x1="122.117" x2="134.948" xlink:href="#lg3" y1="216.216" y2="197.325"/><linearGradient id="SVGID_00000082363109211540460560000017922905634770402701_" gradientTransform="matrix(1 0 0 -1 0 514)" gradientUnits="userSpaceOnUse" x1="132.396" x2="152" xlink:href="#lg3" y1="303.555" y2="293.932"/><g><g><g><path d="m348.2 24.7h-184.4c-25.6 0-49.2 13.6-62 35.8l-92.2 159.7c-12.8 22.1-12.8 49.4 0 71.6l92.2 159.7c12.8 22.1 36.4 35.8 62 35.8h184.4c25.6 0 49.2-13.6 62-35.8l92.2-159.7c12.8-22.1 12.8-49.4 0-71.6l-92.2-159.7c-12.8-22.2-36.4-35.8-62-35.8z" fill="url(#SVGID_1_)"/><path d="m8.3 289.5c.4.8.8 1.5 1.3 2.3l92.2 159.7c12.8 22.1 36.4 35.8 62 35.8h184.4c25.6 0 49.2-13.6 62-35.8l92.2-159.7c.4-.8.9-1.5 1.3-2.3z" fill="url(#SVGID_00000169558483163060116640000011153990016735130757_)"/><path d="m348.2 487.3c25.6 0 49.2-13.6 62-35.8l92.2-159.7c12.8-22.1 12.8-49.4 0-71.6l-92.2-159.7c-7.5-13-18.8-23.1-31.9-29.2l-329.1 329.1 52.6 91.1c12.8 22.1 36.4 35.8 62 35.8z" fill="url(#SVGID_00000158018670914756047820000006081033760700129702_)"/><path d="m348.2 24.7c25.6 0 49.2 13.6 62 35.8l92.2 159.7c12.8 22.1 12.8 49.4 0 71.6l-92.2 159.7c-7.5 13-18.8 23.1-31.9 29.2l-329.1-329.1 52.6-91.1c12.8-22.1 36.4-35.8 62-35.8z" fill="url(#SVGID_00000026128690515850128200000005018798239972034494_)"/></g><g><path d="m166.4 456.5c-16.1 0-31.1-8.7-39.2-22.6l-89.6-155.3c-8.1-14-8.1-31.3 0-45.2l89.6-155.2c8.1-14 23.1-22.6 39.2-22.6h179.3c16.1 0 31.1 8.7 39.2 22.6l89.6 155.2c8.1 14 8.1 31.3 0 45.2l-89.6 155.2c-8.1 14-23.1 22.6-39.2 22.6z" fill="url(#SVGID_00000104684133129156726850000005352335152561857215_)"/><path d="m166.4 456.5c-16.1 0-31.1-8.7-39.2-22.6l-89.6-155.3c-8.1-14-8.1-31.3 0-45.2l89.6-155.2c8.1-14 23.1-22.6 39.2-22.6h179.3c16.1 0 31.1 8.7 39.2 22.6l89.6 155.2c8.1 14 8.1 31.3 0 45.2l-89.6 155.2c-8.1 14-23.1 22.6-39.2 22.6z" fill="url(#SVGID_00000089566731125872104750000015541053345619501991_)"/><path d="m166.4 456.5c-16.1 0-31.1-8.7-39.2-22.6l-89.6-155.3c-8.1-14-8.1-31.3 0-45.2l89.6-155.2c8.1-14 23.1-22.6 39.2-22.6h179.3c16.1 0 31.1 8.7 39.2 22.6l89.6 155.2c8.1 14 8.1 31.3 0 45.2l-89.6 155.2c-8.1 14-23.1 22.6-39.2 22.6z" fill="url(#SVGID_00000141443854353971979830000011676609481336677291_)"/><path d="m480.4 254.7c.2 8.2-1.8 16.5-6 23.9l-55.7 96.4-61.1-61.1v-48.2l15.5-13c5.2 6.2 13 10.1 21.7 10.1 15.7 0 28.5-12.8 28.5-28.5 0-6.9-2.5-13.2-6.6-18.2l13.6-11.4z" fill="url(#SVGID_00000172401406206252218790000017316016111793755017_)"/><path d="m245.6 196-39.9 25v81l-12.3 12 142.4 142.4h9.7c16.1 0 31.1-8.7 39.2-22.6l36.1-62.5z" fill="url(#SVGID_00000074427340485790144100000007145046877643665316_)"/><path d="m448 324.4-118.6-118.6-11 17.6c1.7 3.3 2.6 7 2.6 10.9v43.7c0 13.1-10.6 23.8-23.8 23.8-8.8 0-16.4-4.7-20.5-11.8l-10.9 17.4 121.8 121.6z" fill="url(#SVGID_00000168814777907390302890000009406357895437641658_)"/></g></g><circle cx="394.9" cy="234.3" fill="url(#SVGID_00000021115042673654633470000007064437693798695849_)" r="28.5"/><circle cx="394.9" cy="234.3" fill="url(#SVGID_00000080194252289653287010000001817715876266569616_)" r="28.5"/><path d="m297.3 210.5c13.1 0 23.8 10.6 23.8 23.8v43.7c0 13.1-10.6 23.8-23.8 23.8-13.1 0-23.8-10.6-23.8-23.8v-43.7c0-13.1 10.7-23.8 23.8-23.8z" fill="url(#SVGID_00000108289155211946586390000012590305667624014258_)"/><path d="m297.3 210.5c13.1 0 23.8 10.6 23.8 23.8v43.7c0 13.1-10.6 23.8-23.8 23.8-13.1 0-23.8-10.6-23.8-23.8v-43.7c0-13.1 10.7-23.8 23.8-23.8z" fill="url(#SVGID_00000028291386386987108760000012966307251756859566_)"/><path d="m149.1 201.2h-28.5c-13 0-23.6 10.6-23.6 23.6 0 6.3 2.5 12.3 6.9 16.7l30.2 30.2c3.9 3.9 6.1 9.2 6.1 14.7 0 11.5-9.3 20.8-20.8 20.8h-42.4l149.3 149.3h119.3c15.4 0 29.7-7.9 38-20.8z" fill="url(#SVGID_00000112597131860253731070000016784912239940830133_)"/><path d="m149.1 201.2h-28.5c-13 0-23.6 10.6-23.6 23.6 0 6.3 2.5 12.3 6.9 16.7l30.2 30.2c3.9 3.9 6.1 9.2 6.1 14.7 0 11.5-9.3 20.8-20.8 20.8h-42.4l149.3 149.3h119.3c15.4 0 29.7-7.9 38-20.8z" fill="url(#SVGID_00000062164961328950958940000017620394207609970863_)"/><path d="m163.4 215.9 31.6 31.6v-31.6z" fill="url(#SVGID_00000057134851514738606910000012049363894512860313_)"/><g><path d="m112.2 295.4c1.9 0 3.8-.2 5.8-.6s3.7-1 5.3-1.9 2.8-2 3.8-3.5c1-1.4 1.4-3.1 1.4-5.1 0-3.4-1.3-6.2-4-8.5-2.6-2.3-5.9-4.4-9.9-6.4-3.9-2-8.2-4-12.9-6.1s-9-4.6-12.9-7.7c-3.9-3-7.2-6.7-9.9-11.1-2.6-4.4-4-9.9-4-16.5 0-6.3 1.3-11.7 3.8-16.1s5.8-8 9.9-10.8c4-2.8 8.7-4.8 13.8-6.1 5.2-1.3 10.4-1.9 15.7-1.9 2.2 0 5.3.2 9 .5 3.8.3 7.5 1 11.1 2s6.8 2.5 9.4 4.5 4 4.6 4 7.8c0 1.1-.2 2.5-.6 4-.4 1.6-1 3.1-1.9 4.6-.8 1.5-1.9 2.7-3.3 3.7-1.3 1-2.9 1.5-4.7 1.5-1.6 0-3-.3-4.3-1s-2.8-1.4-4.4-2.2-3.6-1.5-5.8-2.2-5.1-1-8.6-1c-6.1 0-10.4 1-13 3.1s-3.9 4.4-3.9 7c0 2.8 1.3 5.2 4 7.1 2.6 1.9 5.9 3.8 9.9 5.6 3.9 1.8 8.2 3.7 12.9 5.8s9 4.7 12.9 8 7.2 7.2 9.9 12c2.6 4.7 4 10.6 4 17.7 0 6.1-1 11.4-3.1 16.1s-5 8.6-8.8 11.7-8.2 5.5-13.4 7.2c-5.2 1.6-10.8 2.4-16.9 2.4-5.5 0-10.7-.6-15.7-1.9-4.9-1.2-9.3-2.9-13-4.9s-6.6-4.4-8.8-7c-2.1-2.6-3.2-5.4-3.2-8.2 0-1.5.3-3 .9-4.6s1.4-3.1 2.4-4.6c1-1.4 2.2-2.6 3.6-3.5 1.4-1 2.9-1.4 4.5-1.4 2 0 3.9.6 5.6 1.9s3.6 2.7 5.7 4.3 4.5 3 7.2 4.3c3.2 1.3 6.5 2 10.5 2z" fill="url(#SVGID_00000084509062414918587350000008198714662491092917_)"/><path d="m240.7 194.1c2.8 0 4.8 1.2 6.1 3.7 1.2 2.5 1.9 5.1 1.9 7.9 0 3.3-.7 6.1-2 8.4-1.3 2.4-3.3 3.5-5.9 3.5h-23.3v91.5c0 2.7-1.4 4.7-4.1 6.1-2.8 1.3-5.8 2-9 2-3.3 0-6.3-.7-9-2-2.8-1.3-4.1-3.4-4.1-6.1v-91.5h-23.3c-2.6 0-4.6-1.2-5.9-3.5-1.3-2.4-2-5.2-2-8.4 0-2.8.6-5.4 1.9-7.9 1.2-2.5 3.3-3.7 6.1-3.7z" fill="url(#SVGID_00000174562604408086860520000015136249849995192710_)"/><path d="m297.2 318.3c-5.8 0-11.3-.7-16.3-2.1s-9.4-3.7-13.1-6.9-6.6-7.3-8.8-12.3c-2.1-5-3.2-11.1-3.2-18.5v-44.7c0-7.2 1.1-13.3 3.2-18.4s5.1-9.2 8.8-12.4 8.1-5.5 13.1-6.9 10.4-2.1 16.3-2.1c5.8 0 11.3.7 16.3 2.1 5.1 1.4 9.4 3.7 13.1 6.9s6.6 7.3 8.8 12.4c2.1 5.1 3.2 11.2 3.2 18.4v44.7c0 7.3-1.1 13.5-3.2 18.5s-5.1 9.1-8.8 12.3-8.1 5.5-13.1 6.9-10.5 2.1-16.3 2.1zm15.2-84.5c0-5.8-1.3-10.1-4-12.8s-6.4-4-11.1-4-8.4 1.3-11 4-4 7-4 12.8v44.7c0 5.8 1.3 10.1 4 12.8 2.6 2.7 6.3 4 11 4s8.4-1.3 11.1-4 4-7 4-12.8z" fill="url(#SVGID_00000004546351587373099280000007729855609486626730_)"/><path d="m297.2 318.3c-5.8 0-11.3-.7-16.3-2.1s-9.4-3.7-13.1-6.9-6.6-7.3-8.8-12.3c-2.1-5-3.2-11.1-3.2-18.5v-44.7c0-7.2 1.1-13.3 3.2-18.4s5.1-9.2 8.8-12.4 8.1-5.5 13.1-6.9 10.4-2.1 16.3-2.1c5.8 0 11.3.7 16.3 2.1 5.1 1.4 9.4 3.7 13.1 6.9s6.6 7.3 8.8 12.4c2.1 5.1 3.2 11.2 3.2 18.4v44.7c0 7.3-1.1 13.5-3.2 18.5s-5.1 9.1-8.8 12.3-8.1 5.5-13.1 6.9-10.5 2.1-16.3 2.1zm15.2-84.5c0-5.8-1.3-10.1-4-12.8s-6.4-4-11.1-4-8.4 1.3-11 4-4 7-4 12.8v44.7c0 5.8 1.3 10.1 4 12.8 2.6 2.7 6.3 4 11 4s8.4-1.3 11.1-4 4-7 4-12.8z" fill="url(#SVGID_00000131335315736306590520000000783051753385837450_)"/><path d="m297.2 318.3c-5.8 0-11.3-.7-16.3-2.1s-9.4-3.7-13.1-6.9-6.6-7.3-8.8-12.3c-2.1-5-3.2-11.1-3.2-18.5v-44.7c0-7.2 1.1-13.3 3.2-18.4s5.1-9.2 8.8-12.4 8.1-5.5 13.1-6.9 10.4-2.1 16.3-2.1c5.8 0 11.3.7 16.3 2.1 5.1 1.4 9.4 3.7 13.1 6.9s6.6 7.3 8.8 12.4c2.1 5.1 3.2 11.2 3.2 18.4v44.7c0 7.3-1.1 13.5-3.2 18.5s-5.1 9.1-8.8 12.3-8.1 5.5-13.1 6.9-10.5 2.1-16.3 2.1zm15.2-84.5c0-5.8-1.3-10.1-4-12.8s-6.4-4-11.1-4-8.4 1.3-11 4-4 7-4 12.8v44.7c0 5.8 1.3 10.1 4 12.8 2.6 2.7 6.3 4 11 4s8.4-1.3 11.1-4 4-7 4-12.8z" fill="url(#SVGID_00000154395802400553162490000009135796955866956698_)"/><path d="m355.5 202c0-2.1.9-4 2.7-5.6s4.2-2.4 7.1-2.4h34.9c5.5 0 10.7.7 15.6 2.1s9.1 3.6 12.6 6.7 6.3 7 8.4 12c2.1 4.9 3.1 11 3.1 18v.8c0 7.1-1.1 13.1-3.2 18s-5.1 9-8.8 12.1-8.1 5.4-13.1 6.8c-5.1 1.4-10.5 2.1-16.3 2.1h-16.7v36.4c0 2.7-1.4 4.7-4.1 6.1-2.8 1.3-5.8 2-9 2-3.3 0-6.3-.7-9-2-2.8-1.3-4.1-3.4-4.1-6.1zm26.3 15v35.6h16.7c4.7 0 8.4-1.4 11.1-4.1 2.7-2.8 4-7 4-12.7v-1.9c0-5.7-1.3-10-4-12.7-2.7-2.8-6.4-4.1-11.1-4.1h-16.7z" fill="url(#SVGID_00000181048624633606395470000017085963818567426204_)"/><path d="m414.8 270.7c5.1-1.4 9.4-3.7 13.1-6.8s6.6-7.2 8.8-12.1c2.1-4.9 3.2-11 3.2-18v-.8c0-7.1-1-13.1-3.1-18s-4.9-8.9-8.4-12c-3.5-3-7.8-5.3-12.6-6.7-4.9-1.4-10.1-2.1-15.6-2.1h-18.4v22.8h16.7c4.7 0 8.4 1.4 11.1 4.1 2.7 2.8 4 7 4 12.7v1.9c0 5.7-1.3 10-4 12.7-2.7 2.8-6.4 4.1-11.1 4.1h-16.7v20.2h16.7c5.8.1 11.3-.6 16.3-2z" fill="url(#SVGID_00000167394905183167395880000013943218594908399034_)"/><path d="m355.5 309.2c0 2.7 1.4 4.7 4.1 6.1 2.8 1.3 5.8 2 9 2 3.3 0 6.3-.7 9-2 2.8-1.3 4.1-3.4 4.1-6.1v-36.4h-26.3v36.4z" fill="url(#SVGID_00000067953175870833536970000001779306202029894315_)"/></g><path d="m345.6 464h-179.2c-18.8 0-36.3-10.1-45.7-26.4l-89.6-155.2c-9.4-16.3-9.4-36.5 0-52.7l89.6-155.2c9.4-16.3 26.9-26.4 45.7-26.4h179.3c18.8 0 36.3 10.1 45.7 26.4l89.6 155.2c9.4 16.3 9.4 36.5 0 52.7l-89.6 155.2c-9.5 16.3-27 26.4-45.8 26.4zm-179.2-401c-13.4 0-26 7.2-32.7 18.9l-89.6 155.2c-6.7 11.6-6.7 26.1 0 37.7l89.6 155.2c6.7 11.6 19.2 18.9 32.7 18.9h179.3c13.4 0 26-7.2 32.7-18.9l89.6-155.2c6.7-11.6 6.7-26.1 0-37.7l-89.7-155.2c-6.7-11.6-19.2-18.9-32.7-18.9z" fill="url(#SVGID_00000019636895718243962470000013698063191246171025_)"/><path d="m191.2 259.3v49.9c0 2.7 1.4 4.7 4.1 6.1 2.8 1.3 5.8 2 9 2 3.3 0 6.3-.7 9-2 2.8-1.3 4.1-3.4 4.1-6.1v-49.9z" fill="url(#SVGID_00000127754609109255088520000015313176369587113880_)"/><path d="m246.6 214.1c1.3-2.4 2-5.2 2-8.4 0-2.8-.6-5.4-1.9-7.9-1.2-2.5-3.3-3.7-6.1-3.7h-23.3v23.6h23.3c2.7 0 4.7-1.2 6-3.6z" fill="url(#SVGID_00000122712404534815541340000017840344281629334952_)"/><path d="m101.8 263.2c4.7 2.1 9 4.1 12.9 6.1s7.2 4.1 9.9 6.4c2.6 2.3 4 5.1 4 8.5 0 2-.5 3.7-1.4 5.1-1 1.4-2.2 2.6-3.8 3.5s-3.3 1.5-5.3 1.9-3.9.6-5.8.6c-3.9 0-7.3-.6-10-1.9-2.8-1.3-5.2-2.7-7.2-4.3-2.1-1.6-4-3-5.7-4.3s-3.6-1.9-5.6-1.9c-1.6 0-3.1.5-4.5 1.4-1.4 1-2.6 2.1-3.6 3.5s-1.8 2.9-2.4 4.6c-.6 1.6-.9 3.2-.9 4.6 0 2.8 1.1 5.5 3.2 8.2 2.1 2.6 5.1 5 8.8 7s8 3.7 13 4.9c4.9 1.2 10.2 1.9 15.7 1.9 6.1 0 11.7-.8 16.9-2.4s9.6-4 13.4-7.2c3.8-3.1 6.7-7 8.8-11.7s3.1-10 3.1-16.1c0-7.1-1.3-13-4-17.7-1.6-2.8-3.4-5.4-5.4-7.7h-56.2c3.7 2.7 7.7 5.1 12.1 7z" fill="url(#SVGID_00000142162948382972199880000011104870977351243441_)"/><path d="m101.8 263.2c4.7 2.1 9 4.1 12.9 6.1s7.2 4.1 9.9 6.4c2.6 2.3 4 5.1 4 8.5 0 2-.5 3.7-1.4 5.1-1 1.4-2.2 2.6-3.8 3.5s-3.3 1.5-5.3 1.9-3.9.6-5.8.6c-3.9 0-7.3-.6-10-1.9-2.8-1.3-5.2-2.7-7.2-4.3-2.1-1.6-4-3-5.7-4.3s-3.6-1.9-5.6-1.9c-1.6 0-3.1.5-4.5 1.4-1.4 1-2.6 2.1-3.6 3.5s-1.8 2.9-2.4 4.6c-.6 1.6-.9 3.2-.9 4.6 0 2.8 1.1 5.5 3.2 8.2 2.1 2.6 5.1 5 8.8 7s8 3.7 13 4.9c4.9 1.2 10.2 1.9 15.7 1.9 6.1 0 11.7-.8 16.9-2.4s9.6-4 13.4-7.2c3.8-3.1 6.7-7 8.8-11.7s3.1-10 3.1-16.1c0-7.1-1.3-13-4-17.7-1.6-2.8-3.4-5.4-5.4-7.7h-56.2c3.7 2.7 7.7 5.1 12.1 7z" fill="url(#SVGID_00000117663507244692602310000018062790408692472976_)"/><path d="m147.8 200c-2.6-2-5.8-3.5-9.4-4.5-3.7-1-7.4-1.7-11.1-2-3.8-.3-6.8-.5-9-.5-3.4 0-6.9.3-10.3.8v23c2.6-1 6-1.6 10.3-1.6 3.5 0 6.3.3 8.6 1 2.2.7 4.2 1.4 5.8 2.2s3.1 1.5 4.4 2.2 2.7 1 4.3 1c1.8 0 3.4-.5 4.7-1.5s2.4-2.2 3.3-3.7c.8-1.5 1.5-3 1.9-4.6s.6-2.9.6-4c-.1-3.2-1.5-5.8-4.1-7.8z" fill="url(#SVGID_00000082363109211540460560000017922905634770402701_)"/></g></svg>