<svg id="Capa_1" enable-background="new 0 0 510 510" height="512" viewBox="0 0 510 510" width="512" xmlns="http://www.w3.org/2000/svg" xmlns:xlink="http://www.w3.org/1999/xlink"><linearGradient id="lg1"><stop offset="0" stop-color="#6e61b6"/><stop offset="1" stop-color="#433f43"/></linearGradient><linearGradient id="SVGID_1_" gradientUnits="userSpaceOnUse" x1="255" x2="255" xlink:href="#lg1" y1="428.113" y2="486.466"/><linearGradient id="SVGID_00000086653273101432911870000005278117645877702276_" gradientUnits="userSpaceOnUse" x1="255" x2="255" xlink:href="#lg1" y1="2.799" y2="61.151"/><linearGradient id="SVGID_00000095298991739068232000000012968341609198429085_" gradientUnits="userSpaceOnUse" x1="255" x2="255" xlink:href="#lg1" y1="357.227" y2="415.579"/><linearGradient id="SVGID_00000146492032011641602750000005712537629442918030_" gradientUnits="userSpaceOnUse" x1="255" x2="255" xlink:href="#lg1" y1="286.342" y2="344.694"/><linearGradient id="SVGID_00000127761739949183748520000005654972422301874096_" gradientUnits="userSpaceOnUse" x1="255" x2="255" xlink:href="#lg1" y1="73.685" y2="132.037"/><linearGradient id="SVGID_00000161629579038988930480000005308253617338911879_" gradientUnits="userSpaceOnUse" x1="255" x2="255" xlink:href="#lg1" y1="144.571" y2="202.923"/><linearGradient id="SVGID_00000183221430094061216430000004608239958851183768_" gradientUnits="userSpaceOnUse" x1="255" x2="255" xlink:href="#lg1" y1="215.457" y2="273.809"/><linearGradient id="lg2"><stop offset="0" stop-color="#d5daf3"/><stop offset="1" stop-color="#60b7ff"/></linearGradient><linearGradient id="SVGID_00000076577894936867408070000006221181582574880191_" gradientUnits="userSpaceOnUse" x1="389.001" x2="464.313" xlink:href="#lg2" y1="255" y2="255"/><linearGradient id="lg3"><stop offset="0" stop-color="#528fd8" stop-opacity="0"/><stop offset=".214" stop-color="#4e8dd7" stop-opacity=".214"/><stop offset=".4386" stop-color="#4187d5" stop-opacity=".439"/><stop offset=".6681" stop-color="#2c7dd0" stop-opacity=".668"/><stop offset=".8995" stop-color="#0f6fc9" stop-opacity=".9"/><stop offset="1" stop-color="#0067c5"/></linearGradient><linearGradient id="SVGID_00000052082445996245580370000009113556297153657224_" gradientUnits="userSpaceOnUse" x1="449.417" x2="449.417" xlink:href="#lg3" y1="443" y2="495"/><linearGradient id="SVGID_00000033332297784431014820000003614422796059651514_" gradientUnits="userSpaceOnUse" x1="51.857" x2="118.129" xlink:href="#lg2" y1="255" y2="255"/><linearGradient id="SVGID_00000103979087625874742330000008584709864404353955_" gradientTransform="matrix(-1 0 0 1 894.142 0)" gradientUnits="userSpaceOnUse" x1="833.559" x2="833.559" xlink:href="#lg3" y1="443" y2="495"/><linearGradient id="lg4"><stop offset="0" stop-color="#bbec6c"/><stop offset="1" stop-color="#78a91f"/></linearGradient><linearGradient id="SVGID_00000013152845649362028820000012376301443019890061_" gradientUnits="userSpaceOnUse" x1="21.133" x2="50.133" xlink:href="#lg4" y1="190.699" y2="287.699"/><linearGradient id="SVGID_00000160183549469463476810000006640202838913070755_" gradientUnits="userSpaceOnUse" x1="444.081" x2="505.578" xlink:href="#lg4" y1="215.096" y2="311.091"/><g><path d="m408.637 481.138h-307.274c-7.445 0-13.481-6.036-13.481-13.481 0-7.445 6.036-13.481 13.481-13.481h307.273c7.445 0 13.481 6.036 13.481 13.481.001 7.445-6.035 13.481-13.48 13.481z" fill="url(#SVGID_1_)"/><path d="m353.485 55.824h-196.97c-7.445 0-13.481-6.036-13.481-13.481 0-7.445 6.036-13.481 13.481-13.481h196.97c7.445 0 13.481 6.036 13.481 13.481 0 7.445-6.036 13.481-13.481 13.481z" fill="url(#SVGID_00000086653273101432911870000005278117645877702276_)"/><g><path d="m371.792 410.252h-233.584c-7.445 0-13.481-6.036-13.481-13.481 0-7.445 6.036-13.481 13.481-13.481h233.585c7.445 0 13.481 6.036 13.481 13.481-.001 7.445-6.036 13.481-13.482 13.481z" fill="url(#SVGID_00000095298991739068232000000012968341609198429085_)"/><path d="m387.32 339.366h-264.64c-7.445 0-13.481-6.036-13.481-13.481 0-7.445 6.036-13.481 13.481-13.481h264.64c7.445 0 13.481 6.036 13.481 13.481-.001 7.446-6.036 13.481-13.481 13.481z" fill="url(#SVGID_00000146492032011641602750000005712537629442918030_)"/><path d="m372.757 126.71h-235.514c-7.445 0-13.481-6.036-13.481-13.481 0-7.445 6.036-13.481 13.481-13.481h235.514c7.445 0 13.481 6.036 13.481 13.481 0 7.445-6.036 13.481-13.481 13.481z" fill="url(#SVGID_00000127761739949183748520000005654972422301874096_)"/><path d="m372.757 197.595h-235.514c-7.445 0-13.481-6.036-13.481-13.481 0-7.445 6.036-13.481 13.481-13.481h235.514c7.445 0 13.481 6.036 13.481 13.481 0 7.446-6.036 13.481-13.481 13.481z" fill="url(#SVGID_00000161629579038988930480000005308253617338911879_)"/><path d="m335.347 268.481h-160.694c-7.445 0-13.481-6.036-13.481-13.481 0-7.445 6.036-13.481 13.481-13.481h160.694c7.445 0 13.481 6.036 13.481 13.481 0 7.445-6.036 13.481-13.481 13.481z" fill="url(#SVGID_00000183221430094061216430000004608239958851183768_)"/><g><g><path d="m465.878 449.146c-19.836-51.588-30.76-120.537-30.76-194.146s10.924-142.557 30.76-194.146c5.154-13.405 10.794-25.202 16.725-35.165 6.747-11.331-1.396-25.689-14.585-25.689-6.011 0-11.55 3.187-14.631 8.347-6.962 11.66-13.409 25.127-19.245 40.305-21.296 55.388-33.024 128.67-33.024 206.348s11.729 150.96 33.024 206.348c5.836 15.178 12.283 28.645 19.245 40.305 3.081 5.161 8.62 8.347 14.631 8.347 13.189 0 21.332-14.358 14.585-25.69-5.931-9.963-11.571-21.76-16.725-35.164z" fill="url(#SVGID_00000076577894936867408070000006221181582574880191_)"/><path d="m434.142 461.348c5.836 15.178 12.283 28.645 19.245 40.305 3.081 5.161 8.62 8.347 14.631 8.347 13.189 0 21.332-14.358 14.585-25.69-5.931-9.963-11.571-21.76-16.725-35.165-6.897-17.937-12.713-37.976-17.37-59.577h-34.7c5.255 26.093 12.071 50.288 20.334 71.78z" fill="url(#SVGID_00000052082445996245580370000009113556297153657224_)"/></g><g><path d="m44.122 449.146c19.836-51.589 30.76-120.538 30.76-194.146s-10.924-142.557-30.76-194.146c-5.154-13.404-10.794-25.201-16.725-35.164-6.747-11.332 1.396-25.69 14.585-25.69 6.011 0 11.55 3.187 14.631 8.347 6.962 11.66 13.409 25.127 19.245 40.305 21.296 55.388 33.024 128.67 33.024 206.348s-11.728 150.96-33.024 206.348c-5.836 15.178-12.283 28.645-19.245 40.305-3.081 5.161-8.62 8.347-14.631 8.347-13.189 0-21.332-14.358-14.585-25.69 5.931-9.963 11.571-21.76 16.725-35.164z" fill="url(#SVGID_00000033332297784431014820000003614422796059651514_)"/><path d="m75.858 461.348c-5.836 15.178-12.283 28.645-19.245 40.305-3.081 5.161-8.62 8.347-14.631 8.347-13.189 0-21.332-14.358-14.585-25.69 5.931-9.963 11.571-21.76 16.725-35.165 6.897-17.937 12.713-37.976 17.37-59.577h34.7c-5.255 26.093-12.071 50.288-20.334 71.78z" fill="url(#SVGID_00000103979087625874742330000008584709864404353955_)"/></g></g><g><path d="m7.5 262.495h47.605l-25.678 25.678c-2.905 2.905-3.199 7.676-.383 10.666 2.914 3.095 7.787 3.15 10.761.166l38.71-38.7c2.93-2.93 2.93-7.68 0-10.61l-38.71-38.7c-2.973-2.983-7.844-2.929-10.758.163-2.816 2.987-2.523 7.756.38 10.659l25.678 25.678h-47.605c-4.142 0-7.5 3.358-7.5 7.5 0 4.142 3.358 7.5 7.5 7.5z" fill="url(#SVGID_00000013152845649362028820000012376301443019890061_)"/><path d="m502.5 262.495h-47.605l25.678 25.678c2.905 2.905 3.199 7.676.383 10.666-2.914 3.095-7.787 3.15-10.761.166l-38.71-38.7c-2.93-2.93-2.93-7.68 0-10.61l38.71-38.7c2.973-2.983 7.844-2.929 10.758.163 2.816 2.987 2.523 7.756-.38 10.659l-25.678 25.678h47.605c4.142 0 7.5 3.358 7.5 7.5 0 4.142-3.358 7.5-7.5 7.5z" fill="url(#SVGID_00000160183549469463476810000006640202838913070755_)"/></g></g></g></svg>