<svg id="Capa_1" enable-background="new 0 0 510 510" height="512" viewBox="0 0 510 510" width="512" xmlns="http://www.w3.org/2000/svg" xmlns:xlink="http://www.w3.org/1999/xlink"><linearGradient id="lg1"><stop offset="0" stop-color="#fef0ae"/><stop offset="1" stop-color="#fac600"/></linearGradient><linearGradient id="SVGID_1_" gradientTransform="matrix(0 1 1 0 2488.191 -2032.877)" gradientUnits="userSpaceOnUse" x1="2205.233" x2="2348.241" xlink:href="#lg1" y1="-2133.519" y2="-1990.511"/><linearGradient id="lg2"><stop offset="0" stop-color="#fea613" stop-opacity="0"/><stop offset=".2032" stop-color="#fda215" stop-opacity=".203"/><stop offset=".4052" stop-color="#fb961b" stop-opacity=".405"/><stop offset=".6066" stop-color="#f68225" stop-opacity=".607"/><stop offset=".8066" stop-color="#f06633" stop-opacity=".807"/><stop offset="1" stop-color="#e94444"/></linearGradient><linearGradient id="SVGID_00000080923540859825819200000000809449720114112914_" gradientTransform="matrix(0 1 1 0 2488.191 -2032.877)" gradientUnits="userSpaceOnUse" x1="2287.877" x2="2287.877" xlink:href="#lg2" y1="-2049.169" y2="-2031.123"/><linearGradient id="SVGID_00000029005905322923574650000008140252907431613865_" gradientTransform="matrix(-1 0 0 1 -1647.221 640.535)" gradientUnits="userSpaceOnUse" x1="-2084.537" x2="-2084.537" xlink:href="#lg2" y1="-206.788" y2="-134.11"/><linearGradient id="SVGID_00000165935419161261758780000005651642111415206028_" gradientTransform="matrix(0 1 1 0 2488.191 -2032.877)" gradientUnits="userSpaceOnUse" x1="2205.233" x2="2348.241" xlink:href="#lg1" y1="-2498.151" y2="-2355.143"/><linearGradient id="SVGID_00000102530824032890033760000016169354544340454050_" gradientTransform="matrix(0 1 1 0 2488.191 -2032.877)" gradientUnits="userSpaceOnUse" x1="2287.877" x2="2287.877" xlink:href="#lg2" y1="-2413.801" y2="-2395.754"/><linearGradient id="SVGID_00000106840487600764115630000010939921163236322210_" gradientTransform="matrix(-1 0 0 1 -1647.221 640.535)" gradientUnits="userSpaceOnUse" x1="-1719.905" x2="-1719.905" xlink:href="#lg2" y1="-206.788" y2="-134.11"/><linearGradient id="lg3"><stop offset="0" stop-color="#d9b1ee"/><stop offset=".1228" stop-color="#dba3e3"/><stop offset=".3507" stop-color="#e381c8"/><stop offset=".6587" stop-color="#ef499b"/><stop offset="1" stop-color="#fe0364"/></linearGradient><linearGradient id="SVGID_00000045613138125585157050000014593200652946088072_" gradientUnits="userSpaceOnUse" x1="21.133" x2="50.133" xlink:href="#lg3" y1="190.699" y2="287.699"/><linearGradient id="SVGID_00000036957857942977317350000005666429702102397086_" gradientUnits="userSpaceOnUse" x1="444.081" x2="505.578" xlink:href="#lg3" y1="215.096" y2="311.091"/><linearGradient id="lg4"><stop offset="0" stop-color="#6e61b6"/><stop offset="1" stop-color="#433f43"/></linearGradient><linearGradient id="SVGID_00000011019595795112741540000010211187486279739541_" gradientUnits="userSpaceOnUse" x1="255" x2="255" xlink:href="#lg4" y1="428.113" y2="486.465"/><linearGradient id="SVGID_00000162352905196696325810000009464248476370795942_" gradientUnits="userSpaceOnUse" x1="255" x2="255" xlink:href="#lg4" y1="357.227" y2="415.58"/><linearGradient id="SVGID_00000080178897668212889640000015924234908021627835_" gradientUnits="userSpaceOnUse" x1="255" x2="255" xlink:href="#lg4" y1="286.342" y2="344.694"/><linearGradient id="SVGID_00000027595381026460878000000003772600520529610889_" gradientUnits="userSpaceOnUse" x1="255" x2="255" xlink:href="#lg4" y1="215.456" y2="273.808"/><linearGradient id="SVGID_00000044874250883346073500000013269477989786097834_" gradientUnits="userSpaceOnUse" x1="255" x2="255" xlink:href="#lg4" y1="144.57" y2="202.923"/><linearGradient id="SVGID_00000124131865190008913000000015295722319354919593_" gradientUnits="userSpaceOnUse" x1="255" x2="255" xlink:href="#lg4" y1="73.685" y2="132.037"/><linearGradient id="SVGID_00000052097948265466188300000015921439775115378605_" gradientUnits="userSpaceOnUse" x1="255" x2="255" xlink:href="#lg4" y1="2.799" y2="61.152"/><g><g><g><path d="m455.242 494.901v-479.802c0-8.339-6.76-15.099-15.099-15.099h-5.653c-8.339 0-15.099 6.76-15.099 15.099v479.802c0 8.339 6.76 15.099 15.099 15.099h5.653c8.339 0 15.099-6.76 15.099-15.099z" fill="url(#SVGID_1_)"/><g><path d="m436.407 0h3.735c8.339 0 15.099 6.76 15.099 15.099v479.802c0 8.339-6.76 15.099-15.099 15.099h-3.735z" fill="url(#SVGID_00000080923540859825819200000000809449720114112914_)"/><path d="m455.242 304.895v190.006c0 8.339-6.76 15.099-15.099 15.099h-5.653c-8.339 0-15.099-6.76-15.099-15.099v-190.006z" fill="url(#SVGID_00000029005905322923574650000008140252907431613865_)"/></g></g></g><g><g><path d="m90.61 494.901v-479.802c0-8.339-6.76-15.099-15.099-15.099h-5.653c-8.339 0-15.099 6.76-15.099 15.099v479.802c0 8.339 6.76 15.099 15.099 15.099h5.653c8.339 0 15.099-6.76 15.099-15.099z" fill="url(#SVGID_00000165935419161261758780000005651642111415206028_)"/><g><path d="m71.775 0h3.735c8.34 0 15.1 6.76 15.1 15.099v479.802c0 8.339-6.76 15.099-15.099 15.099h-3.735v-510z" fill="url(#SVGID_00000102530824032890033760000016169354544340454050_)"/><path d="m90.61 304.895v190.006c0 8.339-6.76 15.099-15.099 15.099h-5.653c-8.339 0-15.099-6.76-15.099-15.099v-190.006z" fill="url(#SVGID_00000106840487600764115630000010939921163236322210_)"/></g></g></g><path d="m7.5 262.495h47.605l-25.678 25.678c-2.905 2.905-3.199 7.676-.383 10.666 2.914 3.095 7.787 3.15 10.761.166l38.71-38.7c2.93-2.93 2.93-7.68 0-10.61l-38.71-38.7c-2.973-2.983-7.844-2.929-10.758.163-2.816 2.987-2.523 7.756.38 10.659l25.678 25.678h-47.605c-4.142 0-7.5 3.358-7.5 7.5 0 4.142 3.358 7.5 7.5 7.5z" fill="url(#SVGID_00000045613138125585157050000014593200652946088072_)"/><path d="m502.5 262.495h-47.605l25.678 25.678c2.905 2.905 3.199 7.676.383 10.666-2.914 3.095-7.787 3.15-10.761.166l-38.71-38.7c-2.93-2.93-2.93-7.68 0-10.61l38.71-38.7c2.973-2.983 7.844-2.929 10.758.163 2.816 2.987 2.523 7.756-.38 10.659l-25.678 25.678h47.605c4.142 0 7.5 3.358 7.5 7.5 0 4.142-3.358 7.5-7.5 7.5z" fill="url(#SVGID_00000036957857942977317350000005666429702102397086_)"/><g><path d="m387.32 481.138h-264.64c-7.445 0-13.481-6.036-13.481-13.481 0-7.445 6.036-13.481 13.481-13.481h264.64c7.445 0 13.481 6.036 13.481 13.481-.001 7.445-6.036 13.481-13.481 13.481z" fill="url(#SVGID_00000011019595795112741540000010211187486279739541_)"/><path d="m387.32 410.252h-264.64c-7.445 0-13.481-6.036-13.481-13.481 0-7.445 6.036-13.481 13.481-13.481h264.64c7.445 0 13.481 6.036 13.481 13.481-.001 7.445-6.036 13.481-13.481 13.481z" fill="url(#SVGID_00000162352905196696325810000009464248476370795942_)"/><path d="m387.32 339.366h-264.64c-7.445 0-13.481-6.036-13.481-13.481 0-7.445 6.036-13.481 13.481-13.481h264.64c7.445 0 13.481 6.036 13.481 13.481-.001 7.446-6.036 13.481-13.481 13.481z" fill="url(#SVGID_00000080178897668212889640000015924234908021627835_)"/><path d="m387.32 268.481h-264.64c-7.445 0-13.481-6.036-13.481-13.481 0-7.445 6.036-13.481 13.481-13.481h264.64c7.445 0 13.481 6.036 13.481 13.481-.001 7.445-6.036 13.481-13.481 13.481z" fill="url(#SVGID_00000027595381026460878000000003772600520529610889_)"/><path d="m387.32 197.595h-264.64c-7.445 0-13.481-6.036-13.481-13.481 0-7.445 6.036-13.481 13.481-13.481h264.64c7.445 0 13.481 6.036 13.481 13.481-.001 7.446-6.036 13.481-13.481 13.481z" fill="url(#SVGID_00000044874250883346073500000013269477989786097834_)"/><path d="m387.32 126.71h-264.64c-7.445 0-13.481-6.036-13.481-13.481 0-7.445 6.036-13.481 13.481-13.481h264.64c7.445 0 13.481 6.036 13.481 13.481-.001 7.445-6.036 13.481-13.481 13.481z" fill="url(#SVGID_00000124131865190008913000000015295722319354919593_)"/><path d="m387.32 55.824h-264.64c-7.445 0-13.481-6.036-13.481-13.481 0-7.445 6.036-13.481 13.481-13.481h264.64c7.445 0 13.481 6.036 13.481 13.481-.001 7.445-6.036 13.481-13.481 13.481z" fill="url(#SVGID_00000052097948265466188300000015921439775115378605_)"/></g></g></svg>