<svg id="Capa_1" enable-background="new 0 0 510 510" height="512" viewBox="0 0 510 510" width="512" xmlns="http://www.w3.org/2000/svg" xmlns:xlink="http://www.w3.org/1999/xlink"><linearGradient id="lg1"><stop offset="0" stop-color="#6e61b6"/><stop offset="1" stop-color="#433f43"/></linearGradient><linearGradient id="SVGID_1_" gradientUnits="userSpaceOnUse" x1="295.559" x2="295.559" xlink:href="#lg1" y1="428.113" y2="486.466"/><linearGradient id="SVGID_00000084493575601598540230000008960867723571431819_" gradientUnits="userSpaceOnUse" x1="258.714" x2="258.714" xlink:href="#lg1" y1="357.227" y2="415.579"/><linearGradient id="SVGID_00000178163217147565537900000007149827206017719441_" gradientUnits="userSpaceOnUse" x1="274.242" x2="274.242" xlink:href="#lg1" y1="286.342" y2="344.694"/><linearGradient id="SVGID_00000124132769361067886530000010097192394357276306_" gradientUnits="userSpaceOnUse" x1="259.679" x2="259.679" xlink:href="#lg1" y1="215.456" y2="273.809"/><linearGradient id="SVGID_00000136374789951714175360000013109853629556203685_" gradientUnits="userSpaceOnUse" x1="302.091" x2="302.091" xlink:href="#lg1" y1="144.571" y2="202.923"/><linearGradient id="SVGID_00000165235758053749532350000006881759253597378227_" gradientUnits="userSpaceOnUse" x1="222.269" x2="222.269" xlink:href="#lg1" y1="73.685" y2="132.038"/><linearGradient id="SVGID_00000155136497511232337920000012164558958149847990_" gradientUnits="userSpaceOnUse" x1="240.407" x2="240.407" xlink:href="#lg1" y1="2.799" y2="61.151"/><linearGradient id="SVGID_00000183234207360571732260000006716955982699930022_" gradientTransform="matrix(0 1 1 0 360.191 95.123)" gradientUnits="userSpaceOnUse" x1="77.233" x2="220.241" y1="-390.649" y2="-247.641"><stop offset="0" stop-color="#d5daf3"/><stop offset="1" stop-color="#60b7ff"/></linearGradient><linearGradient id="lg2"><stop offset="0" stop-color="#528fd8" stop-opacity="0"/><stop offset=".214" stop-color="#4e8dd7" stop-opacity=".214"/><stop offset=".4386" stop-color="#4187d5" stop-opacity=".439"/><stop offset=".6681" stop-color="#2c7dd0" stop-opacity=".668"/><stop offset=".8995" stop-color="#0f6fc9" stop-opacity=".9"/><stop offset="1" stop-color="#0067c5"/></linearGradient><linearGradient id="SVGID_00000069370673669270126430000001007687183630925697_" gradientTransform="matrix(0 1 1 0 360.191 95.123)" gradientUnits="userSpaceOnUse" x1="159.877" x2="159.877" xlink:href="#lg2" y1="-306.3" y2="-288.253"/><linearGradient id="SVGID_00000117670901373787860360000002029061658861406911_" gradientTransform="matrix(-1 0 0 1 -583.221 640.535)" gradientUnits="userSpaceOnUse" x1="-635.406" x2="-635.406" xlink:href="#lg2" y1="-206.788" y2="-134.11"/><linearGradient id="SVGID_00000019645399279107518890000000274693502478632350_" gradientUnits="userSpaceOnUse" x1="412.131" x2="475.202" y1="84.129" y2="147.201"><stop offset="0" stop-color="#d9b1ee"/><stop offset=".1228" stop-color="#dba3e3"/><stop offset=".3507" stop-color="#e381c8"/><stop offset=".6587" stop-color="#ef499b"/><stop offset="1" stop-color="#fe0364"/></linearGradient><g><g><g><path d="m449.195 481.138h-307.273c-7.445 0-13.481-6.036-13.481-13.481 0-7.445 6.036-13.481 13.481-13.481h307.273c7.445 0 13.481 6.036 13.481 13.481 0 7.445-6.035 13.481-13.481 13.481z" fill="url(#SVGID_1_)"/><path d="m375.506 410.252h-233.584c-7.445 0-13.481-6.036-13.481-13.481 0-7.445 6.036-13.481 13.481-13.481h233.585c7.445 0 13.481 6.036 13.481 13.481-.001 7.445-6.036 13.481-13.482 13.481z" fill="url(#SVGID_00000084493575601598540230000008960867723571431819_)"/><path d="m406.561 339.366h-264.639c-7.445 0-13.481-6.036-13.481-13.481 0-7.445 6.036-13.481 13.481-13.481h264.639c7.445 0 13.481 6.036 13.481 13.481 0 7.446-6.036 13.481-13.481 13.481z" fill="url(#SVGID_00000178163217147565537900000007149827206017719441_)"/><path d="m377.436 268.481h-235.514c-7.445 0-13.481-6.036-13.481-13.481 0-7.445 6.036-13.481 13.481-13.481h235.514c7.445 0 13.481 6.036 13.481 13.481 0 7.445-6.036 13.481-13.481 13.481z" fill="url(#SVGID_00000124132769361067886530000010097192394357276306_)"/><path d="m462.26 197.595h-320.338c-7.445 0-13.481-6.036-13.481-13.481 0-7.445 6.036-13.481 13.481-13.481h320.338c7.445 0 13.481 6.036 13.481 13.481-.001 7.446-6.036 13.481-13.481 13.481z" fill="url(#SVGID_00000136374789951714175360000013109853629556203685_)"/><path d="m302.616 126.71h-160.694c-7.445 0-13.481-6.036-13.481-13.481 0-7.445 6.036-13.481 13.481-13.481h160.694c7.445 0 13.481 6.036 13.481 13.481 0 7.445-6.036 13.481-13.481 13.481z" fill="url(#SVGID_00000165235758053749532350000006881759253597378227_)"/><path d="m338.892 55.824h-196.97c-7.445 0-13.481-6.036-13.481-13.481 0-7.445 6.036-13.481 13.481-13.481h196.97c7.445 0 13.481 6.036 13.481 13.481 0 7.445-6.036 13.481-13.481 13.481z" fill="url(#SVGID_00000155136497511232337920000012164558958149847990_)"/></g><g><g><path d="m70.111 494.901v-479.802c0-8.339-6.76-15.099-15.099-15.099h-5.653c-8.339 0-15.099 6.76-15.099 15.099v479.802c0 8.339 6.76 15.099 15.099 15.099h5.653c8.339 0 15.099-6.76 15.099-15.099z" fill="url(#SVGID_00000183234207360571732260000006716955982699930022_)"/><g><path d="m51.277 0h3.735c8.339 0 15.099 6.76 15.099 15.099v479.802c0 8.339-6.76 15.099-15.099 15.099h-3.735z" fill="url(#SVGID_00000069370673669270126430000001007687183630925697_)"/><path d="m70.111 304.895v190.006c0 8.339-6.76 15.099-15.099 15.099h-5.653c-8.339 0-15.099-6.76-15.099-15.099v-190.006z" fill="url(#SVGID_00000117670901373787860360000002029061658861406911_)"/></g></g></g></g><path d="m468.24 105.734h-47.605l25.678-25.678c2.905-2.905 3.199-7.676.383-10.666-2.914-3.095-7.787-3.15-10.761-.166l-38.71 38.7c-2.93 2.93-2.93 7.68 0 10.61l38.71 38.7c2.973 2.983 7.844 2.929 10.758-.163 2.816-2.987 2.523-7.756-.38-10.659l-25.678-25.678h47.605c4.142 0 7.5-3.358 7.5-7.5 0-4.142-3.357-7.5-7.5-7.5z" fill="url(#SVGID_00000019645399279107518890000000274693502478632350_)"/></g></svg>