<svg id="Capa_1" enable-background="new 0 0 510 510" height="512" viewBox="0 0 510 510" width="512" xmlns="http://www.w3.org/2000/svg" xmlns:xlink="http://www.w3.org/1999/xlink"><linearGradient id="SVGID_1_" gradientTransform="matrix(0 1 1 0 -703.809 1159.123)" gradientUnits="userSpaceOnUse" x1="-986.767" x2="-843.759" y1="1092.626" y2="1235.634"><stop offset="0" stop-color="#fef0ae"/><stop offset="1" stop-color="#fac600"/></linearGradient><linearGradient id="lg1"><stop offset="0" stop-color="#fea613" stop-opacity="0"/><stop offset=".2032" stop-color="#fda215" stop-opacity=".203"/><stop offset=".4052" stop-color="#fb961b" stop-opacity=".405"/><stop offset=".6066" stop-color="#f68225" stop-opacity=".607"/><stop offset=".8066" stop-color="#f06633" stop-opacity=".807"/><stop offset="1" stop-color="#e94444"/></linearGradient><linearGradient id="SVGID_00000041995739519380774670000017617670211643993235_" gradientTransform="matrix(0 1 1 0 -703.809 1159.123)" gradientUnits="userSpaceOnUse" x1="-904.123" x2="-904.123" xlink:href="#lg1" y1="1176.976" y2="1195.022"/><linearGradient id="SVGID_00000031902233755543025850000016373294983650726077_" gradientTransform="matrix(-1 0 0 1 -2711.221 640.535)" gradientUnits="userSpaceOnUse" x1="-3182.682" x2="-3182.682" xlink:href="#lg1" y1="-206.788" y2="-134.11"/><linearGradient id="lg2"><stop offset="0" stop-color="#6e61b6"/><stop offset="1" stop-color="#433f43"/></linearGradient><linearGradient id="SVGID_00000024711218527851077200000004317189270143966352_" gradientTransform="matrix(-1 0 0 1 510 0)" gradientUnits="userSpaceOnUse" x1="281.913" x2="281.913" xlink:href="#lg2" y1="2.799" y2="61.152"/><linearGradient id="SVGID_00000076591014677160413860000003997306646678051775_" gradientTransform="matrix(-1 0 0 1 510 0)" gradientUnits="userSpaceOnUse" x1="222.301" x2="222.301" xlink:href="#lg2" y1="73.685" y2="132.037"/><linearGradient id="SVGID_00000174602899713607303870000010326570623530020279_" gradientTransform="matrix(-1 0 0 1 510 0)" gradientUnits="userSpaceOnUse" x1="260.595" x2="260.595" xlink:href="#lg2" y1="144.571" y2="202.923"/><linearGradient id="SVGID_00000121249874936460271550000011453932633291747744_" gradientTransform="matrix(-1 0 0 1 510 0)" gradientUnits="userSpaceOnUse" x1="246.033" x2="246.033" xlink:href="#lg2" y1="215.456" y2="273.809"/><linearGradient id="SVGID_00000037690904092963305980000013717950353790461103_" gradientTransform="matrix(-1 0 0 1 510 0)" gradientUnits="userSpaceOnUse" x1="288.445" x2="288.445" xlink:href="#lg2" y1="286.342" y2="344.694"/><linearGradient id="SVGID_00000114791200739448680910000014679532041178033800_" gradientTransform="matrix(-1 0 0 1 510 70.886)" gradientUnits="userSpaceOnUse" x1="208.623" x2="208.623" xlink:href="#lg2" y1="357.227" y2="415.58"/><linearGradient id="SVGID_00000012433502030479115480000009616054047967521416_" gradientTransform="matrix(-1 0 0 1 510 -70.886)" gradientUnits="userSpaceOnUse" x1="226.761" x2="226.761" xlink:href="#lg2" y1="428.113" y2="486.465"/><linearGradient id="SVGID_00000072992645303298485720000015180839630238022276_" gradientUnits="userSpaceOnUse" x1="40.254" x2="92.254" y1="80.961" y2="161.961"><stop offset="0" stop-color="#bbec6c"/><stop offset="1" stop-color="#78a91f"/></linearGradient><g><g><g><path d="m489.387 494.901v-479.802c0-8.339-6.761-15.099-15.1-15.099h-5.653c-8.339 0-15.099 6.76-15.099 15.099v479.802c0 8.339 6.76 15.099 15.099 15.099h5.653c8.339 0 15.1-6.76 15.1-15.099z" fill="url(#SVGID_1_)"/><g><path d="m470.552 0h3.735c8.339 0 15.099 6.76 15.099 15.099v479.802c0 8.339-6.76 15.099-15.099 15.099h-3.735z" fill="url(#SVGID_00000041995739519380774670000017617670211643993235_)"/><path d="m489.387 304.895v190.006c0 8.339-6.76 15.099-15.099 15.099h-5.653c-8.339 0-15.099-6.76-15.099-15.099v-190.006z" fill="url(#SVGID_00000031902233755543025850000016373294983650726077_)"/></g></g></g><g><path d="m74.451 55.824h307.273c7.445 0 13.481-6.036 13.481-13.481 0-7.445-6.036-13.481-13.481-13.481h-307.273c-7.445 0-13.481 6.036-13.481 13.481 0 7.445 6.035 13.481 13.481 13.481z" fill="url(#SVGID_00000024711218527851077200000004317189270143966352_)"/><path d="m193.674 126.71h188.05c7.445 0 13.481-6.036 13.481-13.481 0-7.445-6.036-13.481-13.481-13.481h-188.05c-7.445 0-13.481 6.036-13.481 13.481.001 7.445 6.036 13.481 13.481 13.481z" fill="url(#SVGID_00000076591014677160413860000003997306646678051775_)"/><path d="m117.085 197.595h264.639c7.445 0 13.481-6.036 13.481-13.481 0-7.445-6.036-13.481-13.481-13.481h-264.639c-7.445 0-13.481 6.036-13.481 13.481 0 7.446 6.036 13.481 13.481 13.481z" fill="url(#SVGID_00000174602899713607303870000010326570623530020279_)"/><path d="m146.21 268.481h235.514c7.445 0 13.481-6.036 13.481-13.481 0-7.445-6.036-13.481-13.481-13.481h-235.514c-7.445 0-13.481 6.036-13.481 13.481 0 7.445 6.036 13.481 13.481 13.481z" fill="url(#SVGID_00000121249874936460271550000011453932633291747744_)"/><path d="m61.387 339.366h320.338c7.445 0 13.481-6.036 13.481-13.481 0-7.445-6.036-13.481-13.481-13.481h-320.338c-7.445 0-13.481 6.036-13.481 13.481 0 7.446 6.035 13.481 13.481 13.481z" fill="url(#SVGID_00000037690904092963305980000013717950353790461103_)"/><path d="m221.03 481.138h160.694c7.445 0 13.481-6.036 13.481-13.481 0-7.445-6.036-13.481-13.481-13.481h-160.694c-7.445 0-13.481 6.036-13.481 13.481 0 7.445 6.036 13.481 13.481 13.481z" fill="url(#SVGID_00000114791200739448680910000014679532041178033800_)"/><path d="m184.754 410.252h196.97c7.445 0 13.481-6.036 13.481-13.481 0-7.445-6.036-13.481-13.481-13.481h-196.97c-7.445 0-13.481 6.036-13.481 13.481.001 7.445 6.036 13.481 13.481 13.481z" fill="url(#SVGID_00000012433502030479115480000009616054047967521416_)"/></g><path d="m28.113 105.734h47.605l-25.677-25.678c-2.905-2.905-3.199-7.676-.383-10.666 2.914-3.095 7.787-3.15 10.761-.166l38.71 38.7c2.93 2.93 2.93 7.68 0 10.61l-38.71 38.7c-2.973 2.983-7.844 2.929-10.758-.163-2.816-2.987-2.523-7.756.38-10.659l25.678-25.678h-47.606c-4.142 0-7.5-3.358-7.5-7.5 0-4.142 3.358-7.5 7.5-7.5z" fill="url(#SVGID_00000072992645303298485720000015180839630238022276_)"/></g></svg>