<svg id="Capa_1" enable-background="new 0 0 510 510" height="512" viewBox="0 0 510 510" width="512" xmlns="http://www.w3.org/2000/svg" xmlns:xlink="http://www.w3.org/1999/xlink"><linearGradient id="lg1"><stop offset="0" stop-color="#fef0ae"/><stop offset="1" stop-color="#fac600"/></linearGradient><linearGradient id="SVGID_1_" gradientUnits="userSpaceOnUse" x1="105.968" x2="363.831" xlink:href="#lg1" y1="188.484" y2="379.529"/><linearGradient id="lg2"><stop offset="0" stop-color="#fea613" stop-opacity="0"/><stop offset=".2032" stop-color="#fda215" stop-opacity=".203"/><stop offset=".4052" stop-color="#fb961b" stop-opacity=".405"/><stop offset=".6066" stop-color="#f68225" stop-opacity=".607"/><stop offset=".8066" stop-color="#f06633" stop-opacity=".807"/><stop offset="1" stop-color="#e94444"/></linearGradient><linearGradient id="SVGID_00000125572854817876369540000016454258364809752244_" gradientUnits="userSpaceOnUse" x1="326.005" x2="394.528" xlink:href="#lg2" y1="287.652" y2="287.652"/><linearGradient id="SVGID_00000082337035699588429550000006305060637264707510_" gradientUnits="userSpaceOnUse" x1="289.989" x2="241.318" xlink:href="#lg2" y1="184.652" y2="184.652"/><linearGradient id="SVGID_00000104693554712215813010000013190175381476213408_" gradientUnits="userSpaceOnUse" x1="357.323" x2="307.283" xlink:href="#lg2" y1="144.652" y2="144.652"/><linearGradient id="SVGID_00000176747592093241618030000004800675989436340890_" gradientUnits="userSpaceOnUse" x1="214.464" x2="214.464" xlink:href="#lg2" y1="463.856" y2="515.545"/><linearGradient id="SVGID_00000134945517136303086140000001586324942020194217_" gradientUnits="userSpaceOnUse" x1="204.872" x2="137.81" xlink:href="#lg2" y1="470.303" y2="465.996"/><linearGradient id="SVGID_00000127033998909218521690000017888253882504181389_" gradientUnits="userSpaceOnUse" x1="132.439" x2="108.444" xlink:href="#lg1" y1="444.388" y2="482.533"/><linearGradient id="SVGID_00000168835783232692237170000016681839545285391010_" gradientUnits="userSpaceOnUse" x1="335.513" x2="307.513" xlink:href="#lg2" y1="463.367" y2="304.034"/><linearGradient id="SVGID_00000072276253919353912460000011896284911239821243_" gradientUnits="userSpaceOnUse" x1="230.086" x2="472.086" y1="59.656" y2="325.656"><stop offset="0" stop-color="#6e61b6"/><stop offset="1" stop-color="#433f43"/></linearGradient><linearGradient id="lg3"><stop offset="0" stop-color="#433f43" stop-opacity="0"/><stop offset="1" stop-color="#1a1a1a"/></linearGradient><linearGradient id="SVGID_00000052103953545493862610000015626941711154474131_" gradientUnits="userSpaceOnUse" x1="329.168" x2="329.168" xlink:href="#lg3" y1="289" y2="337.094"/><linearGradient id="SVGID_00000039825341178487662450000002693034944244514178_" gradientUnits="userSpaceOnUse" x1="425.323" x2="458.762" xlink:href="#lg3" y1="199.641" y2="199.641"/><linearGradient id="SVGID_00000142163214103267412110000000164332990775739819_" gradientUnits="userSpaceOnUse" x1="332.079" x2="332.079" xlink:href="#lg3" y1="177" y2="254.162"/><linearGradient id="SVGID_00000135672522529314958850000016920821626296152505_" gradientUnits="userSpaceOnUse" x1="363.323" x2="385.323" xlink:href="#lg3" y1="126.477" y2="126.477"/><g><g><g><g><path d="m356.605 510h-208.57c-51.988 0-94.133-42.145-94.133-94.133v-332.143c0-10.173 8.247-18.42 18.42-18.42h284.283c10.173 0 18.42 8.247 18.42 18.42v407.856c0 10.173-8.247 18.42-18.42 18.42z" fill="url(#SVGID_1_)"/><path d="m356.605 65.304h-163.424v444.696h163.424c10.173 0 18.42-8.247 18.42-18.42v-407.856c0-10.173-8.247-18.42-18.42-18.42z" fill="url(#SVGID_00000125572854817876369540000016454258364809752244_)"/><path d="m356.605 65.304h-116.616v238.696h135.036v-220.276c0-10.173-8.247-18.42-18.42-18.42z" fill="url(#SVGID_00000082337035699588429550000006305060637264707510_)"/><path d="m356.605 65.304h-61.153v158.696h79.573v-140.276c0-10.173-8.247-18.42-18.42-18.42z" fill="url(#SVGID_00000104693554712215813010000013190175381476213408_)"/><path d="m53.903 340.807v75.06c0 51.988 42.145 94.133 94.133 94.133h208.57c10.173 0 18.42-8.247 18.42-18.42v-150.773z" fill="url(#SVGID_00000176747592093241618030000004800675989436340890_)"/><path d="m143.517 422.836v87.054c1.498.071 3.003.11 4.518.11h82.646z" fill="url(#SVGID_00000134945517136303086140000001586324942020194217_)"/><path d="m148.035 470.391c0 21.875 17.733 39.609 39.609 39.609h-39.609c-51.988 0-94.133-42.145-94.133-94.133h74.715c10.724 0 19.418 8.694 19.418 19.418z" fill="url(#SVGID_00000127033998909218521690000017888253882504181389_)"/></g></g></g><path d="m375.025 439.036v-135.036h-135.036z" fill="url(#SVGID_00000168835783232692237170000016681839545285391010_)"/><g><path d="m329.168 342.313c-69.989 0-126.93-56.941-126.93-126.93v-141.548c0-40.713 33.122-73.835 73.835-73.835h42.735c40.713 0 73.835 33.122 73.835 73.835v118.5c0 33.395-27.169 60.564-60.564 60.564s-60.564-27.169-60.564-60.564v-104.344c0-13.551 10.985-24.537 24.536-24.537s24.536 10.985 24.536 24.537v104.343c0 6.336 5.155 11.491 11.491 11.491s11.491-5.155 11.491-11.491v-118.5c0-13.654-11.109-24.762-24.762-24.762h-42.735c-13.654 0-24.762 11.108-24.762 24.762v141.548c0 42.93 34.926 77.857 77.857 77.857s77.857-34.927 77.857-77.857v-133.159c0-13.551 10.985-24.536 24.536-24.536s24.536 10.985 24.536 24.536v133.16c.001 69.989-56.939 126.93-126.928 126.93z" fill="url(#SVGID_00000072276253919353912460000011896284911239821243_)"/><g><path d="m407.024 134v81.383c0 42.93-34.926 77.857-77.857 77.857s-77.857-34.927-77.857-77.857v-81.383h-49.073v81.383c0 69.989 56.941 126.93 126.93 126.93s126.93-56.941 126.93-126.93v-81.383z" fill="url(#SVGID_00000052103953545493862610000015626941711154474131_)"/><path d="m431.561 57.687c-13.551 0-24.536 10.985-24.536 24.536v133.16c0 38.329-27.848 70.254-64.369 76.663v49.55c63.671-6.757 113.442-60.779 113.442-126.213v-133.16c-.001-13.551-10.986-24.536-24.537-24.536z" fill="url(#SVGID_00000039825341178487662450000002693034944244514178_)"/><path d="m332.079 252.899c33.396 0 60.564-27.169 60.564-60.564v-58.335h-49.073v58.334c0 6.336-5.155 11.491-11.491 11.491s-11.491-5.155-11.491-11.491v-58.334h-49.073v58.334c-.001 33.396 27.168 60.565 60.564 60.565z" fill="url(#SVGID_00000142163214103267412110000000164332990775739819_)"/><g><path d="m320.989 49.175c12.635 1.109 22.581 11.742 22.581 24.66v118.5c0 6.336-5.155 11.491-11.491 11.491-5.31 0-9.777-3.625-11.089-8.527v56.564c3.598.669 7.301 1.036 11.089 1.036 33.396 0 60.564-27.169 60.564-60.564v-118.5c0-39.981-31.948-72.618-71.654-73.779z" fill="url(#SVGID_00000135672522529314958850000016920821626296152505_)"/></g></g></g></g></svg>