<svg id="Capa_1" enable-background="new 0 0 510 510" height="512" viewBox="0 0 510 510" width="512" xmlns="http://www.w3.org/2000/svg" xmlns:xlink="http://www.w3.org/1999/xlink"><linearGradient id="lg1"><stop offset="0" stop-color="#6e61b6"/><stop offset="1" stop-color="#433f43"/></linearGradient><linearGradient id="SVGID_1_" gradientUnits="userSpaceOnUse" x1="55.337" x2="379.337" xlink:href="#lg1" y1="85.065" y2="407.065"/><linearGradient id="SVGID_00000160904451348812483190000014725518816687813043_" gradientUnits="userSpaceOnUse" x1="-75.297" x2="420.627" xlink:href="#lg1" y1="-46.703" y2="449.221"/><linearGradient id="lg2"><stop offset="0" stop-color="#433f43" stop-opacity="0"/><stop offset="1" stop-color="#1a1a1a"/></linearGradient><linearGradient id="SVGID_00000131352367076302112710000013504616136545038522_" gradientUnits="userSpaceOnUse" x1="255" x2="255" xlink:href="#lg2" y1="422.667" y2="497.36"/><linearGradient id="SVGID_00000162346140742260147180000012377614409879556739_" gradientUnits="userSpaceOnUse" x1="349.112" x2="421.109" xlink:href="#lg2" y1="255" y2="255"/><linearGradient id="SVGID_00000014610848601966043270000012902023132075411589_" gradientUnits="userSpaceOnUse" x1="234.667" x2="189.328" xlink:href="#lg2" y1="230.735" y2="230.735"/><linearGradient id="SVGID_00000027606343145447150820000012535930504899740332_" gradientUnits="userSpaceOnUse" x1="272.667" x2="190.21" xlink:href="#lg2" y1="447.191" y2="447.191"/><g><path d="m83.721 33.488c0-22.326 23.721-33.488 47.442-33.488h143.023c69.768 0 139.535 25.116 139.535 124.186 0 56.511-22.326 93.488-59.302 109.535 42.558 16.047 71.86 41.86 71.86 111.628v14.651c0 110.232-61.396 150-140.233 150h-154.883c-29.303 0-47.442-15.349-47.442-32.791zm108.139 158.372h73.256c26.511 0 39.767-24.419 39.767-48.14 0-24.418-13.256-48.837-39.767-48.837h-73.256zm69.768 223.256c34.884 0 55.814-19.535 55.814-64.187v-11.162c0-47.442-20.931-64.187-55.814-64.187h-69.768v139.535h69.768z" fill="url(#SVGID_1_)"/><path d="m131.163 495c-20.308 0-32.442-9.046-32.442-17.791v-443.721c0-13.564 19.401-18.488 32.442-18.488h143.022c37.268 0 66.613 7.454 87.22 22.153 25.109 17.911 37.315 46.38 37.315 87.033 0 48.383-17.384 81.501-50.274 95.774l-33.957 14.736 34.636 13.06c38.371 14.467 62.152 35.84 62.152 97.592v14.652c0 47.569-12.056 83.036-35.833 105.414-20.856 19.632-50.935 29.586-89.397 29.586zm45.697-64.884h84.768c45.003 0 70.814-28.862 70.814-79.187v-11.162c0-65.448-38.509-79.187-70.814-79.187h-84.768zm0-223.256h88.257c35.955 0 54.767-31.763 54.767-63.14 0-31.723-18.812-63.837-54.767-63.837h-88.257z" fill="url(#SVGID_00000160904451348812483190000014725518816687813043_)"/><path d="m317.442 339.767v11.163c0 44.651-20.931 64.187-55.814 64.187h-69.768v-129.435h-108.139v191.527c0 17.442 18.139 32.791 47.442 32.791h154.884c78.837 0 140.233-39.768 140.233-150v-14.651c0-25.014-3.768-44.377-10.562-59.667h-117.8c12.563 9.622 19.524 26.75 19.524 54.085z" fill="url(#SVGID_00000131352367076302112710000013504616136545038522_)"/><path d="m354.419 233.721c36.977-16.047 59.302-53.023 59.302-109.535 0-99.07-69.768-124.186-139.535-124.186h-82.326v94.884h73.256c26.511 0 39.767 24.419 39.767 48.837 0 23.721-13.256 48.14-39.767 48.14h-73.256v83.721h69.768c34.884 0 55.814 16.744 55.814 64.186v11.163c0 44.651-20.931 64.187-55.814 64.187h-69.768v94.882h94.187c78.837 0 140.233-39.768 140.233-150v-14.651c-.001-69.768-29.303-95.582-71.861-111.628z" fill="url(#SVGID_00000162346140742260147180000012377614409879556739_)"/><path d="m265.117 191.86h-73.257v83.721h69.768c12.379 0 22.99 2.123 31.543 6.964v-103.621c-6.58 7.817-15.926 12.936-28.054 12.936z" fill="url(#SVGID_00000014610848601966043270000012902023132075411589_)"/><path d="m286.047 510c8.895 0 17.565-.512 25.953-1.568v-124.05c-8.337 21.119-25.92 30.735-50.372 30.735h-69.768v94.883z" fill="url(#SVGID_00000027606343145447150820000012535930504899740332_)"/></g></svg>