<svg id="Capa_1" enable-background="new 0 0 495.762 495.762" height="512" viewBox="0 0 495.762 495.762" width="512" xmlns="http://www.w3.org/2000/svg" xmlns:xlink="http://www.w3.org/1999/xlink"><linearGradient id="lg1"><stop offset="0" stop-color="#d5daf3"/><stop offset="1" stop-color="#60b7ff"/></linearGradient><linearGradient id="SVGID_1_" gradientUnits="userSpaceOnUse" x1="269.567" x2="356.973" xlink:href="#lg1" y1="-24.735" y2="62.672"/><linearGradient id="lg2"><stop offset="0" stop-color="#528fd8" stop-opacity="0"/><stop offset=".214" stop-color="#4e8dd7" stop-opacity=".214"/><stop offset=".4386" stop-color="#4187d5" stop-opacity=".439"/><stop offset=".6681" stop-color="#2c7dd0" stop-opacity=".668"/><stop offset=".8995" stop-color="#0f6fc9" stop-opacity=".9"/><stop offset="1" stop-color="#0067c5"/></linearGradient><linearGradient id="SVGID_00000169541768960456632340000016810078235095282356_" gradientUnits="userSpaceOnUse" x1="320.079" x2="320.079" xlink:href="#lg2" y1="43.402" y2="51.173"/><linearGradient id="SVGID_00000034802678183325518470000008800790148587506818_" gradientTransform="matrix(0 -1 1 0 13.412 -3617.65)" gradientUnits="userSpaceOnUse" x1="-3643.427" x2="-3643.427" xlink:href="#lg2" y1="428.607" y2="449.602"/><linearGradient id="SVGID_00000032650012834190488250000011451485906123161483_" gradientUnits="userSpaceOnUse" x1="269.567" x2="356.973" xlink:href="#lg1" y1="351.265" y2="438.672"/><linearGradient id="SVGID_00000103233962131050871930000018354258837696982201_" gradientUnits="userSpaceOnUse" x1="320.079" x2="320.079" xlink:href="#lg2" y1="419.402" y2="427.173"/><linearGradient id="SVGID_00000124881639716042643020000003199691787606414260_" gradientTransform="matrix(0 -1 1 0 13.412 -3617.65)" gradientUnits="userSpaceOnUse" x1="-4019.427" x2="-4019.427" xlink:href="#lg2" y1="428.607" y2="449.602"/><linearGradient id="SVGID_00000007423891886374492370000016831720521374681494_" gradientUnits="userSpaceOnUse" x1="269.567" x2="356.973" xlink:href="#lg1" y1="163.265" y2="250.672"/><linearGradient id="SVGID_00000014614977495967473110000010925775407274539651_" gradientUnits="userSpaceOnUse" x1="320.079" x2="320.079" xlink:href="#lg2" y1="231.402" y2="239.173"/><linearGradient id="SVGID_00000164499867711060793490000004076029420526097062_" gradientTransform="matrix(0 -1 1 0 13.412 -3617.65)" gradientUnits="userSpaceOnUse" x1="-3831.427" x2="-3831.427" xlink:href="#lg2" y1="428.607" y2="449.602"/><linearGradient id="lg3"><stop offset="0" stop-color="#fef0ae"/><stop offset="1" stop-color="#fac600"/></linearGradient><linearGradient id="SVGID_00000005961544348256835670000008124901500398006707_" gradientUnits="userSpaceOnUse" x1="62.312" x2="109.707" xlink:href="#lg3" y1="39.973" y2="87.368"/><linearGradient id="lg4"><stop offset="0" stop-color="#fea613" stop-opacity="0"/><stop offset=".2032" stop-color="#fda215" stop-opacity=".203"/><stop offset=".4052" stop-color="#fb961b" stop-opacity=".405"/><stop offset=".6066" stop-color="#f68225" stop-opacity=".607"/><stop offset=".8066" stop-color="#f06633" stop-opacity=".807"/><stop offset="1" stop-color="#e94444"/></linearGradient><linearGradient id="SVGID_00000162352377632501119850000003899661390285850755_" gradientUnits="userSpaceOnUse" x1="82.22" x2="82.22" xlink:href="#lg4" y1="60.615" y2="107.159"/><linearGradient id="SVGID_00000078754946271748353990000006351763605235207332_" gradientUnits="userSpaceOnUse" x1="90.555" x2="118.108" xlink:href="#lg4" y1="68.216" y2="95.768"/><linearGradient id="SVGID_00000135671756976525086300000012702279375333001611_" gradientUnits="userSpaceOnUse" x1="62.312" x2="109.707" xlink:href="#lg3" y1="227.973" y2="275.368"/><linearGradient id="SVGID_00000108283917657526784500000002724537377265877168_" gradientUnits="userSpaceOnUse" x1="82.22" x2="82.22" xlink:href="#lg4" y1="248.615" y2="295.159"/><linearGradient id="SVGID_00000084531360012015974220000012829712312062437020_" gradientUnits="userSpaceOnUse" x1="90.555" x2="118.108" xlink:href="#lg4" y1="256.216" y2="283.768"/><linearGradient id="SVGID_00000152256786526145891760000004738948611120996749_" gradientUnits="userSpaceOnUse" x1="62.312" x2="109.707" xlink:href="#lg3" y1="415.973" y2="463.368"/><linearGradient id="SVGID_00000021801453538411730430000007467024069331262379_" gradientUnits="userSpaceOnUse" x1="82.22" x2="82.22" xlink:href="#lg4" y1="436.615" y2="483.159"/><linearGradient id="SVGID_00000077309101700105184400000015977282061717009281_" gradientUnits="userSpaceOnUse" x1="90.555" x2="118.108" xlink:href="#lg4" y1="444.216" y2="471.768"/><g><g><g fill="#aa9ea9"><path d="m304.543 119.762h-40.988c-3.689 0-6.68-2.991-6.68-6.68s2.991-6.68 6.68-6.68h40.988c3.689 0 6.68 2.991 6.68 6.68s-2.991 6.68-6.68 6.68z"/><path d="m182.791 106.402h30.282c3.689 0 6.68 2.991 6.68 6.68s-2.991 6.68-6.68 6.68h-30.282c-3.689 0-6.68-2.991-6.68-6.68 0-3.69 2.991-6.68 6.68-6.68z"/><path d="m236.231 119.762c-3.689 0-6.68-2.991-6.68-6.68s2.991-6.68 6.68-6.68h7.571c3.689 0 6.68 2.991 6.68 6.68s-2.991 6.68-6.68 6.68z"/><path d="m278.711 85.667h40.989c3.689 0 6.68-2.991 6.68-6.68s-2.991-6.68-6.68-6.68h-40.988c-3.689 0-6.68 2.991-6.68 6.68-.001 3.689 2.99 6.68 6.679 6.68z"/><path d="m400.463 72.307h-30.282c-3.689 0-6.68 2.991-6.68 6.68s2.991 6.68 6.68 6.68h30.282c3.689 0 6.68-2.991 6.68-6.68s-2.991-6.68-6.68-6.68z"/><path d="m347.024 72.307h-7.571c-3.689 0-6.68 2.991-6.68 6.68s2.991 6.68 6.68 6.68h7.571c3.689 0 6.68-2.991 6.68-6.68-.001-3.689-2.991-6.68-6.68-6.68z"/><path d="m182.791 85.667h68.66c3.689 0 6.68-2.991 6.68-6.68s-2.991-6.68-6.68-6.68h-68.66c-3.689 0-6.68 2.99-6.68 6.68 0 3.689 2.991 6.68 6.68 6.68z"/></g><g><g><path d="m449.812 51.555h-259.466c-7.862 0-14.235-6.373-14.235-14.235v-23.085c0-7.862 6.373-14.235 14.235-14.235h259.466c7.862 0 14.235 6.373 14.235 14.235v23.085c-.001 7.862-6.374 14.235-14.235 14.235z" fill="url(#SVGID_1_)"/><g><path d="m176.111 29.625v7.695c0 7.862 6.373 14.235 14.235 14.235h259.466c7.861 0 14.234-6.373 14.234-14.235v-7.695z" fill="url(#SVGID_00000169541768960456632340000016810078235095282356_)"/><path d="m404.796 51.555h45.016c7.862 0 14.234-6.373 14.234-14.235v-23.085c0-7.862-6.373-14.235-14.234-14.235h-45.016z" fill="url(#SVGID_00000034802678183325518470000008800790148587506818_)"/></g></g></g></g><g><g fill="#aa9ea9"><path d="m263.555 461.667h40.988c3.689 0 6.68-2.991 6.68-6.68s-2.991-6.68-6.68-6.68h-40.988c-3.689 0-6.68 2.991-6.68 6.68s2.99 6.68 6.68 6.68z"/><path d="m182.791 461.667h30.282c3.689 0 6.68-2.991 6.68-6.68s-2.991-6.68-6.68-6.68h-30.282c-3.689 0-6.68 2.991-6.68 6.68s2.991 6.68 6.68 6.68z"/><path d="m236.231 461.667h7.571c3.689 0 6.68-2.991 6.68-6.68s-2.991-6.68-6.68-6.68h-7.571c-3.689 0-6.68 2.991-6.68 6.68s2.99 6.68 6.68 6.68z"/><path d="m282.178 482.402h-68.66c-3.689 0-6.68 2.991-6.68 6.68 0 3.69 2.991 6.68 6.68 6.68h68.66c3.689 0 6.68-2.99 6.68-6.68 0-3.689-2.99-6.68-6.68-6.68z"/><path d="m331.804 461.667h68.66c3.689 0 6.68-2.99 6.68-6.68 0-3.689-2.991-6.68-6.68-6.68h-68.66c-3.689 0-6.68 2.991-6.68 6.68s2.99 6.68 6.68 6.68z"/><path d="m182.791 495.762h7.571c3.689 0 6.68-2.99 6.68-6.68 0-3.689-2.991-6.68-6.68-6.68h-7.571c-3.689 0-6.68 2.991-6.68 6.68s2.991 6.68 6.68 6.68z"/><path d="m306.528 489.082c0 3.69 2.991 6.68 6.68 6.68h7.571c3.689 0 6.68-2.99 6.68-6.68 0-3.689-2.991-6.68-6.68-6.68h-7.571c-3.69 0-6.68 2.991-6.68 6.68z"/></g><g><g><path d="m449.812 427.555h-259.466c-7.862 0-14.235-6.373-14.235-14.235v-23.086c0-7.862 6.373-14.235 14.235-14.235h259.466c7.862 0 14.235 6.373 14.235 14.235v23.086c-.001 7.862-6.374 14.235-14.235 14.235z" fill="url(#SVGID_00000032650012834190488250000011451485906123161483_)"/><g><path d="m176.111 405.625v7.695c0 7.862 6.373 14.234 14.235 14.234h259.466c7.861 0 14.234-6.373 14.234-14.234v-7.695z" fill="url(#SVGID_00000103233962131050871930000018354258837696982201_)"/><path d="m404.796 427.555h45.016c7.862 0 14.234-6.373 14.234-14.235v-23.086c0-7.862-6.373-14.235-14.234-14.235h-45.016z" fill="url(#SVGID_00000124881639716042643020000003199691787606414260_)"/></g></g></g></g><g><g><g><g><path d="m449.812 239.555h-259.466c-7.862 0-14.235-6.373-14.235-14.235v-23.086c0-7.862 6.373-14.235 14.235-14.235h259.466c7.862 0 14.235 6.373 14.235 14.235v23.086c-.001 7.862-6.374 14.235-14.235 14.235z" fill="url(#SVGID_00000007423891886374492370000016831720521374681494_)"/><g><path d="m176.111 217.625v7.695c0 7.862 6.373 14.235 14.235 14.235h259.466c7.861 0 14.234-6.373 14.234-14.235v-7.695z" fill="url(#SVGID_00000014614977495967473110000010925775407274539651_)"/><path d="m404.796 239.555h45.016c7.862 0 14.234-6.373 14.234-14.235v-23.086c0-7.861-6.373-14.235-14.234-14.235h-45.016z" fill="url(#SVGID_00000164499867711060793490000004076029420526097062_)"/></g></g></g></g><g fill="#aa9ea9"><path d="m206.839 266.987c0 3.689 2.991 6.68 6.68 6.68h68.66c3.689 0 6.68-2.99 6.68-6.68 0-3.689-2.991-6.68-6.68-6.68h-68.66c-3.689 0-6.68 2.991-6.68 6.68z"/><path d="m400.463 260.307h-42.607c-3.689 0-6.68 2.991-6.68 6.68s2.991 6.68 6.68 6.68h42.607c3.689 0 6.68-2.99 6.68-6.68 0-3.689-2.991-6.68-6.68-6.68z"/><path d="m182.791 273.667h7.571c3.689 0 6.68-2.99 6.68-6.68 0-3.689-2.991-6.68-6.68-6.68h-7.571c-3.689 0-6.68 2.991-6.68 6.68s2.991 6.68 6.68 6.68z"/><path d="m304.543 294.402h-40.988c-3.689 0-6.68 2.99-6.68 6.68s2.991 6.68 6.68 6.68h40.988c3.689 0 6.68-2.991 6.68-6.68s-2.991-6.68-6.68-6.68z"/><path d="m182.791 307.762h30.282c3.689 0 6.68-2.991 6.68-6.68s-2.991-6.68-6.68-6.68h-30.282c-3.689 0-6.68 2.99-6.68 6.68s2.991 6.68 6.68 6.68z"/><path d="m236.231 294.402c-3.689 0-6.68 2.99-6.68 6.68s2.991 6.68 6.68 6.68h7.571c3.689 0 6.68-2.991 6.68-6.68s-2.991-6.68-6.68-6.68z"/><path d="m320.778 273.667c3.689 0 6.68-2.99 6.68-6.68 0-3.689-2.991-6.68-6.68-6.68h-7.571c-3.689 0-6.68 2.991-6.68 6.68s2.991 6.68 6.68 6.68z"/></g></g><g><circle cx="82.22" cy="59.881" fill="url(#SVGID_00000005961544348256835670000008124901500398006707_)" r="50.505"/><path d="m31.715 59.881c0 27.893 22.612 50.505 50.505 50.505s50.505-22.612 50.505-50.505c0-6.041-1.064-11.832-3.009-17.202h-94.992c-1.945 5.369-3.009 11.161-3.009 17.202z" fill="url(#SVGID_00000162352377632501119850000003899661390285850755_)"/><path d="m46.508 95.593c19.723 19.723 51.701 19.723 71.425 0 19.723-19.723 19.723-51.701 0-71.425-4.272-4.272-9.119-7.614-14.291-10.036l-67.17 67.17c2.421 5.172 5.764 10.02 10.036 14.291z" fill="url(#SVGID_00000078754946271748353990000006351763605235207332_)"/></g><g><circle cx="82.22" cy="247.881" fill="url(#SVGID_00000135671756976525086300000012702279375333001611_)" r="50.505"/><path d="m31.715 247.881c0 27.893 22.612 50.505 50.505 50.505s50.505-22.612 50.505-50.505c0-6.041-1.064-11.832-3.009-17.202h-94.992c-1.945 5.369-3.009 11.161-3.009 17.202z" fill="url(#SVGID_00000108283917657526784500000002724537377265877168_)"/><path d="m46.508 283.593c19.723 19.723 51.701 19.723 71.425 0 19.723-19.723 19.723-51.701 0-71.425-4.272-4.272-9.119-7.614-14.291-10.036l-67.169 67.169c2.42 5.173 5.763 10.021 10.035 14.292z" fill="url(#SVGID_00000084531360012015974220000012829712312062437020_)"/></g><g><circle cx="82.22" cy="435.881" fill="url(#SVGID_00000152256786526145891760000004738948611120996749_)" r="50.505"/><path d="m31.715 435.881c0 27.893 22.612 50.505 50.505 50.505s50.505-22.612 50.505-50.505c0-6.041-1.064-11.832-3.009-17.202h-94.992c-1.945 5.369-3.009 11.161-3.009 17.202z" fill="url(#SVGID_00000021801453538411730430000007467024069331262379_)"/><path d="m46.508 471.593c19.723 19.723 51.701 19.723 71.425 0 19.723-19.723 19.723-51.701 0-71.425-4.272-4.272-9.119-7.614-14.291-10.036l-67.169 67.169c2.42 5.173 5.763 10.021 10.035 14.292z" fill="url(#SVGID_00000077309101700105184400000015977282061717009281_)"/></g></g></svg>