<svg id="Capa_1" enable-background="new 0 0 510 510" height="512" viewBox="0 0 510 510" width="512" xmlns="http://www.w3.org/2000/svg" xmlns:xlink="http://www.w3.org/1999/xlink"><linearGradient id="SVGID_1_" gradientUnits="userSpaceOnUse" x1="315.706" x2="429.706" y1="255.928" y2="378.928"><stop offset="0" stop-color="#f9f7f8"/><stop offset="1" stop-color="#e5e1e5"/></linearGradient><linearGradient id="lg1"><stop offset="0" stop-color="#9b8e99" stop-opacity="0"/><stop offset=".3465" stop-color="#978a95" stop-opacity=".347"/><stop offset=".7135" stop-color="#8a7f88" stop-opacity=".714"/><stop offset="1" stop-color="#7b7179"/></linearGradient><linearGradient id="SVGID_00000026131458087309184080000013305834295611464102_" gradientUnits="userSpaceOnUse" x1="394.839" x2="394.839" xlink:href="#lg1" y1="388.144" y2="468.243"/><linearGradient id="SVGID_00000120525570889911471650000014697680727481653898_" gradientUnits="userSpaceOnUse" x1="329.446" x2="296.112" xlink:href="#lg1" y1="392.333" y2="398"/><linearGradient id="SVGID_00000046302927155601754310000010112508779362177184_" gradientUnits="userSpaceOnUse" x1="453" x2="521.469" xlink:href="#lg1" y1="326.972" y2="326.972"/><linearGradient id="SVGID_00000082347217810401737420000016303156337593691298_" gradientUnits="userSpaceOnUse" x1="389" x2="443.021" xlink:href="#lg1" y1="343.891" y2="343.891"/><linearGradient id="SVGID_00000047742481207655085700000017717943395310757790_" gradientUnits="userSpaceOnUse" x1="50.855" x2="256.855" y1="220.725" y2="374.725"><stop offset="0" stop-color="#d5daf3"/><stop offset="1" stop-color="#60b7ff"/></linearGradient><linearGradient id="lg2"><stop offset="0" stop-color="#528fd8" stop-opacity="0"/><stop offset=".214" stop-color="#4e8dd7" stop-opacity=".214"/><stop offset=".4386" stop-color="#4187d5" stop-opacity=".439"/><stop offset=".6681" stop-color="#2c7dd0" stop-opacity=".668"/><stop offset=".8995" stop-color="#0f6fc9" stop-opacity=".9"/><stop offset="1" stop-color="#0067c5"/></linearGradient><linearGradient id="SVGID_00000165215738358692707650000016570054442169459593_" gradientUnits="userSpaceOnUse" x1="217.005" x2="269.005" xlink:href="#lg2" y1="262.195" y2="247.195"/><linearGradient id="SVGID_00000098929457385122785700000015346237572274914447_" gradientUnits="userSpaceOnUse" x1="157.432" x2="157.432" xlink:href="#lg2" y1="388.44" y2="464.447"/><linearGradient id="SVGID_00000086680337455191974410000004367407829313936009_" gradientUnits="userSpaceOnUse" x1="163.264" x2="98.264" xlink:href="#lg2" y1="349.827" y2="336.827"/><linearGradient id="SVGID_00000183970999219465344190000016343776048895995280_" gradientUnits="userSpaceOnUse" x1="274.716" x2="415.716" y1="-44.22" y2="233.78"><stop offset="0" stop-color="#d9b1ee"/><stop offset=".1228" stop-color="#dba3e3"/><stop offset=".3507" stop-color="#e381c8"/><stop offset=".6587" stop-color="#ef499b"/><stop offset="1" stop-color="#fe0364"/></linearGradient><g><g><g><path d="m510 302.434v128.98c0 14.633-17.342 26.013-41.187 26.013-21.136 0-37.393-11.38-37.393-26.013v-11.922c-19.51 22.762-44.44 43.355-82.376 43.355-37.393 0-69.368-22.762-69.368-72.077 0-63.948 52.026-81.833 126.814-81.833h19.51v-5.42c0-18.425-9.756-40.104-40.646-40.104-44.438 0-48.775 17.885-63.406 17.885-18.427 0-28.181-22.219-28.181-41.729 0-25.47 52.569-43.355 92.672-43.355 88.877 0 123.561 51.483 123.561 106.22zm-83.999 47.147h-2.168c-30.89 0-59.614 3.254-59.614 29.267 0 15.714 8.671 22.759 21.136 22.759 16.802 0 40.646-22.219 40.646-49.858z" fill="url(#SVGID_1_)"/><path d="m346.883 314.357c-41.394 9.184-67.206 31.372-67.206 76.413 0 49.315 31.975 72.077 69.368 72.077 37.935 0 62.865-20.593 82.376-43.355v11.922c0 14.633 16.257 26.013 37.393 26.013 23.844 0 41.187-11.38 41.187-26.013v-117.057zm79.118 37.392c0 27.639-23.845 49.858-40.646 49.858-12.465 0-21.136-7.045-21.136-22.759 0-26.013 28.724-29.267 59.614-29.267h2.168z" fill="url(#SVGID_00000026131458087309184080000013305834295611464102_)"/><path d="m279.677 390.77c0 49.315 31.975 72.077 69.368 72.077 4.739 0 9.274-.321 13.622-.928v-150.351c-50.513 6.915-82.99 28.681-82.99 79.202z" fill="url(#SVGID_00000120525570889911471650000014697680727481653898_)"/><path d="m386.44 196.214c-2.115 0-4.265.053-6.44.151v67.143c1.719-.06 3.499-.094 5.355-.094 30.89 0 40.646 21.679 40.646 40.104v5.42h-19.51c-9.193 0-18.04.272-26.491.865v45.649c11.229-4.921 27.213-5.87 43.833-5.87h2.168v2.168c0 27.639-23.845 49.858-40.646 49.858-1.881 0-3.663-.181-5.355-.508v56.63c21.507-7.503 37.79-22.336 51.421-38.238v11.922c0 14.633 16.257 26.013 37.393 26.013 23.844 0 41.187-11.38 41.187-26.013v-128.98c-.001-54.737-34.685-106.22-123.561-106.22z" fill="url(#SVGID_00000046302927155601754310000010112508779362177184_)"/><path d="m423.833 349.581h2.168v-40.644h-19.51c-15.099 0-29.269.73-42.272 2.42v67.487c.002-26.009 28.725-29.263 59.614-29.263z" fill="url(#SVGID_00000082347217810401737420000016303156337593691298_)"/></g><g><path d="m0 428.163c0-1.626.54-3.794 1.083-5.96l100.801-330.584c5.96-18.968 30.347-28.179 55.277-28.179s49.315 9.211 55.277 28.179l101.343 330.583c.54 2.166 1.083 4.334 1.083 5.96 0 20.053-30.89 34.684-54.194 34.684-13.548 0-24.387-4.334-27.639-15.716l-18.425-67.742h-114.348l-18.427 67.742c-3.251 11.382-14.091 15.716-27.639 15.716-23.302.001-54.192-14.63-54.192-34.683zm196.722-113.806-39.561-145.239-39.561 145.239z" fill="url(#SVGID_00000047742481207655085700000017717943395310757790_)"/><path d="m212.438 91.619c-5.941-18.899-30.171-28.109-55.006-28.176v106.671l39.29 144.243h-39.29v65.031h57.174l18.425 67.742c3.251 11.382 14.091 15.716 27.639 15.716 23.304 0 54.194-14.631 54.194-34.684 0-1.626-.543-3.794-1.083-5.96z" fill="url(#SVGID_00000165215738358692707650000016570054442169459593_)"/><path d="m117.6 314.357h-83.633l-32.884 107.846c-.543 2.166-1.083 4.334-1.083 5.96 0 20.053 30.89 34.684 54.192 34.684 13.548 0 24.387-4.334 27.639-15.716l18.427-67.742h114.349l18.425 67.742c3.251 11.382 14.091 15.716 27.639 15.716 23.304 0 54.194-14.631 54.194-34.684 0-1.626-.543-3.794-1.083-5.96l-33.061-107.846h-83.999z" fill="url(#SVGID_00000098929457385122785700000015346237572274914447_)"/><path d="m196.722 314.357h-79.122l-17.342 65.031h114.349z" fill="url(#SVGID_00000086680337455191974410000004367407829313936009_)"/></g></g><path d="m264.266 67.851c4.25-.13 7.73 3.28 7.73 7.49v10.14c18.76-23.99 48.26-39.19 81.2-38.29 52.56 1.45 95.27 44.2 96.67 96.76.153 5.696-.192 11.286-.965 16.739l9.366-9.019c2.98-2.98 7.85-2.93 10.76.16 2.82 2.99 2.52 7.76-.38 10.67l-21.99 21.99c-2.93 2.93-7.68 2.92-10.6 0l-22.21-22.22c-2.99-2.98-2.93-7.85.16-10.76 2.99-2.82 7.76-2.52 10.66.38l9.021 9.021c.541-3.167.914-6.389 1.088-9.661 2.6-48.66-36.26-89.1-84.38-89.1-29.03 0-54.68 14.73-69.9 37.1h15.1c4.11 0 7.69 3.17 7.81 7.27.13 4.25-3.28 7.73-7.5 7.73h-31.41c-4.14 0-7.5-3.35-7.5-7.5v-31.09c0-4.11 3.17-7.69 7.27-7.81z" fill="url(#SVGID_00000183970999219465344190000016343776048895995280_)"/></g></svg>