<svg id="Capa_1" enable-background="new 0 0 510 510" height="512" viewBox="0 0 510 510" width="512" xmlns="http://www.w3.org/2000/svg" xmlns:xlink="http://www.w3.org/1999/xlink"><linearGradient id="lg1"><stop offset="0" stop-color="#bbec6c"/><stop offset="1" stop-color="#78a91f"/></linearGradient><linearGradient id="SVGID_1_" gradientUnits="userSpaceOnUse" x1="47.598" x2="94.946" xlink:href="#lg1" y1="67" y2="67"/><linearGradient id="lg2"><stop offset="0" stop-color="#026841" stop-opacity="0"/><stop offset=".3243" stop-color="#046842" stop-opacity=".324"/><stop offset=".5509" stop-color="#0e6546" stop-opacity=".551"/><stop offset=".7476" stop-color="#1d614c" stop-opacity=".748"/><stop offset=".9263" stop-color="#335c54" stop-opacity=".926"/><stop offset="1" stop-color="#3e5959"/></linearGradient><linearGradient id="SVGID_00000176742671058996793450000004763190556161718160_" gradientUnits="userSpaceOnUse" x1="68.566" x2="52.9" xlink:href="#lg2" y1="68.249" y2="63.249"/><linearGradient id="SVGID_00000057123250649530349130000000195561931404134317_" gradientUnits="userSpaceOnUse" x1="80.686" x2="80.686" xlink:href="#lg2" y1="105" y2="135.223"/><linearGradient id="lg3"><stop offset="0" stop-color="#d9b1ee"/><stop offset=".1228" stop-color="#dba3e3"/><stop offset=".3507" stop-color="#e381c8"/><stop offset=".6587" stop-color="#ef499b"/><stop offset="1" stop-color="#fe0364"/></linearGradient><linearGradient id="SVGID_00000012465923832212393610000005816105913006208427_" gradientUnits="userSpaceOnUse" x1="275.885" x2="363.292" xlink:href="#lg3" y1="-17.616" y2="69.791"/><linearGradient id="lg4"><stop offset="0" stop-color="#a82975" stop-opacity="0"/><stop offset="1" stop-color="#a82975"/></linearGradient><linearGradient id="SVGID_00000066504314650357112420000001711112545150113683_" gradientUnits="userSpaceOnUse" x1="326.397" x2="326.397" xlink:href="#lg4" y1="50.521" y2="58.292"/><linearGradient id="SVGID_00000147922408349271235650000016938828500745553057_" gradientTransform="matrix(0 -1 1 0 2141.411 -1475.412)" gradientUnits="userSpaceOnUse" x1="-1508.308" x2="-1508.308" xlink:href="#lg4" y1="-1693.074" y2="-1672.079"/><linearGradient id="SVGID_00000150784279762023149380000010429589199281130392_" gradientUnits="userSpaceOnUse" x1="275.885" x2="363.292" xlink:href="#lg3" y1="170.384" y2="257.791"/><linearGradient id="SVGID_00000057133891600729049900000006781295561632182437_" gradientUnits="userSpaceOnUse" x1="326.397" x2="326.397" xlink:href="#lg4" y1="238.521" y2="246.292"/><linearGradient id="SVGID_00000122709369806808197520000007241745083382533267_" gradientTransform="matrix(0 -1 1 0 2141.411 -1475.412)" gradientUnits="userSpaceOnUse" x1="-1696.308" x2="-1696.308" xlink:href="#lg4" y1="-1693.074" y2="-1672.079"/><linearGradient id="SVGID_00000152964730701242749710000005774890103105493928_" gradientUnits="userSpaceOnUse" x1="275.885" x2="363.292" xlink:href="#lg3" y1="358.384" y2="445.791"/><linearGradient id="SVGID_00000017506529121524768770000012164774675714029962_" gradientUnits="userSpaceOnUse" x1="326.397" x2="326.397" xlink:href="#lg4" y1="426.521" y2="434.292"/><linearGradient id="SVGID_00000180340923993129871350000004988257875456427171_" gradientTransform="matrix(0 -1 1 0 2141.411 -1475.412)" gradientUnits="userSpaceOnUse" x1="-1884.308" x2="-1884.308" xlink:href="#lg4" y1="-1693.074" y2="-1672.079"/><linearGradient id="SVGID_00000169550199911331807110000004446383454340398013_" gradientUnits="userSpaceOnUse" x1="45.231" x2="122.231" xlink:href="#lg1" y1="413.51" y2="472.51"/><linearGradient id="SVGID_00000180340220608906946830000014324470179006069671_" gradientUnits="userSpaceOnUse" x1="84.272" x2="84.272" xlink:href="#lg2" y1="491.16" y2="509.667"/><linearGradient id="SVGID_00000069391067614932752220000013324186065391314352_" gradientUnits="userSpaceOnUse" x1="99.772" x2="131.029" xlink:href="#lg2" y1="443" y2="443"/><linearGradient id="SVGID_00000170999807700702827120000016230032490580491180_" gradientUnits="userSpaceOnUse" x1="47.034" x2="113.034" xlink:href="#lg1" y1="228.547" y2="289.547"/><linearGradient id="SVGID_00000078039311278518730380000010215155429595951234_" gradientUnits="userSpaceOnUse" x1="84.272" x2="84.272" xlink:href="#lg2" y1="299.987" y2="321.987"/><linearGradient id="SVGID_00000077306109057248623620000002790638979384338109_" gradientUnits="userSpaceOnUse" x1="98.772" x2="133.214" xlink:href="#lg2" y1="240.392" y2="240.392"/><g><g><g><path d="m66.427 32.174-5.301 3.29c-1.644 1.097-3.29 1.464-4.57 1.464-5.301 0-8.958-5.668-8.958-11.335 0-3.839 1.646-7.494 5.303-9.689l24.13-14.624c1.462-.915 3.291-1.28 5.302-1.28 5.85 0 12.613 3.473 12.613 8.958v116.268c0 5.848-7.13 8.774-14.259 8.774s-14.259-2.926-14.259-8.774v-93.052z" fill="url(#SVGID_1_)"/></g><path d="m80.686 134c7.13 0 14.259-2.926 14.259-8.774v-111.657l-28.518 18.605v93.052c0 5.848 7.13 8.774 14.259 8.774z" fill="url(#SVGID_00000176742671058996793450000004763190556161718160_)"/><path d="m66.427 67v58.226c0 5.848 7.13 8.774 14.259 8.774 7.13 0 14.259-2.926 14.259-8.774v-58.226z" fill="url(#SVGID_00000057123250649530349130000000195561931404134317_)"/></g><g><g fill="#aa9ea9"><path d="m269.873 92.786h40.988c3.689 0 6.68-2.991 6.68-6.68s-2.991-6.68-6.68-6.68h-40.988c-3.689 0-6.68 2.991-6.68 6.68s2.991 6.68 6.68 6.68z"/><path d="m189.11 92.786h30.282c3.689 0 6.68-2.991 6.68-6.68s-2.991-6.68-6.68-6.68h-30.282c-3.689 0-6.68 2.991-6.68 6.68s2.991 6.68 6.68 6.68z"/><path d="m242.549 92.786h7.571c3.689 0 6.68-2.991 6.68-6.68s-2.991-6.68-6.68-6.68h-7.571c-3.689 0-6.68 2.991-6.68 6.68s2.991 6.68 6.68 6.68z"/><path d="m288.497 113.521h-68.66c-3.689 0-6.68 2.991-6.68 6.68 0 3.69 2.991 6.68 6.68 6.68h68.66c3.689 0 6.68-2.99 6.68-6.68 0-3.689-2.991-6.68-6.68-6.68z"/><path d="m338.122 92.786h68.66c3.689 0 6.68-2.99 6.68-6.68 0-3.689-2.991-6.68-6.68-6.68h-68.66c-3.689 0-6.68 2.991-6.68 6.68 0 3.69 2.991 6.68 6.68 6.68z"/><path d="m189.11 126.881h7.571c3.689 0 6.68-2.99 6.68-6.68 0-3.689-2.991-6.68-6.68-6.68h-7.571c-3.689 0-6.68 2.991-6.68 6.68s2.991 6.68 6.68 6.68z"/><path d="m312.846 120.201c0 3.69 2.991 6.68 6.68 6.68h7.571c3.689 0 6.68-2.99 6.68-6.68 0-3.689-2.991-6.68-6.68-6.68h-7.571c-3.689 0-6.68 2.991-6.68 6.68z"/></g><g><g><path d="m456.131 58.674h-259.467c-7.862 0-14.235-6.373-14.235-14.235v-23.085c0-7.862 6.373-14.235 14.235-14.235h259.466c7.862 0 14.235 6.373 14.235 14.235v23.086c0 7.861-6.373 14.234-14.234 14.234z" fill="url(#SVGID_00000012465923832212393610000005816105913006208427_)"/><g><path d="m182.43 36.744v7.695c0 7.862 6.373 14.235 14.235 14.235h259.466c7.861 0 14.234-6.373 14.234-14.235v-7.695z" fill="url(#SVGID_00000066504314650357112420000001711112545150113683_)"/><path d="m411.115 58.674h45.016c7.862 0 14.234-6.373 14.234-14.235v-23.085c0-7.861-6.373-14.235-14.234-14.235h-45.016z" fill="url(#SVGID_00000147922408349271235650000016938828500745553057_)"/></g></g></g></g><g><g fill="#aa9ea9"><path d="m310.862 314.881h-40.988c-3.689 0-6.68-2.991-6.68-6.68s2.991-6.68 6.68-6.68h40.988c3.689 0 6.68 2.991 6.68 6.68s-2.991 6.68-6.68 6.68z"/><path d="m189.11 301.521h30.282c3.689 0 6.68 2.991 6.68 6.68s-2.991 6.68-6.68 6.68h-30.282c-3.689 0-6.68-2.991-6.68-6.68s2.991-6.68 6.68-6.68z"/><path d="m242.549 314.881c-3.689 0-6.68-2.991-6.68-6.68s2.991-6.68 6.68-6.68h7.571c3.689 0 6.68 2.991 6.68 6.68s-2.991 6.68-6.68 6.68z"/><path d="m285.03 280.786h40.988c3.689 0 6.68-2.991 6.68-6.68s-2.991-6.68-6.68-6.68h-40.988c-3.689 0-6.68 2.991-6.68 6.68s2.991 6.68 6.68 6.68z"/><path d="m406.782 267.426h-30.282c-3.689 0-6.68 2.991-6.68 6.68s2.991 6.68 6.68 6.68h30.282c3.689 0 6.68-2.991 6.68-6.68s-2.991-6.68-6.68-6.68z"/><path d="m353.342 267.426h-7.571c-3.689 0-6.68 2.991-6.68 6.68s2.991 6.68 6.68 6.68h7.571c3.689 0 6.68-2.991 6.68-6.68s-2.991-6.68-6.68-6.68z"/><path d="m189.11 280.786h68.66c3.689 0 6.68-2.991 6.68-6.68s-2.991-6.68-6.68-6.68h-68.66c-3.689 0-6.68 2.99-6.68 6.68 0 3.689 2.99 6.68 6.68 6.68z"/></g><g><g><path d="m456.131 246.674h-259.467c-7.862 0-14.235-6.373-14.235-14.235v-23.086c0-7.862 6.373-14.235 14.235-14.235h259.466c7.862 0 14.235 6.373 14.235 14.235v23.086c0 7.862-6.373 14.235-14.234 14.235z" fill="url(#SVGID_00000150784279762023149380000010429589199281130392_)"/><g><path d="m182.43 224.744v7.695c0 7.862 6.373 14.234 14.235 14.234h259.466c7.861 0 14.234-6.373 14.234-14.234v-7.695z" fill="url(#SVGID_00000057133891600729049900000006781295561632182437_)"/><path d="m411.115 246.674h45.016c7.862 0 14.234-6.373 14.234-14.235v-23.086c0-7.861-6.373-14.235-14.234-14.235h-45.016z" fill="url(#SVGID_00000122709369806808197520000007241745083382533267_)"/></g></g></g></g><g><g><g><g><path d="m456.131 434.674h-259.467c-7.862 0-14.235-6.373-14.235-14.235v-23.086c0-7.862 6.373-14.235 14.235-14.235h259.466c7.862 0 14.235 6.373 14.235 14.235v23.086c0 7.862-6.373 14.235-14.234 14.235z" fill="url(#SVGID_00000152964730701242749710000005774890103105493928_)"/><g><path d="m182.43 412.744v7.695c0 7.862 6.373 14.235 14.235 14.235h259.466c7.861 0 14.234-6.373 14.234-14.235v-7.695z" fill="url(#SVGID_00000017506529121524768770000012164774675714029962_)"/><path d="m411.115 434.674h45.016c7.862 0 14.234-6.373 14.234-14.235v-23.086c0-7.861-6.373-14.234-14.234-14.234h-45.016z" fill="url(#SVGID_00000180340923993129871350000004988257875456427171_)"/></g></g></g></g><g fill="#aa9ea9"><path d="m213.158 462.106c0 3.689 2.991 6.68 6.68 6.68h68.66c3.689 0 6.68-2.99 6.68-6.68 0-3.689-2.991-6.68-6.68-6.68h-68.66c-3.69 0-6.68 2.991-6.68 6.68z"/><path d="m406.782 455.426h-42.607c-3.689 0-6.68 2.991-6.68 6.68s2.991 6.68 6.68 6.68h42.607c3.689 0 6.68-2.99 6.68-6.68 0-3.689-2.991-6.68-6.68-6.68z"/><path d="m189.11 468.786h7.571c3.689 0 6.68-2.99 6.68-6.68 0-3.689-2.991-6.68-6.68-6.68h-7.571c-3.689 0-6.68 2.991-6.68 6.68 0 3.69 2.991 6.68 6.68 6.68z"/><path d="m310.862 489.521h-40.988c-3.689 0-6.68 2.99-6.68 6.68s2.991 6.68 6.68 6.68h40.988c3.689 0 6.68-2.991 6.68-6.68s-2.991-6.68-6.68-6.68z"/><path d="m189.11 502.881h30.282c3.689 0 6.68-2.991 6.68-6.68s-2.991-6.68-6.68-6.68h-30.282c-3.689 0-6.68 2.99-6.68 6.68s2.991 6.68 6.68 6.68z"/><path d="m242.549 489.521c-3.689 0-6.68 2.99-6.68 6.68s2.991 6.68 6.68 6.68h7.571c3.689 0 6.68-2.991 6.68-6.68s-2.991-6.68-6.68-6.68z"/><path d="m327.097 468.786c3.689 0 6.68-2.99 6.68-6.68 0-3.689-2.991-6.68-6.68-6.68h-7.571c-3.689 0-6.68 2.991-6.68 6.68s2.991 6.68 6.68 6.68z"/></g></g><g><path d="m100.545 468.909v-3.454c0-12.182-7.455-14.546-17.454-14.546-6.183 0-8.182-5.454-8.182-10.909 0-5.454 2-10.907 8.182-10.907 6.908 0 14.182-.91 14.182-15.638 0-10.545-6.001-13.09-13.455-13.09-8.909 0-13.455 2.181-13.455 9.272 0 6.183-2.727 10.363-13.272 10.363-13.092 0-14.728-2.727-14.728-11.453 0-14.182 10.18-32.546 41.454-32.546 23.091 0 40.546 8.364 40.546 32.909 0 13.273-4.91 25.637-14.001 29.818 10.726 4.001 18.546 12.001 18.546 26.728v3.454c0 29.818-20.546 41.091-46.001 41.091-31.272 0-43.272-19.092-43.272-34.363 0-8.182 3.456-10.363 13.455-10.363 11.636 0 14.546 2.544 14.546 9.453 0 8.545 7.999 10.545 16.182 10.545 12.363-.001 16.727-4.547 16.727-16.364z" fill="url(#SVGID_00000169550199911331807110000004446383454340398013_)"/><path d="m100.545 468.909v-3.454c0-12.182-7.455-14.546-17.454-14.546-6.183 0-8.182-5.454-8.182-10.909 0-5.454 2-10.907 8.182-10.907 6.908 0 14.182-.91 14.182-15.638 0-10.545-6.001-13.09-13.455-13.09-8.909 0-13.455 2.181-13.455 9.272 0 6.183-2.727 10.363-13.272 10.363-13.092 0-14.728-2.727-14.728-11.453 0-14.182 10.18-32.546 41.454-32.546 23.091 0 40.546 8.364 40.546 32.909 0 13.273-4.91 25.637-14.001 29.818 10.726 4.001 18.546 12.001 18.546 26.728v3.454c0 29.818-20.546 41.091-46.001 41.091-31.272 0-43.272-19.092-43.272-34.363 0-8.182 3.456-10.363 13.455-10.363 11.636 0 14.546 2.544 14.546 9.453 0 8.545 7.999 10.545 16.182 10.545 12.363-.001 16.727-4.547 16.727-16.364z" fill="url(#SVGID_00000169550199911331807110000004446383454340398013_)"/><path d="m74.977 438.356c-.043.544-.069 1.093-.069 1.643 0 5.456 2 10.909 8.182 10.909 9.999 0 17.454 2.364 17.454 14.546v3.454c0 11.818-4.364 16.363-16.727 16.363-8.182 0-16.182-2-16.182-10.545 0-6.91-2.91-9.453-14.546-9.453-9.999 0-13.455 2.181-13.455 10.363 0 15.271 12.001 34.363 43.272 34.363 25.455 0 46.001-11.274 46.001-41.091v-3.454c0-14.728-7.82-22.727-18.546-26.728.24-.11.465-.249.698-.37z" fill="url(#SVGID_00000180340220608906946830000014324470179006069671_)"/><path d="m110.363 438.727c9.091-4.181 14-16.544 14-29.818 0-24.545-17.454-32.909-40.546-32.909-3.631 0-6.966.257-10.046.717v25.612c2.25-1.422 5.605-1.964 10.046-1.964 7.453 0 13.455 2.546 13.455 13.09 0 14.728-7.274 15.638-14.182 15.638-6.183 0-8.182 5.454-8.182 10.907 0 5.456 2 10.909 8.182 10.909 9.999 0 17.454 2.364 17.454 14.546v3.454c0 11.818-4.364 16.363-16.727 16.363-3.608 0-7.179-.391-10.046-1.559v25.682c2.846.388 5.88.605 9.136.605 25.455 0 46.001-11.274 46.001-41.091v-3.454c0-14.728-7.819-22.727-18.545-26.728z" fill="url(#SVGID_00000069391067614932752220000013324186065391314352_)"/></g><g><path d="m84.729 188c21.265 0 42.712 13.382 42.712 37.947 0 39.778-56.643 52.793-56.643 69.473v1.651h48.028c4.583 0 8.615 5.681 8.615 12.282 0 6.599-4.032 12.648-8.615 12.648h-65.258c-5.133 0-12.467-3.482-12.467-8.798v-17.783c0-28.779 57.743-45.277 57.743-68.557 0-5.866-3.667-13.015-13.931-13.015-7.334 0-13.748 3.667-13.748 13.748 0 5.316-5.683 10.449-15.031 10.449-7.334 0-12.832-3.299-12.832-14.848.001-22.365 20.53-35.197 41.427-35.197z" fill="url(#SVGID_00000170999807700702827120000016230032490580491180_)"/><path d="m115.51 255h-39.99c-16.025 11.846-34.418 24.177-34.418 40.42v17.782c0 5.316 7.334 8.798 12.467 8.798h65.258c4.583 0 8.615-6.049 8.615-12.648 0-6.601-4.032-12.282-8.615-12.282h-48.028v-1.651c0-11.747 28.095-21.677 44.711-40.419z" fill="url(#SVGID_00000078039311278518730380000010215155429595951234_)"/><path d="m84.729 188c-4.574 0-9.13.615-13.458 1.81v35.725c.827-8.519 6.834-11.688 13.643-11.688 10.264 0 13.931 7.149 13.931 13.015 0 11.291-13.583 20.987-27.573 31.262v34.66c5.403-15.505 56.17-29.176 56.17-66.838 0-24.564-21.448-37.946-42.713-37.946z" fill="url(#SVGID_00000077306109057248623620000002790638979384338109_)"/></g></g></svg>