<svg id="Capa_1" enable-background="new 0 0 510 510" height="512" viewBox="0 0 510 510" width="512" xmlns="http://www.w3.org/2000/svg" xmlns:xlink="http://www.w3.org/1999/xlink"><linearGradient id="SVGID_1_" gradientUnits="userSpaceOnUse" x1="144.605" x2="402.468" y1="172.195" y2="363.239"><stop offset="0" stop-color="#6e61b6"/><stop offset="1" stop-color="#433f43"/></linearGradient><linearGradient id="lg1"><stop offset="0" stop-color="#433f43" stop-opacity="0"/><stop offset="1" stop-color="#1a1a1a"/></linearGradient><linearGradient id="SVGID_00000075161370664475178660000013479960227618856097_" gradientUnits="userSpaceOnUse" x1="364.641" x2="433.164" xlink:href="#lg1" y1="271.363" y2="271.363"/><linearGradient id="SVGID_00000136395140602976360400000013116213994369738909_" gradientUnits="userSpaceOnUse" x1="253.1" x2="253.1" xlink:href="#lg1" y1="447.567" y2="499.256"/><linearGradient id="lg2"><stop offset="0" stop-color="#f9f7f8"/><stop offset="1" stop-color="#e5e1e5"/></linearGradient><linearGradient id="SVGID_00000149368679652077515990000017063442049558358406_" gradientUnits="userSpaceOnUse" x1="128.315" x2="386.178" xlink:href="#lg2" y1="188.484" y2="379.529"/><linearGradient id="lg3"><stop offset="0" stop-color="#9b8e99" stop-opacity="0"/><stop offset=".3465" stop-color="#978a95" stop-opacity=".347"/><stop offset=".7135" stop-color="#8a7f88" stop-opacity=".714"/><stop offset="1" stop-color="#7b7179"/></linearGradient><linearGradient id="SVGID_00000060710618902600360030000016596660255813143945_" gradientUnits="userSpaceOnUse" x1="348.352" x2="416.875" xlink:href="#lg3" y1="287.652" y2="287.652"/><linearGradient id="SVGID_00000080920305065143288380000002080242318164848816_" gradientUnits="userSpaceOnUse" x1="359.628" x2="352.628" xlink:href="#lg3" y1="203.084" y2="134.417"/><linearGradient id="SVGID_00000010989509889871528680000014348795372310172056_" gradientUnits="userSpaceOnUse" x1="236.811" x2="236.811" xlink:href="#lg3" y1="463.856" y2="515.545"/><linearGradient id="SVGID_00000121998314528016429880000001470334097343384724_" gradientUnits="userSpaceOnUse" x1="227.219" x2="160.157" xlink:href="#lg3" y1="470.303" y2="465.996"/><linearGradient id="SVGID_00000155850257223008653700000015319815490971398056_" gradientUnits="userSpaceOnUse" x1="154.786" x2="130.792" xlink:href="#lg2" y1="444.388" y2="482.533"/><linearGradient id="SVGID_00000124855255841767855070000012897245974707626626_" gradientUnits="userSpaceOnUse" x1="315.78" x2="405.327" y1="18.938" y2="120.953"><stop offset="0" stop-color="#d9b1ee"/><stop offset=".1228" stop-color="#dba3e3"/><stop offset=".3507" stop-color="#e381c8"/><stop offset=".6587" stop-color="#ef499b"/><stop offset="1" stop-color="#fe0364"/></linearGradient><linearGradient id="lg4"><stop offset="0" stop-color="#a82975" stop-opacity="0"/><stop offset="1" stop-color="#a82975"/></linearGradient><linearGradient id="SVGID_00000047049068902863293940000011308555104160960922_" gradientUnits="userSpaceOnUse" x1="367.75" x2="367.75" xlink:href="#lg4" y1="117" y2="155"/><linearGradient id="SVGID_00000098909243410186780190000010169753324155969187_" gradientUnits="userSpaceOnUse" x1="406.75" x2="441.825" xlink:href="#lg4" y1="78.409" y2="78.409"/><linearGradient id="SVGID_00000150813853810661907110000001904312583690793655_" gradientUnits="userSpaceOnUse" x1="428.517" x2="351.85" xlink:href="#lg4" y1="126.807" y2="58.473"/><linearGradient id="SVGID_00000146458618140733732440000006871064093628391081_" gradientUnits="userSpaceOnUse" x1="354.874" x2="378.069" y1="57.408" y2="80.603"><stop offset="0" stop-color="#fef0ae"/><stop offset="1" stop-color="#fac600"/></linearGradient><linearGradient id="lg5"><stop offset="0" stop-color="#fea613" stop-opacity="0"/><stop offset=".2032" stop-color="#fda215" stop-opacity=".203"/><stop offset=".4052" stop-color="#fb961b" stop-opacity=".405"/><stop offset=".6066" stop-color="#f68225" stop-opacity=".607"/><stop offset=".8066" stop-color="#f06633" stop-opacity=".807"/><stop offset="1" stop-color="#e94444"/></linearGradient><linearGradient id="SVGID_00000127038415388819567810000011404069273893778052_" gradientUnits="userSpaceOnUse" x1="379.905" x2="347.571" xlink:href="#lg5" y1="64.553" y2="85.22"/><linearGradient id="SVGID_00000029731271065282901330000011394326133773325992_" gradientUnits="userSpaceOnUse" x1="384.793" x2="410.126" xlink:href="#lg5" y1="66.156" y2="77.822"/><linearGradient id="SVGID_00000149356212133717036800000015514815069102788488_" gradientUnits="userSpaceOnUse" x1="367.75" x2="367.75" xlink:href="#lg5" y1="85" y2="115.002"/><linearGradient id="SVGID_00000101097034412443165630000011730791759114961036_" gradientUnits="userSpaceOnUse" x1="357.421" x2="380.754" xlink:href="#lg5" y1="81.852" y2="56.186"/><g><g><path d="m395.241 493.711h-208.57c-51.988 0-94.133-42.145-94.133-94.133v-332.143c0-10.173 8.247-18.42 18.42-18.42h284.283c10.173 0 18.42 8.247 18.42 18.42v407.856c0 10.173-8.247 18.42-18.42 18.42z" fill="url(#SVGID_1_)"/><path d="m395.241 49.015h-163.423v444.696h163.424c10.173 0 18.42-8.247 18.42-18.42v-407.856c-.001-10.173-8.248-18.42-18.421-18.42z" fill="url(#SVGID_00000075161370664475178660000013479960227618856097_)"/><path d="m92.539 324.518v75.06c0 51.988 42.145 94.133 94.133 94.133h208.57c10.173 0 18.42-8.247 18.42-18.42v-150.773z" fill="url(#SVGID_00000136395140602976360400000013116213994369738909_)"/></g><g><g><g><path d="m378.952 510h-208.57c-51.988 0-94.133-42.145-94.133-94.133v-332.143c0-10.173 8.247-18.42 18.42-18.42h284.283c10.173 0 18.42 8.247 18.42 18.42v407.856c0 10.173-8.247 18.42-18.42 18.42z" fill="url(#SVGID_00000149368679652077515990000017063442049558358406_)"/><path d="m378.952 65.304h-163.424v444.696h163.424c10.173 0 18.42-8.247 18.42-18.42v-407.856c0-10.173-8.247-18.42-18.42-18.42z" fill="url(#SVGID_00000060710618902600360030000016596660255813143945_)"/><path d="m397.372 125.333h-88.622v26.667l88.622 88.622z" fill="url(#SVGID_00000080920305065143288380000002080242318164848816_)"/><path d="m76.25 340.807v75.06c0 51.988 42.145 94.133 94.133 94.133h208.57c10.173 0 18.42-8.247 18.42-18.42v-150.773z" fill="url(#SVGID_00000010989509889871528680000014348795372310172056_)"/><path d="m165.864 422.836v87.054c1.498.071 3.003.11 4.518.11h82.646z" fill="url(#SVGID_00000121998314528016429880000001470334097343384724_)"/><path d="m170.383 470.391c0 21.875 17.733 39.609 39.609 39.609h-39.609c-51.988 0-94.133-42.145-94.133-94.133h74.715c10.724 0 19.418 8.694 19.418 19.418z" fill="url(#SVGID_00000155850257223008653700000015319815490971398056_)"/></g></g><g fill="#aa9ea9"><path d="m208.738 128.404h40.988c3.689 0 6.68-2.991 6.68-6.68s-2.991-6.68-6.68-6.68h-40.988c-3.689 0-6.68 2.991-6.68 6.68.001 3.689 2.991 6.68 6.68 6.68z"/><path d="m127.975 128.404h30.282c3.689 0 6.68-2.991 6.68-6.68s-2.991-6.68-6.68-6.68h-30.282c-3.689 0-6.68 2.991-6.68 6.68s2.991 6.68 6.68 6.68z"/><path d="m181.414 128.404h7.571c3.689 0 6.68-2.991 6.68-6.68s-2.991-6.68-6.68-6.68h-7.571c-3.689 0-6.68 2.991-6.68 6.68s2.991 6.68 6.68 6.68z"/><path d="m227.362 149.138h-68.66c-3.689 0-6.68 2.991-6.68 6.68 0 3.69 2.991 6.68 6.68 6.68h68.66c3.689 0 6.68-2.99 6.68-6.68 0-3.689-2.991-6.68-6.68-6.68z"/><path d="m276.987 128.404h68.66c3.689 0 6.68-2.99 6.68-6.68 0-3.689-2.991-6.68-6.68-6.68h-68.66c-3.689 0-6.68 2.991-6.68 6.68s2.991 6.68 6.68 6.68z"/><path d="m127.975 162.498h7.571c3.689 0 6.68-2.99 6.68-6.68 0-3.689-2.991-6.68-6.68-6.68h-7.571c-3.689 0-6.68 2.991-6.68 6.68 0 3.69 2.991 6.68 6.68 6.68z"/><path d="m249.727 187.567h-40.988c-3.689 0-6.68 2.991-6.68 6.68s2.991 6.68 6.68 6.68h40.988c3.689 0 6.68-2.991 6.68-6.68 0-3.69-2.991-6.68-6.68-6.68z"/><path d="m127.975 200.927h30.282c3.689 0 6.68-2.991 6.68-6.68s-2.991-6.68-6.68-6.68h-30.282c-3.689 0-6.68 2.991-6.68 6.68s2.991 6.68 6.68 6.68z"/><path d="m181.414 187.567c-3.689 0-6.68 2.991-6.68 6.68s2.991 6.68 6.68 6.68h7.571c3.689 0 6.68-2.991 6.68-6.68s-2.991-6.68-6.68-6.68z"/><path d="m251.711 155.818c0 3.69 2.991 6.68 6.68 6.68h7.571c3.689 0 6.68-2.99 6.68-6.68 0-3.689-2.991-6.68-6.68-6.68h-7.571c-3.689 0-6.68 2.991-6.68 6.68z"/><path d="m249.727 230.516h-40.988c-3.689 0-6.68 2.991-6.68 6.68s2.991 6.68 6.68 6.68h40.988c3.689 0 6.68-2.991 6.68-6.68s-2.991-6.68-6.68-6.68z"/><path d="m127.975 243.876h30.282c3.689 0 6.68-2.991 6.68-6.68s-2.991-6.68-6.68-6.68h-30.282c-3.689 0-6.68 2.991-6.68 6.68s2.991 6.68 6.68 6.68z"/><path d="m181.414 243.876h7.571c3.689 0 6.68-2.991 6.68-6.68s-2.991-6.68-6.68-6.68h-7.571c-3.689 0-6.68 2.991-6.68 6.68s2.991 6.68 6.68 6.68z"/><path d="m152.023 271.291c0 3.689 2.991 6.68 6.68 6.68h68.66c3.689 0 6.68-2.99 6.68-6.68 0-3.689-2.991-6.68-6.68-6.68h-68.66c-3.69 0-6.68 2.991-6.68 6.68z"/><path d="m345.647 230.516h-68.66c-3.689 0-6.68 2.991-6.68 6.68s2.991 6.68 6.68 6.68h68.66c3.689 0 6.68-2.99 6.68-6.68 0-3.689-2.991-6.68-6.68-6.68z"/><path d="m345.647 264.611h-42.607c-3.689 0-6.68 2.991-6.68 6.68s2.991 6.68 6.68 6.68h42.607c3.689 0 6.68-2.99 6.68-6.68 0-3.689-2.991-6.68-6.68-6.68z"/><path d="m127.975 277.971h7.571c3.689 0 6.68-2.99 6.68-6.68 0-3.689-2.991-6.68-6.68-6.68h-7.571c-3.689 0-6.68 2.991-6.68 6.68s2.991 6.68 6.68 6.68z"/><path d="m249.727 303.039h-40.988c-3.689 0-6.68 2.99-6.68 6.68s2.991 6.68 6.68 6.68h40.988c3.689 0 6.68-2.991 6.68-6.68s-2.991-6.68-6.68-6.68z"/><path d="m127.975 316.399h30.282c3.689 0 6.68-2.991 6.68-6.68s-2.991-6.68-6.68-6.68h-30.282c-3.689 0-6.68 2.99-6.68 6.68s2.991 6.68 6.68 6.68z"/><path d="m181.414 303.039c-3.689 0-6.68 2.99-6.68 6.68s2.991 6.68 6.68 6.68h7.571c3.689 0 6.68-2.991 6.68-6.68s-2.991-6.68-6.68-6.68z"/><path d="m265.962 277.971c3.689 0 6.68-2.99 6.68-6.68 0-3.689-2.991-6.68-6.68-6.68h-7.571c-3.689 0-6.68 2.991-6.68 6.68s2.991 6.68 6.68 6.68z"/><path d="m256.407 352.668c0-3.689-2.991-6.68-6.68-6.68h-40.988c-3.689 0-6.68 2.991-6.68 6.68s2.991 6.68 6.68 6.68h40.988c3.689 0 6.68-2.99 6.68-6.68z"/><path d="m127.975 359.348h30.282c3.689 0 6.68-2.991 6.68-6.68s-2.991-6.68-6.68-6.68h-30.282c-3.689 0-6.68 2.991-6.68 6.68 0 3.69 2.991 6.68 6.68 6.68z"/><path d="m181.414 359.348h7.571c3.689 0 6.68-2.991 6.68-6.68s-2.991-6.68-6.68-6.68h-7.571c-3.689 0-6.68 2.991-6.68 6.68 0 3.69 2.991 6.68 6.68 6.68z"/><path d="m345.647 345.988h-68.66c-3.689 0-6.68 2.991-6.68 6.68 0 3.69 2.991 6.68 6.68 6.68h68.66c3.689 0 6.68-2.99 6.68-6.68 0-3.689-2.991-6.68-6.68-6.68z"/></g></g><g><path d="m433.75 17.5v120.882c0 16.392-19.819 24.601-31.41 13.01l-5.59-5.59c-16.016-16.016-41.984-16.016-58 0l-5.59 5.59c-11.591 11.591-31.41 3.382-31.41-13.01v-120.882c0-9.665 7.835-17.5 17.5-17.5h97c9.665 0 17.5 7.835 17.5 17.5z" fill="url(#SVGID_00000124855255841767855070000012897245974707626626_)"/><path d="m301.75 66.304v72.078c0 16.392 19.819 24.601 31.41 13.01l5.59-5.59c16.016-16.016 41.984-16.016 58 0l5.59 5.59c11.591 11.591 31.41 3.382 31.41-13.01v-72.078z" fill="url(#SVGID_00000047049068902863293940000011308555104160960922_)"/><path d="m416.25 0h-63.923v136.79c14.809-6.001 32.414-2.997 44.423 9.013l5.59 5.59c11.591 11.591 31.41 3.382 31.41-13.01v-120.883c0-9.665-7.835-17.5-17.5-17.5z" fill="url(#SVGID_00000098909243410186780190000010169753324155969187_)"/></g><path d="m433.75 138.382v-71.379l-17.988-17.988-12.383-2.244-27.193-27.193-38.769 89.755 24.833 24.833c12.244-1.648 25.09 2.226 34.501 11.636l5.59 5.59c11.591 11.592 31.409 3.382 31.409-13.01z" fill="url(#SVGID_00000150813853810661907110000001904312583690793655_)"/><g><path d="m377.874 22.098 6.631 13.436c1.644 3.332 4.823 5.641 8.5 6.176l14.827 2.155c9.26 1.346 12.957 12.725 6.257 19.256l-10.729 10.457c-2.661 2.594-3.875 6.33-3.247 9.993l2.533 14.767c1.582 9.222-8.098 16.255-16.38 11.901l-13.262-6.972c-3.289-1.729-7.218-1.729-10.507 0l-13.262 6.972c-8.282 4.354-17.962-2.679-16.38-11.901l2.533-14.767c.628-3.662-.586-7.399-3.247-9.993l-10.73-10.458c-6.7-6.531-3.003-17.911 6.257-19.256l14.827-2.155c3.677-.534 6.856-2.844 8.5-6.176l6.631-13.436c4.142-8.39 16.107-8.39 20.248.001z" fill="url(#SVGID_00000146458618140733732440000006871064093628391081_)"/><path d="m373.004 103.267 13.262 6.972c8.282 4.354 17.962-2.679 16.38-11.901l-2.533-14.767c-.628-3.662.586-7.399 3.247-9.993l10.729-10.458c6.7-6.531 3.003-17.911-6.257-19.256l-14.827-2.154c-3.677-.534-6.856-2.844-8.5-6.176l-6.631-13.436c-2.071-4.195-6.097-6.293-10.124-6.293v86.166c1.805-.001 3.609.432 5.254 1.296z" fill="url(#SVGID_00000127038415388819567810000011404069273893778052_)"/><path d="m373.004 103.267 13.262 6.972c8.282 4.354 17.962-2.679 16.38-11.901l-2.533-14.767c-.628-3.662.586-7.399 3.247-9.993l10.729-10.458c6.7-6.531 3.003-17.911-6.257-19.256l-14.827-2.154c-3.677-.534-6.856-2.844-8.5-6.176l-6.631-13.436c-2.071-4.195-6.097-6.293-10.124-6.293v86.166c1.805-.001 3.609.432 5.254 1.296z" fill="url(#SVGID_00000029731271065282901330000011394326133773325992_)"/><path d="m321.411 63.12 10.729 10.458c2.661 2.594 3.875 6.33 3.247 9.993l-2.533 14.767c-1.582 9.222 8.098 16.255 16.38 11.901l13.262-6.972c3.289-1.729 7.218-1.729 10.507 0l13.262 6.972c8.282 4.354 17.962-2.679 16.38-11.901l-2.533-14.767c-.628-3.662.586-7.399 3.247-9.993l10.729-10.458c2.934-2.86 3.874-6.65 3.226-10.12h-99.131c-.646 3.47.294 7.26 3.228 10.12z" fill="url(#SVGID_00000149356212133717036800000015514815069102788488_)"/><path d="m332.141 73.578c2.661 2.594 3.875 6.33 3.247 9.993l-2.533 14.767c-1.582 9.222 8.098 16.255 16.38 11.901l13.262-6.972c3.289-1.729 7.218-1.729 10.507 0l13.262 6.972c8.282 4.354 17.962-2.679 16.38-11.901l-2.533-14.767c-.265-1.546-.184-3.1.178-4.58l-81.891-26.91c-1.011 3.707-.185 7.924 3.011 11.04z" fill="url(#SVGID_00000101097034412443165630000011730791759114961036_)"/></g></g></svg>