<svg id="Capa_1" enable-background="new 0 0 510 510" height="512" viewBox="0 0 510 510" width="512" xmlns="http://www.w3.org/2000/svg" xmlns:xlink="http://www.w3.org/1999/xlink"><linearGradient id="SVGID_1_" gradientTransform="matrix(0 1 1 0 -35.959 35.959)" gradientUnits="userSpaceOnUse" x1="111.856" x2="398.454" y1="171.739" y2="384.073"><stop offset="0" stop-color="#6e61b6"/><stop offset="1" stop-color="#433f43"/></linearGradient><linearGradient id="lg1"><stop offset="0" stop-color="#433f43" stop-opacity="0"/><stop offset="1" stop-color="#1a1a1a"/></linearGradient><linearGradient id="SVGID_00000051379813720859119730000006337131902651692441_" gradientTransform="matrix(0 1 1 0 -35.959 35.959)" gradientUnits="userSpaceOnUse" x1="354.802" x2="435.242" xlink:href="#lg1" y1="281.112" y2="281.112"/><linearGradient id="SVGID_00000062888883931363028780000018188881905045657493_" gradientTransform="matrix(0 1 1 0 -35.959 35.959)" gradientUnits="userSpaceOnUse" x1="233.068" x2="233.068" xlink:href="#lg1" y1="478.196" y2="532.042"/><linearGradient id="lg2"><stop offset="0" stop-color="#f9f7f8"/><stop offset="1" stop-color="#e5e1e5"/></linearGradient><linearGradient id="SVGID_00000018215438504749691440000007825125051748118151_" gradientTransform="matrix(0 1 1 0 -35.959 35.959)" gradientUnits="userSpaceOnUse" x1="83.801" x2="370.399" xlink:href="#lg2" y1="191.433" y2="403.768"/><linearGradient id="lg3"><stop offset="0" stop-color="#9b8e99" stop-opacity="0"/><stop offset=".3465" stop-color="#978a95" stop-opacity=".347"/><stop offset=".7135" stop-color="#8a7f88" stop-opacity=".714"/><stop offset="1" stop-color="#7b7179"/></linearGradient><linearGradient id="SVGID_00000025408645654762191930000001768993457962146990_" gradientTransform="matrix(0 1 1 0 -35.959 35.959)" gradientUnits="userSpaceOnUse" x1="326.747" x2="407.187" xlink:href="#lg3" y1="300.807" y2="300.807"/><linearGradient id="SVGID_00000147909665554172456850000001584821690306431115_" gradientTransform="matrix(0 1 1 0 -35.959 35.959)" gradientUnits="userSpaceOnUse" x1="205.013" x2="205.013" xlink:href="#lg3" y1="497.89" y2="551.736"/><linearGradient id="SVGID_00000027568449561273202810000014299209456723554485_" gradientUnits="userSpaceOnUse" x1="524.757" x2="452.654" xlink:href="#lg3" y1="209.535" y2="165.311"/><linearGradient id="SVGID_00000182495630693758446670000004433716377728453809_" gradientTransform="matrix(0 1 1 0 -35.959 35.959)" gradientUnits="userSpaceOnUse" x1="101.33" x2="346.482" y1="207.25" y2="388.878"><stop offset="0" stop-color="#d5daf3"/><stop offset="1" stop-color="#60b7ff"/></linearGradient><linearGradient id="lg4"><stop offset="0" stop-color="#528fd8" stop-opacity="0"/><stop offset=".214" stop-color="#4e8dd7" stop-opacity=".214"/><stop offset=".4386" stop-color="#4187d5" stop-opacity=".439"/><stop offset=".6681" stop-color="#2c7dd0" stop-opacity=".668"/><stop offset=".8995" stop-color="#0f6fc9" stop-opacity=".9"/><stop offset="1" stop-color="#0067c5"/></linearGradient><linearGradient id="SVGID_00000055704057040468086070000002077514546296271788_" gradientTransform="matrix(0 1 1 0 -35.959 35.959)" gradientUnits="userSpaceOnUse" x1="309.142" x2="377.949" xlink:href="#lg4" y1="300.807" y2="300.807"/><linearGradient id="SVGID_00000167372723665588964540000017781455787413433238_" gradientTransform="matrix(0 1 1 0 -35.959 35.959)" gradientUnits="userSpaceOnUse" x1="205.013" x2="205.013" xlink:href="#lg4" y1="469.389" y2="515.448"/><linearGradient id="SVGID_00000099652037672125336360000004700512402299286970_" gradientUnits="userSpaceOnUse" x1="502.91" x2="426.961" xlink:href="#lg4" y1="259.386" y2="119.985"/><linearGradient id="SVGID_00000094616947928307826510000012756699484704067492_" gradientTransform="matrix(0 1 1 0 -35.959 35.959)" gradientUnits="userSpaceOnUse" x1="107.548" x2="82.552" xlink:href="#lg2" y1="477.609" y2="517.347"/><linearGradient id="lg5"><stop offset="0" stop-color="#bbec6c"/><stop offset="1" stop-color="#78a91f"/></linearGradient><linearGradient id="SVGID_00000005244693355289008060000003220217267219240074_" gradientUnits="userSpaceOnUse" x1="101.665" x2="198.955" xlink:href="#lg5" y1="303.627" y2="400.917"/><linearGradient id="SVGID_00000132087158987474081280000004196398387233620610_" gradientUnits="userSpaceOnUse" x1="266.15" x2="390.879" xlink:href="#lg5" y1="253.082" y2="377.811"/><linearGradient id="lg6"><stop offset="0" stop-color="#026841" stop-opacity="0"/><stop offset=".3243" stop-color="#046842" stop-opacity=".324"/><stop offset=".5509" stop-color="#0e6546" stop-opacity=".551"/><stop offset=".7476" stop-color="#1d614c" stop-opacity=".748"/><stop offset=".9263" stop-color="#335c54" stop-opacity=".926"/><stop offset="1" stop-color="#3e5959"/></linearGradient><linearGradient id="SVGID_00000008864780583269938690000018303402216641153981_" gradientUnits="userSpaceOnUse" x1="418.989" x2="474.749" xlink:href="#lg6" y1="273.955" y2="273.955"/><linearGradient id="SVGID_00000153669532456857395690000009056878945743148443_" gradientUnits="userSpaceOnUse" x1="264.848" x2="264.848" xlink:href="#lg6" y1="357.781" y2="397.771"/><linearGradient id="lg7"><stop offset="0" stop-color="#fef0ae"/><stop offset="1" stop-color="#fac600"/></linearGradient><linearGradient id="SVGID_00000070119813378817969940000017281409499416746126_" gradientUnits="userSpaceOnUse" x1="202.125" x2="249.521" xlink:href="#lg7" y1="162.814" y2="210.209"/><linearGradient id="lg8"><stop offset="0" stop-color="#fea613" stop-opacity="0"/><stop offset=".2032" stop-color="#fda215" stop-opacity=".203"/><stop offset=".4052" stop-color="#fb961b" stop-opacity=".405"/><stop offset=".6066" stop-color="#f68225" stop-opacity=".607"/><stop offset=".8066" stop-color="#f06633" stop-opacity=".807"/><stop offset="1" stop-color="#e94444"/></linearGradient><linearGradient id="SVGID_00000004533315406835071510000001546781154211227308_" gradientUnits="userSpaceOnUse" x1="222.034" x2="222.034" xlink:href="#lg8" y1="183.456" y2="230"/><linearGradient id="SVGID_00000000218032853330564820000015971723457905133216_" gradientUnits="userSpaceOnUse" x1="230.369" x2="257.921" xlink:href="#lg8" y1="191.057" y2="218.609"/><linearGradient id="SVGID_00000147906792403273347910000006841006330747824526_" gradientUnits="userSpaceOnUse" x1="206.411" x2="299.275" xlink:href="#lg7" y1="96.379" y2="189.243"/><linearGradient id="SVGID_00000096743013895687693350000009380881502391413671_" gradientUnits="userSpaceOnUse" x1="135.691" x2="228.555" xlink:href="#lg7" y1="167.099" y2="259.963"/><linearGradient id="SVGID_00000161615514018978844710000008132257406025160082_" gradientUnits="userSpaceOnUse" x1="221.057" x2="313.921" xlink:href="#lg7" y1="81.733" y2="174.597"/><linearGradient id="SVGID_00000087399681355571026680000012339690052267631026_" gradientUnits="userSpaceOnUse" x1="121.044" x2="213.909" xlink:href="#lg7" y1="181.745" y2="274.61"/><linearGradient id="SVGID_00000148621311036441788940000009733561507610731174_" gradientUnits="userSpaceOnUse" x1="171.051" x2="263.915" xlink:href="#lg7" y1="131.739" y2="224.603"/><g><g><path d="m490.305 429.118v-241.308c0-54.158-43.903-98.061-98.061-98.061h-373.055c-10.598 0-19.189 8.591-19.189 19.188v320.18c0 10.598 8.591 19.189 19.189 19.189h451.928c10.597 0 19.188-8.591 19.188-19.188z" fill="url(#SVGID_1_)"/><path d="m0 429.118v-194.278h490.305v194.278c0 10.598-8.591 19.189-19.189 19.189h-451.927c-10.598-.001-19.189-8.592-19.189-19.189z" fill="url(#SVGID_00000051379813720859119730000006337131902651692441_)"/><path d="m314.052 89.749h78.193c54.157 0 98.061 43.903 98.061 98.061v241.308c0 10.598-8.591 19.189-19.189 19.189h-157.065z" fill="url(#SVGID_00000062888883931363028780000018188881905045657493_)"/></g><g><g><g><path d="m510 401.063v-241.308c0-54.158-43.903-98.061-98.061-98.061h-373.056c-10.598 0-19.189 8.591-19.189 19.189v320.18c0 10.598 8.591 19.189 19.189 19.189h451.928c10.598-.001 19.189-8.592 19.189-19.189z" fill="url(#SVGID_00000018215438504749691440000007825125051748118151_)"/><path d="m19.695 401.063v-194.279h490.305v194.278c0 10.598-8.591 19.189-19.189 19.189h-451.927c-10.598 0-19.189-8.591-19.189-19.188z" fill="url(#SVGID_00000025408645654762191930000001768993457962146990_)"/><path d="m333.747 61.694h78.193c54.157 0 98.061 43.903 98.061 98.061v241.308c0 10.598-8.591 19.189-19.189 19.189h-157.065z" fill="url(#SVGID_00000147909665554172456850000001584821690306431115_)"/><path d="m419.198 155.048h90.687c.074 1.56.115 3.129.115 4.707v86.094z" fill="url(#SVGID_00000027568449561273202810000014299209456723554485_)"/></g></g><g><path d="m474.547 377.911v-206.411c0-46.326-37.554-83.88-83.88-83.88h-319.106c-9.065 0-16.414 7.349-16.414 16.414v273.877c0 9.065 7.349 16.414 16.414 16.414h386.572c9.065 0 16.414-7.349 16.414-16.414z" fill="url(#SVGID_00000182495630693758446670000004433716377728453809_)"/><path d="m55.148 377.911v-166.182h419.399v166.183c0 9.065-7.349 16.414-16.414 16.414h-386.572c-9.065-.001-16.413-7.35-16.413-16.415z" fill="url(#SVGID_00000055704057040468086070000002077514546296271788_)"/><path d="m323.783 87.62h66.885c46.325 0 83.88 37.554 83.88 83.88v206.411c0 9.065-7.349 16.414-16.414 16.414h-134.351z" fill="url(#SVGID_00000167372723665588964540000017781455787413433238_)"/><path d="m474.547 210.396v-38.896c0-5.632-.559-11.132-1.617-16.452h-53.731z" fill="url(#SVGID_00000099652037672125336360000004700512402299286970_)"/></g><path d="m468.739 159.755c22.788 0 41.261 18.473 41.261 41.261v-41.262c0-54.158-43.903-98.061-98.061-98.061v77.833c0 11.172 9.056 20.228 20.228 20.228h36.572z" fill="url(#SVGID_00000094616947928307826510000012756699484704067492_)"/><g><path d="m193.514 269.057c-15.731-23.835-50.702-23.835-66.433 0l-71.926 108.98c.068 9.007 7.385 16.289 16.407 16.289h204.629z" fill="url(#SVGID_00000005244693355289008060000003220217267219240074_)"/><path d="m458.133 394.325c9.065 0 16.414-7.349 16.414-16.414v-96.732l-72.414-109.717c-15.731-23.835-50.702-23.835-66.433 0l-147.09 222.863z" fill="url(#SVGID_00000132087158987474081280000004196398387233620610_)"/><path d="m402.134 171.462c-15.731-23.835-50.702-23.835-66.433 0l-11.918 18.057v204.806h134.351c9.065 0 16.414-7.349 16.414-16.414v-96.732z" fill="url(#SVGID_00000008864780583269938690000018303402216641153981_)"/><path d="m474.544 333.362v44.551c0 9.066-7.345 16.411-16.411 16.411h-386.572c-9.027 0-16.344-7.278-16.411-16.286l29.486-44.676z" fill="url(#SVGID_00000153669532456857395690000009056878945743148443_)"/></g><g><g><circle cx="222.034" cy="182.722" fill="url(#SVGID_00000070119813378817969940000017281409499416746126_)" r="50.505"/><path d="m171.529 182.722c0 27.893 22.612 50.505 50.505 50.505s50.505-22.612 50.505-50.505c0-6.041-1.064-11.832-3.009-17.202h-94.991c-1.946 5.37-3.01 11.161-3.01 17.202z" fill="url(#SVGID_00000004533315406835071510000001546781154211227308_)"/><path d="m186.321 218.434c19.723 19.723 51.701 19.723 71.425 0 19.723-19.723 19.723-51.701 0-71.425-4.272-4.272-9.119-7.614-14.291-10.036l-67.169 67.169c2.421 5.173 5.764 10.021 10.035 14.292z" fill="url(#SVGID_00000000218032853330564820000015971723457905133216_)"/></g><g><path d="m222.034 99.732c-3.975 0-7.196 3.221-7.196 7.196v10.148c0 3.975 3.221 7.196 7.196 7.196s7.196-3.221 7.196-7.196v-10.148c0-3.975-3.222-7.196-7.196-7.196z" fill="url(#SVGID_00000147906792403273347910000006841006330747824526_)"/><path d="m222.034 241.172c-3.975 0-7.196 3.221-7.196 7.196v10.148c0 3.975 3.221 7.196 7.196 7.196s7.196-3.221 7.196-7.196v-10.148c0-3.975-3.222-7.196-7.196-7.196z" fill="url(#SVGID_00000096743013895687693350000009380881502391413671_)"/><path d="m297.827 175.526h-10.147c-3.975 0-7.196 3.221-7.196 7.196s3.221 7.196 7.196 7.196h10.148c3.975 0 7.196-3.221 7.196-7.196s-3.222-7.196-7.197-7.196z" fill="url(#SVGID_00000147906792403273347910000006841006330747824526_)"/><path d="m163.584 182.722c0-3.975-3.221-7.196-7.196-7.196h-10.148c-3.975 0-7.196 3.221-7.196 7.196s3.221 7.196 7.196 7.196h10.148c3.975 0 7.196-3.221 7.196-7.196z" fill="url(#SVGID_00000096743013895687693350000009380881502391413671_)"/><path d="m273.541 141.392 7.176-7.176c2.811-2.811 2.811-7.366 0-10.177-2.81-2.811-7.366-2.811-10.177 0l-7.176 7.176c-2.811 2.811-2.811 7.366 0 10.177 2.81 2.81 7.366 2.81 10.177 0z" fill="url(#SVGID_00000161615514018978844710000008132257406025160082_)"/><path d="m170.526 224.052-7.176 7.176c-2.811 2.811-2.811 7.366 0 10.177s7.366 2.811 10.177 0l7.176-7.176c2.811-2.811 2.811-7.366 0-10.177s-7.366-2.811-10.177 0z" fill="url(#SVGID_00000087399681355571026680000012339690052267631026_)"/><g fill="url(#SVGID_00000148621311036441788940000009733561507610731174_)"><path d="m273.541 224.052c-2.811-2.811-7.366-2.811-10.177 0s-2.811 7.366 0 10.177l7.176 7.176c2.811 2.811 7.366 2.811 10.177 0s2.811-7.366 0-10.177z"/><path d="m173.528 124.039c-2.811-2.811-7.366-2.811-10.177 0s-2.811 7.366 0 10.177l7.176 7.176c2.811 2.811 7.366 2.811 10.177 0s2.811-7.366 0-10.177z"/></g></g></g></g></g></svg>