<svg id="Capa_1" enable-background="new 0 0 510 510" height="512" viewBox="0 0 510 510" width="512" xmlns="http://www.w3.org/2000/svg" xmlns:xlink="http://www.w3.org/1999/xlink"><linearGradient id="lg1"><stop offset="0" stop-color="#f9f7f8"/><stop offset="1" stop-color="#e5e1e5"/></linearGradient><linearGradient id="SVGID_1_" gradientUnits="userSpaceOnUse" x1="176" x2="338.444" xlink:href="#lg1" y1="255" y2="255"/><linearGradient id="SVGID_00000142899150354454615870000011911753586801769878_" gradientUnits="userSpaceOnUse" x1="-145.991" x2="271.933" xlink:href="#lg1" y1="-32.234" y2="267.129"/><linearGradient id="lg2"><stop offset="0" stop-color="#9b8e99" stop-opacity="0"/><stop offset=".3465" stop-color="#978a95" stop-opacity=".347"/><stop offset=".7135" stop-color="#8a7f88" stop-opacity=".714"/><stop offset="1" stop-color="#7b7179"/></linearGradient><linearGradient id="SVGID_00000050659003926997260560000004302870888093104270_" gradientUnits="userSpaceOnUse" x1="313.15" x2="356.891" xlink:href="#lg2" y1="262.657" y2="272.03"/><linearGradient id="SVGID_00000056422972294950465540000002939258522596500621_" gradientUnits="userSpaceOnUse" x1="278.633" x2="315.94" xlink:href="#lg2" y1="260.171" y2="268.166"/><linearGradient id="SVGID_00000160153237682226320520000001555205828811340688_" gradientUnits="userSpaceOnUse" x1="203.512" x2="203.512" xlink:href="#lg2" y1="463" y2="511.01"/><g><path d="m407.229 36.358 4.355-19.574c1.916-8.612-4.637-16.784-13.46-16.784h-178.917c-6.462 0-12.057 4.487-13.461 10.795l-4.355 19.574c-1.916 8.613 4.637 16.784 13.461 16.784h20.792c5.737 0 9.998 5.313 8.752 10.913l-88.495 397.761c-.912 4.101-4.55 7.019-8.752 7.019h-30.917c-6.462 0-12.057 4.487-13.461 10.795l-4.355 19.574c-1.916 8.613 4.637 16.785 13.46 16.785h178.917c6.462 0 12.057-4.487 13.461-10.795l4.355-19.574c1.916-8.613-4.637-16.784-13.461-16.784h-20.792c-5.737 0-9.998-5.313-8.752-10.913l88.495-397.761c.912-4.101 4.55-7.019 8.752-7.019h30.917c6.463-.001 12.058-4.488 13.461-10.796z" fill="url(#SVGID_1_)"/><path d="m115.708 484.561c.873-3.923 4.353-6.714 8.372-6.714h23.069c11.316 0 20.937-7.715 23.394-18.761l88.495-397.761c1.783-8.017-.598-16.32-6.523-22.233-4.573-4.564-10.894-6.938-17.355-6.938h-8.104c-5.488 0-9.564-5.082-8.372-10.439.873-3.923 4.353-6.714 8.372-6.714h158.864c5.488 0 9.564 5.082 8.372 10.439-.873 3.923-4.353 6.714-8.372 6.714h-23.068c-11.317 0-20.938 7.716-23.395 18.763l-88.495 397.759c-1.613 7.251.181 14.737 4.923 20.476 4.656 5.636 11.74 8.695 19.05 8.695h8.008c5.488 0 9.564 5.082 8.372 10.439-.873 3.923-4.353 6.714-8.372 6.714h-158.863c-5.488 0-9.564-5.082-8.372-10.439z" fill="url(#SVGID_00000142899150354454615870000011911753586801769878_)"/><path d="m410.584 16.784c1.916-8.612-4.638-16.784-13.461-16.784h-125.696l-115.202 510h133.568c6.462 0 12.057-4.487 13.461-10.795l4.355-19.574c1.916-8.613-4.637-16.784-13.461-16.784h-20.792c-5.737 0-9.998-5.313-8.752-10.913l88.495-397.761c.912-4.101 4.551-7.019 8.752-7.019h30.917c6.462 0 12.057-4.487 13.46-10.795z" fill="url(#SVGID_00000050659003926997260560000004302870888093104270_)"/><path d="m273.38 462.79c-5.232-.562-8.949-5.58-7.775-10.857l88.495-397.761c.84-3.776 3.992-6.542 7.766-6.958l-.015-.061h-126.207c5.737 0 9.998 5.313 8.752 10.913l-88.495 397.761c-.912 4.101-4.55 7.019-8.752 7.019h126.207z" fill="url(#SVGID_00000056422972294950465540000002939258522596500621_)"/><path d="m282.053 378h-108.837l-17.315 77.828c-.912 4.101-4.55 7.019-8.752 7.019h-30.917c-6.462 0-12.057 4.487-13.461 10.795l-4.355 19.574c-1.916 8.612 4.637 16.784 13.46 16.784h178.917c6.462 0 12.057-4.487 13.461-10.795l4.355-19.574c1.916-8.613-4.637-16.784-13.461-16.784h-20.792c-5.737 0-9.998-5.313-8.752-10.913z" fill="url(#SVGID_00000160153237682226320520000001555205828811340688_)"/></g></svg>