<svg id="Capa_1" enable-background="new 0 0 510 510" height="512" viewBox="0 0 510 510" width="512" xmlns="http://www.w3.org/2000/svg" xmlns:xlink="http://www.w3.org/1999/xlink"><linearGradient id="lg1"><stop offset="0" stop-color="#f9f7f8"/><stop offset="1" stop-color="#e5e1e5"/></linearGradient><linearGradient id="SVGID_1_" gradientUnits="userSpaceOnUse" x1="133.564" x2="421.479" xlink:href="#lg1" y1="144.675" y2="357.984"/><linearGradient id="lg2"><stop offset="0" stop-color="#9b8e99" stop-opacity="0"/><stop offset=".3465" stop-color="#978a95" stop-opacity=".347"/><stop offset=".7135" stop-color="#8a7f88" stop-opacity=".714"/><stop offset="1" stop-color="#7b7179"/></linearGradient><linearGradient id="SVGID_00000147206185785862182050000001348276562196390842_" gradientUnits="userSpaceOnUse" x1="375.863" x2="450.113" xlink:href="#lg2" y1="255" y2="255"/><linearGradient id="SVGID_00000145754679833351650510000002544224084283773068_" gradientUnits="userSpaceOnUse" x1="255" x2="255" xlink:href="#lg2" y1="460" y2="516.009"/><linearGradient id="SVGID_00000181775447861816393660000011372535126186236046_" gradientUnits="userSpaceOnUse" x1="244.606" x2="171.94" xlink:href="#lg2" y1="466.985" y2="462.319"/><linearGradient id="lg3"><stop offset="0" stop-color="#d5daf3"/><stop offset="1" stop-color="#60b7ff"/></linearGradient><linearGradient id="SVGID_00000015338898721803905730000008785246527066120842_" gradientUnits="userSpaceOnUse" x1="263.497" x2="263.497" xlink:href="#lg3" y1="458.667" y2="468.689"/><linearGradient id="lg4"><stop offset="0" stop-color="#528fd8" stop-opacity="0"/><stop offset=".214" stop-color="#4e8dd7" stop-opacity=".214"/><stop offset=".4386" stop-color="#4187d5" stop-opacity=".439"/><stop offset=".6681" stop-color="#2c7dd0" stop-opacity=".668"/><stop offset=".8995" stop-color="#0f6fc9" stop-opacity=".9"/><stop offset="1" stop-color="#0067c5"/></linearGradient><linearGradient id="SVGID_00000024705781308740193160000002259007675591795112_" gradientUnits="userSpaceOnUse" x1="424.667" x2="376.667" xlink:href="#lg4" y1="461.55" y2="461.55"/><linearGradient id="SVGID_00000029746385979002744460000001471793557710901679_" gradientUnits="userSpaceOnUse" x1="408.5" x2="426.748" xlink:href="#lg4" y1="461.55" y2="461.55"/><linearGradient id="SVGID_00000140002124910696057740000002553211363771443132_" gradientUnits="userSpaceOnUse" x1="241.904" x2="179.626" xlink:href="#lg4" y1="461.55" y2="461.55"/><linearGradient id="SVGID_00000075145275844330847960000004541346814698084997_" gradientUnits="userSpaceOnUse" x1="207.365" x2="201.615" xlink:href="#lg4" y1="478.056" y2="448.306"/><linearGradient id="SVGID_00000042726912039579691680000008540528250841440900_" gradientUnits="userSpaceOnUse" x1="255" x2="255" xlink:href="#lg3" y1="42.667" y2="55.333"/><linearGradient id="SVGID_00000026157859162535214200000003215504962471721100_" gradientUnits="userSpaceOnUse" x1="177.667" x2="135.249" xlink:href="#lg4" y1="48.45" y2="48.45"/><linearGradient id="SVGID_00000101088859203555740310000007032010118587894199_" gradientUnits="userSpaceOnUse" x1="424.667" x2="376.667" xlink:href="#lg4" y1="48.45" y2="48.45"/><linearGradient id="SVGID_00000176012264428853854880000015770239475062988953_" gradientUnits="userSpaceOnUse" x1="402" x2="429.613" xlink:href="#lg4" y1="48.45" y2="48.45"/><linearGradient id="SVGID_00000091001714851275148390000015182667142836854165_" gradientUnits="userSpaceOnUse" x1="371.45" x2="390.164" xlink:href="#lg3" y1="255" y2="255"/><linearGradient id="SVGID_00000060023438316761565500000011992958121273025962_" gradientUnits="userSpaceOnUse" x1="377.95" x2="377.95" xlink:href="#lg4" y1="417" y2="511.005"/><linearGradient id="SVGID_00000040555985148303445980000012766029132121398674_" gradientUnits="userSpaceOnUse" x1="125.55" x2="144.264" xlink:href="#lg3" y1="250.15" y2="250.15"/><linearGradient id="SVGID_00000026844865699682815470000014755904940198878596_" gradientUnits="userSpaceOnUse" x1="166.12" x2="140.12" xlink:href="#lg1" y1="438.904" y2="480.238"/><g><g><path d="m409.021 510h-226.001c-56.333 0-102-45.667-102-102v-388.041c0-11.023 8.936-19.959 19.959-19.959h308.041c11.023 0 19.959 8.936 19.959 19.959v470.081c.001 11.024-8.935 19.96-19.958 19.96z" fill="url(#SVGID_1_)"/><path d="m409.021 0h-177.082v510h177.082c11.023 0 19.959-8.936 19.959-19.959v-470.082c0-11.023-8.936-19.959-19.959-19.959z" fill="url(#SVGID_00000147206185785862182050000001348276562196390842_)"/><path d="m81.02 326.667v81.333c0 56.333 45.667 102 102 102h226.001c11.023 0 19.959-8.936 19.959-19.959v-163.374z" fill="url(#SVGID_00000145754679833351650510000002544224084283773068_)"/><path d="m178.124 415.551v94.33c1.623.077 3.254.119 4.896.119h89.553z" fill="url(#SVGID_00000181775447861816393660000011372535126186236046_)"/><g><path d="m428.98 454.05v15h-321.647c-3.52-4.7-6.64-9.72-9.32-15z" fill="url(#SVGID_00000015338898721803905730000008785246527066120842_)"/><path d="m376.667 454.05h52.313v15h-52.313z" fill="url(#SVGID_00000024705781308740193160000002259007675591795112_)"/><path d="m376.667 454.05h52.313v15h-52.313z" fill="url(#SVGID_00000029746385979002744460000001471793557710901679_)"/><path d="m179.625 454.05h67.875v15h-67.875z" fill="url(#SVGID_00000140002124910696057740000002553211363771443132_)"/><path d="m216.623 454.05h-36.998v15h51.998z" fill="url(#SVGID_00000075145275844330847960000004541346814698084997_)"/><path d="m81.02 40.95h347.96v15h-347.96z" fill="url(#SVGID_00000042726912039579691680000008540528250841440900_)"/><path d="m132.05 40.95h99.889v15h-99.889z" fill="url(#SVGID_00000026157859162535214200000003215504962471721100_)"/><path d="m376.667 40.95h52.313v15h-52.313z" fill="url(#SVGID_00000101088859203555740310000007032010118587894199_)"/><path d="m376.667 40.95h52.313v15h-52.313z" fill="url(#SVGID_00000176012264428853854880000015770239475062988953_)"/><g><path d="m370.45 0h15v510h-15z" fill="url(#SVGID_00000091001714851275148390000015182667142836854165_)"/><path d="m370.45 404h15v106h-15z" fill="url(#SVGID_00000060023438316761565500000011992958121273025962_)"/><path d="m139.55 0v500.3c-5.26-2.49-10.28-5.41-15-8.72v-491.58z" fill="url(#SVGID_00000040555985148303445980000012766029132121398674_)"/></g></g><path d="m183.02 467.081c0 23.703 19.215 42.919 42.919 42.919h-42.919c-56.333 0-102-45.667-102-102h80.959c11.62 0 21.041 9.42 21.041 21.041z" fill="url(#SVGID_00000026844865699682815470000014755904940198878596_)"/></g></g></svg>