<svg id="Capa_1" enable-background="new 0 0 510 510" height="512" viewBox="0 0 510 510" width="512" xmlns="http://www.w3.org/2000/svg" xmlns:xlink="http://www.w3.org/1999/xlink"><linearGradient id="lg1"><stop offset="0" stop-color="#f9f7f8"/><stop offset="1" stop-color="#e5e1e5"/></linearGradient><linearGradient id="SVGID_1_" gradientUnits="userSpaceOnUse" x1="96.604" x2="384.519" xlink:href="#lg1" y1="144.675" y2="357.984"/><linearGradient id="lg2"><stop offset="0" stop-color="#9b8e99" stop-opacity="0"/><stop offset=".3465" stop-color="#978a95" stop-opacity=".347"/><stop offset=".7135" stop-color="#8a7f88" stop-opacity=".714"/><stop offset="1" stop-color="#7b7179"/></linearGradient><linearGradient id="SVGID_00000003096445487612137220000009555935926070337970_" gradientUnits="userSpaceOnUse" x1="338.903" x2="413.153" xlink:href="#lg2" y1="255" y2="255"/><linearGradient id="SVGID_00000107546199216947950590000010800093234530482091_" gradientUnits="userSpaceOnUse" x1="218.04" x2="218.04" xlink:href="#lg2" y1="460" y2="516.009"/><linearGradient id="SVGID_00000020359271635577425950000002037536171691789194_" gradientUnits="userSpaceOnUse" x1="207.646" x2="134.98" xlink:href="#lg2" y1="466.985" y2="462.319"/><linearGradient id="SVGID_00000168118577189853338700000015422718280282366878_" gradientUnits="userSpaceOnUse" x1="129.16" x2="103.16" xlink:href="#lg1" y1="438.904" y2="480.238"/><linearGradient id="SVGID_00000020362818851497447080000000767791561261222562_" gradientUnits="userSpaceOnUse" x1="347.968" x2="327.302" xlink:href="#lg2" y1="550.173" y2="468.173"/><linearGradient id="SVGID_00000068664400334515394880000007867377625755005316_" gradientUnits="userSpaceOnUse" x1="289.152" x2="408.149" y1="302.516" y2="421.513"><stop offset="0" stop-color="#bbec6c"/><stop offset="1" stop-color="#78a91f"/></linearGradient><linearGradient id="lg3"><stop offset="0" stop-color="#026841" stop-opacity="0"/><stop offset=".3243" stop-color="#046842" stop-opacity=".324"/><stop offset=".5509" stop-color="#0e6546" stop-opacity=".551"/><stop offset=".7476" stop-color="#1d614c" stop-opacity=".748"/><stop offset=".9263" stop-color="#335c54" stop-opacity=".926"/><stop offset="1" stop-color="#3e5959"/></linearGradient><linearGradient id="SVGID_00000181075061750402225160000017668025098524918936_" gradientUnits="userSpaceOnUse" x1="339.136" x2="339.136" xlink:href="#lg3" y1="354.342" y2="471.201"/><linearGradient id="SVGID_00000180345233653205170980000002346534478973124521_" gradientUnits="userSpaceOnUse" x1="360.064" x2="429.24" xlink:href="#lg3" y1="373.428" y2="442.603"/><g><g><g><path d="m372.061 510h-226.001c-56.333 0-102-45.667-102-102v-388.041c0-11.023 8.936-19.959 19.959-19.959h308.041c11.023 0 19.959 8.936 19.959 19.959v470.081c.001 11.024-8.935 19.96-19.958 19.96z" fill="url(#SVGID_1_)"/><path d="m372.061 0h-177.082v510h177.082c11.023 0 19.959-8.936 19.959-19.959v-470.082c0-11.023-8.936-19.959-19.959-19.959z" fill="url(#SVGID_00000003096445487612137220000009555935926070337970_)"/><path d="m44.06 326.667v81.333c0 56.333 45.667 102 102 102h226.001c11.023 0 19.959-8.936 19.959-19.959v-163.374z" fill="url(#SVGID_00000107546199216947950590000010800093234530482091_)"/><path d="m141.164 415.551v94.33c1.623.077 3.254.119 4.896.119h89.553z" fill="url(#SVGID_00000020359271635577425950000002037536171691789194_)"/><path d="m146.06 467.081c0 23.703 19.215 42.919 42.919 42.919h-42.919c-56.333 0-102-45.667-102-102h80.959c11.62 0 21.041 9.42 21.041 21.041z" fill="url(#SVGID_00000168118577189853338700000015422718280282366878_)"/></g><g fill="#aa9ea9"><path d="m189.968 76.812h40.988c3.689 0 6.68-2.991 6.68-6.68s-2.991-6.68-6.68-6.68h-40.988c-3.689 0-6.68 2.991-6.68 6.68s2.99 6.68 6.68 6.68z"/><path d="m109.204 76.812h30.282c3.689 0 6.68-2.991 6.68-6.68s-2.991-6.68-6.68-6.68h-30.282c-3.689 0-6.68 2.991-6.68 6.68s2.991 6.68 6.68 6.68z"/><path d="m162.644 76.812h7.571c3.689 0 6.68-2.991 6.68-6.68s-2.991-6.68-6.68-6.68h-7.571c-3.689 0-6.68 2.991-6.68 6.68s2.99 6.68 6.68 6.68z"/><path d="m208.591 97.546h-68.66c-3.689 0-6.68 2.991-6.68 6.68 0 3.69 2.991 6.68 6.68 6.68h68.66c3.689 0 6.68-2.99 6.68-6.68 0-3.689-2.99-6.68-6.68-6.68z"/><path d="m258.217 76.812h68.66c3.689 0 6.68-2.99 6.68-6.68 0-3.689-2.991-6.68-6.68-6.68h-68.66c-3.689 0-6.68 2.991-6.68 6.68s2.99 6.68 6.68 6.68z"/><path d="m109.204 110.906h7.571c3.689 0 6.68-2.99 6.68-6.68 0-3.689-2.991-6.68-6.68-6.68h-7.571c-3.689 0-6.68 2.991-6.68 6.68 0 3.69 2.991 6.68 6.68 6.68z"/><path d="m230.956 135.975h-40.988c-3.689 0-6.68 2.991-6.68 6.68s2.991 6.68 6.68 6.68h40.988c3.689 0 6.68-2.991 6.68-6.68 0-3.69-2.991-6.68-6.68-6.68z"/><path d="m109.204 149.334h30.282c3.689 0 6.68-2.991 6.68-6.68s-2.991-6.68-6.68-6.68h-30.282c-3.689 0-6.68 2.991-6.68 6.68 0 3.69 2.991 6.68 6.68 6.68z"/><path d="m162.644 135.975c-3.689 0-6.68 2.991-6.68 6.68s2.991 6.68 6.68 6.68h7.571c3.689 0 6.68-2.991 6.68-6.68s-2.991-6.68-6.68-6.68z"/><path d="m232.941 104.226c0 3.69 2.991 6.68 6.68 6.68h7.571c3.689 0 6.68-2.99 6.68-6.68 0-3.689-2.991-6.68-6.68-6.68h-7.571c-3.69 0-6.68 2.991-6.68 6.68z"/><path d="m230.956 178.924h-40.988c-3.689 0-6.68 2.991-6.68 6.68s2.991 6.68 6.68 6.68h40.988c3.689 0 6.68-2.991 6.68-6.68s-2.991-6.68-6.68-6.68z"/><path d="m109.204 192.284h30.282c3.689 0 6.68-2.991 6.68-6.68s-2.991-6.68-6.68-6.68h-30.282c-3.689 0-6.68 2.991-6.68 6.68s2.991 6.68 6.68 6.68z"/><path d="m162.644 192.284h7.571c3.689 0 6.68-2.991 6.68-6.68s-2.991-6.68-6.68-6.68h-7.571c-3.689 0-6.68 2.991-6.68 6.68s2.99 6.68 6.68 6.68z"/><path d="m133.252 219.699c0 3.689 2.991 6.68 6.68 6.68h68.66c3.689 0 6.68-2.99 6.68-6.68 0-3.689-2.991-6.68-6.68-6.68h-68.66c-3.689 0-6.68 2.991-6.68 6.68z"/><path d="m326.876 178.924h-68.66c-3.689 0-6.68 2.991-6.68 6.68s2.991 6.68 6.68 6.68h68.66c3.689 0 6.68-2.99 6.68-6.68 0-3.689-2.991-6.68-6.68-6.68z"/><path d="m326.876 213.019h-42.607c-3.689 0-6.68 2.991-6.68 6.68s2.991 6.68 6.68 6.68h42.607c3.689 0 6.68-2.99 6.68-6.68 0-3.689-2.991-6.68-6.68-6.68z"/><path d="m109.204 226.379h7.571c3.689 0 6.68-2.99 6.68-6.68 0-3.689-2.991-6.68-6.68-6.68h-7.571c-3.689 0-6.68 2.991-6.68 6.68s2.991 6.68 6.68 6.68z"/><path d="m230.956 251.447h-40.988c-3.689 0-6.68 2.99-6.68 6.68s2.991 6.68 6.68 6.68h40.988c3.689 0 6.68-2.991 6.68-6.68s-2.991-6.68-6.68-6.68z"/><path d="m109.204 264.807h30.282c3.689 0 6.68-2.991 6.68-6.68s-2.991-6.68-6.68-6.68h-30.282c-3.689 0-6.68 2.99-6.68 6.68s2.991 6.68 6.68 6.68z"/><path d="m162.644 251.447c-3.689 0-6.68 2.99-6.68 6.68s2.991 6.68 6.68 6.68h7.571c3.689 0 6.68-2.991 6.68-6.68s-2.991-6.68-6.68-6.68z"/><path d="m247.191 226.379c3.689 0 6.68-2.99 6.68-6.68 0-3.689-2.991-6.68-6.68-6.68h-7.571c-3.689 0-6.68 2.991-6.68 6.68s2.991 6.68 6.68 6.68z"/><path d="m237.636 301.076c0-3.689-2.991-6.68-6.68-6.68h-40.988c-3.689 0-6.68 2.991-6.68 6.68s2.991 6.68 6.68 6.68h40.988c3.689 0 6.68-2.99 6.68-6.68z"/><path d="m109.204 307.756h30.282c3.689 0 6.68-2.991 6.68-6.68s-2.991-6.68-6.68-6.68h-30.282c-3.689 0-6.68 2.991-6.68 6.68 0 3.69 2.991 6.68 6.68 6.68z"/><path d="m162.644 307.756h7.571c3.689 0 6.68-2.991 6.68-6.68s-2.991-6.68-6.68-6.68h-7.571c-3.689 0-6.68 2.991-6.68 6.68 0 3.69 2.99 6.68 6.68 6.68z"/><path d="m133.252 335.171c0 3.689 2.991 6.68 6.68 6.68h68.66c3.689 0 6.68-2.991 6.68-6.68s-2.991-6.68-6.68-6.68h-68.66c-3.689 0-6.68 2.991-6.68 6.68z"/><path d="m326.876 294.396h-68.66c-3.689 0-6.68 2.991-6.68 6.68 0 3.69 2.991 6.68 6.68 6.68h68.66c3.689 0 6.68-2.99 6.68-6.68 0-3.689-2.991-6.68-6.68-6.68z"/><path d="m326.876 366.919h-68.66c-3.689 0-6.68 2.991-6.68 6.68s2.991 6.68 6.68 6.68h68.66c3.689 0 6.68-2.99 6.68-6.68 0-3.689-2.991-6.68-6.68-6.68z"/><path d="m109.204 341.851h7.571c3.689 0 6.68-2.991 6.68-6.68s-2.991-6.68-6.68-6.68h-7.571c-3.689 0-6.68 2.991-6.68 6.68s2.991 6.68 6.68 6.68z"/><path d="m230.956 366.919h-40.988c-3.689 0-6.68 2.991-6.68 6.68s2.991 6.68 6.68 6.68h40.988c3.689 0 6.68-2.991 6.68-6.68s-2.991-6.68-6.68-6.68z"/><path d="m139.486 366.919h-30.282c-3.689 0-6.68 2.991-6.68 6.68s2.991 6.68 6.68 6.68h30.282c3.689 0 6.68-2.991 6.68-6.68s-2.99-6.68-6.68-6.68z"/><path d="m170.214 366.919h-7.571c-3.689 0-6.68 2.991-6.68 6.68s2.991 6.68 6.68 6.68h7.571c3.689 0 6.68-2.991 6.68-6.68s-2.991-6.68-6.68-6.68z"/><path d="m253.871 335.171c0-3.689-2.991-6.68-6.68-6.68h-7.571c-3.689 0-6.68 2.991-6.68 6.68s2.991 6.68 6.68 6.68h7.571c3.689 0 6.68-2.991 6.68-6.68z"/></g></g><path d="m392.02 490.041v-47.877h-142.547l67.836 67.836h54.751c11.024 0 19.96-8.936 19.96-19.959z" fill="url(#SVGID_00000020362818851497447080000000767791561261222562_)"/><g><g><circle cx="339.137" cy="352.5" fill="url(#SVGID_00000068664400334515394880000007867377625755005316_)" r="126.804"/><path d="m398.632 331.636h-31.16c-4.126 0-7.471-3.345-7.471-7.471v-31.16c0-7.1-5.755-12.855-12.855-12.855h-16.017c-7.1 0-12.855 5.755-12.855 12.855v31.16c0 4.126-3.345 7.471-7.471 7.471h-31.16c-7.1 0-12.855 5.755-12.855 12.855v16.017c0 7.1 5.755 12.855 12.855 12.855h31.16c4.126 0 7.471 3.345 7.471 7.471v31.16c0 7.1 5.755 12.855 12.855 12.855h16.017c7.1 0 12.855-5.755 12.855-12.855v-31.16c0-4.126 3.345-7.471 7.471-7.471h31.16c7.1 0 12.855-5.755 12.855-12.855v-16.017c-.001-7.099-5.756-12.855-12.855-12.855z" fill="#fff"/><path d="m212.333 352.5c0 70.031 56.772 126.804 126.804 126.804s126.804-56.772 126.804-126.804c0-15.167-2.672-29.708-7.556-43.189h-238.496c-4.884 13.481-7.556 28.022-7.556 43.189z" fill="url(#SVGID_00000181075061750402225160000017668025098524918936_)"/><path d="m249.473 442.164c49.52 49.52 129.807 49.52 179.327 0s49.52-129.808 0-179.327c-10.725-10.725-22.896-19.117-35.882-25.197l-168.642 168.642c6.08 12.986 14.472 25.157 25.197 35.882z" fill="url(#SVGID_00000180345233653205170980000002346534478973124521_)"/></g></g></g></svg>