<svg id="Capa_1" enable-background="new 0 0 510 510" height="512" viewBox="0 0 510 510" width="512" xmlns="http://www.w3.org/2000/svg" xmlns:xlink="http://www.w3.org/1999/xlink"><linearGradient id="SVGID_1_" gradientUnits="userSpaceOnUse" x1="267.404" x2="429.396" y1="185.539" y2="322.032"><stop offset="0" stop-color="#fef0ae"/><stop offset="1" stop-color="#fac600"/></linearGradient><linearGradient id="lg1"><stop offset="0" stop-color="#fea613" stop-opacity="0"/><stop offset=".2032" stop-color="#fda215" stop-opacity=".203"/><stop offset=".4052" stop-color="#fb961b" stop-opacity=".405"/><stop offset=".6066" stop-color="#f68225" stop-opacity=".607"/><stop offset=".8066" stop-color="#f06633" stop-opacity=".807"/><stop offset="1" stop-color="#e94444"/></linearGradient><linearGradient id="SVGID_00000117648626455303516800000013585614428373209232_" gradientUnits="userSpaceOnUse" x1="307.525" x2="307.525" xlink:href="#lg1" y1="415.799" y2="467.488"/><linearGradient id="SVGID_00000000201683905204988080000013816411667768295840_" gradientUnits="userSpaceOnUse" x1="416" x2="473.326" xlink:href="#lg1" y1="239.595" y2="239.595"/><linearGradient id="SVGID_00000017507559588358494430000011552660059219037570_" gradientUnits="userSpaceOnUse" x1="429.175" x2="351.046" xlink:href="#lg1" y1="240.369" y2="238.199"/><linearGradient id="SVGID_00000143596232510457643610000004856288001402098846_" gradientUnits="userSpaceOnUse" x1="307.525" x2="307.525" xlink:href="#lg1" y1="73" y2="46.2"/><linearGradient id="SVGID_00000168814974958012005410000000546830835863516071_" gradientUnits="userSpaceOnUse" x1="289" x2="248.95" xlink:href="#lg1" y1="56.864" y2="56.864"/><linearGradient id="SVGID_00000183248139618239143270000001716100693805446078_" gradientUnits="userSpaceOnUse" x1="307.525" x2="307.525" y1="52" y2="69.67"><stop offset="0" stop-color="#d5daf3"/><stop offset="1" stop-color="#60b7ff"/></linearGradient><linearGradient id="lg2"><stop offset="0" stop-color="#528fd8" stop-opacity="0"/><stop offset=".214" stop-color="#4e8dd7" stop-opacity=".214"/><stop offset=".4386" stop-color="#4187d5" stop-opacity=".439"/><stop offset=".6681" stop-color="#2c7dd0" stop-opacity=".668"/><stop offset=".8995" stop-color="#0f6fc9" stop-opacity=".9"/><stop offset="1" stop-color="#0067c5"/></linearGradient><linearGradient id="SVGID_00000123405272129814381610000000905678134426956681_" gradientUnits="userSpaceOnUse" x1="307.525" x2="307.525" xlink:href="#lg2" y1="62" y2="51.081"/><linearGradient id="SVGID_00000091737762130772997420000002065373518303387013_" gradientUnits="userSpaceOnUse" x1="361.333" x2="372.379" xlink:href="#lg2" y1="61.417" y2="61.417"/><linearGradient id="lg3"><stop offset="0" stop-color="#f9f7f8"/><stop offset="1" stop-color="#e5e1e5"/></linearGradient><linearGradient id="SVGID_00000142158780932460658550000000472651334565902218_" gradientUnits="userSpaceOnUse" x1="93.979" x2="351.842" xlink:href="#lg3" y1="188.484" y2="379.529"/><linearGradient id="lg4"><stop offset="0" stop-color="#9b8e99" stop-opacity="0"/><stop offset=".3465" stop-color="#978a95" stop-opacity=".347"/><stop offset=".7135" stop-color="#8a7f88" stop-opacity=".714"/><stop offset="1" stop-color="#7b7179"/></linearGradient><linearGradient id="SVGID_00000134236931075785104750000008738381086292059806_" gradientUnits="userSpaceOnUse" x1="314.015" x2="382.539" xlink:href="#lg4" y1="287.652" y2="287.652"/><linearGradient id="SVGID_00000181773943793431290670000009208334976757984400_" gradientUnits="userSpaceOnUse" x1="202.475" x2="202.475" xlink:href="#lg4" y1="463.856" y2="515.545"/><linearGradient id="SVGID_00000061467801398085836980000012097369522950963370_" gradientUnits="userSpaceOnUse" x1="192.883" x2="125.821" xlink:href="#lg4" y1="470.303" y2="465.996"/><linearGradient id="SVGID_00000112623746533069440700000016421575951613211284_" gradientUnits="userSpaceOnUse" x1="120.45" x2="96.455" xlink:href="#lg3" y1="444.388" y2="482.533"/><linearGradient id="lg5"><stop offset="0" stop-color="#6e61b6"/><stop offset="1" stop-color="#433f43"/></linearGradient><linearGradient id="SVGID_00000147938353492341947740000010592515544016353954_" gradientUnits="userSpaceOnUse" x1="303.509" x2="314.509" xlink:href="#lg5" y1="13.742" y2="63.742"/><linearGradient id="SVGID_00000070807102971843438810000005551614850542671003_" gradientUnits="userSpaceOnUse" x1="307.525" x2="307.525" xlink:href="#lg5" y1="44.333" y2="13.92"/><g><g><path d="m449.667 461.943h-208.57c-51.988 0-94.133-42.145-94.133-94.133v-332.143c0-10.173 8.247-18.42 18.42-18.42h284.283c10.173 0 18.42 8.247 18.42 18.42v407.856c0 10.173-8.247 18.42-18.42 18.42z" fill="url(#SVGID_1_)"/><path d="m146.964 292.75v75.06c0 51.988 42.145 94.133 94.133 94.133h208.57c10.173 0 18.42-8.247 18.42-18.42v-150.773z" fill="url(#SVGID_00000117648626455303516800000013585614428373209232_)"/></g><path d="m449.667 17.247h-82.808v39.707l-14.192 21.67v383.319h97c10.173 0 18.42-8.247 18.42-18.42v-407.856c0-10.173-8.247-18.42-18.42-18.42z" fill="url(#SVGID_00000000201683905204988080000013816411667768295840_)"/><path d="m449.667 17.247h-82.808v39.707l-14.192 21.67v383.319h97c10.173 0 18.42-8.247 18.42-18.42v-407.856c0-10.173-8.247-18.42-18.42-18.42z" fill="url(#SVGID_00000017507559588358494430000011552660059219037570_)"/><path d="m249.229 35.103h116.593v43.522h-116.593z" fill="url(#SVGID_00000143596232510457643610000004856288001402098846_)"/><path d="m249.229 35.103h67.313v43.522h-67.313z" fill="url(#SVGID_00000168814974958012005410000000546830835863516071_)"/><path d="m348.534 85.167h-82.018c-13.882 0-25.176-11.294-25.176-25.176v-22.324h15v22.324c0 5.611 4.564 10.176 10.176 10.176h82.018c5.611 0 10.176-4.564 10.176-10.176v-22.324h15v22.324c0 13.882-11.294 25.176-25.176 25.176z" fill="url(#SVGID_00000183248139618239143270000001716100693805446078_)"/><path d="m348.534 85.167h-82.018c-13.882 0-25.176-11.294-25.176-25.176v-22.324h15v22.324c0 5.611 4.564 10.176 10.176 10.176h82.018c5.611 0 10.176-4.564 10.176-10.176v-22.324h15v22.324c0 13.882-11.294 25.176-25.176 25.176z" fill="url(#SVGID_00000123405272129814381610000000905678134426956681_)"/><path d="m358.71 59.991c0 5.611-4.564 10.176-10.176 10.176h-30.543v15h30.543c13.882 0 25.176-11.294 25.176-25.176v-22.324h-15z" fill="url(#SVGID_00000091737762130772997420000002065373518303387013_)"/><g><g><g><path d="m344.616 510h-208.57c-51.988 0-94.133-42.145-94.133-94.133v-332.143c0-10.173 8.247-18.42 18.42-18.42h284.283c10.173 0 18.42 8.247 18.42 18.42v407.856c0 10.173-8.247 18.42-18.42 18.42z" fill="url(#SVGID_00000142158780932460658550000000472651334565902218_)"/><path d="m344.616 65.304h-163.424v444.696h163.424c10.173 0 18.42-8.247 18.42-18.42v-407.856c0-10.173-8.247-18.42-18.42-18.42z" fill="url(#SVGID_00000134236931075785104750000008738381086292059806_)"/><path d="m41.913 340.807v75.06c0 51.988 42.145 94.133 94.133 94.133h208.57c10.173 0 18.42-8.247 18.42-18.42v-150.773z" fill="url(#SVGID_00000181773943793431290670000009208334976757984400_)"/><path d="m131.528 422.836v87.054c1.498.071 3.003.11 4.518.11h82.646z" fill="url(#SVGID_00000061467801398085836980000012097369522950963370_)"/><path d="m136.046 470.391c0 21.875 17.733 39.609 39.609 39.609h-39.609c-51.988 0-94.133-42.145-94.133-94.133h74.715c10.724 0 19.418 8.694 19.418 19.418z" fill="url(#SVGID_00000112623746533069440700000016421575951613211284_)"/></g></g><g fill="#aa9ea9"><path d="m174.402 128.404h40.988c3.689 0 6.68-2.991 6.68-6.68s-2.991-6.68-6.68-6.68h-40.988c-3.689 0-6.68 2.991-6.68 6.68s2.991 6.68 6.68 6.68z"/><path d="m93.639 128.404h30.282c3.689 0 6.68-2.991 6.68-6.68s-2.991-6.68-6.68-6.68h-30.282c-3.689 0-6.68 2.991-6.68 6.68s2.99 6.68 6.68 6.68z"/><path d="m147.078 128.404h7.571c3.689 0 6.68-2.991 6.68-6.68s-2.991-6.68-6.68-6.68h-7.571c-3.689 0-6.68 2.991-6.68 6.68s2.991 6.68 6.68 6.68z"/><path d="m193.026 149.138h-68.66c-3.689 0-6.68 2.991-6.68 6.68 0 3.69 2.991 6.68 6.68 6.68h68.66c3.689 0 6.68-2.99 6.68-6.68 0-3.689-2.991-6.68-6.68-6.68z"/><path d="m242.651 128.404h68.66c3.689 0 6.68-2.99 6.68-6.68 0-3.689-2.991-6.68-6.68-6.68h-68.66c-3.689 0-6.68 2.991-6.68 6.68s2.991 6.68 6.68 6.68z"/><path d="m93.639 162.498h7.571c3.689 0 6.68-2.99 6.68-6.68 0-3.689-2.991-6.68-6.68-6.68h-7.571c-3.689 0-6.68 2.991-6.68 6.68 0 3.69 2.99 6.68 6.68 6.68z"/><path d="m215.391 187.567h-40.988c-3.689 0-6.68 2.991-6.68 6.68s2.991 6.68 6.68 6.68h40.988c3.689 0 6.68-2.991 6.68-6.68-.001-3.69-2.991-6.68-6.68-6.68z"/><path d="m93.639 200.927h30.282c3.689 0 6.68-2.991 6.68-6.68s-2.991-6.68-6.68-6.68h-30.282c-3.689 0-6.68 2.991-6.68 6.68s2.99 6.68 6.68 6.68z"/><path d="m147.078 187.567c-3.689 0-6.68 2.991-6.68 6.68s2.991 6.68 6.68 6.68h7.571c3.689 0 6.68-2.991 6.68-6.68s-2.991-6.68-6.68-6.68z"/><path d="m217.375 155.818c0 3.69 2.991 6.68 6.68 6.68h7.571c3.689 0 6.68-2.99 6.68-6.68 0-3.689-2.991-6.68-6.68-6.68h-7.571c-3.689 0-6.68 2.991-6.68 6.68z"/><path d="m215.391 230.516h-40.988c-3.689 0-6.68 2.991-6.68 6.68s2.991 6.68 6.68 6.68h40.988c3.689 0 6.68-2.991 6.68-6.68-.001-3.689-2.991-6.68-6.68-6.68z"/><path d="m93.639 243.876h30.282c3.689 0 6.68-2.991 6.68-6.68s-2.991-6.68-6.68-6.68h-30.282c-3.689 0-6.68 2.991-6.68 6.68s2.99 6.68 6.68 6.68z"/><path d="m147.078 243.876h7.571c3.689 0 6.68-2.991 6.68-6.68s-2.991-6.68-6.68-6.68h-7.571c-3.689 0-6.68 2.991-6.68 6.68s2.991 6.68 6.68 6.68z"/><path d="m117.686 271.291c0 3.689 2.991 6.68 6.68 6.68h68.66c3.689 0 6.68-2.99 6.68-6.68 0-3.689-2.991-6.68-6.68-6.68h-68.66c-3.689 0-6.68 2.991-6.68 6.68z"/><path d="m311.311 230.516h-68.66c-3.689 0-6.68 2.991-6.68 6.68s2.991 6.68 6.68 6.68h68.66c3.689 0 6.68-2.99 6.68-6.68 0-3.689-2.991-6.68-6.68-6.68z"/><path d="m311.311 264.611h-42.607c-3.689 0-6.68 2.991-6.68 6.68s2.991 6.68 6.68 6.68h42.607c3.689 0 6.68-2.99 6.68-6.68 0-3.689-2.991-6.68-6.68-6.68z"/><path d="m93.639 277.971h7.571c3.689 0 6.68-2.99 6.68-6.68 0-3.689-2.991-6.68-6.68-6.68h-7.571c-3.689 0-6.68 2.991-6.68 6.68s2.99 6.68 6.68 6.68z"/><path d="m215.391 303.039h-40.988c-3.689 0-6.68 2.99-6.68 6.68s2.991 6.68 6.68 6.68h40.988c3.689 0 6.68-2.991 6.68-6.68s-2.991-6.68-6.68-6.68z"/><path d="m93.639 316.399h30.282c3.689 0 6.68-2.991 6.68-6.68s-2.991-6.68-6.68-6.68h-30.282c-3.689 0-6.68 2.99-6.68 6.68s2.99 6.68 6.68 6.68z"/><path d="m147.078 303.039c-3.689 0-6.68 2.99-6.68 6.68s2.991 6.68 6.68 6.68h7.571c3.689 0 6.68-2.991 6.68-6.68s-2.991-6.68-6.68-6.68z"/><path d="m231.626 277.971c3.689 0 6.68-2.99 6.68-6.68 0-3.689-2.991-6.68-6.68-6.68h-7.571c-3.689 0-6.68 2.991-6.68 6.68s2.991 6.68 6.68 6.68z"/><path d="m222.07 352.668c0-3.689-2.991-6.68-6.68-6.68h-40.988c-3.689 0-6.68 2.991-6.68 6.68s2.991 6.68 6.68 6.68h40.988c3.69 0 6.68-2.99 6.68-6.68z"/><path d="m93.639 359.348h30.282c3.689 0 6.68-2.991 6.68-6.68s-2.991-6.68-6.68-6.68h-30.282c-3.689 0-6.68 2.991-6.68 6.68 0 3.69 2.99 6.68 6.68 6.68z"/><path d="m147.078 359.348h7.571c3.689 0 6.68-2.991 6.68-6.68s-2.991-6.68-6.68-6.68h-7.571c-3.689 0-6.68 2.991-6.68 6.68 0 3.69 2.991 6.68 6.68 6.68z"/><path d="m311.311 345.988h-68.66c-3.689 0-6.68 2.991-6.68 6.68 0 3.69 2.991 6.68 6.68 6.68h68.66c3.689 0 6.68-2.99 6.68-6.68 0-3.689-2.991-6.68-6.68-6.68z"/></g></g><g><path d="m364.727 12h-26.366c-5.555 0-11.014-1.938-15.059-5.745-4.121-3.878-9.671-6.255-15.777-6.255s-11.655 2.377-15.776 6.255c-4.045 3.807-9.504 5.745-15.059 5.745h-26.366c-11.046 0-20 8.954-20 20 0 11.046 8.954 20 20 20h114.403c11.046 0 20-8.954 20-20 0-11.046-8.954-20-20-20z" fill="url(#SVGID_00000147938353492341947740000010592515544016353954_)"/><path d="m357.525 41h-100c-5.155 0-9.333-4.179-9.333-9.333 0-5.155 4.179-9.333 9.333-9.333h100c5.155 0 9.333 4.179 9.333 9.333.001 5.154-4.178 9.333-9.333 9.333z" fill="url(#SVGID_00000070807102971843438810000005551614850542671003_)"/></g></g></svg>