<svg id="Capa_1" enable-background="new 0 0 510 510" height="512" viewBox="0 0 510 510" width="512" xmlns="http://www.w3.org/2000/svg" xmlns:xlink="http://www.w3.org/1999/xlink"><linearGradient id="SVGID_1_" gradientUnits="userSpaceOnUse" x1="121.589" x2="337.402" y1="81.199" y2="297.012"><stop offset="0" stop-color="#fef0ae"/><stop offset="1" stop-color="#fac600"/></linearGradient><linearGradient id="lg1"><stop offset="0" stop-color="#fea613" stop-opacity="0"/><stop offset=".2032" stop-color="#fda215" stop-opacity=".203"/><stop offset=".4052" stop-color="#fb961b" stop-opacity=".405"/><stop offset=".6066" stop-color="#f68225" stop-opacity=".607"/><stop offset=".8066" stop-color="#f06633" stop-opacity=".807"/><stop offset="1" stop-color="#e94444"/></linearGradient><linearGradient id="SVGID_00000020363843915376530030000011804116034883634864_" gradientUnits="userSpaceOnUse" x1="255" x2="255" xlink:href="#lg1" y1="310" y2="364"/><linearGradient id="SVGID_00000022550521248011947120000007267082465834422175_" gradientUnits="userSpaceOnUse" x1="335.667" x2="285.996" xlink:href="#lg1" y1="351" y2="351"/><linearGradient id="SVGID_00000174574618628852779900000007839599706693846915_" gradientUnits="userSpaceOnUse" x1="391" x2="442.352" xlink:href="#lg1" y1="181" y2="181"/><linearGradient id="SVGID_00000167374136265461080160000014747419348083338915_" gradientUnits="userSpaceOnUse" x1="192.792" x2="365.792" xlink:href="#lg1" y1=".444" y2="266.444"/><linearGradient id="SVGID_00000139992436611379330730000014169222011195601039_" gradientUnits="userSpaceOnUse" x1="163" x2="81" xlink:href="#lg1" y1="58.25" y2="58.25"/><linearGradient id="SVGID_00000062909848639977425030000004977169998012403630_" gradientUnits="userSpaceOnUse" x1="339.667" x2="303.667" xlink:href="#lg1" y1="58.25" y2="58.25"/><linearGradient id="SVGID_00000154386856063849259240000010040586325039045276_" gradientUnits="userSpaceOnUse" x1="226.5" x2="226.5" xlink:href="#lg1" y1="91" y2="130.051"/><linearGradient id="SVGID_00000065040678747850807790000006258602152450326710_" gradientUnits="userSpaceOnUse" x1="264" x2="240" xlink:href="#lg1" y1="56" y2="56"/><linearGradient id="SVGID_00000133509091017154411730000014553189980789886644_" gradientUnits="userSpaceOnUse" x1="262" x2="262" xlink:href="#lg1" y1="40.667" y2="14.53"/><linearGradient id="lg2"><stop offset="0" stop-color="#6e61b6"/><stop offset="1" stop-color="#433f43"/></linearGradient><linearGradient id="SVGID_00000084528774794072868540000009814507229246203270_" gradientUnits="userSpaceOnUse" x1="215.4" x2="268.4" xlink:href="#lg2" y1="31.547" y2="91.547"/><linearGradient id="SVGID_00000031902319039511947370000002349174999592422547_" gradientUnits="userSpaceOnUse" x1="240.42" x2="160.087" xlink:href="#lg2" y1="73.547" y2="34.213"/><linearGradient id="lg3"><stop offset="0" stop-color="#433f43" stop-opacity="0"/><stop offset="1" stop-color="#1a1a1a"/></linearGradient><linearGradient id="SVGID_00000078743571870002019420000012856834944029226909_" gradientUnits="userSpaceOnUse" x1="294.667" x2="308.067" xlink:href="#lg3" y1="56" y2="56"/><linearGradient id="SVGID_00000034049122161051071230000017347762754595774343_" gradientUnits="userSpaceOnUse" x1="237" x2="237" xlink:href="#lg3" y1="86" y2="113.342"/><linearGradient id="SVGID_00000034810047092187942330000017556197318233624730_" gradientUnits="userSpaceOnUse" x1="199.87" x2="343.87" y1="151.883" y2="389.883"><stop offset="0" stop-color="#f9f7f8"/><stop offset="1" stop-color="#e5e1e5"/></linearGradient><linearGradient id="lg4"><stop offset="0" stop-color="#9b8e99" stop-opacity="0"/><stop offset=".3465" stop-color="#978a95" stop-opacity=".347"/><stop offset=".7135" stop-color="#8a7f88" stop-opacity=".714"/><stop offset="1" stop-color="#7b7179"/></linearGradient><linearGradient id="SVGID_00000154386650035105638980000002868389966382724026_" gradientTransform="matrix(-1 0 0 -1 3702 -3622)" gradientUnits="userSpaceOnUse" x1="3447" x2="3447" xlink:href="#lg4" y1="-3793.167" y2="-3755.638"/><linearGradient id="SVGID_00000039132381129820965120000002200598343964405411_" gradientTransform="matrix(-1 0 0 -1 3702 -3622)" gradientUnits="userSpaceOnUse" x1="3550.5" x2="3599.065" xlink:href="#lg4" y1="-3865" y2="-3865"/><linearGradient id="SVGID_00000099656039909372222710000003051941479940200331_" gradientUnits="userSpaceOnUse" x1="350.399" x2="280.813" xlink:href="#lg4" y1="294.985" y2="294.985"/><linearGradient id="SVGID_00000138547397191608593120000001669957584495833022_" gradientUnits="userSpaceOnUse" x1="233.735" x2="341.735" y1="356.02" y2="439.02"><stop offset="0" stop-color="#d9b1ee"/><stop offset=".1228" stop-color="#dba3e3"/><stop offset=".3507" stop-color="#e381c8"/><stop offset=".6587" stop-color="#ef499b"/><stop offset="1" stop-color="#fe0364"/></linearGradient><linearGradient id="lg5"><stop offset="0" stop-color="#a82975" stop-opacity="0"/><stop offset="1" stop-color="#a82975"/></linearGradient><linearGradient id="SVGID_00000165939124790381617840000009308558245197338500_" gradientUnits="userSpaceOnUse" x1="275.537" x2="292.537" xlink:href="#lg5" y1="454.042" y2="486.542"/><linearGradient id="SVGID_00000121991476576541665710000007482791645166492320_" gradientUnits="userSpaceOnUse" x1="308.521" x2="308.521" xlink:href="#lg5" y1="405" y2="373.899"/><linearGradient id="SVGID_00000047057149540738099280000001466717866129855876_" gradientTransform="matrix(-1 0 0 1 617.043 0)" gradientUnits="userSpaceOnUse" x1="415.564" x2="415.564" xlink:href="#lg5" y1="405" y2="373.899"/><g><g><g><path d="m436 91.88v245.47c0 13.614-11.036 24.65-24.65 24.65h-312.7c-13.614 0-24.65-11.036-24.65-24.65v-312.7c0-13.614 11.036-24.65 24.65-24.65h21.85c2.485 0 4.5 2.015 4.5 4.5 0 2.485 2.015 4.5 4.5 4.5h194c2.485 0 4.5-2.015 4.5-4.5 0-2.485 2.015-4.5 4.5-4.5h11.63c6.54 0 12.81 2.6 17.43 7.22l67.22 67.23c4.62 4.62 7.22 10.89 7.22 17.43z" fill="url(#SVGID_1_)"/><path d="m74 208.209v129.146c0 13.611 11.034 24.645 24.645 24.645h312.71c13.611 0 24.645-11.034 24.645-24.645v-129.146z" fill="url(#SVGID_00000020363843915376530030000011804116034883634864_)"/><path d="m283.827 362h112.03l-22-22h-90.03z" fill="url(#SVGID_00000022550521248011947120000007267082465834422175_)"/><path d="m361.559 7.219c-4.622-4.622-10.891-7.219-17.428-7.219h-16.131v362h83.355c13.611 0 24.645-11.034 24.645-24.645v-245.478c0-6.536-2.596-12.804-7.217-17.426z" fill="url(#SVGID_00000174574618628852779900000007839599706693846915_)"/></g><g><path d="m328 95v-90.5c0 2.485-2.015 4.5-4.5 4.5h-194c-2.485 0-4.5-2.015-4.5-4.5v90.5c0 9.389 7.611 17 17 17h169c9.389 0 17-7.611 17-17z" fill="url(#SVGID_00000167374136265461080160000014747419348083338915_)"/><path d="m328 95v-90.5c0 2.485-2.015 4.5-4.5 4.5h-194c-2.485 0-4.5-2.015-4.5-4.5v90.5c0 9.389 7.611 17 17 17h169c9.389 0 17-7.611 17-17z" fill="url(#SVGID_00000139992436611379330730000014169222011195601039_)"/><path d="m323.5 9h-30.167v103h17.667c9.389 0 17-7.611 17-17v-90.5c0 2.485-2.015 4.5-4.5 4.5z" fill="url(#SVGID_00000062909848639977425030000004977169998012403630_)"/><path d="m125 41v54c0 9.389 7.611 17 17 17h169c9.389 0 17-7.611 17-17v-54z" fill="url(#SVGID_00000154386856063849259240000010040586325039045276_)"/></g><path d="m281.204 86.5c0 5.614-4.552 10.167-10.167 10.167h-18.074c-5.614 0-10.167-4.552-10.167-10.167v-61c0-5.614 4.552-10.167 10.167-10.167h18.074c5.614 0 10.167 4.552 10.167 10.167z" fill="url(#SVGID_00000065040678747850807790000006258602152450326710_)"/><path d="m281.204 86.5c0 5.614-4.552 10.167-10.167 10.167h-18.074c-5.614 0-10.167-4.552-10.167-10.167v-61c0-5.614 4.552-10.167 10.167-10.167h18.074c5.614 0 10.167 4.552 10.167 10.167z" fill="url(#SVGID_00000133509091017154411730000014553189980789886644_)"/><g><path d="m295 0h-116c-7.18 0-13 5.82-13 13v86c0 7.18 5.82 13 13 13h116c7.18 0 13-5.82 13-13v-86c0-7.18-5.82-13-13-13zm-16 83c0 4.97-4.03 9-9 9h-16c-4.97 0-9-4.03-9-9v-54c0-4.97 4.03-9 9-9h16c4.97 0 9 4.03 9 9z" fill="url(#SVGID_00000084528774794072868540000009814507229246203270_)"/><path d="m228.333 83c0 4.97-4.03 9-9 9h-29.5c-4.97 0-9-4.03-9-9v-54c0-4.97 4.03-9 9-9h29.5c4.97 0 9 4.03 9 9z" fill="url(#SVGID_00000031902319039511947370000002349174999592422547_)"/><path d="m295 0h-33v20h8c4.97 0 9 4.03 9 9v54c0 4.97-4.03 9-9 9h-8v20h33c7.18 0 13-5.82 13-13v-86c0-7.18-5.82-13-13-13z" fill="url(#SVGID_00000078743571870002019420000012856834944029226909_)"/><path d="m279 49v34c0 4.97-4.03 9-9 9h-16c-4.97 0-9-4.03-9-9v-34h-79v50c0 7.18 5.82 13 13 13h116c7.18 0 13-5.82 13-13v-50z" fill="url(#SVGID_00000034049122161051071230000017347762754595774343_)"/></g><g><path d="m134 146h242c9.389 0 17 7.611 17 17v160c0 9.389-7.611 17-17 17h-242c-9.389 0-17-7.611-17-17v-160c0-9.389 7.611-17 17-17z" fill="url(#SVGID_00000034810047092187942330000017556197318233624730_)"/><path d="m393 246v-83c0-9.389-7.611-17-17-17h-242c-9.389 0-17 7.611-17 17v83z" fill="url(#SVGID_00000154386650035105638980000002868389966382724026_)"/><path d="m134 340h106v-194h-106c-9.389 0-17 7.611-17 17v160c0 9.389 7.611 17 17 17z" fill="url(#SVGID_00000039132381129820965120000002200598343964405411_)"/></g><g fill="#fff"><path d="m133.24 177c0-2.159 1.75-3.909 3.909-3.909h235.702c2.159 0 3.909 1.75 3.909 3.909s-1.75 3.909-3.909 3.909h-235.702c-2.159 0-3.909-1.75-3.909-3.909z"/><path d="m133.24 221c0-2.159 1.75-3.909 3.909-3.909h235.702c2.159 0 3.909 1.75 3.909 3.909s-1.75 3.909-3.909 3.909h-235.702c-2.159 0-3.909-1.75-3.909-3.909z"/><path d="m133.24 265c0-2.159 1.75-3.909 3.909-3.909h235.702c2.159 0 3.909 1.75 3.909 3.909s-1.75 3.909-3.909 3.909h-235.702c-2.159 0-3.909-1.75-3.909-3.909z"/><path d="m133.24 309c0-2.159 1.75-3.909 3.909-3.909h235.702c2.159 0 3.909 1.75 3.909 3.909s-1.75 3.909-3.909 3.909h-235.702c-2.159 0-3.909-1.75-3.909-3.909z"/></g><path d="m373.857 340-90.03-90.03v90.03z" fill="url(#SVGID_00000099656039909372222710000003051941479940200331_)"/></g><g><path d="m300.225 380.943h-13.725v-122.193c0-8.698-7.052-15.75-15.75-15.75h-31.5c-8.698 0-15.75 7.052-15.75 15.75v122.193h-13.725c-24.111 0-38.542 26.816-25.261 46.94l45.225 68.523c11.963 18.126 38.559 18.126 50.522 0l45.225-68.523c13.282-20.124-1.15-46.94-25.261-46.94z" fill="url(#SVGID_00000138547397191608593120000001669957584495833022_)"/><path d="m330.55 411c.05 5.68-1.52 11.52-5.06 16.88l-45.23 68.53c-11.96 18.12-38.56 18.12-50.52 0l-45.23-68.53c-3.54-5.36-5.11-11.2-5.06-16.88z" fill="url(#SVGID_00000165939124790381617840000009308558245197338500_)"/><path d="m300.225 380.943h-13.725v106.01l38.986-59.07c13.282-20.124-1.15-46.94-25.261-46.94z" fill="url(#SVGID_00000121991476576541665710000007482791645166492320_)"/><path d="m209.775 380.943h13.725v106.01l-38.986-59.07c-13.282-20.124 1.15-46.94 25.261-46.94z" fill="url(#SVGID_00000047057149540738099280000001466717866129855876_)"/></g></g></svg>