<svg id="Capa_1" enable-background="new 0 0 510 510" height="512" viewBox="0 0 510 510" width="512" xmlns="http://www.w3.org/2000/svg" xmlns:xlink="http://www.w3.org/1999/xlink"><linearGradient id="SVGID_1_" gradientUnits="userSpaceOnUse" x1="270.563" x2="371.012" y1="52.616" y2="160.995"><stop offset="0" stop-color="#f9f7f8"/><stop offset="1" stop-color="#e5e1e5"/></linearGradient><linearGradient id="lg1"><stop offset="0" stop-color="#9b8e99" stop-opacity="0"/><stop offset=".3465" stop-color="#978a95" stop-opacity=".347"/><stop offset=".7135" stop-color="#8a7f88" stop-opacity=".714"/><stop offset="1" stop-color="#7b7179"/></linearGradient><linearGradient id="SVGID_00000149373115346877415970000010085903738748461966_" gradientUnits="userSpaceOnUse" x1="340.289" x2="340.289" xlink:href="#lg1" y1="169.115" y2="239.694"/><linearGradient id="SVGID_00000166673739781965986840000014425109517152077498_" gradientUnits="userSpaceOnUse" x1="391.537" x2="451.867" xlink:href="#lg1" y1="115.215" y2="115.215"/><linearGradient id="SVGID_00000107580116793896837870000012246113250381249950_" gradientUnits="userSpaceOnUse" x1="335.144" x2="382.744" xlink:href="#lg1" y1="130.122" y2="130.122"/><linearGradient id="SVGID_00000114039491163805902890000012799448583805918870_" gradientUnits="userSpaceOnUse" x1="281.743" x2="398.737" y1="334.599" y2="459.093"><stop offset="0" stop-color="#d5daf3"/><stop offset="1" stop-color="#60b7ff"/></linearGradient><linearGradient id="lg2"><stop offset="0" stop-color="#528fd8" stop-opacity="0"/><stop offset=".214" stop-color="#4e8dd7" stop-opacity=".214"/><stop offset=".4386" stop-color="#4187d5" stop-opacity=".439"/><stop offset=".6681" stop-color="#2c7dd0" stop-opacity=".668"/><stop offset=".8995" stop-color="#0f6fc9" stop-opacity=".9"/><stop offset="1" stop-color="#0067c5"/></linearGradient><linearGradient id="SVGID_00000008139075609431882780000010331958883495454860_" gradientUnits="userSpaceOnUse" x1="340.289" x2="340.289" xlink:href="#lg2" y1="472" y2="508.691"/><linearGradient id="SVGID_00000130610780331885143250000000272857162705243782_" gradientUnits="userSpaceOnUse" x1="353.678" x2="335.178" xlink:href="#lg2" y1="467.774" y2="427.774"/><linearGradient id="SVGID_00000120553792370981175570000000480870353325862018_" gradientUnits="userSpaceOnUse" x1="391.203" x2="439.203" xlink:href="#lg2" y1="479.152" y2="479.152"/><linearGradient id="SVGID_00000151525228900522139860000015964963733730163110_" gradientUnits="userSpaceOnUse" x1="325.948" x2="307.948" xlink:href="#lg2" y1="374.36" y2="342.86"/><linearGradient id="SVGID_00000181076052012726065050000014915899903301989515_" gradientUnits="userSpaceOnUse" x1="110.451" x2="275.619" y1="226.155" y2="353.089"><stop offset="0" stop-color="#d9b1ee"/><stop offset=".1228" stop-color="#dba3e3"/><stop offset=".3507" stop-color="#e381c8"/><stop offset=".6587" stop-color="#ef499b"/><stop offset="1" stop-color="#fe0364"/></linearGradient><linearGradient id="lg3"><stop offset="0" stop-color="#a82975" stop-opacity="0"/><stop offset="1" stop-color="#a82975"/></linearGradient><linearGradient id="SVGID_00000157274850972803929110000001349480371197675157_" gradientUnits="userSpaceOnUse" x1="163.137" x2="180.137" xlink:href="#lg3" y1="416.443" y2="448.943"/><linearGradient id="SVGID_00000093881561542433225920000011891046507132242590_" gradientUnits="userSpaceOnUse" x1="196.122" x2="196.122" xlink:href="#lg3" y1="367.4" y2="336.3"/><linearGradient id="SVGID_00000137853067365226947750000014097289801624945303_" gradientTransform="matrix(-1 0 0 1 -446.957 0)" gradientUnits="userSpaceOnUse" x1="-536.037" x2="-536.037" xlink:href="#lg3" y1="367.4" y2="336.3"/><g><g><g><path d="m441.761 93.594v113.648c0 12.894-15.281 22.921-36.291 22.921-18.624 0-32.948-10.027-32.948-22.921v-10.505c-17.191 20.056-39.158 38.201-72.584 38.201-32.948 0-61.122-20.056-61.122-63.509 0-56.347 45.842-72.106 111.74-72.106h17.191v-4.775c0-16.235-8.597-35.337-35.815-35.337-39.156 0-42.977 15.759-55.869 15.759-16.237 0-24.831-19.578-24.831-36.769 0-22.442 46.32-38.201 81.656-38.201 78.312 0 108.873 45.364 108.873 93.594zm-74.014 41.542h-1.911c-27.218 0-52.528 2.867-52.528 25.788 0 13.846 7.64 20.054 18.624 20.054 14.805 0 35.815-19.578 35.815-43.931z" fill="url(#SVGID_1_)"/><path d="m298.034 104.099c-36.474 8.092-59.217 27.643-59.217 67.33 0 43.453 28.174 63.509 61.122 63.509 33.426 0 55.393-18.145 72.584-38.201v10.505c0 12.894 14.324 22.921 32.948 22.921 21.01 0 36.291-10.027 36.291-22.921v-103.143zm69.713 32.948c0 24.353-21.01 43.931-35.815 43.931-10.983 0-18.624-6.208-18.624-20.054 0-22.921 25.31-25.788 52.528-25.788h1.91v1.911z" fill="url(#SVGID_00000149373115346877415970000010085903738748461966_)"/><path d="m332.888 0c-1.863 0-3.758.046-5.674.133v59.161c1.515-.053 3.083-.082 4.718-.082 27.218 0 35.815 19.102 35.815 35.337v4.775h-17.191c-8.1 0-15.896.24-23.342.762v40.223c9.895-4.336 23.979-5.172 38.622-5.172h1.91v1.911c0 24.353-21.01 43.931-35.815 43.931-1.658 0-3.228-.16-4.718-.447v49.899c18.951-6.611 33.298-19.681 45.308-33.693v10.505c0 12.894 14.324 22.921 32.948 22.921 21.01 0 36.291-10.027 36.291-22.921v-113.649c.001-48.231-30.56-93.594-108.872-93.594z" fill="url(#SVGID_00000166673739781965986840000014425109517152077498_)"/><path d="m365.836 135.136h1.91v-35.812h-17.191c-13.305 0-25.79.643-37.247 2.132v59.465c.003-22.918 25.311-25.785 52.528-25.785z" fill="url(#SVGID_00000107580116793896837870000012246113250381249950_)"/></g><g><path d="m421.234 448.304c11.845 0 21.716 13.819 21.716 31.094 0 16.288-8.391 30.601-21.716 30.601h-158.435c-18.755 0-25.172-14.313-25.172-26.653 0-12.339 6.909-23.198 13.325-31.588l87.362-115.001h-75.516c-11.847 0-21.717-13.82-21.717-31.095 0-16.287 8.391-30.601 21.717-30.601h147.577c12.339 0 23.69 7.897 23.69 25.172 0 10.859-4.441 22.705-12.339 33.069l-87.855 115.002z" fill="url(#SVGID_00000114039491163805902890000012799448583805918870_)"/></g><g><path d="m301.92 384.667-50.968 67.092c-6.416 8.391-13.325 19.249-13.325 31.588 0 12.34 6.416 26.653 25.172 26.653h158.436c13.325 0 21.716-14.313 21.716-30.601 0-17.275-9.871-31.094-21.716-31.094h-87.362l48.616-63.638z" fill="url(#SVGID_00000008139075609431882780000010331958883495454860_)"/><path d="m421.234 510c13.325 0 21.716-14.313 21.716-30.601 0-17.275-9.871-31.094-21.716-31.094h-87.362l-48.877 61.695z" fill="url(#SVGID_00000130610780331885143250000000272857162705243782_)"/><path d="m421.234 510c13.325 0 21.716-14.313 21.716-30.601 0-17.275-9.871-31.094-21.716-31.094h-87.362l-48.877 61.695z" fill="url(#SVGID_00000120553792370981175570000000480870353325862018_)"/></g><path d="m338.314 336.758-84.738 111.546h80.296l85.215-111.546z" fill="url(#SVGID_00000151525228900522139860000015964963733730163110_)"/></g><g><path d="m187.826 343.343h-13.725v-289.993c0-8.698-7.052-15.75-15.75-15.75h-31.5c-8.698 0-15.75 7.052-15.75 15.75v289.993h-13.725c-24.111 0-38.542 26.816-25.261 46.94l45.225 68.523c11.963 18.126 38.559 18.126 50.522 0l45.225-68.523c13.281-20.124-1.15-46.94-25.261-46.94z" fill="url(#SVGID_00000181076052012726065050000014915899903301989515_)"/><path d="m218.151 373.4c.05 5.68-1.52 11.52-5.06 16.88l-45.23 68.53c-11.96 18.12-38.56 18.12-50.52 0l-45.23-68.53c-3.54-5.36-5.11-11.2-5.06-16.88z" fill="url(#SVGID_00000157274850972803929110000001349480371197675157_)"/><path d="m187.826 343.343h-13.725v106.01l38.986-59.07c13.281-20.124-1.15-46.94-25.261-46.94z" fill="url(#SVGID_00000093881561542433225920000011891046507132242590_)"/><path d="m97.376 343.343h13.725v106.01l-38.986-59.07c-13.282-20.124 1.15-46.94 25.261-46.94z" fill="url(#SVGID_00000137853067365226947750000014097289801624945303_)"/></g></g></svg>