<svg id="Capa_1" enable-background="new 0 0 510 510" height="512" viewBox="0 0 510 510" width="512" xmlns="http://www.w3.org/2000/svg" xmlns:xlink="http://www.w3.org/1999/xlink"><linearGradient id="SVGID_1_" gradientUnits="userSpaceOnUse" x1="81.308" x2="313.126" y1="176.997" y2="350.298"><stop offset="0" stop-color="#d5daf3"/><stop offset="1" stop-color="#60b7ff"/></linearGradient><linearGradient id="lg1"><stop offset="0" stop-color="#528fd8" stop-opacity="0"/><stop offset=".214" stop-color="#4e8dd7" stop-opacity=".214"/><stop offset=".4386" stop-color="#4187d5" stop-opacity=".439"/><stop offset=".6681" stop-color="#2c7dd0" stop-opacity=".668"/><stop offset=".8995" stop-color="#0f6fc9" stop-opacity=".9"/><stop offset="1" stop-color="#0067c5"/></linearGradient><linearGradient id="SVGID_00000128487417370884796550000011267554974928351887_" gradientUnits="userSpaceOnUse" x1="268.282" x2="326.799" xlink:href="#lg1" y1="223.665" y2="206.785"/><linearGradient id="SVGID_00000160169454152820946020000016544504585159524250_" gradientUnits="userSpaceOnUse" x1="293.059" x2="335.057" xlink:href="#lg1" y1="244.293" y2="275.791"/><linearGradient id="SVGID_00000111869607517875455050000011384281074300989858_" gradientUnits="userSpaceOnUse" x1="201.243" x2="201.243" xlink:href="#lg1" y1="365.733" y2="451.265"/><linearGradient id="SVGID_00000083083398542812992130000005757014502688515732_" gradientUnits="userSpaceOnUse" x1="207.806" x2="134.659" xlink:href="#lg1" y1="322.28" y2="307.651"/><linearGradient id="SVGID_00000119099806435882166760000006208408984150117264_" gradientUnits="userSpaceOnUse" x1="328.619" x2="434.5" y1="352.699" y2="458.58"><stop offset="0" stop-color="#bbec6c"/><stop offset="1" stop-color="#78a91f"/></linearGradient><linearGradient id="lg2"><stop offset="0" stop-color="#026841" stop-opacity="0"/><stop offset=".3243" stop-color="#046842" stop-opacity=".324"/><stop offset=".5509" stop-color="#0e6546" stop-opacity=".551"/><stop offset=".7476" stop-color="#1d614c" stop-opacity=".748"/><stop offset=".9263" stop-color="#335c54" stop-opacity=".926"/><stop offset="1" stop-color="#3e5959"/></linearGradient><linearGradient id="SVGID_00000088814425772221521480000014426946518111549337_" gradientUnits="userSpaceOnUse" x1="373.093" x2="373.093" xlink:href="#lg2" y1="398.813" y2="502.791"/><linearGradient id="SVGID_00000178919729491234739740000006749443306113627567_" gradientUnits="userSpaceOnUse" x1="391.714" x2="453.265" xlink:href="#lg2" y1="415.795" y2="477.345"/><linearGradient id="SVGID_00000181807082886423319300000006533113219639110784_" gradientUnits="userSpaceOnUse" x1="301.415" x2="444.772" y1="397.173" y2="397.173"><stop offset="0" stop-color="#f9f7f8"/><stop offset="1" stop-color="#e5e1e5"/></linearGradient><g><g><path d="m24.08 410.434c0-1.829.608-4.27 1.219-6.707l113.434-372.016c6.706-21.345 34.15-31.711 62.205-31.711s55.496 10.366 62.205 31.711l114.045 372.016c.608 2.437 1.219 4.878 1.219 6.707 0 22.566-34.761 39.031-60.987 39.031-15.246 0-27.444-4.878-31.103-17.686l-20.734-76.233h-128.68l-20.737 76.233c-3.659 12.809-15.857 17.686-31.103 17.686-26.222 0-60.983-16.465-60.983-39.031zm221.377-128.07-44.519-163.442-44.519 163.442z" fill="url(#SVGID_1_)"/><path d="m263.143 31.711c-6.685-21.267-33.952-31.632-61.9-31.707v120.04l44.214 162.321h-44.214v73.182h64.34l20.734 76.233c3.659 12.809 15.857 17.686 31.103 17.686 26.225 0 60.987-16.465 60.987-39.031 0-1.829-.611-4.27-1.219-6.707z" fill="url(#SVGID_00000128487417370884796550000011267554974928351887_)"/><path d="m263.143 31.711c-6.685-21.267-33.952-31.632-61.9-31.707v120.04l44.214 162.321h-44.214v73.182h64.34l20.734 76.233c3.659 12.809 15.857 17.686 31.103 17.686 26.225 0 60.987-16.465 60.987-39.031 0-1.829-.611-4.27-1.219-6.707z" fill="url(#SVGID_00000160169454152820946020000016544504585159524250_)"/><path d="m156.419 282.364h-94.115l-37.006 121.363c-.611 2.437-1.219 4.877-1.219 6.707 0 22.566 34.762 39.031 60.984 39.031 15.246 0 27.444-4.878 31.103-17.686l20.737-76.233h128.68l20.734 76.233c3.659 12.809 15.857 17.686 31.103 17.686 26.225 0 60.987-16.465 60.987-39.031 0-1.829-.611-4.27-1.219-6.707l-37.205-121.363h-94.526z" fill="url(#SVGID_00000111869607517875455050000011384281074300989858_)"/><path d="m245.457 282.364h-89.038l-19.516 73.182h128.68z" fill="url(#SVGID_00000083083398542812992130000005757014502688515732_)"/></g><g><g><circle cx="373.093" cy="397.173" fill="url(#SVGID_00000119099806435882166760000006208408984150117264_)" r="112.827"/><path d="m260.266 397.173c0 62.312 50.514 112.827 112.827 112.827s112.827-50.515 112.827-112.827c0-13.495-2.377-26.433-6.723-38.428h-212.208c-4.345 11.995-6.723 24.933-6.723 38.428z" fill="url(#SVGID_00000088814425772221521480000014426946518111549337_)"/><path d="m293.313 476.954c44.061 44.061 115.5 44.062 159.561 0 44.062-44.062 44.061-115.5 0-159.561-9.543-9.543-20.372-17.01-31.927-22.419l-150.054 150.053c5.41 11.554 12.877 22.384 22.42 31.927z" fill="url(#SVGID_00000178919729491234739740000006749443306113627567_)"/></g><path d="m349.638 449.465c-8.905 0-17.809-3.389-24.588-10.168l-18.691-18.692c-6.593-6.592-6.593-17.279 0-23.872 6.592-6.593 17.28-6.593 23.872 0l18.691 18.691c.397.395 1.04.395 1.434-.001l65.6-65.599c6.592-6.592 17.28-6.593 23.872 0 6.593 6.592 6.593 17.28 0 23.872l-65.6 65.599c-6.78 6.78-15.685 10.17-24.59 10.17z" fill="url(#SVGID_00000181807082886423319300000006533113219639110784_)"/></g></g></svg>