<svg id="Capa_1" enable-background="new 0 0 510 510" height="512" viewBox="0 0 510 510" width="512" xmlns="http://www.w3.org/2000/svg" xmlns:xlink="http://www.w3.org/1999/xlink"><linearGradient id="SVGID_1_" gradientUnits="userSpaceOnUse" x1="-14.021" x2="525.478" y1="-3.44" y2="432.059"><stop offset="0" stop-color="#6e61b6"/><stop offset="1" stop-color="#433f43"/></linearGradient><linearGradient id="lg1"><stop offset="0" stop-color="#433f43" stop-opacity="0"/><stop offset="1" stop-color="#1a1a1a"/></linearGradient><linearGradient id="SVGID_00000062912334450396650550000010195417270020177599_" gradientUnits="userSpaceOnUse" x1="390.419" x2="459.452" xlink:href="#lg1" y1="254.996" y2="254.996"/><linearGradient id="SVGID_00000036932529527462152010000016800710212170407557_" gradientUnits="userSpaceOnUse" x1="274.764" x2="328.431" xlink:href="#lg1" y1="303.834" y2="303.834"/><linearGradient id="SVGID_00000070096088171960165980000005460873648621591970_" gradientUnits="userSpaceOnUse" x1="254.996" x2="254.996" xlink:href="#lg1" y1="327.333" y2="274.515"/><linearGradient id="SVGID_00000119798780018188650080000017332538965248351908_" gradientUnits="userSpaceOnUse" x1="255" x2="255" xlink:href="#lg1" y1="461.036" y2="513.367"/><linearGradient id="SVGID_00000117652342696383482430000018198344183305215881_" gradientUnits="userSpaceOnUse" x1="255" x2="255" y1="246.667" y2="271.333"><stop offset="0" stop-color="#d5daf3"/><stop offset="1" stop-color="#60b7ff"/></linearGradient><g><g><path d="m420.533 0h-331.066c-23.023 0-32.79 25.116-32.79 48.139v64.212c0 8.107 6.572 14.678 14.678 14.678h8.302c8.107 0 14.678-6.572 14.678-14.678 0-8.107 6.572-14.678 14.678-14.678h91.567v360.917c0 7.59-6.153 13.743-13.743 13.743-7.59 0-13.743 6.153-13.743 13.743v10.172c0 7.59 6.153 13.743 13.743 13.743h136.323c7.59 0 13.743-6.153 13.743-13.743v-10.172c0-7.59-6.153-13.743-13.743-13.743-7.59 0-13.743-6.153-13.743-13.743v-360.917h91.567c8.107 0 14.678 6.572 14.678 14.678 0 8.107 6.572 14.678 14.678 14.678h8.302c8.107 0 14.678-6.572 14.678-14.678v-64.212c.003-23.023-9.764-48.139-32.787-48.139z" fill="url(#SVGID_1_)"/><path d="m420.533 0h-219.951v97.673 360.917 51.402h122.58c7.59 0 13.743-6.153 13.743-13.743v-10.172c0-7.59-6.153-13.743-13.743-13.743s-13.743-6.153-13.743-13.743v-360.918h91.567c8.107 0 14.679 6.572 14.679 14.678s6.572 14.679 14.678 14.679h8.302c8.107 0 14.678-6.572 14.678-14.679v-64.212c0-23.023-9.767-48.139-32.79-48.139z" fill="url(#SVGID_00000062912334450396650550000010195417270020177599_)"/><path d="m336.905 486.083v10.169c0 7.584-6.143 13.749-13.749 13.749h-122.572v-412.332h108.824v360.917c0 7.584 6.165 13.749 13.749 13.749 7.605-.001 13.748 6.143 13.748 13.748z" fill="url(#SVGID_00000036932529527462152010000016800710212170407557_)"/><path d="m200.584 259.571h108.824v143.096h-108.824z" fill="url(#SVGID_00000070096088171960165980000005460873648621591970_)"/><path d="m200.582 321.22v137.37c0 7.59-6.153 13.743-13.743 13.743s-13.743 6.153-13.743 13.743v10.172c0 7.59 6.153 13.743 13.743 13.743h136.323c7.59 0 13.743-6.153 13.743-13.743v-10.172c0-7.59-6.153-13.743-13.743-13.743s-13.743-6.153-13.743-13.743v-137.37z" fill="url(#SVGID_00000119798780018188650080000017332538965248351908_)"/></g><path d="m437.329 275.565h-364.658c-8.833 0-15.994-7.16-15.994-15.994 0-8.833 7.161-15.994 15.994-15.994h364.658c8.833 0 15.994 7.161 15.994 15.994s-7.16 15.994-15.994 15.994z" fill="url(#SVGID_00000117652342696383482430000018198344183305215881_)"/></g></svg>