<svg id="Capa_1" enable-background="new 0 0 510 510" height="512" viewBox="0 0 510 510" width="512" xmlns="http://www.w3.org/2000/svg" xmlns:xlink="http://www.w3.org/1999/xlink"><linearGradient id="SVGID_1_" gradientUnits="userSpaceOnUse" x1="24.905" x2="486.341" y1="-2.942" y2="369.542"><stop offset="0" stop-color="#6e61b6"/><stop offset="1" stop-color="#433f43"/></linearGradient><linearGradient id="lg1"><stop offset="0" stop-color="#433f43" stop-opacity="0"/><stop offset="1" stop-color="#1a1a1a"/></linearGradient><linearGradient id="SVGID_00000118365821164840113310000005084092456501635471_" gradientUnits="userSpaceOnUse" x1="370.824" x2="429.869" xlink:href="#lg1" y1="218.099" y2="218.099"/><linearGradient id="SVGID_00000127741979098953325290000007127142036348583073_" gradientUnits="userSpaceOnUse" x1="271.905" x2="317.806" xlink:href="#lg1" y1="259.871" y2="259.871"/><linearGradient id="SVGID_00000048464727819369477220000013834495919985975466_" gradientUnits="userSpaceOnUse" x1="255" x2="255" xlink:href="#lg1" y1="394.326" y2="439.085"/><linearGradient id="SVGID_00000154418849576536495180000014741225538025415056_" gradientUnits="userSpaceOnUse" x1="357.285" x2="404.633" y1="443" y2="443"><stop offset="0" stop-color="#d9b1ee"/><stop offset=".1228" stop-color="#dba3e3"/><stop offset=".3507" stop-color="#e381c8"/><stop offset=".6587" stop-color="#ef499b"/><stop offset="1" stop-color="#fe0364"/></linearGradient><linearGradient id="lg2"><stop offset="0" stop-color="#a82975" stop-opacity="0"/><stop offset="1" stop-color="#a82975"/></linearGradient><linearGradient id="SVGID_00000165955456467635576140000009301831712027316920_" gradientUnits="userSpaceOnUse" x1="378.254" x2="362.587" xlink:href="#lg2" y1="444.249" y2="439.249"/><linearGradient id="SVGID_00000059996157437055113030000009995213807493760932_" gradientUnits="userSpaceOnUse" x1="390.374" x2="390.374" xlink:href="#lg2" y1="481" y2="511.223"/><g><g><path d="m396.581 0h-283.162c-19.692 0-28.046 21.482-28.046 41.174v54.921c0 6.934 5.621 12.555 12.555 12.555h7.101c6.934 0 12.555-5.621 12.555-12.555 0-6.934 5.621-12.555 12.555-12.555h78.318v308.694c0 6.492-5.263 11.755-11.755 11.755-6.492 0-11.755 5.263-11.755 11.755v8.7c0 6.492 5.263 11.755 11.755 11.755h116.598c6.492 0 11.755-5.263 11.755-11.755v-8.7c0-6.492-5.263-11.755-11.755-11.755-6.492 0-11.755-5.263-11.755-11.755v-308.694h78.318c6.934 0 12.555 5.621 12.555 12.555 0 6.934 5.621 12.555 12.555 12.555h7.101c6.934 0 12.555-5.621 12.555-12.555v-54.921c-.002-19.692-8.356-41.174-28.048-41.174z" fill="url(#SVGID_1_)"/><path d="m396.581 0h-188.125v83.54 308.694 43.965h104.843c6.492 0 11.755-5.263 11.755-11.755v-8.7c0-6.492-5.263-11.755-11.755-11.755s-11.755-5.263-11.755-11.755v-308.694h78.318c6.934 0 12.555 5.621 12.555 12.555s5.621 12.555 12.555 12.555h7.101c6.934 0 12.555-5.621 12.555-12.555v-54.921c-.001-19.692-8.355-41.174-28.047-41.174z" fill="url(#SVGID_00000118365821164840113310000005084092456501635471_)"/><path d="m325.054 415.749v8.697c0 6.487-5.254 11.759-11.759 11.759h-104.837v-352.668h93.077v308.693c0 6.487 5.273 11.759 11.759 11.759 6.505.001 11.76 5.255 11.76 11.76z" fill="url(#SVGID_00000127741979098953325290000007127142036348583073_)"/><path d="m208.456 274.741v117.493c0 6.492-5.263 11.755-11.755 11.755s-11.755 5.263-11.755 11.755v8.7c0 6.492 5.263 11.755 11.755 11.755h116.598c6.492 0 11.755-5.263 11.755-11.755v-8.7c0-6.492-5.263-11.755-11.755-11.755s-11.755-5.263-11.755-11.755v-117.493z" fill="url(#SVGID_00000048464727819369477220000013834495919985975466_)"/></g><g><g><path d="m376.115 408.174-5.301 3.29c-1.644 1.097-3.29 1.464-4.57 1.464-5.301 0-8.958-5.668-8.958-11.335 0-3.839 1.646-7.494 5.303-9.689l24.131-14.624c1.462-.915 3.29-1.28 5.301-1.28 5.85 0 12.613 3.473 12.613 8.958v116.268c0 5.848-7.13 8.774-14.259 8.774s-14.259-2.926-14.259-8.774v-93.052z" fill="url(#SVGID_00000154418849576536495180000014741225538025415056_)"/></g><path d="m390.374 510c7.13 0 14.259-2.926 14.259-8.774v-111.657l-28.519 18.605v93.052c.001 5.848 7.13 8.774 14.26 8.774z" fill="url(#SVGID_00000165955456467635576140000009301831712027316920_)"/><path d="m376.115 443v58.226c0 5.848 7.13 8.774 14.259 8.774 7.13 0 14.259-2.926 14.259-8.774v-58.226z" fill="url(#SVGID_00000059996157437055113030000009995213807493760932_)"/></g></g></svg>