<svg id="Capa_1" enable-background="new 0 0 510 510" height="512" viewBox="0 0 510 510" width="512" xmlns="http://www.w3.org/2000/svg" xmlns:xlink="http://www.w3.org/1999/xlink"><linearGradient id="SVGID_1_" gradientUnits="userSpaceOnUse" x1="-6.493" x2="454.942" y1="70.853" y2="443.337"><stop offset="0" stop-color="#6e61b6"/><stop offset="1" stop-color="#433f43"/></linearGradient><linearGradient id="lg1"><stop offset="0" stop-color="#433f43" stop-opacity="0"/><stop offset="1" stop-color="#1a1a1a"/></linearGradient><linearGradient id="SVGID_00000072962108868826633090000007660400592127984518_" gradientUnits="userSpaceOnUse" x1="339.425" x2="398.47" xlink:href="#lg1" y1="291.894" y2="291.894"/><linearGradient id="SVGID_00000147900719332751145200000014620539287945576623_" gradientUnits="userSpaceOnUse" x1="240.506" x2="286.407" xlink:href="#lg1" y1="333.666" y2="333.666"/><linearGradient id="SVGID_00000101100249219280670560000013505402326453138099_" gradientUnits="userSpaceOnUse" x1="223.601" x2="223.601" xlink:href="#lg1" y1="468.121" y2="512.88"/><linearGradient id="SVGID_00000131349169073477849760000016364089972661063359_" gradientUnits="userSpaceOnUse" x1="408.677" x2="456.025" y1="67" y2="67"><stop offset="0" stop-color="#d5daf3"/><stop offset="1" stop-color="#60b7ff"/></linearGradient><linearGradient id="lg2"><stop offset="0" stop-color="#528fd8" stop-opacity="0"/><stop offset=".214" stop-color="#4e8dd7" stop-opacity=".214"/><stop offset=".4386" stop-color="#4187d5" stop-opacity=".439"/><stop offset=".6681" stop-color="#2c7dd0" stop-opacity=".668"/><stop offset=".8995" stop-color="#0f6fc9" stop-opacity=".9"/><stop offset="1" stop-color="#0067c5"/></linearGradient><linearGradient id="SVGID_00000114052190924286418560000016327469671611998371_" gradientUnits="userSpaceOnUse" x1="429.646" x2="413.979" xlink:href="#lg2" y1="68.249" y2="63.249"/><linearGradient id="SVGID_00000107584490633575290300000003270876205259960960_" gradientUnits="userSpaceOnUse" x1="441.766" x2="441.766" xlink:href="#lg2" y1="105" y2="135.223"/><g><g><path d="m365.182 73.795h-283.162c-19.692 0-28.046 21.482-28.046 41.174v54.921c0 6.934 5.621 12.555 12.555 12.555h7.101c6.934 0 12.555-5.621 12.555-12.555 0-6.934 5.621-12.555 12.555-12.555h78.318v308.694c0 6.492-5.263 11.755-11.755 11.755-6.492 0-11.755 5.263-11.755 11.755v8.7c0 6.492 5.263 11.755 11.755 11.755h116.597c6.492 0 11.755-5.263 11.755-11.755v-8.7c0-6.492-5.263-11.755-11.755-11.755-6.492 0-11.755-5.263-11.755-11.755v-308.694h78.318c6.934 0 12.555 5.621 12.555 12.555 0 6.934 5.621 12.555 12.555 12.555h7.101c6.934 0 12.555-5.621 12.555-12.555v-54.921c-.001-19.693-8.355-41.174-28.047-41.174z" fill="url(#SVGID_1_)"/><path d="m365.182 73.795h-188.125v83.54 308.694 43.965h104.843c6.492 0 11.755-5.263 11.755-11.755v-8.7c0-6.492-5.263-11.755-11.755-11.755s-11.755-5.263-11.755-11.755v-308.694h78.318c6.934 0 12.555 5.621 12.555 12.555s5.621 12.555 12.555 12.555h7.101c6.934 0 12.555-5.621 12.555-12.555v-54.921c-.001-19.693-8.355-41.174-28.047-41.174z" fill="url(#SVGID_00000072962108868826633090000007660400592127984518_)"/><path d="m293.655 489.544v8.697c0 6.487-5.254 11.759-11.759 11.759h-104.837v-352.669h93.077v308.694c0 6.487 5.273 11.759 11.759 11.759 6.506 0 11.76 5.255 11.76 11.76z" fill="url(#SVGID_00000147900719332751145200000014620539287945576623_)"/><path d="m177.057 348.535v117.493c0 6.492-5.263 11.755-11.755 11.755s-11.755 5.263-11.755 11.755v8.7c0 6.492 5.263 11.755 11.755 11.755h116.598c6.492 0 11.755-5.263 11.755-11.755v-8.7c0-6.492-5.263-11.755-11.755-11.755s-11.755-5.263-11.755-11.755v-117.493z" fill="url(#SVGID_00000101100249219280670560000013505402326453138099_)"/></g><g><g><path d="m427.507 32.174-5.301 3.29c-1.644 1.097-3.29 1.464-4.57 1.464-5.301 0-8.958-5.668-8.958-11.335 0-3.839 1.646-7.494 5.303-9.689l24.13-14.624c1.462-.915 3.29-1.28 5.301-1.28 5.85 0 12.613 3.473 12.613 8.958v116.268c0 5.848-7.13 8.774-14.259 8.774-7.13 0-14.259-2.926-14.259-8.774z" fill="url(#SVGID_00000131349169073477849760000016364089972661063359_)"/></g><path d="m441.766 134c7.13 0 14.259-2.926 14.259-8.774v-111.657l-28.519 18.605v93.052c.001 5.848 7.13 8.774 14.26 8.774z" fill="url(#SVGID_00000114052190924286418560000016327469671611998371_)"/><path d="m427.507 67v58.226c0 5.848 7.13 8.774 14.259 8.774 7.13 0 14.259-2.926 14.259-8.774v-58.226z" fill="url(#SVGID_00000107584490633575290300000003270876205259960960_)"/></g></g></svg>