<svg id="Capa_1" enable-background="new 0 0 510 510" height="512" viewBox="0 0 510 510" width="512" xmlns="http://www.w3.org/2000/svg" xmlns:xlink="http://www.w3.org/1999/xlink"><linearGradient id="lg1"><stop offset="0" stop-color="#f9f7f8"/><stop offset="1" stop-color="#e5e1e5"/></linearGradient><linearGradient id="SVGID_1_" gradientUnits="userSpaceOnUse" x1="78.559" x2="366.474" xlink:href="#lg1" y1="144.675" y2="357.984"/><linearGradient id="lg2"><stop offset="0" stop-color="#9b8e99" stop-opacity="0"/><stop offset=".3465" stop-color="#978a95" stop-opacity=".347"/><stop offset=".7135" stop-color="#8a7f88" stop-opacity=".714"/><stop offset="1" stop-color="#7b7179"/></linearGradient><linearGradient id="SVGID_00000174592646344025874170000017092911804866632840_" gradientUnits="userSpaceOnUse" x1="320.858" x2="395.108" xlink:href="#lg2" y1="255" y2="255"/><linearGradient id="SVGID_00000003811740774063312660000010476514872995010483_" gradientUnits="userSpaceOnUse" x1="199.995" x2="199.995" xlink:href="#lg2" y1="460" y2="516.009"/><linearGradient id="SVGID_00000053507968489132970280000017935231770040602505_" gradientUnits="userSpaceOnUse" x1="189.601" x2="116.935" xlink:href="#lg2" y1="466.985" y2="462.319"/><linearGradient id="SVGID_00000009554260750001584930000011904475781384542607_" gradientUnits="userSpaceOnUse" x1="111.115" x2="85.115" xlink:href="#lg1" y1="438.904" y2="480.238"/><linearGradient id="SVGID_00000132071466859715027990000011069296075290909620_" gradientUnits="userSpaceOnUse" x1="231.965" x2="231.965" xlink:href="#lg2" y1="482" y2="358.821"/><linearGradient id="SVGID_00000069385357080324849490000005124503411797499573_" gradientUnits="userSpaceOnUse" x1="231.084" x2="380.136" xlink:href="#lg1" y1="175.871" y2="324.923"/><linearGradient id="SVGID_00000101100472291475425250000002791614550972947883_" gradientUnits="userSpaceOnUse" x1="108.281" x2="380.281" xlink:href="#lg2" y1="152.121" y2="344.121"/><linearGradient id="SVGID_00000160890377591638036560000008607157917984813495_" gradientUnits="userSpaceOnUse" x1="282.213" x2="282.213" xlink:href="#lg2" y1="313" y2="364.788"/><linearGradient id="SVGID_00000170236466575607336600000006408108540784394372_" gradientUnits="userSpaceOnUse" x1="232.19" x2="348.19" xlink:href="#lg2" y1="70.37" y2="526.37"/><linearGradient id="SVGID_00000101789953171371933640000003467776204548044935_" gradientUnits="userSpaceOnUse" x1="430.955" x2="488.964" xlink:href="#lg2" y1="227" y2="227"/><linearGradient id="SVGID_00000109709840989137185680000003277331632423059356_" gradientUnits="userSpaceOnUse" x1="349.311" x2="549.311" xlink:href="#lg2" y1="172.373" y2="324.373"/><linearGradient id="SVGID_00000069387153735246170040000012298160153364747693_" gradientUnits="userSpaceOnUse" x1="266.091" x2="305.091" y1="90.413" y2="203.413"><stop offset="0" stop-color="#d5daf3"/><stop offset="1" stop-color="#60b7ff"/></linearGradient><linearGradient id="SVGID_00000017512264625224114660000012599887317120569988_" gradientUnits="userSpaceOnUse" x1="75.911" x2="150.697" y1="226.088" y2="283.424"><stop offset="0" stop-color="#fef0ae"/><stop offset="1" stop-color="#fac600"/></linearGradient><linearGradient id="lg3"><stop offset="0" stop-color="#fea613" stop-opacity="0"/><stop offset=".2032" stop-color="#fda215" stop-opacity=".203"/><stop offset=".4052" stop-color="#fb961b" stop-opacity=".405"/><stop offset=".6066" stop-color="#f68225" stop-opacity=".607"/><stop offset=".8066" stop-color="#f06633" stop-opacity=".807"/><stop offset="1" stop-color="#e94444"/></linearGradient><linearGradient id="SVGID_00000031189793164638346320000002274048751163220372_" gradientUnits="userSpaceOnUse" x1="120.435" x2="120.435" xlink:href="#lg3" y1="323" y2="366.105"/><linearGradient id="lg4"><stop offset="0" stop-color="#528fd8" stop-opacity="0"/><stop offset=".214" stop-color="#4e8dd7" stop-opacity=".214"/><stop offset=".4386" stop-color="#4187d5" stop-opacity=".439"/><stop offset=".6681" stop-color="#2c7dd0" stop-opacity=".668"/><stop offset=".8995" stop-color="#0f6fc9" stop-opacity=".9"/><stop offset="1" stop-color="#0067c5"/></linearGradient><linearGradient id="SVGID_00000145039638388010786900000005172914072269411991_" gradientUnits="userSpaceOnUse" x1="426.955" x2="478.2" xlink:href="#lg4" y1="126" y2="126"/><linearGradient id="SVGID_00000157272482266851532990000017943548462070822331_" gradientUnits="userSpaceOnUse" x1="95.696" x2="152.198" y1="101.259" y2="157.761"><stop offset="0" stop-color="#bbec6c"/><stop offset="1" stop-color="#78a91f"/></linearGradient><linearGradient id="SVGID_00000077308658047404370980000008917579930282610103_" gradientUnits="userSpaceOnUse" x1="12.753" x2="229.753" xlink:href="#lg3" y1="104.733" y2="431.733"/><linearGradient id="SVGID_00000147181343700281097790000002951771615540423846_" gradientUnits="userSpaceOnUse" x1="319.866" x2="505.866" xlink:href="#lg4" y1="27.64" y2="206.64"/><linearGradient id="SVGID_00000112611802085393124300000008272557464782674621_" gradientUnits="userSpaceOnUse" x1="138.237" x2="304.237" xlink:href="#lg4" y1="26.49" y2="243.49"/><g><g><g><path d="m354.016 510h-226.001c-56.333 0-102-45.667-102-102v-388.041c0-11.023 8.936-19.959 19.959-19.959h308.041c11.023 0 19.959 8.936 19.959 19.959v470.081c.001 11.024-8.935 19.96-19.958 19.96z" fill="url(#SVGID_1_)"/><path d="m354.016 0h-177.082v510h177.082c11.023 0 19.959-8.936 19.959-19.959v-470.082c0-11.023-8.936-19.959-19.959-19.959z" fill="url(#SVGID_00000174592646344025874170000017092911804866632840_)"/><path d="m26.015 326.667v81.333c0 56.333 45.667 102 102 102h226.001c11.023 0 19.959-8.936 19.959-19.959v-163.374z" fill="url(#SVGID_00000003811740774063312660000010476514872995010483_)"/><path d="m123.119 415.551v94.33c1.623.077 3.254.119 4.896.119h89.553z" fill="url(#SVGID_00000053507968489132970280000017935231770040602505_)"/><path d="m128.015 467.081c0 23.703 19.215 42.919 42.919 42.919h-42.919c-56.333 0-102-45.667-102-102h80.959c11.62 0 21.041 9.42 21.041 21.041z" fill="url(#SVGID_00000009554260750001584930000011904475781384542607_)"/></g></g><path d="m89.955 361.5 148.5 148.5h115.561c11.023 0 19.959-8.936 19.959-19.959v-128.541z" fill="url(#SVGID_00000132071466859715027990000011069296075290909620_)"/><g><g><path d="m457.228 368h-350.03c-14.778 0-26.758-11.98-26.758-26.758v-228.484c0-14.778 11.98-26.758 26.757-26.758h350.03c14.778 0 26.758 11.98 26.758 26.758v228.485c0 14.777-11.98 26.757-26.757 26.757z" fill="url(#SVGID_00000069385357080324849490000005124503411797499573_)"/><path d="m160.435 86h107.85v282h-107.85z" fill="url(#SVGID_00000101100472291475425250000002791614550972947883_)"/><path d="m80.44 234v107.242c0 14.778 11.98 26.758 26.757 26.758h350.03c14.778 0 26.758-11.98 26.758-26.758v-107.242z" fill="url(#SVGID_00000160890377591638036560000008607157917984813495_)"/><path d="m80.435 233.33h403.55v67.34h-403.55z" fill="url(#SVGID_00000170236466575607336600000006408108540784394372_)"/><path d="m457.228 86h-143.498v282h143.498c14.778 0 26.758-11.98 26.758-26.758v-228.484c-.001-14.778-11.981-26.758-26.758-26.758z" fill="url(#SVGID_00000101789953171371933640000003467776204548044935_)"/><path d="m483.985 112.76v228.48c0 14.78-11.98 26.76-26.76 26.76h-81.09v-282h81.09c14.78 0 26.76 11.98 26.76 26.76z" fill="url(#SVGID_00000109709840989137185680000003277331632423059356_)"/></g><path d="m457.228 86h-350.03c-14.778 0-26.758 11.98-26.758 26.758v53.242h403.545v-53.242c0-14.778-11.98-26.758-26.757-26.758z" fill="url(#SVGID_00000069387153735246170040000012298160153364747693_)"/><path d="m160.435 166v202h-53.24c-14.78 0-26.76-11.98-26.76-26.76v-175.24z" fill="url(#SVGID_00000017512264625224114660000012599887317120569988_)"/><path d="m160.435 166v202h-53.24c-14.78 0-26.76-11.98-26.76-26.76v-175.24z" fill="url(#SVGID_00000031189793164638346320000002274048751163220372_)"/><path d="m457.228 86h-143.498v80h170.255v-53.242c0-14.778-11.98-26.758-26.757-26.758z" fill="url(#SVGID_00000145039638388010786900000005172914072269411991_)"/><path d="m107.197 86c-14.777 0-26.757 11.98-26.757 26.758v53.242h79.995v-80z" fill="url(#SVGID_00000157272482266851532990000017943548462070822331_)"/><path d="m80.435 233.33h80v67.34h-80z" fill="url(#SVGID_00000077308658047404370980000008917579930282610103_)"/><path d="m376.135 86v80h107.85v-53.252c-.005-14.773-11.983-26.748-26.757-26.748z" fill="url(#SVGID_00000147181343700281097790000002951771615540423846_)"/><path d="m160.435 86h107.85v80h-107.85z" fill="url(#SVGID_00000112611802085393124300000008272557464782674621_)"/></g></g></svg>