<svg id="Capa_1" enable-background="new 0 0 510 510" height="512" viewBox="0 0 510 510" width="512" xmlns="http://www.w3.org/2000/svg" xmlns:xlink="http://www.w3.org/1999/xlink"><linearGradient id="SVGID_1_" gradientUnits="userSpaceOnUse" x1="35.124" x2="574.622" y1="-3.44" y2="432.059"><stop offset="0" stop-color="#6e61b6"/><stop offset="1" stop-color="#433f43"/></linearGradient><linearGradient id="lg1"><stop offset="0" stop-color="#433f43" stop-opacity="0"/><stop offset="1" stop-color="#1a1a1a"/></linearGradient><linearGradient id="SVGID_00000112600629948979477700000012436052440334921094_" gradientUnits="userSpaceOnUse" x1="439.563" x2="508.596" xlink:href="#lg1" y1="254.996" y2="254.996"/><linearGradient id="SVGID_00000047031497714120742370000008505571814451576712_" gradientUnits="userSpaceOnUse" x1="323.909" x2="377.576" xlink:href="#lg1" y1="303.834" y2="303.834"/><linearGradient id="SVGID_00000031907163690414433650000009414147019436484755_" gradientUnits="userSpaceOnUse" x1="289.784" x2="217.44" xlink:href="#lg1" y1="307.642" y2="206.9"/><linearGradient id="SVGID_00000122717592983264696190000005178984919095324291_" gradientUnits="userSpaceOnUse" x1="304.144" x2="304.144" xlink:href="#lg1" y1="461.036" y2="513.367"/><linearGradient id="SVGID_00000075161206881351141860000003346373271039024289_" gradientUnits="userSpaceOnUse" x1="-40.077" x2="323.235" y1="164.237" y2="457.513"><stop offset="0" stop-color="#f9f7f8"/><stop offset="1" stop-color="#e5e1e5"/></linearGradient><linearGradient id="lg2"><stop offset="0" stop-color="#9b8e99" stop-opacity="0"/><stop offset=".3465" stop-color="#978a95" stop-opacity=".347"/><stop offset=".7135" stop-color="#8a7f88" stop-opacity=".714"/><stop offset="1" stop-color="#7b7179"/></linearGradient><linearGradient id="SVGID_00000080891915475363517430000009977439097686158225_" gradientUnits="userSpaceOnUse" x1="232.283" x2="278.771" xlink:href="#lg2" y1="338.274" y2="338.274"/><linearGradient id="SVGID_00000136408547222847910670000010333250977881533071_" gradientUnits="userSpaceOnUse" x1="154.398" x2="190.539" xlink:href="#lg2" y1="371.163" y2="371.163"/><linearGradient id="SVGID_00000157268038633618452700000002095653699953112705_" gradientUnits="userSpaceOnUse" x1="141.088" x2="141.088" xlink:href="#lg2" y1="477.026" y2="512.267"/><g><g><path d="m469.677 0h-331.066c-23.023 0-32.79 25.116-32.79 48.139v64.212c0 8.107 6.572 14.678 14.678 14.678h8.302c8.107 0 14.678-6.572 14.678-14.678 0-8.107 6.572-14.678 14.678-14.678h91.567v360.917c0 7.59-6.153 13.743-13.743 13.743-7.59 0-13.743 6.153-13.743 13.743v10.172c0 7.59 6.153 13.743 13.743 13.743h136.323c7.59 0 13.743-6.153 13.743-13.743v-10.172c0-7.59-6.153-13.743-13.743-13.743-7.59 0-13.743-6.153-13.743-13.743v-360.917h91.567c8.107 0 14.678 6.572 14.678 14.678 0 8.107 6.572 14.678 14.678 14.678h8.302c8.107 0 14.678-6.572 14.678-14.678v-64.212c.003-23.023-9.763-48.139-32.787-48.139z" fill="url(#SVGID_1_)"/><path d="m469.677 0h-219.951v97.673 360.917 51.402h122.58c7.59 0 13.743-6.153 13.743-13.743v-10.172c0-7.59-6.153-13.743-13.743-13.743s-13.743-6.153-13.743-13.743v-360.918h91.567c8.107 0 14.678 6.572 14.678 14.678s6.572 14.679 14.678 14.679h8.302c8.107 0 14.679-6.572 14.679-14.679v-64.212c0-23.023-9.766-48.139-32.79-48.139z" fill="url(#SVGID_00000112600629948979477700000012436052440334921094_)"/><path d="m386.049 486.083v10.169c0 7.584-6.143 13.749-13.749 13.749h-122.572v-412.332h108.824v360.917c0 7.584 6.165 13.749 13.749 13.749 7.605-.001 13.748 6.143 13.748 13.748z" fill="url(#SVGID_00000047031497714120742370000008505571814451576712_)"/><path d="m266.396 172.762h-16.668v217.586h108.824v-125.431z" fill="url(#SVGID_00000031907163690414433650000009414147019436484755_)"/><path d="m249.726 321.22v137.37c0 7.59-6.153 13.743-13.743 13.743s-13.743 6.153-13.743 13.743v10.172c0 7.59 6.153 13.743 13.743 13.743h136.323c7.59 0 13.743-6.153 13.743-13.743v-10.172c0-7.59-6.153-13.743-13.743-13.743s-13.743-6.153-13.743-13.743v-137.37z" fill="url(#SVGID_00000122717592983264696190000005178984919095324291_)"/></g><g><path d="m252.562 166.553h-222.948c-15.505 0-22.082 16.914-22.082 32.418v43.242c0 5.459 4.426 9.885 9.885 9.885h5.591c5.459 0 9.885-4.426 9.885-9.885 0-5.459 4.426-9.885 9.885-9.885h61.664v243.05c0 5.111-4.144 9.255-9.255 9.255-5.111 0-9.255 4.144-9.255 9.255v6.85c0 5.111 4.144 9.255 9.255 9.255h91.804c5.111 0 9.255-4.144 9.255-9.255v-6.85c0-5.111-4.144-9.255-9.255-9.255-5.111 0-9.255-4.144-9.255-9.255v-243.05h61.664c5.459 0 9.885 4.426 9.885 9.885 0 5.459 4.426 9.885 9.885 9.885h5.591c5.459 0 9.885-4.426 9.885-9.885v-43.242c-.002-15.504-6.579-32.418-22.084-32.418z" fill="url(#SVGID_00000075161206881351141860000003346373271039024289_)"/><path d="m252.562 166.553h-148.12v65.776 243.05 34.616h82.548c5.112 0 9.255-4.144 9.255-9.255v-6.85c0-5.112-4.144-9.255-9.255-9.255s-9.255-4.144-9.255-9.255v-243.05h61.664c5.459 0 9.885 4.426 9.885 9.885s4.426 9.885 9.885 9.885h5.591c5.459 0 9.885-4.426 9.885-9.885v-43.242c-.001-15.506-6.578-32.42-22.083-32.42z" fill="url(#SVGID_00000080891915475363517430000009977439097686158225_)"/><path d="m196.245 493.894v6.848c0 5.107-4.137 9.259-9.259 9.259h-82.543v-277.675h73.285v243.05c0 5.107 4.151 9.259 9.259 9.259 5.121 0 9.258 4.137 9.258 9.259z" fill="url(#SVGID_00000136408547222847910670000010333250977881533071_)"/><path d="m104.442 382.871v92.508c0 5.112-4.144 9.255-9.255 9.255s-9.255 4.144-9.255 9.255v6.85c0 5.112 4.144 9.255 9.255 9.255h91.803c5.112 0 9.255-4.144 9.255-9.255v-6.85c0-5.112-4.144-9.255-9.255-9.255s-9.255-4.144-9.255-9.255v-92.508z" fill="url(#SVGID_00000157268038633618452700000002095653699953112705_)"/></g></g></svg>