<svg id="Capa_1" enable-background="new 0 0 510 510" height="512" viewBox="0 0 510 510" width="512" xmlns="http://www.w3.org/2000/svg" xmlns:xlink="http://www.w3.org/1999/xlink"><linearGradient id="SVGID_1_" gradientUnits="userSpaceOnUse" x1="172.608" x2="403.596" y1="85.378" y2="377.864"><stop offset="0" stop-color="#d5daf3"/><stop offset="1" stop-color="#60b7ff"/></linearGradient><linearGradient id="lg1"><stop offset="0" stop-color="#528fd8" stop-opacity="0"/><stop offset=".214" stop-color="#4e8dd7" stop-opacity=".214"/><stop offset=".4386" stop-color="#4187d5" stop-opacity=".439"/><stop offset=".6681" stop-color="#2c7dd0" stop-opacity=".668"/><stop offset=".8995" stop-color="#0f6fc9" stop-opacity=".9"/><stop offset="1" stop-color="#0067c5"/></linearGradient><linearGradient id="SVGID_00000119113107126614013070000014423071146902837140_" gradientUnits="userSpaceOnUse" x1="255" x2="255" xlink:href="#lg1" y1="83.192" y2="583.857"/><linearGradient id="SVGID_00000002385366420080670820000016506968431468025005_" gradientUnits="userSpaceOnUse" x1="255" x2="255" xlink:href="#lg1" y1="299.181" y2="431.719"/><linearGradient id="SVGID_00000067200353713454681720000007948464530128602556_" gradientUnits="userSpaceOnUse" x1="330.56" x2="418.839" xlink:href="#lg1" y1="221.143" y2="221.143"/><linearGradient id="SVGID_00000171677786701304336510000003778418375746205113_" gradientUnits="userSpaceOnUse" x1="204.488" x2="291.895" y1="433.71" y2="521.117"><stop offset="0" stop-color="#d9b1ee"/><stop offset=".1228" stop-color="#dba3e3"/><stop offset=".3507" stop-color="#e381c8"/><stop offset=".6587" stop-color="#ef499b"/><stop offset="1" stop-color="#fe0364"/></linearGradient><linearGradient id="lg2"><stop offset="0" stop-color="#a82975" stop-opacity="0"/><stop offset="1" stop-color="#a82975"/></linearGradient><linearGradient id="SVGID_00000083788576387848868840000002463771190620910471_" gradientUnits="userSpaceOnUse" x1="255" x2="255" xlink:href="#lg2" y1="501.847" y2="509.618"/><linearGradient id="SVGID_00000078745663241606061810000013783832978071063460_" gradientTransform="matrix(0 -1 1 0 -1582.589 -943.412)" gradientUnits="userSpaceOnUse" x1="-1427.634" x2="-1427.634" xlink:href="#lg2" y1="1959.528" y2="1980.524"/><g><g><path d="m312.611 28.205c0-19.804 22.804-28.205 46.809-28.205 22.804 0 46.81 8.401 46.81 28.205v272.454c0 103.22-66.613 141.627-151.231 141.627-85.216 0-151.229-38.408-151.229-141.627v-272.454c0-19.804 22.805-28.205 46.809-28.205 22.804 0 46.809 8.401 46.809 28.205v272.454c0 40.808 21.604 60.011 57.611 60.011s57.612-19.204 57.612-60.011z" fill="url(#SVGID_1_)"/><path d="m359.42 0c-24.005 0-46.809 8.401-46.809 28.205v272.454c0 40.808-21.605 60.011-57.612 60.011s-57.611-19.204-57.611-60.011v-272.454c.001-19.804-24.004-28.205-46.809-28.205-1.385 0-2.765.031-4.138.088v270.365c0 92.849 47.386 127.398 108.558 127.398 60.741 0 108.559-34.549 108.559-127.398v-270.359c-1.38-.062-2.761-.094-4.138-.094z" fill="url(#SVGID_00000119113107126614013070000014423071146902837140_)"/><path d="m312.611 151.205v149.454c0 40.808-21.605 60.011-57.612 60.011s-57.611-19.204-57.611-60.011v-149.454h-93.618v149.454c0 103.22 66.013 141.627 151.229 141.627 84.617 0 151.23-38.408 151.23-141.627v-149.454z" fill="url(#SVGID_00000002385366420080670820000016506968431468025005_)"/><path d="m359.42 0c-24.005 0-46.809 8.401-46.809 28.205v272.454c0 40.808-21.605 60.011-57.612 60.011-5.113 0-9.924-.401-14.435-1.183v82.409c4.744.257 9.556.389 14.435.389 84.617 0 151.23-38.408 151.23-141.627v-272.453c.001-19.804-24.005-28.205-46.809-28.205z" fill="url(#SVGID_00000067200353713454681720000007948464530128602556_)"/></g><g><g><path d="m384.733 510h-259.466c-7.862 0-14.235-6.373-14.235-14.235v-23.085c0-7.862 6.373-14.235 14.235-14.235h259.466c7.862 0 14.235 6.373 14.235 14.235v23.086c0 7.861-6.373 14.234-14.235 14.234z" fill="url(#SVGID_00000171677786701304336510000003778418375746205113_)"/><g><path d="m111.032 488.07v7.695c0 7.862 6.373 14.235 14.235 14.235h259.466c7.861 0 14.234-6.373 14.234-14.235v-7.695z" fill="url(#SVGID_00000083788576387848868840000002463771190620910471_)"/><path d="m339.718 510h45.016c7.862 0 14.234-6.373 14.234-14.235v-23.085c0-7.862-6.373-14.235-14.234-14.235h-45.016z" fill="url(#SVGID_00000078745663241606061810000013783832978071063460_)"/></g></g></g></g></svg>