<svg id="Capa_1" enable-background="new 0 0 510.003 510.003" height="512" viewBox="0 0 510.003 510.003" width="512" xmlns="http://www.w3.org/2000/svg" xmlns:xlink="http://www.w3.org/1999/xlink"><linearGradient id="lg1"><stop offset="0" stop-color="#f9f7f8"/><stop offset="1" stop-color="#e5e1e5"/></linearGradient><linearGradient id="SVGID_1_" gradientUnits="userSpaceOnUse" x1="52.067" x2="309.93" xlink:href="#lg1" y1="188.487" y2="379.531"/><linearGradient id="lg2"><stop offset="0" stop-color="#9b8e99" stop-opacity="0"/><stop offset=".3465" stop-color="#978a95" stop-opacity=".347"/><stop offset=".7135" stop-color="#8a7f88" stop-opacity=".714"/><stop offset="1" stop-color="#7b7179"/></linearGradient><linearGradient id="SVGID_00000017493832322854124950000017970646225303317409_" gradientUnits="userSpaceOnUse" x1="272.103" x2="340.627" xlink:href="#lg2" y1="287.655" y2="287.655"/><linearGradient id="SVGID_00000031192518355988974580000012905815719902443176_" gradientUnits="userSpaceOnUse" x1="160.563" x2="160.563" xlink:href="#lg2" y1="463.859" y2="515.548"/><linearGradient id="SVGID_00000168114427005387769500000003982083043737239948_" gradientUnits="userSpaceOnUse" x1="150.971" x2="83.909" xlink:href="#lg2" y1="470.306" y2="465.999"/><linearGradient id="SVGID_00000046341395522473287080000003892722047141297794_" gradientUnits="userSpaceOnUse" x1="78.538" x2="54.543" xlink:href="#lg1" y1="444.391" y2="482.536"/><linearGradient id="SVGID_00000049932331928615771400000001456286476970670254_" gradientUnits="userSpaceOnUse" x1="221.082" x2="150.415" xlink:href="#lg2" y1="153.732" y2="198.398"/><linearGradient id="SVGID_00000052792141345907075860000007624616507435740556_" gradientUnits="userSpaceOnUse" x1="227.312" x2="224.645" xlink:href="#lg2" y1="352.892" y2="240.892"/><linearGradient id="SVGID_00000053544230297873863190000004153014470286818458_" gradientUnits="userSpaceOnUse" x1="159.778" x2="255.965" y1="73.559" y2="169.747"><stop offset="0" stop-color="#fff"/><stop offset="1" stop-color="#fff" stop-opacity="0"/></linearGradient><linearGradient id="SVGID_00000005235095161260157730000012252325043893186464_" gradientUnits="userSpaceOnUse" x1="447.125" x2="410.019" y1="335.065" y2="372.171"><stop offset="0" stop-color="#fef0ae"/><stop offset="1" stop-color="#fac600"/></linearGradient><linearGradient id="lg3"><stop offset="0" stop-color="#fea613" stop-opacity="0"/><stop offset=".2032" stop-color="#fda215" stop-opacity=".203"/><stop offset=".4052" stop-color="#fb961b" stop-opacity=".405"/><stop offset=".6066" stop-color="#f68225" stop-opacity=".607"/><stop offset=".8066" stop-color="#f06633" stop-opacity=".807"/><stop offset="1" stop-color="#e94444"/></linearGradient><linearGradient id="SVGID_00000093861377187440214860000000268062537627588247_" gradientUnits="userSpaceOnUse" x1="435.566" x2="400.232" xlink:href="#lg3" y1="342.033" y2="390.7"/><linearGradient id="SVGID_00000024691323970230003970000009247235150049584521_" gradientUnits="userSpaceOnUse" x1="410.445" x2="370.44" xlink:href="#lg3" y1="324.225" y2="284.22"/><linearGradient id="lg4"><stop offset="0" stop-color="#6e61b6"/><stop offset="1" stop-color="#433f43"/></linearGradient><linearGradient id="SVGID_00000078730425250956118280000008845811075341842108_" gradientUnits="userSpaceOnUse" x1="173.457" x2="308.584" xlink:href="#lg4" y1="87.233" y2="222.36"/><linearGradient id="SVGID_00000000936274256110201030000009425418806260507549_" gradientUnits="userSpaceOnUse" x1="402.001" x2="60.886" xlink:href="#lg4" y1="143.994" y2="143.994"/><linearGradient id="lg5"><stop offset="0" stop-color="#433f43" stop-opacity="0"/><stop offset="1" stop-color="#1a1a1a"/></linearGradient><linearGradient id="SVGID_00000168814155274543149510000010595989448403097245_" gradientUnits="userSpaceOnUse" x1="291.114" x2="341.114" xlink:href="#lg5" y1="204.89" y2="254.89"/><linearGradient id="SVGID_00000170983835293832752350000000516486967986816939_" gradientUnits="userSpaceOnUse" x1="285.401" x2="348.238" xlink:href="#lg5" y1="98.402" y2="35.565"/><linearGradient id="SVGID_00000119821258917279523750000007201734584403973284_" gradientUnits="userSpaceOnUse" x1="215.849" x2="264.222" y1="129.629" y2="178.002"><stop offset="0" stop-color="#bbec6c"/><stop offset="1" stop-color="#78a91f"/></linearGradient><linearGradient id="lg6"><stop offset="0" stop-color="#d5daf3"/><stop offset="1" stop-color="#60b7ff"/></linearGradient><linearGradient id="SVGID_00000008144824492238636090000009857839694482835097_" gradientTransform="matrix(.707 -.707 .707 .707 2022.223 -1948.552)" gradientUnits="userSpaceOnUse" x1="-2746.795" x2="-2746.795" xlink:href="#lg6" y1="356.725" y2="394.066"/><linearGradient id="SVGID_00000106829371883316023730000012680296979699659184_" gradientTransform="matrix(.707 -.707 .707 .707 2022.223 -1948.552)" gradientUnits="userSpaceOnUse" x1="-2746.795" x2="-2746.795" xlink:href="#lg6" y1="390.736" y2="428.077"/><g><g><g><g><path d="m302.704 510.003h-208.57c-51.988 0-94.133-42.145-94.133-94.133v-332.143c0-10.173 8.247-18.42 18.42-18.42h284.283c10.173 0 18.42 8.247 18.42 18.42v407.856c0 10.173-8.247 18.42-18.42 18.42z" fill="url(#SVGID_1_)"/><path d="m302.704 65.307h-163.424v444.696h163.424c10.173 0 18.42-8.247 18.42-18.42v-407.856c0-10.173-8.247-18.42-18.42-18.42z" fill="url(#SVGID_00000017493832322854124950000017970646225303317409_)"/><path d="m.001 340.81v75.06c0 51.988 42.145 94.133 94.133 94.133h208.57c10.173 0 18.42-8.247 18.42-18.42v-150.773z" fill="url(#SVGID_00000031192518355988974580000012905815719902443176_)"/><path d="m89.616 422.838v87.054c1.498.071 3.003.11 4.518.11h82.646z" fill="url(#SVGID_00000168114427005387769500000003982083043737239948_)"/><path d="m94.134 470.394c0 21.875 17.733 39.609 39.609 39.609h-39.609c-51.988 0-94.133-42.145-94.133-94.133h74.715c10.724 0 19.418 8.694 19.418 19.418z" fill="url(#SVGID_00000046341395522473287080000003892722047141297794_)"/></g></g></g><g fill="#aa9ea9"><path d="m132.49 153.582h40.988c3.689 0 6.68-2.991 6.68-6.68s-2.991-6.68-6.68-6.68h-40.988c-3.689 0-6.68 2.991-6.68 6.68s2.991 6.68 6.68 6.68z"/><path d="m51.727 153.582h30.282c3.689 0 6.68-2.991 6.68-6.68s-2.991-6.68-6.68-6.68h-30.282c-3.689 0-6.68 2.991-6.68 6.68s2.99 6.68 6.68 6.68z"/><path d="m105.166 153.582h7.571c3.689 0 6.68-2.991 6.68-6.68s-2.991-6.68-6.68-6.68h-7.571c-3.689 0-6.68 2.991-6.68 6.68s2.991 6.68 6.68 6.68z"/><path d="m151.114 174.317h-68.66c-3.689 0-6.68 2.991-6.68 6.68 0 3.69 2.991 6.68 6.68 6.68h68.66c3.689 0 6.68-2.99 6.68-6.68 0-3.689-2.991-6.68-6.68-6.68z"/><path d="m200.739 153.582h68.66c3.689 0 6.68-2.99 6.68-6.68 0-3.689-2.991-6.68-6.68-6.68h-68.66c-3.689 0-6.68 2.991-6.68 6.68s2.991 6.68 6.68 6.68z"/><path d="m51.727 187.677h7.571c3.689 0 6.68-2.99 6.68-6.68 0-3.689-2.991-6.68-6.68-6.68h-7.571c-3.689 0-6.68 2.991-6.68 6.68s2.99 6.68 6.68 6.68z"/><path d="m173.478 212.745h-40.988c-3.689 0-6.68 2.991-6.68 6.68s2.991 6.68 6.68 6.68h40.988c3.689 0 6.68-2.991 6.68-6.68s-2.99-6.68-6.68-6.68z"/><path d="m51.727 226.105h30.282c3.689 0 6.68-2.991 6.68-6.68s-2.991-6.68-6.68-6.68h-30.282c-3.689 0-6.68 2.991-6.68 6.68s2.99 6.68 6.68 6.68z"/><path d="m105.166 212.745c-3.689 0-6.68 2.991-6.68 6.68s2.991 6.68 6.68 6.68h7.571c3.689 0 6.68-2.991 6.68-6.68s-2.991-6.68-6.68-6.68z"/><path d="m175.463 180.997c0 3.69 2.991 6.68 6.68 6.68h7.571c3.689 0 6.68-2.99 6.68-6.68 0-3.689-2.991-6.68-6.68-6.68h-7.571c-3.689 0-6.68 2.991-6.68 6.68z"/><path d="m173.478 255.694h-40.988c-3.689 0-6.68 2.991-6.68 6.68s2.991 6.68 6.68 6.68h40.988c3.689 0 6.68-2.991 6.68-6.68s-2.99-6.68-6.68-6.68z"/><path d="m51.727 269.054h30.282c3.689 0 6.68-2.991 6.68-6.68s-2.991-6.68-6.68-6.68h-30.282c-3.689 0-6.68 2.991-6.68 6.68 0 3.69 2.99 6.68 6.68 6.68z"/><path d="m105.166 269.054h7.571c3.689 0 6.68-2.991 6.68-6.68s-2.991-6.68-6.68-6.68h-7.571c-3.689 0-6.68 2.991-6.68 6.68 0 3.69 2.991 6.68 6.68 6.68z"/><path d="m75.774 296.469c0 3.689 2.991 6.68 6.68 6.68h68.66c3.689 0 6.68-2.99 6.68-6.68 0-3.689-2.991-6.68-6.68-6.68h-68.66c-3.689 0-6.68 2.991-6.68 6.68z"/><path d="m269.399 255.694h-68.66c-3.689 0-6.68 2.991-6.68 6.68s2.991 6.68 6.68 6.68h68.66c3.689 0 6.68-2.99 6.68-6.68 0-3.689-2.991-6.68-6.68-6.68z"/><path d="m269.399 289.789h-42.607c-3.689 0-6.68 2.991-6.68 6.68s2.991 6.68 6.68 6.68h42.607c3.689 0 6.68-2.99 6.68-6.68 0-3.689-2.991-6.68-6.68-6.68z"/><path d="m51.727 303.149h7.571c3.689 0 6.68-2.99 6.68-6.68 0-3.689-2.991-6.68-6.68-6.68h-7.571c-3.689 0-6.68 2.991-6.68 6.68s2.99 6.68 6.68 6.68z"/><path d="m173.478 328.217h-40.988c-3.689 0-6.68 2.99-6.68 6.68s2.991 6.68 6.68 6.68h40.988c3.689 0 6.68-2.991 6.68-6.68s-2.99-6.68-6.68-6.68z"/><path d="m51.727 341.577h30.282c3.689 0 6.68-2.991 6.68-6.68s-2.991-6.68-6.68-6.68h-30.282c-3.689 0-6.68 2.99-6.68 6.68s2.99 6.68 6.68 6.68z"/><path d="m105.166 328.217c-3.689 0-6.68 2.99-6.68 6.68s2.991 6.68 6.68 6.68h7.571c3.689 0 6.68-2.991 6.68-6.68s-2.991-6.68-6.68-6.68z"/><path d="m189.714 303.149c3.689 0 6.68-2.99 6.68-6.68 0-3.689-2.991-6.68-6.68-6.68h-7.571c-3.689 0-6.68 2.991-6.68 6.68s2.991 6.68 6.68 6.68z"/><path d="m180.158 377.847c0-3.689-2.991-6.68-6.68-6.68h-40.988c-3.689 0-6.68 2.991-6.68 6.68s2.991 6.68 6.68 6.68h40.988c3.69 0 6.68-2.991 6.68-6.68z"/><path d="m51.727 384.527h30.282c3.689 0 6.68-2.991 6.68-6.68s-2.991-6.68-6.68-6.68h-30.282c-3.689 0-6.68 2.991-6.68 6.68s2.99 6.68 6.68 6.68z"/><path d="m105.166 384.527h7.571c3.689 0 6.68-2.991 6.68-6.68s-2.991-6.68-6.68-6.68h-7.571c-3.689 0-6.68 2.991-6.68 6.68s2.991 6.68 6.68 6.68z"/><path d="m269.399 371.167h-68.66c-3.689 0-6.68 2.991-6.68 6.68 0 3.69 2.991 6.68 6.68 6.68h68.66c3.689 0 6.68-2.99 6.68-6.68s-2.991-6.68-6.68-6.68z"/></g><path d="m321.124 230.176v-146.449c0-10.173-8.247-18.42-18.42-18.42h-169.955c-39.808 49.195-36.847 121.518 8.892 167.266 48.92 48.91 128.23 48.91 177.15 0 .791-.791 1.568-1.591 2.333-2.397z" fill="url(#SVGID_00000049932331928615771400000001456286476970670254_)"/><path d="m321.124 438.535v-192.722h-192.723z" fill="url(#SVGID_00000052792141345907075860000007624616507435740556_)"/><path d="m318.791 55.422c-48.92-48.92-128.23-48.92-177.15 0-48.91 48.92-48.91 128.23 0 177.15 48.92 48.91 128.23 48.91 177.15 0 48.91-48.92 48.91-128.23 0-177.15z" fill="url(#SVGID_00000053544230297873863190000004153014470286818458_)"/><g><path d="m497.192 410.973c-17.963 17.963-47.399 16.893-64.01-2.327l-86.05-99.564 48.168-48.168 99.564 86.05c19.221 16.61 20.291 46.046 2.328 64.009z" fill="url(#SVGID_00000005235095161260157730000012252325043893186464_)"/><path d="m497.192 410.973c-17.963 17.963-47.399 16.893-64.01-2.327l-86.05-99.564 48.168-48.168 99.564 86.05c19.221 16.61 20.291 46.046 2.328 64.009z" fill="url(#SVGID_00000093861377187440214860000000268062537627588247_)"/><path d="m399.576 369.761 56.405-56.404-60.68-52.444-48.168 48.168z" fill="url(#SVGID_00000024691323970230003970000009247235150049584521_)"/><g><g><path d="m332.031 42.172c-56.23-56.23-147.4-56.23-203.63 0-56.24 56.24-56.24 147.41 0 203.64 56.23 56.24 147.4 56.24 203.63 0 56.24-56.229 56.24-147.4 0-203.64zm-30 173.641c-39.66 39.66-103.97 39.66-143.63 0s-39.66-103.97 0-143.63 103.97-39.66 143.63 0c39.66 39.659 39.66 103.969 0 143.63z" fill="url(#SVGID_00000078730425250956118280000008845811075341842108_)"/><path d="m318.791 55.422c-48.92-48.92-128.23-48.92-177.15 0-48.91 48.92-48.91 128.23 0 177.15 48.92 48.91 128.23 48.91 177.15 0 48.91-48.92 48.91-128.23 0-177.15zm-16.76 160.391c-39.66 39.66-103.97 39.66-143.63 0s-39.66-103.97 0-143.63 103.97-39.66 143.63 0c39.66 39.659 39.66 103.969 0 143.63z" fill="url(#SVGID_00000000936274256110201030000009425418806260507549_)"/><path d="m332.031 245.813c-56.23 56.24-147.4 56.24-203.63 0-12.18-12.18-21.71-26-28.62-40.74l32.86-32.86c4.6 15.97 13.18 31.02 25.76 43.6 39.66 39.66 103.97 39.66 143.63 0s39.66-103.97 0-143.63c-12.58-12.58-27.63-21.16-43.6-25.76l32.86-32.86c14.74 6.91 28.57 16.44 40.74 28.61 56.24 56.239 56.24 147.41 0 203.64z" fill="url(#SVGID_00000168814155274543149510000010595989448403097245_)"/><path d="m374.211 143.993c0 79.53-64.47 144-143.99 144-17.23 0-33.74-3.04-49.05-8.58v-46.45c38.6 21.3 88.13 15.58 120.86-17.15 39.66-39.66 39.66-103.97 0-143.63-32.73-32.73-82.26-38.45-120.86-17.14v-46.46c15.31-5.55 31.82-8.58 49.05-8.58 79.52 0 143.99 64.47 143.99 143.99z" fill="url(#SVGID_00000170983835293832752350000000516486967986816939_)"/></g></g><path d="m289.711 123.133h-31.16c-4.126 0-7.471-3.345-7.471-7.471v-31.16c0-7.1-5.755-12.855-12.855-12.855h-16.017c-7.1 0-12.855 5.755-12.855 12.855v31.16c0 4.126-3.345 7.471-7.471 7.471h-31.16c-7.1 0-12.855 5.755-12.855 12.855v16.017c0 7.1 5.755 12.855 12.855 12.855h31.16c4.126 0 7.471 3.345 7.471 7.471v31.16c0 7.1 5.755 12.855 12.855 12.855h16.017c7.1 0 12.855-5.755 12.855-12.855v-31.16c0-4.126 3.345-7.471 7.471-7.471h31.16c7.1 0 12.855-5.755 12.855-12.855v-16.017c0-7.099-5.755-12.855-12.855-12.855z" fill="url(#SVGID_00000119821258917279523750000007201734584403973284_)"/><path d="m367.594 252.569-28.805 28.805c-6.96 6.96-18.244 6.96-25.204 0-6.96-6.96-6.96-18.244 0-25.204l28.805-28.805c6.96-6.96 18.244-6.96 25.204 0 6.96 6.96 6.96 18.244 0 25.204z" fill="url(#SVGID_00000008144824492238636090000009857839694482835097_)"/><path d="m397.895 270.367-41.308 41.308c-6.96 6.96-18.244 6.96-25.204 0-6.96-6.96-6.96-18.244 0-25.204l41.308-41.308c6.96-6.96 18.244-6.96 25.204 0 6.96 6.96 6.96 18.244 0 25.204z" fill="url(#SVGID_00000106829371883316023730000012680296979699659184_)"/></g></g></svg>