<svg id="Layer_19" enable-background="new 0 0 512 512" viewBox="0 0 512 512" xmlns="http://www.w3.org/2000/svg" xmlns:xlink="http://www.w3.org/1999/xlink"><linearGradient id="SVGID_1_" gradientTransform="matrix(1 0 0 -1 0 514)" gradientUnits="userSpaceOnUse" x1="123.743" x2="442.931" y1="390.257" y2="71.069"><stop offset="0" stop-color="#ffeee6"/><stop offset="1" stop-color="#ffdfcf"/></linearGradient><linearGradient id="lg1"><stop offset="0" stop-color="#ffa78f" stop-opacity="0"/><stop offset=".124" stop-color="#fea68e" stop-opacity=".017"/><stop offset=".2509" stop-color="#fea58e" stop-opacity=".066"/><stop offset=".3792" stop-color="#fda48c" stop-opacity=".149"/><stop offset=".5084" stop-color="#fda28b" stop-opacity=".265"/><stop offset=".6384" stop-color="#fc9f88" stop-opacity=".414"/><stop offset=".7691" stop-color="#fa9c86" stop-opacity=".597"/><stop offset=".8979" stop-color="#f99882" stop-opacity=".809"/><stop offset="1" stop-color="#f89580"/></linearGradient><linearGradient id="SVGID_00000166634618415308819380000005955650954120183439_" gradientTransform="matrix(1 0 0 -1 0 514)" gradientUnits="userSpaceOnUse" x1="256" x2="256" xlink:href="#lg1" y1="74.406" y2="-2.851"/><linearGradient id="SVGID_00000028320504873490848740000001786526084528005266_" gradientTransform="matrix(1 0 0 -1 0 514)" gradientUnits="userSpaceOnUse" x1="443.059" x2="528.844" xlink:href="#lg1" y1="258" y2="258"/><linearGradient id="SVGID_00000060000989076355380780000010839061388609462701_" gradientTransform="matrix(1 0 0 -1 0 514)" gradientUnits="userSpaceOnUse" x1="380.376" x2="446.673" xlink:href="#lg1" y1="133.624" y2="67.327"/><linearGradient id="SVGID_00000132069582252707442840000007227334006349599903_" gradientTransform="matrix(1 0 0 -1 0 514)" gradientUnits="userSpaceOnUse" x1="161.444" x2="343.939" y1="303.034" y2="214.067"><stop offset="0" stop-color="#fff"/><stop offset="1" stop-color="#fffaf8"/></linearGradient><linearGradient id="SVGID_00000021121173496464609750000012850126308746577314_" gradientTransform="matrix(1 0 0 -1 0 514)" gradientUnits="userSpaceOnUse" x1="256" x2="256" xlink:href="#lg1" y1="422.96" y2="472.388"/><linearGradient id="SVGID_00000008857962859569739880000010121093440169675426_" gradientTransform="matrix(1 0 0 -1 0 514)" gradientUnits="userSpaceOnUse" x1="217.285" x2="189.246" xlink:href="#lg1" y1="410.609" y2="448.154"/><linearGradient id="SVGID_00000057122574826926441210000008517544231296640925_" gradientTransform="matrix(1 0 0 -1 0 514)" gradientUnits="userSpaceOnUse" x1="271.189" x2="228.417" xlink:href="#lg1" y1="382.861" y2="402.346"/><linearGradient id="SVGID_00000169521057742998675320000005958298485482875568_" gradientTransform="matrix(1 0 0 -1 0 514)" gradientUnits="userSpaceOnUse" x1="312.621" x2="302.165" xlink:href="#lg1" y1="240.139" y2="266.278"/><linearGradient id="SVGID_00000026144594410760066760000010144597124731671715_" gradientTransform="matrix(1 0 0 -1 0 514)" gradientUnits="userSpaceOnUse" x1="213.725" x2="263.341" xlink:href="#lg1" y1="169.62" y2="91.774"/><linearGradient id="SVGID_00000060718566708749304880000009161457795458109597_" gradientTransform="matrix(1 0 0 -1 0 514)" gradientUnits="userSpaceOnUse" x1="173.475" x2="122.402" xlink:href="#lg1" y1="194.385" y2="194.385"/><linearGradient id="SVGID_00000123406643091340350610000012767528262966278539_" gradientTransform="matrix(1 0 0 -1 0 514)" gradientUnits="userSpaceOnUse" x1="183.525" x2="155.486" xlink:href="#lg1" y1="255.517" y2="286.409"/><linearGradient id="SVGID_00000080182986451242208330000003570886507249459893_" gradientTransform="matrix(1 0 0 -1 0 514)" gradientUnits="userSpaceOnUse" x1="181.536" x2="138.289" xlink:href="#lg1" y1="368.897" y2="366.046"/><g><g><path d="m222.5 0h266.9c12.5 0 22.6 10.1 22.6 22.6v266.9c0 122.8-99.7 222.5-222.5 222.5h-266.9c-12.5 0-22.6-10.1-22.6-22.6v-266.9c0-122.8 99.7-222.5 222.5-222.5z" fill="url(#SVGID_1_)"/><path d="m0 272.8v216.6c0 12.5 10.1 22.6 22.6 22.6h266.9c122.9 0 222.5-99.6 222.5-222.5v-16.7z" fill="url(#SVGID_00000166634618415308819380000005955650954120183439_)"/><path d="m489.4 0h-266.9c-6.7 0-13.4.3-19.9.9v511.1h86.9c122.9 0 222.5-99.6 222.5-222.5v-266.9c0-12.5-10.1-22.6-22.6-22.6z" fill="url(#SVGID_00000028320504873490848740000001786526084528005266_)"/><path d="m512 289.5v-266.9c0-12.5-10.1-22.6-22.6-22.6h-34l-455.4 455.4v34c0 12.5 10.1 22.6 22.6 22.6h266.9c122.9 0 222.5-99.6 222.5-222.5z" fill="url(#SVGID_00000060000989076355380780000010839061388609462701_)"/></g><g><g><path d="m340.9 229.7c11-16.3 17.5-36 17.5-57.1v-14.2c0-56.5-46-102.4-102.4-102.4s-102.4 45.9-102.4 102.4v14.2c0 21.1 6.4 40.8 17.5 57.1-22.4 22-36.4 52.7-36.4 86.5v18.5c0 66.9 54.4 121.3 121.3 121.3s121.3-54.4 121.3-121.3v-18.5c0-33.8-14-64.5-36.4-86.5zm-107.3-57.1v-14.2c0-12.3 10-22.4 22.4-22.4s22.4 10 22.4 22.4v14.2c0 12.3-10 22.4-22.4 22.4s-22.4-10.1-22.4-22.4zm63.7 162.1c0 22.8-18.5 41.3-41.3 41.3s-41.3-18.5-41.3-41.3v-18.5c0-22.8 18.5-41.3 41.3-41.3s41.3 18.5 41.3 41.3z" fill="url(#SVGID_00000132069582252707442840000007227334006349599903_)"/><path d="m256 56c-56.4 0-102.4 45.9-102.4 102.4v14.2c0 5.1.4 10.1 1.1 14.9h84.6c-3.6-4-5.7-9.2-5.7-14.9v-14.2c0-12.3 10-22.4 22.4-22.4s22.4 10 22.4 22.4v14.2c0 5.7-2.2 11-5.7 14.9h84.6c.7-4.9 1.1-9.9 1.1-14.9v-14.2c0-56.5-46-102.4-102.4-102.4z" fill="url(#SVGID_00000021121173496464609750000012850126308746577314_)"/><path d="m256 56c-56.4 0-102.4 45.9-102.4 102.4v14.2c0 5.1.4 10.1 1.1 14.9h84.6c-3.6-4-5.7-9.2-5.7-14.9v-14.2c0-12.3 10-22.4 22.4-22.4s22.4 10 22.4 22.4v14.2c0 5.7-2.2 11-5.7 14.9h84.6c.7-4.9 1.1-9.9 1.1-14.9v-14.2c0-56.5-46-102.4-102.4-102.4z" fill="url(#SVGID_00000008857962859569739880000010121093440169675426_)"/><path d="m358.4 158.4v14.2c0 7.7-.8 15.1-2.5 22.3h-99.2c12.2-.4 21.7-10.7 21.7-22.8v-13.3c0-12.2-9.5-22.5-21.7-22.8-12.6-.4-23 9.8-23 22.3 0-21.2 6.5-40.8 17.5-57.2 21.3-31.6 68.4-31.6 89.7 0 11 16.4 17.5 36.1 17.5 57.3z" fill="url(#SVGID_00000057122574826926441210000008517544231296640925_)"/><path d="m377.3 316.2v18.5c0 6.8-.6 13.4-1.6 19.9h-83.5c3.3-5.9 5.1-12.7 5.1-19.9v-18.5c0-22.8-18.5-41.3-41.3-41.3 35.3 0 66.5-18 84.9-45.2 22.4 22 36.4 52.7 36.4 86.5z" fill="url(#SVGID_00000169521057742998675320000005958298485482875568_)"/><path d="m134.8 338.8v1.1c4.8 102.4 160.3 101.5 162.4-2.7 0-.8 0-1.6 0-2.5v.3c-.2 22.6-18.6 40.9-41.3 40.9-22.8 0-41.3-18.5-41.3-41.3v-18.5-97h-31.5c-29.4 22.1-48.5 57.4-48.5 97v18.5 2.8c.2.6.2 1 .2 1.4z" fill="url(#SVGID_00000026144594410760066760000010144597124731671715_)"/></g><path d="m214.7 316.2v18.5c0 22.8 18.5 41.3 41.3 41.3 7.1 0 13.8-1.8 19.7-5v83.4c-6.4 1.1-13 1.6-19.7 1.6-66.9 0-121.3-54.4-121.3-121.3v-18.5c0-33.8 13.9-64.5 36.4-86.5 21.9-21.5 51.9-34.8 84.9-34.8 8.5 0 15.9-4.7 19.7-11.7v96.7c-5.8-3.2-12.5-5-19.7-5-22.8 0-41.3 18.5-41.3 41.3z" fill="url(#SVGID_00000060718566708749304880000009161457795458109597_)"/><path d="m214.7 316.2v18.5c0 22.8 18.5 41.3 41.3 41.3 7.1 0 13.8-1.8 19.7-5v83.4c-6.4 1.1-13 1.6-19.7 1.6-66.9 0-121.3-54.4-121.3-121.3v-18.5c0-33.8 13.9-64.5 36.4-86.5 21.9-21.5 51.9-34.8 84.9-34.8 8.5 0 15.9-4.7 19.7-11.7v96.7c-5.8-3.2-12.5-5-19.7-5-22.8 0-41.3 18.5-41.3 41.3z" fill="url(#SVGID_00000123406643091340350610000012767528262966278539_)"/><path d="m233.7 172.6v-14.2c0-5.5 2-10.6 5.4-14.5v-86.5c-48.4 8.1-85.4 50.3-85.4 100.9v14.2c0 21.1 6.4 40.8 17.5 57.1 21.9-21.5 51.9-34.8 84.9-34.8-12.4.1-22.4-9.9-22.4-22.2z" fill="url(#SVGID_00000080182986451242208330000003570886507249459893_)"/></g></g></svg>