<svg id="Layer_16" enable-background="new 0 0 512 512" viewBox="0 0 512 512" xmlns="http://www.w3.org/2000/svg" xmlns:xlink="http://www.w3.org/1999/xlink"><linearGradient id="SVGID_1_" gradientTransform="matrix(1 0 0 -1 0 514)" gradientUnits="userSpaceOnUse" x1="123.743" x2="442.931" y1="390.257" y2="71.069"><stop offset="0" stop-color="#ffeee6"/><stop offset="1" stop-color="#fe99a0"/></linearGradient><linearGradient id="lg1"><stop offset="0" stop-color="#fe99a0" stop-opacity="0"/><stop offset=".1182" stop-color="#fd989f" stop-opacity=".017"/><stop offset=".2433" stop-color="#fd979e" stop-opacity=".067"/><stop offset=".3716" stop-color="#fd959c" stop-opacity=".151"/><stop offset=".5022" stop-color="#fd9299" stop-opacity=".268"/><stop offset=".6345" stop-color="#fd8e95" stop-opacity=".419"/><stop offset=".7683" stop-color="#fd8990" stop-opacity=".604"/><stop offset=".9007" stop-color="#fd848b" stop-opacity=".819"/><stop offset="1" stop-color="#fd8087"/></linearGradient><linearGradient id="SVGID_00000111179092850370159170000016807390261862411195_" gradientTransform="matrix(1 0 0 -1 0 514)" gradientUnits="userSpaceOnUse" x1="256" x2="256" xlink:href="#lg1" y1="74.406" y2="-2.851"/><linearGradient id="SVGID_00000179630881509493455430000010908636368111161728_" gradientTransform="matrix(1 0 0 -1 0 514)" gradientUnits="userSpaceOnUse" x1="443.059" x2="528.844" xlink:href="#lg1" y1="258" y2="258"/><linearGradient id="SVGID_00000019653259697112333960000009182061625192743067_" gradientTransform="matrix(1 0 0 -1 0 514)" gradientUnits="userSpaceOnUse" x1="380.376" x2="446.673" xlink:href="#lg1" y1="133.624" y2="67.327"/><linearGradient id="SVGID_00000035513390033792418910000000866568584466376079_" gradientTransform="matrix(1 0 0 -1 0 514)" gradientUnits="userSpaceOnUse" x1="138.967" x2="391.323" y1="362.683" y2="165.931"><stop offset="0" stop-color="#fff"/><stop offset="1" stop-color="#fffaf8"/></linearGradient><linearGradient id="lg2"><stop offset="0" stop-color="#ffa78f" stop-opacity="0"/><stop offset=".124" stop-color="#fea68e" stop-opacity=".017"/><stop offset=".2509" stop-color="#fea58e" stop-opacity=".066"/><stop offset=".3792" stop-color="#fda48c" stop-opacity=".149"/><stop offset=".5084" stop-color="#fda28b" stop-opacity=".265"/><stop offset=".6384" stop-color="#fc9f88" stop-opacity=".414"/><stop offset=".7691" stop-color="#fa9c86" stop-opacity=".597"/><stop offset=".8979" stop-color="#f99882" stop-opacity=".809"/><stop offset="1" stop-color="#f89580"/></linearGradient><linearGradient id="SVGID_00000170268289796925390810000005956908948294833072_" gradientTransform="matrix(1 0 0 -1 0 514)" gradientUnits="userSpaceOnUse" x1="185.859" x2="139.523" xlink:href="#lg2" y1="117.356" y2="108.089"/><linearGradient id="SVGID_00000124876935301372018240000011868826805908179333_" gradientTransform="matrix(1 0 0 -1 0 514)" gradientUnits="userSpaceOnUse" x1="246.978" x2="271.929" xlink:href="#lg2" y1="292.106" y2="339.155"/><linearGradient id="SVGID_00000073715245089367102040000007838276833447378085_" gradientTransform="matrix(1 0 0 -1 0 514)" gradientUnits="userSpaceOnUse" x1="236" x2="236" xlink:href="#lg2" y1="435.317" y2="463.912"/><linearGradient id="SVGID_00000098916298091931633050000007374995365028846721_" gradientTransform="matrix(1 0 0 -1 0 514)" gradientUnits="userSpaceOnUse" x1="214.624" x2="198.371" xlink:href="#lg2" y1="163.276" y2="88.852"/><linearGradient id="SVGID_00000076591170455909932320000014260268360440572560_" gradientTransform="matrix(1 0 0 -1 0 514)" gradientUnits="userSpaceOnUse" x1="216.132" x2="216.132" xlink:href="#lg2" y1="145.891" y2="187.293"/><linearGradient id="SVGID_00000053516071388435709590000007676536429783051167_" gradientTransform="matrix(1 0 0 -1 0 514)" gradientUnits="userSpaceOnUse" x1="162.188" x2="127.963" xlink:href="#lg2" y1="348.534" y2="348.534"/><linearGradient id="SVGID_00000152266246107533132300000014261148912935915163_" gradientTransform="matrix(1 0 0 -1 0 514)" gradientUnits="userSpaceOnUse" x1="169.598" x2="152.869" xlink:href="#lg2" y1="372.862" y2="332.181"/><g><g><path d="m222.5 0h266.9c12.5 0 22.6 10.1 22.6 22.6v266.9c0 122.8-99.7 222.5-222.5 222.5h-266.9c-12.5 0-22.6-10.1-22.6-22.6v-266.9c0-122.8 99.7-222.5 222.5-222.5z" fill="url(#SVGID_1_)"/><path d="m0 272.8v216.6c0 12.5 10.1 22.6 22.6 22.6h266.9c122.9 0 222.5-99.6 222.5-222.5v-16.7z" fill="url(#SVGID_00000111179092850370159170000016807390261862411195_)"/><path d="m489.4 0h-266.9c-6.7 0-13.4.3-19.9.9v511.1h86.9c122.9 0 222.5-99.6 222.5-222.5v-266.9c0-12.5-10.1-22.6-22.6-22.6z" fill="url(#SVGID_00000179630881509493455430000010908636368111161728_)"/><path d="m512 289.5v-266.9c0-12.5-10.1-22.6-22.6-22.6h-34l-455.4 455.4v34c0 12.5 10.1 22.6 22.6 22.6h266.9c122.9 0 222.5-99.6 222.5-222.5z" fill="url(#SVGID_00000019653259697112333960000009182061625192743067_)"/></g><g><path d="m256.3 456c-64.2.2-116.9-49.8-121.3-112.8-.3-4.6 3.3-8.5 7.9-8.5h64.6c3.9 0 7.2 2.8 7.8 6.6 3.2 19.9 20.7 35 41.5 34.6 22.6-.4 40.5-19.4 40.5-41.9v-17.9c0-22.8-18.5-41.3-41.3-41.3h-61.8c-32.8 0-59.4-26.6-59.4-59.4v-151.5c0-4.4 3.5-7.9 7.9-7.9h186.7c4.4 0 7.9 3.5 7.9 7.9v64.2c0 4.4-3.5 7.9-7.9 7.9h-114.7v58.9h41.3c67 0 121.3 54.3 121.3 121.3v17.4c0 67-53.9 122.2-121 122.4z" fill="url(#SVGID_00000035513390033792418910000000866568584466376079_)"/><g opacity=".55"><path d="m244.9 374.5v81c-58.9-5.4-105.8-53-109.8-112.3-.3-4.6 3.3-8.5 7.9-8.5h64.6c3.9 0 7.2 2.8 7.8 6.6 2.5 16 14.2 28.9 29.5 33.2z" fill="url(#SVGID_00000170268289796925390810000005956908948294833072_)"/></g><g opacity=".55"><path d="m375.8 297.5h-83c-6.8-13.4-20.7-22.6-36.8-22.6h-61.8c-32.8 0-59.4-26.6-59.4-59.4v-100.6c0 44.2 35.8 80 80 80h41.2c60.6 0 110.9 44.5 119.8 102.6z" fill="url(#SVGID_00000124876935301372018240000011868826805908179333_)"/></g><path d="m214.7 136h114.6c4.4 0 7.9-3.5 7.9-7.9v-64.2c0-4.4-3.5-7.9-7.9-7.9h-186.7c-4.4 0-7.9 3.5-7.9 7.9v72.1z" fill="url(#SVGID_00000073715245089367102040000007838276833447378085_)" opacity=".55"/><g opacity=".55"><path d="m297.2 337.2s0-.1-.1-.2c-1.5 21.2-18.8 38.5-40.3 38.9-20.8.4-38.3-14.8-41.5-34.6-.6-3.8-3.9-6.6-7.8-6.6h-64.6c-4.4 0-7.9 3.6-7.9 7.9 7.4 99.7 160.2 97.9 162.2-5.4z" fill="url(#SVGID_00000098916298091931633050000007374995365028846721_)"/></g><g opacity=".55"><path d="m297.2 337.2s0-.1-.1-.2c-1.5 21.2-18.8 38.5-40.3 38.9-20.8.4-38.3-14.8-41.5-34.6-.6-3.8-3.9-6.6-7.8-6.6h-64.6c-4.4 0-7.9 3.6-7.9 7.9 7.4 99.7 160.2 97.9 162.2-5.4z" fill="url(#SVGID_00000076591170455909932320000014260268360440572560_)"/></g><path d="m194.2 274.9h20.6v-218.9h-72.1c-4.4 0-7.9 3.5-7.9 7.9v151.6c-.1 32.8 26.5 59.4 59.4 59.4z" fill="url(#SVGID_00000053516071388435709590000007676536429783051167_)" opacity=".55"/><path d="m214.7 194.9v-138.9h-72.1c-4.4 0-7.9 3.5-7.9 7.9v51c0 44.2 35.9 80 80 80z" fill="url(#SVGID_00000152266246107533132300000014261148912935915163_)" opacity=".55"/></g></g></svg>