<svg id="Layer_15" enable-background="new 0 0 512 512" viewBox="0 0 512 512" xmlns="http://www.w3.org/2000/svg" xmlns:xlink="http://www.w3.org/1999/xlink"><linearGradient id="SVGID_1_" gradientTransform="matrix(1 0 0 -1 0 514)" gradientUnits="userSpaceOnUse" x1="123.743" x2="442.931" y1="390.257" y2="71.069"><stop offset="0" stop-color="#fe646f"/><stop offset=".2724" stop-color="#fd5965"/><stop offset=".7437" stop-color="#fb3d4a"/><stop offset="1" stop-color="#fb2b3a"/></linearGradient><linearGradient id="lg1"><stop offset="0" stop-color="#a72b2b" stop-opacity="0"/><stop offset=".1264" stop-color="#a72b2b" stop-opacity=".033"/><stop offset=".2864" stop-color="#a72b2b" stop-opacity=".127"/><stop offset=".4647" stop-color="#a72b2b" stop-opacity=".282"/><stop offset=".6562" stop-color="#a72b2b" stop-opacity=".499"/><stop offset=".8559" stop-color="#a72b2b" stop-opacity=".773"/><stop offset="1" stop-color="#a72b2b"/></linearGradient><linearGradient id="SVGID_00000147184690668116157750000007523394955101542811_" gradientTransform="matrix(1 0 0 -1 0 514)" gradientUnits="userSpaceOnUse" x1="256" x2="256" xlink:href="#lg1" y1="74.406" y2="-2.851"/><linearGradient id="SVGID_00000060005116815203805040000012476522519341596093_" gradientTransform="matrix(1 0 0 -1 0 514)" gradientUnits="userSpaceOnUse" x1="443.059" x2="528.844" xlink:href="#lg1" y1="258" y2="258"/><linearGradient id="SVGID_00000182519251662641293910000001193572899902624439_" gradientTransform="matrix(1 0 0 -1 0 514)" gradientUnits="userSpaceOnUse" x1="380.376" x2="446.673" xlink:href="#lg1" y1="133.624" y2="67.327"/><linearGradient id="SVGID_00000158728124826504396460000006921327204336756378_" gradientTransform="matrix(1 0 0 -1 0 514)" gradientUnits="userSpaceOnUse" x1="193.945" x2="377.463" y1="321.485" y2="137.967"><stop offset="0" stop-color="#fff"/><stop offset="1" stop-color="#fffaf8"/></linearGradient><linearGradient id="lg2"><stop offset="0" stop-color="#ffa78f" stop-opacity="0"/><stop offset=".124" stop-color="#fea68e" stop-opacity=".017"/><stop offset=".2509" stop-color="#fea58e" stop-opacity=".066"/><stop offset=".3792" stop-color="#fda48c" stop-opacity=".149"/><stop offset=".5084" stop-color="#fda28b" stop-opacity=".265"/><stop offset=".6384" stop-color="#fc9f88" stop-opacity=".414"/><stop offset=".7691" stop-color="#fa9c86" stop-opacity=".597"/><stop offset=".8979" stop-color="#f99882" stop-opacity=".809"/><stop offset="1" stop-color="#f89580"/></linearGradient><linearGradient id="SVGID_00000085237679267680855150000009966206453992663724_" gradientTransform="matrix(1 0 0 -1 0 514)" gradientUnits="userSpaceOnUse" x1="258.197" x2="193.753" xlink:href="#lg2" y1="170.571" y2="187.68"/><linearGradient id="SVGID_00000072257790251107957710000002998119018231957426_" gradientTransform="matrix(1 0 0 -1 0 514)" gradientUnits="userSpaceOnUse" x1="263.194" x2="263.194" xlink:href="#lg2" y1="192.267" y2="218.681"/><linearGradient id="SVGID_00000096029359942789264490000016112191287456606887_" gradientTransform="matrix(1 0 0 -1 0 514)" gradientUnits="userSpaceOnUse" x1="214.765" x2="188.795" xlink:href="#lg2" y1="299.439" y2="318.999"/><linearGradient id="SVGID_00000173147712188376432000000003188060959356816789_" gradientTransform="matrix(1 0 0 -1 0 514)" gradientUnits="userSpaceOnUse" x1="139.698" x2="107.335" xlink:href="#lg2" y1="229.925" y2="229.925"/><linearGradient id="SVGID_00000051350107209970372620000006743058895908192445_" gradientTransform="matrix(1 0 0 -1 0 514)" gradientUnits="userSpaceOnUse" x1="280.717" x2="300.107" xlink:href="#lg2" y1="81.65" y2="128.985"/><linearGradient id="SVGID_00000067938089679602287340000015071607588404688780_" gradientTransform="matrix(1 0 0 -1 0 514)" gradientUnits="userSpaceOnUse" x1="280.133" x2="248.046" xlink:href="#lg2" y1="95.696" y2="95.696"/><linearGradient id="SVGID_00000062889961976940724370000015236173907189784720_" gradientTransform="matrix(1 0 0 -1 0 514)" gradientUnits="userSpaceOnUse" x1="321.833" x2="270.507" xlink:href="#lg2" y1="290.441" y2="313.253"/><linearGradient id="SVGID_00000048495965701589111940000015371185347957757062_" gradientTransform="matrix(1 0 0 -1 0 514)" gradientUnits="userSpaceOnUse" x1="290.429" x2="239.102" xlink:href="#lg2" y1="250.417" y2="214.061"/><linearGradient id="SVGID_00000139979875206922350620000006988108419911672210_" gradientTransform="matrix(1 0 0 -1 0 514)" gradientUnits="userSpaceOnUse" x1="287.64" x2="287.64" xlink:href="#lg2" y1="419.436" y2="464.397"/><g><g><path d="m222.5 0h266.9c12.5 0 22.6 10.1 22.6 22.6v266.9c0 122.8-99.7 222.5-222.5 222.5h-266.9c-12.5 0-22.6-10.1-22.6-22.6v-266.9c0-122.8 99.7-222.5 222.5-222.5z" fill="url(#SVGID_1_)"/><path d="m0 272.8v216.6c0 12.5 10.1 22.6 22.6 22.6h266.9c122.9 0 222.5-99.6 222.5-222.5v-16.7z" fill="url(#SVGID_00000147184690668116157750000007523394955101542811_)"/><path d="m489.4 0h-266.9c-6.7 0-13.4.3-19.9.9v511.1h86.9c122.9 0 222.5-99.6 222.5-222.5v-266.9c0-12.5-10.1-22.6-22.6-22.6z" fill="url(#SVGID_00000060005116815203805040000012476522519341596093_)"/><path d="m512 289.5v-266.9c0-12.5-10.1-22.6-22.6-22.6h-34l-455.4 455.4v34c0 12.5 10.1 22.6 22.6 22.6h266.9c122.9 0 222.5-99.6 222.5-222.5z" fill="url(#SVGID_00000182519251662641293910000001193572899902624439_)"/></g><g><path d="m327.8 300.6v-236.7c0-4.4-3.5-7.9-7.9-7.9h-18.9c-2.5 0-4.8 1.2-6.3 3.2l-181.4 243.1c-1 1.4-1.6 3-1.6 4.7v65.7c0 4.4 3.5 7.9 7.9 7.9h128.2v67.5c0 4.4 3.5 7.9 7.9 7.9h64.2c4.4 0 7.9-3.5 7.9-7.9v-67.5h28.4c4.4 0 7.9-3.5 7.9-7.9v-64.2c0-4.4-3.5-7.9-7.9-7.9zm-80 0h-33.4l33.4-44.8z" fill="url(#SVGID_00000158728124826504396460000006921327204336756378_)"/><path d="m214.3 300.6-7.2 9.9c-21.2 29.2-.4 70.1 35.7 70.1h84.9c0-44.2-35.8-80-80-80z" fill="url(#SVGID_00000085237679267680855150000009966206453992663724_)"/><path d="m214.3 300.6-7.2 9.9c-21.2 29.2-.4 70.1 35.7 70.1h84.9c0-44.2-35.8-80-80-80z" fill="url(#SVGID_00000072257790251107957710000002998119018231957426_)"/><path d="m319.9 56h-18.9c-2.5 0-4.8 1.2-6.3 3.2l-181.4 243.1c-1 1.4-1.6 3-1.6 4.7v65.7c0 4.4 3.5 7.9 7.9 7.9h123.2c-36.1 0-56.9-41-35.7-70.1l7.2-9.9 33.4-44.8 32.9-43.5c15.3-20.2 27.1-42.7 35-66.4 8-23.7 12.1-48.7 12.1-74.1v-7.9c.1-4.4-3.5-7.9-7.8-7.9z" fill="url(#SVGID_00000096029359942789264490000016112191287456606887_)"/><path d="m113.3 302.3c-1 1.4-1.6 3-1.6 4.7v65.7c0 4.4 3.5 7.9 7.9 7.9h79.3v-193.1z" fill="url(#SVGID_00000173147712188376432000000003188060959356816789_)"/><path d="m247.8 448.1c0 4.4 3.5 7.9 7.9 7.9h64.2c4.4 0 7.9-3.5 7.9-7.9 0-37.3-30.2-67.5-67.5-67.5h-12.5z" fill="url(#SVGID_00000051350107209970372620000006743058895908192445_)"/><path d="m247.8 448.1c0 4.4 3.5 7.9 7.9 7.9h64.2c4.4 0 7.9-3.5 7.9-7.9 0-37.3-30.2-67.5-67.5-67.5h-12.5z" fill="url(#SVGID_00000067938089679602287340000015071607588404688780_)"/><path d="m356.1 300.6h-28.4v-228.8c0 50.7-16.5 100-47.1 140.5l-32.9 43.5v44.8c22.1 0 42.1 9 56.6 23.4 14.5 14.5 23.4 34.5 23.4 56.6h28.4c4.4 0 7.9-3.5 7.9-7.9v-64.2c0-4.4-3.5-7.9-7.9-7.9z" fill="url(#SVGID_00000062889961976940724370000015236173907189784720_)"/><path d="m356.1 300.6h-28.4v-228.8c0 50.7-16.5 100-47.1 140.5l-32.9 43.5v44.8c22.1 0 42.1 9 56.6 23.4 14.5 14.5 23.4 34.5 23.4 56.6h28.4c4.4 0 7.9-3.5 7.9-7.9v-64.2c0-4.4-3.5-7.9-7.9-7.9z" fill="url(#SVGID_00000048495965701589111940000015371185347957757062_)"/><path d="m319.9 56h-18.9c-2.5 0-4.8 1.2-6.3 3.2l-47.1 63.2h80.3v-58.5c-.1-4.4-3.7-7.9-8-7.9z" fill="url(#SVGID_00000139979875206922350620000006988108419911672210_)"/></g></g></svg>