<svg id="Layer_20" enable-background="new 0 0 512 512" viewBox="0 0 512 512" xmlns="http://www.w3.org/2000/svg" xmlns:xlink="http://www.w3.org/1999/xlink"><linearGradient id="SVGID_1_" gradientTransform="matrix(1 0 0 -1 0 514)" gradientUnits="userSpaceOnUse" x1="123.743" x2="442.931" y1="390.257" y2="71.069"><stop offset="0" stop-color="#26a6fe"/><stop offset=".2923" stop-color="#1e9bfd"/><stop offset=".7984" stop-color="#0a7ffb"/><stop offset="1" stop-color="#0172fb"/></linearGradient><linearGradient id="lg1"><stop offset="0" stop-color="#004281" stop-opacity="0"/><stop offset=".1636" stop-color="#00417f" stop-opacity=".05"/><stop offset=".3707" stop-color="#003f7d" stop-opacity=".194"/><stop offset=".6014" stop-color="#003c78" stop-opacity=".432"/><stop offset=".8472" stop-color="#003871" stop-opacity=".761"/><stop offset="1" stop-color="#00366d"/></linearGradient><linearGradient id="SVGID_00000142155094256443819290000000008484040531601030_" gradientTransform="matrix(1 0 0 -1 0 514)" gradientUnits="userSpaceOnUse" x1="256" x2="256" xlink:href="#lg1" y1="74.406" y2="-2.851"/><linearGradient id="SVGID_00000096769294220826536380000009590983695144215184_" gradientTransform="matrix(1 0 0 -1 0 514)" gradientUnits="userSpaceOnUse" x1="443.059" x2="528.844" xlink:href="#lg1" y1="258" y2="258"/><linearGradient id="SVGID_00000111172024902049688920000006156148909310821254_" gradientTransform="matrix(1 0 0 -1 0 514)" gradientUnits="userSpaceOnUse" x1="380.376" x2="446.673" xlink:href="#lg1" y1="133.624" y2="67.327"/><linearGradient id="SVGID_00000065056408709819156460000012863627398416518065_" gradientTransform="matrix(1 0 0 -1 0 514)" gradientUnits="userSpaceOnUse" x1="256.002" x2="256.002" xlink:href="#lg1" y1="306.792" y2="254.524"/><linearGradient id="SVGID_00000021101022502567583830000009942094237330579126_" gradientTransform="matrix(1 0 0 -1 0 514)" gradientUnits="userSpaceOnUse" x1="266.188" x2="310.849" xlink:href="#lg1" y1="327.466" y2="327.466"/><linearGradient id="SVGID_00000176751388591358886760000008970063614167870350_" gradientTransform="matrix(1 0 0 -1 0 514)" gradientUnits="userSpaceOnUse" x1="152.211" x2="338.128" y1="318.161" y2="199.54"><stop offset="0" stop-color="#fff"/><stop offset="1" stop-color="#fffaf8"/></linearGradient><linearGradient id="lg2"><stop offset="0" stop-color="#d8ecfe" stop-opacity="0"/><stop offset=".1061" stop-color="#d5eafd" stop-opacity=".025"/><stop offset=".2406" stop-color="#cfe5fb" stop-opacity=".095"/><stop offset=".3903" stop-color="#c4def7" stop-opacity=".211"/><stop offset=".5512" stop-color="#b5d4f2" stop-opacity=".374"/><stop offset=".721" stop-color="#a1c6eb" stop-opacity=".583"/><stop offset=".8955" stop-color="#8ab6e4" stop-opacity=".833"/><stop offset="1" stop-color="#7bacdf"/></linearGradient><linearGradient id="SVGID_00000096049435766210375710000009782153429363846844_" gradientTransform="matrix(1 0 0 -1 0 514)" gradientUnits="userSpaceOnUse" x1="242.985" x2="233.005" xlink:href="#lg2" y1="408.326" y2="461.791"/><linearGradient id="SVGID_00000125587322945790585690000006416516255460811702_" gradientTransform="matrix(1 0 0 -1 0 514)" gradientUnits="userSpaceOnUse" x1="186.435" x2="130.118" xlink:href="#lg2" y1="353.734" y2="380.11"/><linearGradient id="SVGID_00000147922380765489154750000014455841269102452625_" gradientTransform="matrix(1 0 0 -1 0 514)" gradientUnits="userSpaceOnUse" x1="319.382" x2="358.827" xlink:href="#lg2" y1="350.405" y2="408.86"/><linearGradient id="SVGID_00000090257788747040271160000013163557831441748881_" gradientTransform="matrix(1 0 0 -1 0 514)" gradientUnits="userSpaceOnUse" x1="174.973" x2="134.34" xlink:href="#lg2" y1="274.142" y2="254.894"/><linearGradient id="SVGID_00000013182638711554923120000014432158053477744004_" gradientTransform="matrix(1 0 0 -1 0 514)" gradientUnits="userSpaceOnUse" x1="237.273" x2="280.046" xlink:href="#lg2" y1="258.665" y2="221.596"/><linearGradient id="SVGID_00000067206592005527421010000007431595803943123352_" gradientTransform="matrix(1 0 0 -1 0 514)" gradientUnits="userSpaceOnUse" x1="265.993" x2="226.707" xlink:href="#lg2" y1="210.11" y2="221.419"/><g><g><path d="m222.5 0h266.9c12.5 0 22.6 10.1 22.6 22.6v266.9c0 122.8-99.7 222.5-222.5 222.5h-266.9c-12.5 0-22.6-10.1-22.6-22.6v-266.9c0-122.8 99.7-222.5 222.5-222.5z" fill="url(#SVGID_1_)"/><path d="m0 272.8v216.6c0 12.5 10.1 22.6 22.6 22.6h266.9c122.9 0 222.5-99.6 222.5-222.5v-16.7z" fill="url(#SVGID_00000142155094256443819290000000008484040531601030_)"/><path d="m489.4 0h-266.9c-6.7 0-13.4.3-19.9.9v511.1h86.9c122.9 0 222.5-99.6 222.5-222.5v-266.9c0-12.5-10.1-22.6-22.6-22.6z" fill="url(#SVGID_00000096769294220826536380000009590983695144215184_)"/><path d="m512 289.5v-266.9c0-12.5-10.1-22.6-22.6-22.6h-34l-455.4 455.4v34c0 12.5 10.1 22.6 22.6 22.6h266.9c122.9 0 222.5-99.6 222.5-222.5z" fill="url(#SVGID_00000111172024902049688920000006156148909310821254_)"/></g><path d="m209.5 197v-20.9c0-25.7 20.9-46.5 46.5-46.5s46.5 20.9 46.5 46.5v20.9c0 25.7-20.9 46.5-46.5 46.5s-46.5-20.8-46.5-46.5z" fill="url(#SVGID_00000065056408709819156460000012863627398416518065_)"/><path d="m209.5 197v-20.9c0-25.7 20.9-46.5 46.5-46.5s46.5 20.9 46.5 46.5v20.9c0 25.7-20.9 46.5-46.5 46.5s-46.5-20.8-46.5-46.5z" fill="url(#SVGID_00000021101022502567583830000009942094237330579126_)"/><g><path d="m377.3 177.3c0-66.9-54.4-121.3-121.3-121.3s-121.3 54.4-121.3 121.3v18.5c0 58.7 41.9 107.7 97.3 118.9-.8 1.7-1.6 3.3-2.4 5-21 45.2-32.2 88.2-33.6 128.1-.2 4.5 3.4 8.2 7.9 8.2h64.3c4.2 0 7.7-3.3 7.9-7.5 3.3-68.1 50-143.3 77.3-180.5 15-20.2 23.9-45.2 23.9-72.2zm-162.6 18.5v-18.5c0-22.8 18.5-41.3 41.3-41.3s41.3 18.5 41.3 41.3v18.5c0 22.8-18.5 41.3-41.3 41.3s-41.3-18.5-41.3-41.3z" fill="url(#SVGID_00000176751388591358886760000008970063614167870350_)"/><path d="m256 56c-66.9 0-121.3 54.4-121.3 121.3v7.6h80v-7.6c0-22.8 18.5-41.3 41.3-41.3s41.3 18.5 41.3 41.3v7.6h80v-7.6c0-66.9-54.4-121.3-121.3-121.3z" fill="url(#SVGID_00000096049435766210375710000009782153429363846844_)"/><path d="m288.7 220.9c-7.6 9.8-19.4 16.2-32.7 16.2-22.8 0-41.3-18.5-41.3-41.3v-18.5c0-7.6 2.1-14.8 5.7-20.9 7.2-12.2 20.4-20.4 35.6-20.4v-80c-59.7 0-109.4 43.3-119.4 100.2-1.2 6.8-1.8 13.9-1.8 21.1v18.5c0 58.4 41.5 107.3 96.7 118.7.2 0 .4.1.7.1 18.3-38.2 41.4-72.9 56.9-94.1-.2.2-.3.3-.4.4z" fill="url(#SVGID_00000125587322945790585690000006416516255460811702_)"/><path d="m377.2 173.7c0-.6 0-1.2-.1-1.8-5-102.2-160.3-101.2-162.4 2.9v.1c1.3-21.7 19.3-38.9 41.3-38.9 22.7 0 41.3 18.5 41.3 41.2v188.1c16.7-39.6 39.9-75.2 56.1-97.4 15-20.2 23.9-45.2 23.9-72.2v-18.5c0-1 0-2 0-3-.1-.1-.1-.3-.1-.5z" fill="url(#SVGID_00000147922380765489154750000014455841269102452625_)"/><path d="m256 237.1c-22.8 0-41.3-18.5-41.3-41.3v-18.5c0-7.7 2.1-14.9 5.8-21.1h-84c-1.2 6.8-1.8 13.9-1.8 21.1v18.5c0 58.7 41.9 107.7 97.3 118.9 18.3-38.2 41.4-72.9 56.9-94.1-7.5 10-19.5 16.5-32.9 16.5z" fill="url(#SVGID_00000090257788747040271160000013163557831441748881_)"/><path d="m256 237.1c-22.8 0-41.3-18.5-41.3-41.3v-18.5c0-7.7 2.1-14.9 5.8-21.1h-84c-1.2 6.8-1.8 13.9-1.8 21.1v18.5c0 58.7 41.9 107.7 97.3 118.9 18.3-38.2 41.4-72.9 56.9-94.1-7.5 10-19.5 16.5-32.9 16.5z" fill="url(#SVGID_00000013182638711554923120000014432158053477744004_)"/><path d="m377.3 177.3v18.5c0 13.5-2.2 26.5-6.3 38.7-4.1 12.1-10.1 23.4-17.6 33.5-27.3 37.2-74 112.4-77.3 180.5-.2 4.2-3.7 7.5-7.9 7.5h-64.2c-4.5 0-8.1-3.7-7.9-8.2 1.4-39.9 12.7-83 33.6-128.1.8-1.7 1.6-3.3 2.4-5 18.3-38.2 41.4-72.9 56.9-94.1 5.2-6.9 8.3-15.5 8.3-24.8v-18.5c0-4.1-.6-8.1-1.7-11.8h81.1c.4 3.8.6 7.8.6 11.8z" fill="url(#SVGID_00000067206592005527421010000007431595803943123352_)"/></g></g></svg>