<svg id="Layer_18" enable-background="new 0 0 512 512" viewBox="0 0 512 512" xmlns="http://www.w3.org/2000/svg" xmlns:xlink="http://www.w3.org/1999/xlink"><linearGradient id="SVGID_1_" gradientTransform="matrix(1 0 0 -1 0 514)" gradientUnits="userSpaceOnUse" x1="123.743" x2="442.931" y1="390.257" y2="71.069"><stop offset="0" stop-color="#fe93bb"/><stop offset="1" stop-color="#fd3581"/></linearGradient><linearGradient id="lg1"><stop offset="0" stop-color="#c00148" stop-opacity="0"/><stop offset=".1067" stop-color="#c00148" stop-opacity=".036"/><stop offset=".2621" stop-color="#c00148" stop-opacity=".138"/><stop offset=".4474" stop-color="#c00148" stop-opacity=".304"/><stop offset=".6556" stop-color="#c00148" stop-opacity=".535"/><stop offset=".8802" stop-color="#c00148" stop-opacity=".828"/><stop offset="1" stop-color="#c00148"/></linearGradient><linearGradient id="SVGID_00000170258528142325665240000009622455278048295555_" gradientTransform="matrix(1 0 0 -1 0 514)" gradientUnits="userSpaceOnUse" x1="256" x2="256" xlink:href="#lg1" y1="74.406" y2="-2.851"/><linearGradient id="SVGID_00000080202631868987788920000003851363650928348860_" gradientTransform="matrix(1 0 0 -1 0 514)" gradientUnits="userSpaceOnUse" x1="443.059" x2="528.844" xlink:href="#lg1" y1="258" y2="258"/><linearGradient id="SVGID_00000099639202577726388930000006880707452584007599_" gradientTransform="matrix(1 0 0 -1 0 514)" gradientUnits="userSpaceOnUse" x1="380.376" x2="446.673" xlink:href="#lg1" y1="133.624" y2="67.327"/><linearGradient id="SVGID_00000092417298956297192020000005060897023486803117_" gradientTransform="matrix(1 0 0 -1 0 514)" gradientUnits="userSpaceOnUse" x1="188.804" x2="327.814" y1="315.041" y2="226.644"><stop offset="0" stop-color="#fff"/><stop offset="1" stop-color="#fffaf8"/></linearGradient><linearGradient id="lg2"><stop offset="0" stop-color="#fe93bb" stop-opacity="0"/><stop offset=".1469" stop-color="#fe93bb" stop-opacity=".014"/><stop offset=".2755" stop-color="#fe93bb" stop-opacity=".056"/><stop offset=".3973" stop-color="#fe93bb" stop-opacity=".127"/><stop offset=".515" stop-color="#fe93bb" stop-opacity=".226"/><stop offset=".6297" stop-color="#fe93bb" stop-opacity=".355"/><stop offset=".7422" stop-color="#fe93bb" stop-opacity=".513"/><stop offset=".8528" stop-color="#fe93bb" stop-opacity=".7"/><stop offset=".9594" stop-color="#fe93bb" stop-opacity=".911"/><stop offset="1" stop-color="#fe93bb"/></linearGradient><linearGradient id="SVGID_00000040539984110954959390000005766965714902731449_" gradientTransform="matrix(1 0 0 -1 0 514)" gradientUnits="userSpaceOnUse" x1="273.984" x2="273.984" xlink:href="#lg2" y1="426.762" y2="458.842"/><linearGradient id="SVGID_00000154400132561144023100000003962425712317137303_" gradientTransform="matrix(1 0 0 -1 0 514)" gradientUnits="userSpaceOnUse" x1="190.469" x2="161.163" xlink:href="#lg2" y1="418" y2="418"/><linearGradient id="SVGID_00000072991949907387321540000018413010685397432246_" gradientTransform="matrix(1 0 0 -1 0 514)" gradientUnits="userSpaceOnUse" x1="204.726" x2="171.811" xlink:href="#lg2" y1="218" y2="218"/><linearGradient id="SVGID_00000134241820039267026850000008689922697073429679_" gradientTransform="matrix(1 0 0 -1 0 514)" gradientUnits="userSpaceOnUse" x1="247.516" x2="204.031" xlink:href="#lg2" y1="214.9" y2="234.86"/><linearGradient id="SVGID_00000045586714009344660500000012694011127505431966_" gradientTransform="matrix(1 0 0 -1 0 514)" gradientUnits="userSpaceOnUse" x1="273.24" x2="279.656" xlink:href="#lg2" y1="325.477" y2="378.23"/><g><g><path d="m222.5 0h266.9c12.5 0 22.6 10.1 22.6 22.6v266.9c0 122.8-99.7 222.5-222.5 222.5h-266.9c-12.5 0-22.6-10.1-22.6-22.6v-266.9c0-122.8 99.7-222.5 222.5-222.5z" fill="url(#SVGID_1_)"/><path d="m0 272.8v216.6c0 12.5 10.1 22.6 22.6 22.6h266.9c122.9 0 222.5-99.6 222.5-222.5v-16.7z" fill="url(#SVGID_00000170258528142325665240000009622455278048295555_)"/><path d="m489.4 0h-266.9c-6.7 0-13.4.3-19.9.9v511.1h86.9c122.9 0 222.5-99.6 222.5-222.5v-266.9c0-12.5-10.1-22.6-22.6-22.6z" fill="url(#SVGID_00000080202631868987788920000003851363650928348860_)"/><path d="m512 289.5v-266.9c0-12.5-10.1-22.6-22.6-22.6h-34l-455.4 455.4v34c0 12.5 10.1 22.6 22.6 22.6h266.9c122.9 0 222.5-99.6 222.5-222.5z" fill="url(#SVGID_00000099639202577726388930000006880707452584007599_)"/></g><g><path d="m243.9 456h-64.2c-4.5 0-8-3.7-7.9-8.1 1.6-61.8 20.6-162.5 56.7-230.4 16.3-30.7 34-58.2 50.4-81.5h-108.2c-4.4 0-7.9-3.5-7.9-7.9v-64.2c0-4.4 3.5-7.9 7.9-7.9h206.5c4.4 0 7.9 3.5 7.9 7.9v51.2c0 9.2-3.2 18.2-9.1 25.4-28.7 35-121.3 143.5-124.2 307.8 0 4.2-3.5 7.7-7.9 7.7z" fill="url(#SVGID_00000092417298956297192020000005060897023486803117_)"/><path d="m379.2 136c3.8-6.3 5.9-13.5 5.9-20.9v-51.2c0-4.4-3.5-7.9-7.9-7.9h-206.5c-4.4 0-7.9 3.5-7.9 7.9v64.2c0 4.4 3.5 7.9 7.9 7.9z" fill="url(#SVGID_00000040539984110954959390000005766965714902731449_)"/><path d="m248.1 56v80h-77.3c-4.4 0-7.9-3.5-7.9-7.9v-64.2c0-4.4 3.5-7.9 7.9-7.9z" fill="url(#SVGID_00000154400132561144023100000003962425712317137303_)"/><path d="m330 201.9c-.1.1-.1.2-.2.3-.2.3-.4.6-.6.9-8.3 12.7-16.8 27-25 42.8-8 15.4-15.8 32.3-22.8 50.5-16.5 43.2-28.6 94.1-29.6 151.9-.1 4.3-3.6 7.8-7.9 7.8h-64.2c-4.5 0-8-3.7-7.9-8.1 1-40.5 9.6-97.8 25.5-151.5v-.1c8.4-28.2 18.7-55.4 31.1-78.7 16.3-30.7 34-58.2 50.4-81.5h15c34-.2 54.4 37.2 36.2 65.7z" fill="url(#SVGID_00000072991949907387321540000018413010685397432246_)"/><path d="m330 201.9c-.1.1-.1.2-.2.3-.2.3-.4.6-.6.9-8.3 12.7-16.8 27-25 42.8-8 15.4-15.8 32.3-22.8 50.5-16.5 43.2-28.6 94.1-29.6 151.9-.1 4.3-3.6 7.8-7.9 7.8h-64.2c-4.5 0-8-3.7-7.9-8.1 1-40.5 9.6-97.8 25.5-151.5v-.1c8.4-28.2 18.7-55.4 31.1-78.7 16.3-30.7 34-58.2 50.4-81.5h15c34-.2 54.4 37.2 36.2 65.7z" fill="url(#SVGID_00000134241820039267026850000008689922697073429679_)"/><path d="m293.9 136h-15c-16.4 23.3-34.1 50.8-50.4 81.5-12.4 23.4-22.8 50.6-31.2 78.9h84.1c14.1-36.8 31.4-68.1 47.8-93.3.2-.3.4-.6.6-.9 18.6-28.5-1.9-66.2-35.9-66.2z" fill="url(#SVGID_00000045586714009344660500000012694011127505431966_)"/></g></g></svg>