<svg id="Layer_17" enable-background="new 0 0 512 512" viewBox="0 0 512 512" xmlns="http://www.w3.org/2000/svg" xmlns:xlink="http://www.w3.org/1999/xlink"><linearGradient id="SVGID_1_" gradientTransform="matrix(1 0 0 -1 0 514)" gradientUnits="userSpaceOnUse" x1="123.743" x2="442.931" y1="390.257" y2="71.069"><stop offset="0" stop-color="#e5caf3"/><stop offset=".1765" stop-color="#dfbff0"/><stop offset=".483" stop-color="#cfa3e9"/><stop offset=".8805" stop-color="#b775dd"/><stop offset="1" stop-color="#af66da"/></linearGradient><linearGradient id="lg1"><stop offset="0" stop-color="#6f3f8a" stop-opacity="0"/><stop offset=".1576" stop-color="#6e3e88" stop-opacity=".047"/><stop offset=".3571" stop-color="#6b3c85" stop-opacity=".183"/><stop offset=".5791" stop-color="#663a81" stop-opacity=".406"/><stop offset=".8159" stop-color="#60367a" stop-opacity=".715"/><stop offset="1" stop-color="#5b3374"/></linearGradient><linearGradient id="SVGID_00000032631630725840368480000015788771285713824414_" gradientTransform="matrix(1 0 0 -1 0 514)" gradientUnits="userSpaceOnUse" x1="256" x2="256" xlink:href="#lg1" y1="74.406" y2="-2.851"/><linearGradient id="SVGID_00000101094802495144888730000009393006584083159453_" gradientTransform="matrix(1 0 0 -1 0 514)" gradientUnits="userSpaceOnUse" x1="443.059" x2="528.844" xlink:href="#lg1" y1="258" y2="258"/><linearGradient id="SVGID_00000090979696328902969430000013788392153077257646_" gradientTransform="matrix(1 0 0 -1 0 514)" gradientUnits="userSpaceOnUse" x1="380.376" x2="446.673" xlink:href="#lg1" y1="133.624" y2="67.327"/><linearGradient id="SVGID_00000181792520337609707460000010964089365879791001_" gradientTransform="matrix(1 0 0 -1 0 514)" gradientUnits="userSpaceOnUse" x1="89.769" x2="336.703" y1="424.288" y2="177.354"><stop offset="0" stop-color="#fff"/><stop offset="1" stop-color="#fffaf8"/></linearGradient><linearGradient id="lg2"><stop offset="0" stop-color="#e5caf3" stop-opacity="0"/><stop offset=".08969158" stop-color="#e5caf3" stop-opacity=".031"/><stop offset=".2244" stop-color="#e5caf3" stop-opacity=".115"/><stop offset=".3873" stop-color="#e5caf3" stop-opacity=".254"/><stop offset=".5724" stop-color="#e5caf3" stop-opacity=".446"/><stop offset=".776" stop-color="#e5caf3" stop-opacity=".693"/><stop offset=".9923" stop-color="#e5caf3" stop-opacity=".989"/><stop offset="1" stop-color="#e5caf3"/></linearGradient><linearGradient id="SVGID_00000016757180892871785960000005730782287291320247_" gradientTransform="matrix(1 0 0 -1 0 514)" gradientUnits="userSpaceOnUse" x1="219.633" x2="186.485" xlink:href="#lg2" y1="396.347" y2="440.188"/><linearGradient id="SVGID_00000016044524425302178870000005802300909944726186_" gradientTransform="matrix(1 0 0 -1 0 514)" gradientUnits="userSpaceOnUse" x1="250.827" x2="261.52" xlink:href="#lg2" y1="408.266" y2="463.87"/><linearGradient id="SVGID_00000176729905713189374410000007672845648007356084_" gradientTransform="matrix(1 0 0 -1 0 514)" gradientUnits="userSpaceOnUse" x1="168.762" x2="131.093" xlink:href="#lg2" y1="257.97" y2="257.97"/><linearGradient id="SVGID_00000152952648548827897340000006381516451627515067_" gradientTransform="matrix(1 0 0 -1 0 514)" gradientUnits="userSpaceOnUse" x1="235.621" x2="280.532" xlink:href="#lg2" y1="362.638" y2="405.41"/><linearGradient id="SVGID_00000136374647419054871800000001914518053293696423_" gradientTransform="matrix(1 0 0 -1 0 514)" gradientUnits="userSpaceOnUse" x1="246.059" x2="214.408" xlink:href="#lg2" y1="249.164" y2="249.164"/><linearGradient id="SVGID_00000155104293461361972440000001729159660936229270_" gradientTransform="matrix(1 0 0 -1 0 514)" gradientUnits="userSpaceOnUse" x1="296" x2="296" xlink:href="#lg2" y1="269.574" y2="322.014"/><linearGradient id="SVGID_00000072992464655566157280000009854617440177020582_" gradientTransform="matrix(1 0 0 -1 0 514)" gradientUnits="userSpaceOnUse" x1="290.952" x2="261.012" xlink:href="#lg2" y1="156.996" y2="103.103"/><g><g><path d="m222.5 0h266.9c12.5 0 22.6 10.1 22.6 22.6v266.9c0 122.8-99.7 222.5-222.5 222.5h-266.9c-12.5 0-22.6-10.1-22.6-22.6v-266.9c0-122.8 99.7-222.5 222.5-222.5z" fill="url(#SVGID_1_)"/><path d="m0 272.8v216.6c0 12.5 10.1 22.6 22.6 22.6h266.9c122.9 0 222.5-99.6 222.5-222.5v-16.7z" fill="url(#SVGID_00000032631630725840368480000015788771285713824414_)"/><path d="m489.4 0h-266.9c-6.7 0-13.4.3-19.9.9v511.1h86.9c122.9 0 222.5-99.6 222.5-222.5v-266.9c0-12.5-10.1-22.6-22.6-22.6z" fill="url(#SVGID_00000101094802495144888730000009393006584083159453_)"/><path d="m512 289.5v-266.9c0-12.5-10.1-22.6-22.6-22.6h-34l-455.4 455.4v34c0 12.5 10.1 22.6 22.6 22.6h266.9c122.9 0 222.5-99.6 222.5-222.5z" fill="url(#SVGID_00000090979696328902969430000013788392153077257646_)"/></g><g><path d="m256 194.9c-14.5 0-28.4 2.6-41.3 7.2v-24.1c0-22.8 18.3-41.9 41.1-42 11.8 0 22.9 4.9 30.7 13.5 2.6 2.9 6.9 3.4 10.2 1.3l54.1-35.2c3.8-2.5 4.8-7.7 2-11.4-22.9-30.4-58.7-48.3-97.2-48.2-67 .2-120.9 55.4-120.9 122.5v156.3c0 66.9 54.4 121.3 121.3 121.3s121.3-54.4 121.3-121.3v-18.5c0-67-54.4-121.4-121.3-121.4zm41.3 139.8c0 22.8-18.5 41.3-41.3 41.3s-41.3-18.5-41.3-41.3v-18.5c0-22.8 18.5-41.3 41.3-41.3s41.3 18.5 41.3 41.3z" fill="url(#SVGID_00000181792520337609707460000010964089365879791001_)"/><path d="m352.8 104.2c-22.9-30.4-58.7-48.3-97.2-48.2-67 .2-120.9 55.4-120.9 122.5v16.5h80v-17c0-22.8 18.3-41.9 41.1-42 11.8 0 22.9 4.9 30.7 13.5 2.6 2.9 6.9 3.4 10.2 1.3l54.1-35.2c3.9-2.5 4.8-7.7 2-11.4z" fill="url(#SVGID_00000016757180892871785960000005730782287291320247_)"/><path d="m352.8 104.2c-22.9-30.4-58.7-48.3-97.2-48.2-67 .2-120.9 55.4-120.9 122.5v16.5h80v-17c0-22.8 18.3-41.9 41.1-42 11.8 0 22.9 4.9 30.7 13.5 2.6 2.9 6.9 3.4 10.2 1.3l54.1-35.2c3.9-2.5 4.8-7.7 2-11.4z" fill="url(#SVGID_00000016044524425302178870000005802300909944726186_)"/><path d="m216.2 166.8v-104c-47.5 16.7-81.5 62.5-81.5 115.7v156.3c0 52.9 34.1 98.1 81.5 114.6v-103.6c-1-3.5-1.5-7.2-1.5-11.1v-18.5c0-3.8.5-7.5 1.5-11.1v-103.5c-.5.2-1 .3-1.5.5v-24.1c0-3.9.6-7.7 1.5-11.2z" fill="url(#SVGID_00000176729905713189374410000007672845648007356084_)"/><path d="m294 152c-2.7.5-5.5-.3-7.4-2.4-7.8-8.6-18.9-13.6-30.7-13.5-22.9.1-41.1 19.1-41.1 42v100.3h-80v-99.8c0-5 .3-10 .9-14.9 11.7-86.1 136.3-90 158.3-11.7z" fill="url(#SVGID_00000152952648548827897340000006381516451627515067_)"/><path d="m256 194.9c-14.5 0-28.4 2.6-41.3 7.2v114c0-22.8 18.5-41.3 41.3-41.3s41.3 18.5 41.3 41.3v18.5h80v-18.5c0-66.8-54.4-121.2-121.3-121.2z" fill="url(#SVGID_00000136374647419054871800000001914518053293696423_)"/><path d="m256 194.9c-14.5 0-28.4 2.6-41.3 7.2v114c0-22.8 18.5-41.3 41.3-41.3s41.3 18.5 41.3 41.3v18.5h80v-18.5c0-66.8-54.4-121.2-121.3-121.2z" fill="url(#SVGID_00000155104293461361972440000001729159660936229270_)"/><path d="m297.3 233.9v100.9c0 22.8-18.5 41.3-41.3 41.3-21.9 0-39.9-17.2-41.2-38.8h-.1c2.1 104.2 157.6 105.1 162.4 2.7 0-.4 0-.8 0-1.1 0-.4 0-.8 0-1.3 0-.9 0-1.9 0-2.8v-18.5c0-31.8-12.3-60.7-32.3-82.3z" fill="url(#SVGID_00000072992464655566157280000009854617440177020582_)"/></g></g></svg>