<svg id="Layer_14" enable-background="new 0 0 512 512" viewBox="0 0 512 512" xmlns="http://www.w3.org/2000/svg" xmlns:xlink="http://www.w3.org/1999/xlink"><linearGradient id="SVGID_1_" gradientTransform="matrix(1 0 0 -1 0 514)" gradientUnits="userSpaceOnUse" x1="123.743" x2="442.931" y1="390.257" y2="71.069"><stop offset="0" stop-color="#f6ab31"/><stop offset=".3013" stop-color="#f7a02d"/><stop offset=".8229" stop-color="#fc8423"/><stop offset="1" stop-color="#ff7920"/></linearGradient><linearGradient id="lg1"><stop offset="0" stop-color="#ef4424" stop-opacity="0"/><stop offset=".1018" stop-color="#ef4424" stop-opacity=".023"/><stop offset=".2307" stop-color="#ef4424" stop-opacity=".089"/><stop offset=".3744" stop-color="#ef4424" stop-opacity=".197"/><stop offset=".5286" stop-color="#ef4424" stop-opacity=".349"/><stop offset=".6915" stop-color="#ef4424" stop-opacity=".544"/><stop offset=".8588" stop-color="#ef4424" stop-opacity=".778"/><stop offset="1" stop-color="#ef4424"/></linearGradient><linearGradient id="SVGID_00000053547135954353165410000010786670252756722358_" gradientTransform="matrix(1 0 0 -1 0 514)" gradientUnits="userSpaceOnUse" x1="256" x2="256" xlink:href="#lg1" y1="74.406" y2="-2.851"/><linearGradient id="SVGID_00000003085599126602187690000012330639280759292546_" gradientTransform="matrix(1 0 0 -1 0 514)" gradientUnits="userSpaceOnUse" x1="443.059" x2="528.844" xlink:href="#lg1" y1="258" y2="258"/><linearGradient id="SVGID_00000078736017085183751570000016211760091985857696_" gradientTransform="matrix(1 0 0 -1 0 514)" gradientUnits="userSpaceOnUse" x1="380.376" x2="446.673" xlink:href="#lg1" y1="133.624" y2="67.327"/><linearGradient id="SVGID_00000116237193611160958600000007609717714402705577_" gradientTransform="matrix(1 0 0 -1 0 514)" gradientUnits="userSpaceOnUse" x1="179.889" x2="373.789" y1="300.785" y2="187.867"><stop offset="0" stop-color="#fff"/><stop offset="1" stop-color="#fffaf8"/></linearGradient><linearGradient id="lg2"><stop offset="0" stop-color="#f6ab31" stop-opacity="0"/><stop offset=".1038" stop-color="#f6ab31" stop-opacity=".021"/><stop offset=".2301" stop-color="#f6ab31" stop-opacity=".082"/><stop offset=".3682" stop-color="#f6ab31" stop-opacity=".182"/><stop offset=".5147" stop-color="#f6ab31" stop-opacity=".322"/><stop offset=".6679" stop-color="#f6ab31" stop-opacity=".502"/><stop offset=".8267" stop-color="#f6ab31" stop-opacity=".723"/><stop offset=".9873" stop-color="#f6ab31" stop-opacity=".978"/><stop offset="1" stop-color="#f6ab31"/></linearGradient><linearGradient id="SVGID_00000101808739596110463140000017279042821246367665_" gradientTransform="matrix(1 0 0 -1 0 514)" gradientUnits="userSpaceOnUse" x1="178.067" x2="140.998" xlink:href="#lg2" y1="114.017" y2="104.75"/><linearGradient id="SVGID_00000183214123927180913510000009500536038616083363_" gradientTransform="matrix(1 0 0 -1 0 514)" gradientUnits="userSpaceOnUse" x1="323.654" x2="364.735" xlink:href="#lg2" y1="347.292" y2="347.292"/><linearGradient id="SVGID_00000076577957252692445000000012719404515811481233_" gradientTransform="matrix(1 0 0 -1 0 514)" gradientUnits="userSpaceOnUse" x1="264.96" x2="233.586" xlink:href="#lg2" y1="347.292" y2="347.292"/><linearGradient id="SVGID_00000097477488058510755350000003341926654146661311_" gradientTransform="matrix(1 0 0 -1 0 514)" gradientUnits="userSpaceOnUse" x1="295.986" x2="245.515" xlink:href="#lg2" y1="369.529" y2="435.113"/><linearGradient id="SVGID_00000120522375569881364750000005033253482883102119_" gradientTransform="matrix(1 0 0 -1 0 514)" gradientUnits="userSpaceOnUse" x1="221.575" x2="160.981" xlink:href="#lg2" y1="405.11" y2="420.793"/><linearGradient id="SVGID_00000015338597816609778360000008132298126728393357_" gradientTransform="matrix(1 0 0 -1 0 514)" gradientUnits="userSpaceOnUse" x1="237.401" x2="221.718" xlink:href="#lg2" y1="415.759" y2="467.799"/><linearGradient id="SVGID_00000179630358667136956560000016967267169850549155_" gradientTransform="matrix(1 0 0 -1 0 514)" gradientUnits="userSpaceOnUse" x1="215.587" x2="207.033" xlink:href="#lg2" y1="166.896" y2="82.207"/><linearGradient id="SVGID_00000126308016006928478360000015183803093462129029_" gradientTransform="matrix(1 0 0 -1 0 514)" gradientUnits="userSpaceOnUse" x1="216.167" x2="216.167" xlink:href="#lg2" y1="146.406" y2="183.103"/><linearGradient id="SVGID_00000040538674995632660820000006879850849673682869_" gradientTransform="matrix(1 0 0 -1 0 514)" gradientUnits="userSpaceOnUse" x1="316.734" x2="316.734" xlink:href="#lg2" y1="221.97" y2="271.164"/><g><g><path d="m222.5 0h266.9c12.5 0 22.6 10.1 22.6 22.6v266.9c0 122.8-99.7 222.5-222.5 222.5h-266.9c-12.5 0-22.6-10.1-22.6-22.6v-266.9c0-122.8 99.7-222.5 222.5-222.5z" fill="url(#SVGID_1_)"/><path d="m0 272.8v216.6c0 12.5 10.1 22.6 22.6 22.6h266.9c122.9 0 222.5-99.6 222.5-222.5v-16.7z" fill="url(#SVGID_00000053547135954353165410000010786670252756722358_)"/><path d="m489.4 0h-266.9c-6.7 0-13.4.3-19.9.9v511.1h86.9c122.9 0 222.5-99.6 222.5-222.5v-266.9c0-12.5-10.1-22.6-22.6-22.6z" fill="url(#SVGID_00000003085599126602187690000012330639280759292546_)"/><path d="m512 289.5v-266.9c0-12.5-10.1-22.6-22.6-22.6h-34l-455.4 455.4v34c0 12.5 10.1 22.6 22.6 22.6h266.9c122.9 0 222.5-99.6 222.5-222.5z" fill="url(#SVGID_00000078736017085183751570000016211760091985857696_)"/></g><g><path d="m340.9 229.7c11-16.3 17.5-36 17.5-57.1v-13.1c0-56.5-45.3-103.2-101.8-103.5-53.8-.3-98.2 41.2-102.6 93.8-.4 4.6 3.3 8.5 7.9 8.5h64.9c3.6 0 6.7-2.5 7.7-5.9 2.7-9.7 11.7-16.7 22.2-16.4 12.2.4 21.7 10.7 21.7 22.8v13.8c0 12.3-10 22.4-22.4 22.4h-16c-4.4 0-7.9 3.5-7.9 7.9v64.1c0 4.4 3.5 7.9 7.9 7.9h16c22.8 0 41.3 18.5 41.3 41.3v17.8c0 22.6-17.9 41.5-40.5 41.9-20.8.4-38.3-14.8-41.5-34.6-.6-3.8-3.9-6.6-7.8-6.6h-64.5c-4.6 0-8.2 3.9-7.9 8.5 4.4 63 57.1 113 121.3 112.8 67-.2 120.9-55.4 120.9-122.4v-17.4c0-33.8-13.9-64.5-36.4-86.5z" fill="url(#SVGID_00000116237193611160958600000007609717714402705577_)"/><path d="m251.4 375.7v80.2c-61.9-2.3-112.1-51.3-116.3-112.7-.3-4.6 3.3-8.5 7.9-8.5h64.6c3.9 0 7.2 2.8 7.8 6.6 2.9 18.2 17.6 32.4 36 34.4z" fill="url(#SVGID_00000101808739596110463140000017279042821246367665_)"/><path d="m358.4 159.5v13.1c0 10.6-1.6 20.8-4.6 30.4s-7.4 18.6-12.9 26.8c-18.4 27.2-49.5 45.2-84.8 45.2h-16.1c-4.4 0-7.9-3.5-7.9-7.9v-64.2c0-4.4 3.5-7.9 7.9-7.9h16c12.3 0 22.4-10 22.4-22.4v-114.1c45.9 10.4 80 52 80 101z" fill="url(#SVGID_00000183214123927180913510000009500536038616083363_)"/><path d="m358.4 159.5v13.1c0 10.6-1.6 20.8-4.6 30.4s-7.4 18.6-12.9 26.8c-18.4 27.2-49.5 45.2-84.8 45.2h-16.1c-4.4 0-7.9-3.5-7.9-7.9v-64.2c0-4.4 3.5-7.9 7.9-7.9h16c12.3 0 22.4-10 22.4-22.4v-114.1c45.9 10.4 80 52 80 101z" fill="url(#SVGID_00000076577957252692445000000012719404515811481233_)"/><path d="m233.8 154.2c.3-.5.5-1.1.7-1.8 2.7-9.7 11.7-16.7 22.2-16.4 12.2.4 21.7 10.7 21.7 22.8v13.8c0 12.1-9.6 21.9-21.5 22.3-.1 0-.1 0-.2 0h99.2c1.6-7.2 2.5-14.7 2.5-22.3v-13.1c0-24.4-8.4-46.9-22.5-64.7-23-25-64.9-22.9-84.7 6.4-10.3 15.2-16.6 33.4-17.4 53z" fill="url(#SVGID_00000097477488058510755350000003341926654146661311_)"/><path d="m256.6 56c-53.8-.3-98.2 41.2-102.6 93.8-.4 4.6 3.3 8.5 7.9 8.5h64.9c3 0 5.6-1.7 6.9-4.2.8-19.6 7.1-37.7 17.4-53 19.8-29.3 61.7-31.4 84.7-6.4-18.6-23.3-47-38.5-79.2-38.7z" fill="url(#SVGID_00000120522375569881364750000005033253482883102119_)"/><path d="m256.6 56c-53.8-.3-98.2 41.2-102.6 93.8-.4 4.6 3.3 8.5 7.9 8.5h64.9c3 0 5.6-1.7 6.9-4.2.8-19.6 7.1-37.7 17.4-53 19.8-29.3 61.7-31.4 84.7-6.4-18.6-23.3-47-38.5-79.2-38.7z" fill="url(#SVGID_00000015338597816609778360000008132298126728393357_)"/><path d="m297.3 337.2s0-.1-.1-.2c-1.5 21.2-18.8 38.5-40.3 38.9-20.8.4-38.3-14.8-41.5-34.6-.6-3.8-3.9-6.6-7.8-6.6h-64.6c-4.4 0-7.9 3.6-7.9 7.9 7.3 99.7 160.1 97.9 162.2-5.4z" fill="url(#SVGID_00000179630358667136956560000016967267169850549155_)"/><path d="m297.3 337.2s0-.1-.1-.2c-1.5 21.2-18.8 38.5-40.3 38.9-20.8.4-38.3-14.8-41.5-34.6-.6-3.8-3.9-6.6-7.8-6.6h-64.6c-4.4 0-7.9 3.6-7.9 7.9 7.3 99.7 160.1 97.9 162.2-5.4z" fill="url(#SVGID_00000126308016006928478360000015183803093462129029_)"/><path d="m377.3 316.2v17.4c0 4.4-.2 8.8-.7 13.1h-81.2c1.3-4 1.9-8.2 1.9-12.6v-17.9c0-22.7-18.4-41.2-41.1-41.3 35.2 0 66.4-18 84.8-45.2 22.4 22 36.3 52.7 36.3 86.5z" fill="url(#SVGID_00000040538674995632660820000006879850849673682869_)"/></g></g></svg>