<svg id="Layer_13" enable-background="new 0 0 512 512" viewBox="0 0 512 512" xmlns="http://www.w3.org/2000/svg" xmlns:xlink="http://www.w3.org/1999/xlink"><linearGradient id="SVGID_1_" gradientTransform="matrix(1 0 0 -1 0 514)" gradientUnits="userSpaceOnUse" x1="123.743" x2="442.931" y1="390.257" y2="71.069"><stop offset="0" stop-color="#fef056"/><stop offset=".1982" stop-color="#fbe94b"/><stop offset=".5425" stop-color="#f4d62f"/><stop offset=".9893" stop-color="#e8b801"/><stop offset="1" stop-color="#e8b800"/></linearGradient><linearGradient id="lg1"><stop offset="0" stop-color="#fec165" stop-opacity="0"/><stop offset=".1133" stop-color="#fcbe63" stop-opacity=".027"/><stop offset=".2569" stop-color="#f8b860" stop-opacity=".106"/><stop offset=".4168" stop-color="#f1ad59" stop-opacity=".236"/><stop offset=".5885" stop-color="#e79e51" stop-opacity=".417"/><stop offset=".7697" stop-color="#da8a46" stop-opacity=".649"/><stop offset=".9562" stop-color="#cb7239" stop-opacity=".929"/><stop offset="1" stop-color="#c86d36"/></linearGradient><linearGradient id="SVGID_00000062171418544087858770000007492013696589479044_" gradientTransform="matrix(1 0 0 -1 0 514)" gradientUnits="userSpaceOnUse" x1="256" x2="256" xlink:href="#lg1" y1="74.406" y2="-2.851"/><linearGradient id="SVGID_00000099626100458567949630000017169825724453511083_" gradientTransform="matrix(1 0 0 -1 0 514)" gradientUnits="userSpaceOnUse" x1="443.059" x2="528.844" xlink:href="#lg1" y1="258" y2="258"/><linearGradient id="SVGID_00000034084967347329086040000014388968514011406760_" gradientTransform="matrix(1 0 0 -1 0 514)" gradientUnits="userSpaceOnUse" x1="380.376" x2="446.673" xlink:href="#lg1" y1="133.624" y2="67.327"/><linearGradient id="SVGID_00000170243464696156971230000000428166152618548891_" gradientTransform="matrix(1 0 0 -1 0 514)" gradientUnits="userSpaceOnUse" x1="203.828" x2="357.808" y1="282.119" y2="106.468"><stop offset="0" stop-color="#fff"/><stop offset="1" stop-color="#fffaf8"/></linearGradient><linearGradient id="lg2"><stop offset="0" stop-color="#fef056" stop-opacity="0"/><stop offset=".099908" stop-color="#fef056" stop-opacity=".021"/><stop offset=".224" stop-color="#fef056" stop-opacity=".081"/><stop offset=".3608" stop-color="#fef056" stop-opacity=".181"/><stop offset=".507" stop-color="#fef056" stop-opacity=".32"/><stop offset=".6605" stop-color="#fef056" stop-opacity=".498"/><stop offset=".8202" stop-color="#fef056" stop-opacity=".717"/><stop offset=".9822" stop-color="#fef056" stop-opacity=".97"/><stop offset="1" stop-color="#fef056"/></linearGradient><linearGradient id="SVGID_00000178186735400124161590000018023818902667711423_" gradientTransform="matrix(1 0 0 -1 0 514)" gradientUnits="userSpaceOnUse" x1="243.093" x2="186.776" xlink:href="#lg2" y1="199.065" y2="238.272"/><linearGradient id="SVGID_00000155113609863920513020000015932190794908378029_" gradientTransform="matrix(1 0 0 -1 0 514)" gradientUnits="userSpaceOnUse" x1="166.069" x2="127.469" xlink:href="#lg2" y1="148.12" y2="148.12"/><linearGradient id="SVGID_00000067955066448146750570000016077621419141769656_" gradientTransform="matrix(1 0 0 -1 0 514)" gradientUnits="userSpaceOnUse" x1="263.934" x2="270.35" xlink:href="#lg2" y1="409.918" y2="469.799"/><linearGradient id="SVGID_00000099653390045898072220000010562614474561979269_" gradientTransform="matrix(1 0 0 -1 0 514)" gradientUnits="userSpaceOnUse" x1="230.233" x2="193.877" xlink:href="#lg2" y1="398.159" y2="455.901"/><linearGradient id="SVGID_00000054958086130935261270000003533530281832281771_" gradientTransform="matrix(1 0 0 -1 0 514)" gradientUnits="userSpaceOnUse" x1="179.137" x2="130.662" xlink:href="#lg2" y1="398.626" y2="407.894"/><linearGradient id="SVGID_00000136370112511651429870000015377630215247240868_" gradientTransform="matrix(1 0 0 -1 0 514)" gradientUnits="userSpaceOnUse" x1="292.953" x2="335.725" xlink:href="#lg2" y1="298.365" y2="361.098"/><linearGradient id="SVGID_00000167372517982164455410000017648798074119802542_" gradientTransform="matrix(1 0 0 -1 0 514)" gradientUnits="userSpaceOnUse" x1="276.035" x2="228.51" xlink:href="#lg2" y1="116.371" y2="136.331"/><linearGradient id="SVGID_00000152227756753770954830000002606221618069398412_" gradientTransform="matrix(1 0 0 -1 0 514)" gradientUnits="userSpaceOnUse" x1="303.674" x2="303.674" xlink:href="#lg2" y1="118.129" y2="140.96"/><g><g><path d="m222.5 0h266.9c12.5 0 22.6 10.1 22.6 22.6v266.9c0 122.8-99.7 222.5-222.5 222.5h-266.9c-12.5 0-22.6-10.1-22.6-22.6v-266.9c0-122.8 99.7-222.5 222.5-222.5z" fill="url(#SVGID_1_)"/><path d="m0 272.8v216.6c0 12.5 10.1 22.6 22.6 22.6h266.9c122.9 0 222.5-99.6 222.5-222.5v-16.7z" fill="url(#SVGID_00000062171418544087858770000007492013696589479044_)"/><path d="m489.4 0h-266.9c-6.7 0-13.4.3-19.9.9v511.1h86.9c122.9 0 222.5-99.6 222.5-222.5v-266.9c0-12.5-10.1-22.6-22.6-22.6z" fill="url(#SVGID_00000099626100458567949630000017169825724453511083_)"/><path d="m512 289.5v-266.9c0-12.5-10.1-22.6-22.6-22.6h-34l-455.4 455.4v34c0 12.5 10.1 22.6 22.6 22.6h266.9c122.9 0 222.5-99.6 222.5-222.5z" fill="url(#SVGID_00000034084967347329086040000014388968514011406760_)"/></g><g><path d="m369.4 456h-226.8c-4.4 0-7.9-3.5-7.9-7.9v-32.1c0-30.1 12.4-59.4 33.9-80.4l104.9-102.1c14.5-14.1 23-33.5 23.7-53.6.8-23.7-17.7-43.9-41.4-43.8-20.4.1-37.4 15-40.6 34.6-.6 3.8-3.9 6.7-7.8 6.7h-64.6c-4.6 0-8.2-3.9-7.9-8.5 4.5-63 57.1-112.9 121.1-112.9 66.9 0 121.3 54.4 121.3 121.3 0 42.5-17.5 83.8-47.9 113.5l-87.6 85.2h127.5c4.4 0 7.9 3.5 7.9 7.9v64.2c.1 4.4-3.5 7.9-7.8 7.9z" fill="url(#SVGID_00000170243464696156971230000000428166152618548891_)"/><path d="m352.8 259c-1 3.2-1.9 5.7-2.8 7v.1c-6 8.9-12.9 17.1-20.6 24.6l-23.8 23.2-63.8 62.1v80h-99.2c-4.4 0-7.9-3.5-7.9-7.9v-32.1c0-30.1 12.4-59.4 33.9-80.4l22.2-21.7 82.6-80.5c14.5-14.1 23-33.5 23.7-53.6.9-23.6-17.5-43.8-41.1-43.8h5.6c64 0 110.1 61.9 91.2 123z" fill="url(#SVGID_00000178186735400124161590000018023818902667711423_)"/><path d="m230.1 275.8v180.2h-87.5c-4.4 0-7.9-3.5-7.9-7.9v-32.1c0-30.1 12.4-59.4 33.9-80.4l22.2-21.7z" fill="url(#SVGID_00000155113609863920513020000015932190794908378029_)"/><path d="m352.8 259c18.9-61.1-27.2-123-91.2-123h-5.8c-20.4.1-37.4 15-40.6 34.6-.6 3.8-3.9 6.7-7.8 6.7h-64.6c-4.6 0-8.2-3.9-7.9-8.5 4.5-62.9 57.1-112.8 121.1-112.8 66.9 0 121.3 54.4 121.3 121.3 0 31.7-9.7 62.7-27.3 88.8.8-1.4 1.8-3.9 2.8-7.1z" fill="url(#SVGID_00000067955066448146750570000016077621419141769656_)"/><path d="m352.8 259c18.9-61.1-27.2-123-91.2-123h-5.8c-20.4.1-37.4 15-40.6 34.6-.6 3.8-3.9 6.7-7.8 6.7h-64.6c-4.6 0-8.2-3.9-7.9-8.5 4.5-62.9 57.1-112.8 121.1-112.8 66.9 0 121.3 54.4 121.3 121.3 0 31.7-9.7 62.7-27.3 88.8.8-1.4 1.8-3.9 2.8-7.1z" fill="url(#SVGID_00000099653390045898072220000010562614474561979269_)"/><path d="m142.9 177.3h64.6c3.9 0 7.2-2.8 7.8-6.7 2.1-13 10.4-24.1 21.8-29.9v-83.2c-55.2 8.7-98.1 54.7-102 111.3-.4 4.6 3.2 8.5 7.8 8.5z" fill="url(#SVGID_00000054958086130935261270000003533530281832281771_)"/><path d="m297.2 179.8c-.7 20.1-9.2 39.6-23.7 53.6l-82.6 80.5h114.7l23.8-23.2c7.6-7.4 14.5-15.6 20.4-24.4.9-1.3 1.9-3.9 3-7.4 18.9-61.1-27.2-123-91.1-123h-5.8c23.6 0 42.1 20.2 41.3 43.9z" fill="url(#SVGID_00000136370112511651429870000015377630215247240868_)"/><path d="m377.3 448.1v-64.2c0-4.4-3.5-7.9-7.9-7.9h-127.6c-26.9 31.5-4.6 80 36.8 80h90.7c4.4 0 8-3.5 8-7.9z" fill="url(#SVGID_00000167372517982164455410000017648798074119802542_)"/><path d="m377.3 448.1v-64.2c0-4.4-3.5-7.9-7.9-7.9h-127.6c-26.9 31.5-4.6 80 36.8 80h90.7c4.4 0 8-3.5 8-7.9z" fill="url(#SVGID_00000152227756753770954830000002606221618069398412_)"/></g></g></svg>