<svg id="Layer_11" enable-background="new 0 0 512 512" viewBox="0 0 512 512" xmlns="http://www.w3.org/2000/svg" xmlns:xlink="http://www.w3.org/1999/xlink"><linearGradient id="lg1"><stop offset="0" stop-color="#99e6fc"/><stop offset=".1325" stop-color="#8ee1fb"/><stop offset=".3627" stop-color="#71d5f9"/><stop offset=".6631" stop-color="#43c2f5"/><stop offset="1" stop-color="#08a9f1"/></linearGradient><linearGradient id="SVGID_1_" gradientTransform="matrix(1 0 0 -1 0 514)" gradientUnits="userSpaceOnUse" x1="123.743" x2="442.931" xlink:href="#lg1" y1="390.257" y2="71.069"/><linearGradient id="lg2"><stop offset="0" stop-color="#017bae" stop-opacity="0"/><stop offset=".1233" stop-color="#017bae" stop-opacity=".032"/><stop offset=".2794" stop-color="#017bae" stop-opacity=".122"/><stop offset=".4533" stop-color="#017bae" stop-opacity=".271"/><stop offset=".6401" stop-color="#017bae" stop-opacity=".479"/><stop offset=".835" stop-color="#017bae" stop-opacity=".742"/><stop offset="1" stop-color="#017bae"/></linearGradient><linearGradient id="SVGID_00000093880293215917635670000013963207461709474224_" gradientTransform="matrix(1 0 0 -1 0 514)" gradientUnits="userSpaceOnUse" x1="256" x2="256" xlink:href="#lg2" y1="74.406" y2="-2.851"/><linearGradient id="SVGID_00000146488110485464462050000001775434005379398837_" gradientTransform="matrix(1 0 0 -1 0 514)" gradientUnits="userSpaceOnUse" x1="443.059" x2="528.844" xlink:href="#lg2" y1="258" y2="258"/><linearGradient id="SVGID_00000142889480387488801310000010411363499622056615_" gradientTransform="matrix(1 0 0 -1 0 514)" gradientUnits="userSpaceOnUse" x1="380.376" x2="446.673" xlink:href="#lg2" y1="133.624" y2="67.327"/><linearGradient id="SVGID_00000133488468688500887830000000167494379569706913_" gradientTransform="matrix(1 0 0 -1 0 514)" gradientUnits="userSpaceOnUse" x1="187.663" x2="360.202" y1="326.339" y2="153.8"><stop offset="0" stop-color="#fff"/><stop offset="1" stop-color="#fffaf8"/></linearGradient><linearGradient id="lg3"><stop offset="0" stop-color="#d8ecfe" stop-opacity="0"/><stop offset=".1061" stop-color="#d5eafd" stop-opacity=".025"/><stop offset=".2406" stop-color="#cfe5fb" stop-opacity=".095"/><stop offset=".3903" stop-color="#c4def7" stop-opacity=".211"/><stop offset=".5512" stop-color="#b5d4f2" stop-opacity=".374"/><stop offset=".721" stop-color="#a1c6eb" stop-opacity=".583"/><stop offset=".8955" stop-color="#8ab6e4" stop-opacity=".833"/><stop offset="1" stop-color="#7bacdf"/></linearGradient><linearGradient id="SVGID_00000176735166018952520010000011607198219304235199_" gradientTransform="matrix(-1 0 0 1 414.004 -280)" gradientUnits="userSpaceOnUse" x1="246.026" x2="281.515" xlink:href="#lg3" y1="536" y2="536"/><linearGradient id="SVGID_00000091016728351222365110000003516085246446496401_" gradientTransform="matrix(-1 0 0 1 414.004 -280)" gradientUnits="userSpaceOnUse" x1="197.246" x2="151.908" xlink:href="#lg3" y1="628.313" y2="707.014"/><linearGradient id="SVGID_00000078018625362103231280000014362124090362588600_" gradientTransform="matrix(1 0 0 -1 -1854.054 686.402)" gradientUnits="userSpaceOnUse" x1="2149.296" x2="2103.957" xlink:href="#lg3" y1="522.718" y2="601.419"/><linearGradient id="SVGID_00000142886156083174894750000014333256374866120112_" gradientTransform="matrix(-1 0 0 1 414.004 -280)" gradientUnits="userSpaceOnUse" x1="156.211" x2="155.356" xlink:href="#lg3" y1="380.134" y2="334.796"/><linearGradient id="SVGID_00000029043156065613860270000000835566273351915684_" gradientTransform="matrix(1 0 0 -1 0 514)" gradientUnits="userSpaceOnUse" x1="218.151" x2="163.26" xlink:href="#lg3" y1="380.751" y2="434.216"/><linearGradient id="SVGID_00000155839853880919504910000010058391927523301276_" gradientTransform="matrix(1 0 0 -1 0 514)" gradientUnits="userSpaceOnUse" x1="123.742" x2="442.931" xlink:href="#lg1" y1="390.258" y2="71.069"/><linearGradient id="SVGID_00000124863499604172073220000017858385752217895604_" gradientTransform="matrix(1 0 0 -1 0 514)" gradientUnits="userSpaceOnUse" x1="268.405" x2="310.143" xlink:href="#lg2" y1="258" y2="258"/><linearGradient id="SVGID_00000159439332182367941940000007648118333892429187_" gradientTransform="matrix(1 0 0 -1 0 514)" gradientUnits="userSpaceOnUse" x1="255.999" x2="255.999" xlink:href="#lg2" y1="172.069" y2="127.068"/><g><g><path d="m222.5 0h266.9c12.5 0 22.6 10.1 22.6 22.6v266.9c0 122.8-99.7 222.5-222.5 222.5h-266.9c-12.5 0-22.6-10.1-22.6-22.6v-266.9c0-122.8 99.7-222.5 222.5-222.5z" fill="url(#SVGID_1_)"/><path d="m0 272.8v216.6c0 12.5 10.1 22.6 22.6 22.6h266.9c122.9 0 222.5-99.6 222.5-222.5v-16.7z" fill="url(#SVGID_00000093880293215917635670000013963207461709474224_)"/><path d="m489.4 0h-266.9c-6.7 0-13.4.3-19.9.9v511.1h86.9c122.9 0 222.5-99.6 222.5-222.5v-266.9c0-12.5-10.1-22.6-22.6-22.6z" fill="url(#SVGID_00000146488110485464462050000001775434005379398837_)"/><path d="m512 289.5v-266.9c0-12.5-10.1-22.6-22.6-22.6h-34l-455.4 455.4v34c0 12.5 10.1 22.6 22.6 22.6h266.9c122.9 0 222.5-99.6 222.5-222.5z" fill="url(#SVGID_00000142889480387488801310000010411363499622056615_)"/></g><g><path d="m256 56c66.9 0 121.3 54.4 121.3 121.3v157.5c0 66.9-54.4 121.3-121.3 121.3s-121.3-54.4-121.3-121.3v-157.5c0-66.9 54.4-121.3 121.3-121.3z" fill="url(#SVGID_00000133488468688500887830000000167494379569706913_)"/><path d="m256 456c6 0 11.9-.4 17.6-1.3v-82.7c-5.3 2.5-11.3 4-17.6 4-22.8 0-41.3-18.5-41.3-41.3v-157.4c0-22.8 18.5-41.3 41.3-41.3 6.3 0 12.3 1.4 17.6 4v-82.7c-5.7-.9-11.6-1.3-17.6-1.3-66.9 0-121.3 54.4-121.3 121.3v157.5c0 66.8 54.4 121.2 121.3 121.2z" fill="url(#SVGID_00000176735166018952520010000011607198219304235199_)"/><path d="m297.2 337.2c0-.8 0-1.6 0-2.5l-82.5-100.9h-80v100.9 2.5c2.2 105.1 160.4 105.1 162.5 0z" fill="url(#SVGID_00000091016728351222365110000003516085246446496401_)"/><path d="m214.8 174.8v2.5l82.5 100.9h80v-100.9c0-.8 0-1.6 0-2.5-2.2-105.1-160.4-105.1-162.5 0z" fill="url(#SVGID_00000078018625362103231280000014362124090362588600_)"/><path d="m377.3 214.1v-36.8c0-66.9-54.4-121.3-121.3-121.3s-121.3 54.4-121.3 121.3v36.8z" fill="url(#SVGID_00000142886156083174894750000014333256374866120112_)"/><path d="m377.3 214.1v-36.8c0-66.9-54.4-121.3-121.3-121.3s-121.3 54.4-121.3 121.3v36.8z" fill="url(#SVGID_00000029043156065613860270000000835566273351915684_)"/></g><g><path d="m256 136c-22.8 0-41.3 18.5-41.3 41.3v157.5c0 22.8 18.5 41.3 41.3 41.3s41.3-18.5 41.3-41.3v-157.5c0-22.8-18.5-41.3-41.3-41.3z" fill="url(#SVGID_00000155839853880919504910000010058391927523301276_)"/><g><path d="m256 136c-22.8 0-41.3 18.5-41.3 41.3v157.5c0 22.8 18.5 41.3 41.3 41.3s41.3-18.5 41.3-41.3v-157.5c0-22.8-18.5-41.3-41.3-41.3z" fill="url(#SVGID_00000124863499604172073220000017858385752217895604_)"/><path d="m297.3 261.4v73.4c0 22.8-18.5 41.3-41.3 41.3s-41.3-18.5-41.3-41.3v-73.4z" fill="url(#SVGID_00000159439332182367941940000007648118333892429187_)"/></g></g></g></svg>